G04 #@! TF.GenerationSoftware,KiCad,Pcbnew,9.0.0*
G04 #@! TF.CreationDate,2025-12-22T10:36:45+02:00*
G04 #@! TF.ProjectId,stm32wl5_karavakia,73746d33-3277-46c3-955f-6b6172617661,rev?*
G04 #@! TF.SameCoordinates,Original*
G04 #@! TF.FileFunction,Copper,L2,Inr*
G04 #@! TF.FilePolarity,Positive*
%FSLAX46Y46*%
G04 Gerber Fmt 4.6, Leading zero omitted, Abs format (unit mm)*
G04 Created by KiCad (PCBNEW 9.0.0) date 2025-12-22 10:36:45*
%MOMM*%
%LPD*%
G01*
G04 APERTURE LIST*
G04 #@! TA.AperFunction,ComponentPad*
%ADD10C,2.209800*%
G04 #@! TD*
G04 #@! TA.AperFunction,ComponentPad*
%ADD11R,1.508000X1.508000*%
G04 #@! TD*
G04 #@! TA.AperFunction,ComponentPad*
%ADD12C,1.508000*%
G04 #@! TD*
G04 #@! TA.AperFunction,ComponentPad*
%ADD13C,0.800000*%
G04 #@! TD*
G04 #@! TA.AperFunction,ComponentPad*
%ADD14C,6.400000*%
G04 #@! TD*
G04 #@! TA.AperFunction,ComponentPad*
%ADD15R,1.950000X1.950000*%
G04 #@! TD*
G04 #@! TA.AperFunction,ComponentPad*
%ADD16C,1.950000*%
G04 #@! TD*
G04 #@! TA.AperFunction,ViaPad*
%ADD17C,0.450000*%
G04 #@! TD*
G04 #@! TA.AperFunction,ViaPad*
%ADD18C,0.685800*%
G04 #@! TD*
G04 #@! TA.AperFunction,ViaPad*
%ADD19C,0.889000*%
G04 #@! TD*
G04 APERTURE END LIST*
D10*
X190890000Y-107980000D03*
X193430000Y-105440000D03*
X188350000Y-105440000D03*
X188350000Y-110520000D03*
X193430000Y-110520000D03*
D11*
X127300000Y-87400000D03*
D12*
X124800000Y-87400000D03*
X122300000Y-87400000D03*
X119800000Y-87400000D03*
D11*
X143550000Y-87425000D03*
D12*
X141050000Y-87425000D03*
X138550000Y-87425000D03*
X136050000Y-87425000D03*
D13*
X107860400Y-79789200D03*
X108563344Y-78092144D03*
X108563344Y-81486256D03*
X110260400Y-77389200D03*
D14*
X110260400Y-79789200D03*
D13*
X110260400Y-82189200D03*
X111957456Y-78092144D03*
X111957456Y-81486256D03*
X112660400Y-79789200D03*
X188110400Y-120289200D03*
X188813344Y-118592144D03*
X188813344Y-121986256D03*
X190510400Y-117889200D03*
D14*
X190510400Y-120289200D03*
D13*
X190510400Y-122689200D03*
X192207456Y-118592144D03*
X192207456Y-121986256D03*
X192910400Y-120289200D03*
D11*
X148250000Y-104325000D03*
D12*
X150750000Y-104325000D03*
X153250000Y-104325000D03*
X155750000Y-104325000D03*
D13*
X107913344Y-120236256D03*
X108616288Y-118539200D03*
X108616288Y-121933312D03*
X110313344Y-117836256D03*
D14*
X110313344Y-120236256D03*
D13*
X110313344Y-122636256D03*
X112010400Y-118539200D03*
X112010400Y-121933312D03*
X112713344Y-120236256D03*
D15*
X112639800Y-106455600D03*
D16*
X112639800Y-111455600D03*
D11*
X159987500Y-87325000D03*
D12*
X157487500Y-87325000D03*
X154987500Y-87325000D03*
X152487500Y-87325000D03*
D13*
X188110000Y-79840000D03*
X188812944Y-78142944D03*
X188812944Y-81537056D03*
X190510000Y-77440000D03*
D14*
X190510000Y-79840000D03*
D13*
X190510000Y-82240000D03*
X192207056Y-78142944D03*
X192207056Y-81537056D03*
X192910000Y-79840000D03*
D11*
X131725000Y-104400000D03*
D12*
X134225000Y-104400000D03*
X136725000Y-104400000D03*
X139225000Y-104400000D03*
D17*
X180650000Y-99750000D03*
X178887170Y-102315400D03*
D18*
X179634200Y-107536000D03*
X178857863Y-104526091D03*
D17*
X183580000Y-110530000D03*
X185590000Y-112410000D03*
D18*
X122080000Y-106570000D03*
X190640000Y-100840000D03*
D17*
X186250000Y-106380000D03*
D18*
X126840000Y-97200000D03*
X117750000Y-96750000D03*
X175480000Y-91640000D03*
D17*
X188450000Y-92220000D03*
D18*
X113180000Y-91010000D03*
X153030000Y-93170000D03*
X155440000Y-97840000D03*
X162420000Y-91810000D03*
X128280000Y-97330000D03*
X117570000Y-112680000D03*
X126170000Y-96100000D03*
X175537197Y-99803100D03*
D17*
X182340000Y-94350000D03*
X193220000Y-102350000D03*
D18*
X126990000Y-94930000D03*
D17*
X182450000Y-112200000D03*
X181670000Y-107900000D03*
X186050000Y-109320000D03*
D18*
X177870000Y-105134800D03*
D17*
X193870000Y-112500000D03*
D18*
X123430000Y-106550000D03*
D17*
X111210000Y-111490000D03*
X120550300Y-101259700D03*
D18*
X124730000Y-95970000D03*
X124000000Y-95000000D03*
X121445702Y-104000000D03*
D17*
X185157400Y-96190000D03*
X182210000Y-91840000D03*
X187250000Y-107000000D03*
D18*
X121445702Y-104750000D03*
X124470000Y-105020000D03*
D17*
X193750000Y-107250000D03*
D18*
X161310000Y-94520000D03*
D17*
X184070000Y-108590000D03*
X187410000Y-95660000D03*
D18*
X161370000Y-96170000D03*
D17*
X184870000Y-102910000D03*
X119200000Y-102710000D03*
D18*
X118970000Y-109370000D03*
X113180000Y-94180000D03*
X114590000Y-93240000D03*
D17*
X189210000Y-103050000D03*
X185590000Y-110930000D03*
D18*
X153850000Y-98060000D03*
D17*
X184220000Y-106420000D03*
D18*
X128300000Y-99050000D03*
D17*
X185650000Y-107170000D03*
D18*
X166160000Y-90520000D03*
D17*
X194250000Y-103750000D03*
X186660000Y-109900000D03*
X185180000Y-106460000D03*
X190561430Y-97850000D03*
D18*
X113180000Y-92660000D03*
D17*
X119200000Y-99260000D03*
X186100000Y-111640000D03*
X186680000Y-110950000D03*
D18*
X118400625Y-96900625D03*
D17*
X119200000Y-99800000D03*
X184530000Y-109290000D03*
D18*
X187510400Y-87039200D03*
X169320000Y-90520000D03*
X118940000Y-110460000D03*
D17*
X179804000Y-91801408D03*
X191750000Y-110750000D03*
D18*
X157530000Y-91810000D03*
D17*
X171300000Y-96930000D03*
X178490000Y-96790000D03*
D18*
X127600000Y-98210000D03*
X115850000Y-94230000D03*
D17*
X182490000Y-110510000D03*
D18*
X162440000Y-93340000D03*
D17*
X188130000Y-103040000D03*
D18*
X113200000Y-95590000D03*
X124750000Y-106620000D03*
D17*
X194000000Y-108750000D03*
D18*
X179634200Y-106736000D03*
D17*
X182373705Y-93016295D03*
D18*
X188215098Y-101500000D03*
D17*
X111750000Y-110250000D03*
D18*
X119000000Y-113310000D03*
X109360000Y-101170000D03*
D17*
X187250000Y-104000000D03*
D18*
X109340000Y-99430000D03*
X109320000Y-97820000D03*
X115220000Y-103170000D03*
X179585400Y-105120000D03*
X125500000Y-95000000D03*
X125610000Y-104350000D03*
D17*
X185157400Y-97520000D03*
X179650000Y-99250000D03*
D18*
X117610000Y-113920000D03*
D19*
X150750000Y-103075000D03*
D17*
X186680000Y-112430000D03*
X111750000Y-112750000D03*
D18*
X160480000Y-109920000D03*
D17*
X113250000Y-110000000D03*
D18*
X122780000Y-107820000D03*
D17*
X181365800Y-96320000D03*
D18*
X113480000Y-103070000D03*
D17*
X183930000Y-107170000D03*
D18*
X189579091Y-95147584D03*
X110380000Y-98948900D03*
X124720000Y-97230000D03*
D17*
X184510000Y-110920000D03*
D18*
X115870000Y-95640000D03*
X161270000Y-93100000D03*
D17*
X180239100Y-103940900D03*
X192585000Y-103080000D03*
D18*
X110380000Y-97298900D03*
D17*
X187500000Y-109000000D03*
X114000000Y-112250000D03*
D18*
X186242241Y-99793685D03*
X152570000Y-94600000D03*
X152180000Y-97840000D03*
X114610000Y-94980000D03*
X173640000Y-105830000D03*
X110380000Y-100468900D03*
D17*
X192130000Y-102330000D03*
X187080000Y-103050000D03*
D18*
X120712900Y-100566900D03*
X114570000Y-91630000D03*
D17*
X191750000Y-104750000D03*
X119180000Y-101040000D03*
X185280000Y-108680000D03*
D18*
X124200000Y-107910000D03*
D17*
X180360000Y-110510000D03*
X191505000Y-103070000D03*
X181370000Y-112190000D03*
X181414503Y-106184816D03*
D18*
X121040000Y-107860000D03*
D17*
X182624503Y-106054816D03*
D18*
X179634200Y-105936000D03*
X124470000Y-103520000D03*
X117650000Y-110520000D03*
X127620000Y-96120000D03*
X125620000Y-107890000D03*
D17*
X184510000Y-112400000D03*
X193675000Y-103100000D03*
X181774503Y-106654816D03*
X182300000Y-109400000D03*
X114250000Y-111000000D03*
X113000000Y-113000000D03*
X181140000Y-100760000D03*
D18*
X162900000Y-97159200D03*
X190440400Y-100249200D03*
X126500000Y-98990000D03*
D17*
X183540000Y-112220000D03*
D18*
X128290000Y-94980000D03*
D17*
X180320000Y-112200000D03*
X180850000Y-111290000D03*
D18*
X125610000Y-106060000D03*
X154550000Y-92830000D03*
D17*
X181980000Y-111380000D03*
X179250000Y-94020000D03*
X187250000Y-112000000D03*
X180590000Y-107890000D03*
D18*
X125640000Y-98289200D03*
D17*
X184020000Y-109850000D03*
D18*
X117650000Y-109020000D03*
D17*
X190250000Y-105060000D03*
X188006911Y-89470302D03*
D18*
X111720000Y-103070000D03*
X162775000Y-95250000D03*
D19*
X134225000Y-103000000D03*
D17*
X183000000Y-111360000D03*
D18*
X160460000Y-106780000D03*
X110400000Y-101878900D03*
X156080000Y-91770000D03*
D17*
X181410000Y-110500000D03*
D18*
X119330000Y-107800000D03*
X154400000Y-94270000D03*
X155990000Y-93220000D03*
D17*
X184730000Y-101040000D03*
X186550000Y-107190000D03*
X190300000Y-103070000D03*
D18*
X163500000Y-90520000D03*
D17*
X190000000Y-111000000D03*
D18*
X176340000Y-87980000D03*
X115850000Y-92710000D03*
X179634200Y-108336000D03*
X117172370Y-100536401D03*
X117750000Y-105250000D03*
D17*
X182414503Y-106594816D03*
X184903593Y-93846201D03*
X185020000Y-111630000D03*
X185230000Y-109940000D03*
X186710000Y-108640000D03*
D18*
X162637500Y-94537500D03*
D17*
X184750000Y-107200000D03*
D18*
X115850000Y-91060000D03*
X118120000Y-107760000D03*
D17*
X177636970Y-94084766D03*
X179150000Y-97750000D03*
X175370257Y-97751108D03*
X181650000Y-99750000D03*
X182645200Y-96760000D03*
D18*
X163025000Y-85450000D03*
X179284498Y-92765000D03*
D17*
X179648000Y-97133800D03*
D18*
X178471912Y-92783773D03*
X163950000Y-89200000D03*
X142100000Y-101275000D03*
D17*
X179650000Y-98250000D03*
X180145200Y-100242000D03*
X163200000Y-100400000D03*
X179150000Y-100750000D03*
X162200000Y-101225000D03*
X177790000Y-97160000D03*
X175240000Y-97189000D03*
X183375000Y-97675000D03*
X183688986Y-94480000D03*
X182150000Y-97750000D03*
D18*
X175300000Y-90706800D03*
D17*
X120674980Y-99873033D03*
X121761882Y-98804485D03*
X177525000Y-94650800D03*
D18*
X175102500Y-94587500D03*
D17*
X181204410Y-94597000D03*
X180953388Y-92950797D03*
D18*
X148887500Y-99587500D03*
D17*
X178350000Y-101913615D03*
X166150000Y-102121000D03*
X177840000Y-98223000D03*
X173870000Y-96697998D03*
D18*
X118280000Y-99220000D03*
X187464978Y-94967275D03*
D17*
X189990000Y-97930000D03*
X182367002Y-95420000D03*
X188408891Y-92795536D03*
X182145200Y-100742000D03*
D18*
X176470000Y-99803100D03*
X184376669Y-94660314D03*
X119400000Y-98010000D03*
X178924200Y-103716000D03*
X177460000Y-99835300D03*
X175030000Y-88040000D03*
X119780000Y-94480000D03*
D17*
X180520000Y-95500000D03*
D18*
X167850000Y-90125000D03*
X188770000Y-95070000D03*
X188480000Y-97190000D03*
X174447578Y-105737997D03*
D17*
X186250000Y-93970000D03*
X171850000Y-101679000D03*
X180340000Y-93080000D03*
X185480000Y-93820000D03*
X179930000Y-96100000D03*
X185157400Y-95580000D03*
X183330000Y-99060000D03*
X182367002Y-94927003D03*
D18*
X165550000Y-86025000D03*
X164790000Y-91350000D03*
D19*
X158925000Y-91175000D03*
D17*
X178784200Y-103056000D03*
X177578969Y-95225273D03*
X187430000Y-89460000D03*
D18*
X157000000Y-97425000D03*
G04 #@! TA.AperFunction,Conductor*
G36*
X192063872Y-75789895D02*
G01*
X192355706Y-75806284D01*
X192369503Y-75807838D01*
X192654227Y-75856215D01*
X192667784Y-75859309D01*
X192945299Y-75939260D01*
X192958425Y-75943853D01*
X193225241Y-76054372D01*
X193237755Y-76060398D01*
X193437941Y-76171036D01*
X193490525Y-76200099D01*
X193502299Y-76207497D01*
X193737830Y-76374615D01*
X193748702Y-76383285D01*
X193964042Y-76575724D01*
X193973875Y-76585557D01*
X194166314Y-76800897D01*
X194174984Y-76811769D01*
X194342102Y-77047300D01*
X194349500Y-77059074D01*
X194489197Y-77311837D01*
X194495230Y-77324365D01*
X194605746Y-77591175D01*
X194610339Y-77604300D01*
X194690290Y-77881815D01*
X194693384Y-77895372D01*
X194741759Y-78180085D01*
X194743316Y-78193903D01*
X194759705Y-78485727D01*
X194759900Y-78492680D01*
X194759900Y-122085719D01*
X194759705Y-122092672D01*
X194743316Y-122384496D01*
X194741759Y-122398314D01*
X194693384Y-122683027D01*
X194690290Y-122696584D01*
X194610339Y-122974099D01*
X194605746Y-122987224D01*
X194495230Y-123254034D01*
X194489197Y-123266562D01*
X194349500Y-123519325D01*
X194342102Y-123531099D01*
X194174984Y-123766630D01*
X194166314Y-123777502D01*
X193973875Y-123992842D01*
X193964042Y-124002675D01*
X193748702Y-124195114D01*
X193737830Y-124203784D01*
X193502299Y-124370902D01*
X193490525Y-124378300D01*
X193237762Y-124517997D01*
X193225234Y-124524030D01*
X192958424Y-124634546D01*
X192945299Y-124639139D01*
X192667784Y-124719090D01*
X192654227Y-124722184D01*
X192369514Y-124770559D01*
X192355696Y-124772116D01*
X192063872Y-124788505D01*
X192056919Y-124788700D01*
X108463881Y-124788700D01*
X108456928Y-124788505D01*
X108165103Y-124772116D01*
X108151285Y-124770559D01*
X107866572Y-124722184D01*
X107853015Y-124719090D01*
X107575500Y-124639139D01*
X107562375Y-124634546D01*
X107295565Y-124524030D01*
X107283037Y-124517997D01*
X107030274Y-124378300D01*
X107018500Y-124370902D01*
X106782969Y-124203784D01*
X106772097Y-124195114D01*
X106556757Y-124002675D01*
X106546924Y-123992842D01*
X106354485Y-123777502D01*
X106345815Y-123766630D01*
X106178697Y-123531099D01*
X106171299Y-123519325D01*
X106031602Y-123266562D01*
X106025572Y-123254041D01*
X105915053Y-122987224D01*
X105910460Y-122974099D01*
X105830509Y-122696584D01*
X105827415Y-122683027D01*
X105818886Y-122632831D01*
X105779038Y-122398303D01*
X105777484Y-122384506D01*
X105761095Y-122092672D01*
X105760900Y-122085719D01*
X105760900Y-107877257D01*
X189584600Y-107877257D01*
X189584600Y-108082742D01*
X189616743Y-108285683D01*
X189680236Y-108481097D01*
X189680238Y-108481100D01*
X189773521Y-108664179D01*
X189894296Y-108830411D01*
X190039589Y-108975704D01*
X190205821Y-109096479D01*
X190388900Y-109189762D01*
X190388902Y-109189763D01*
X190486609Y-109221509D01*
X190584318Y-109253257D01*
X190678311Y-109268143D01*
X190787258Y-109285400D01*
X190787263Y-109285400D01*
X190992742Y-109285400D01*
X191091125Y-109269817D01*
X191195682Y-109253257D01*
X191391100Y-109189762D01*
X191574179Y-109096479D01*
X191740411Y-108975704D01*
X191885704Y-108830411D01*
X192006479Y-108664179D01*
X192099762Y-108481100D01*
X192163257Y-108285682D01*
X192179817Y-108181125D01*
X192195400Y-108082742D01*
X192195400Y-107877257D01*
X192176700Y-107759197D01*
X192163257Y-107674318D01*
X192109487Y-107508830D01*
X192099763Y-107478902D01*
X192006478Y-107295820D01*
X191885704Y-107129589D01*
X191740411Y-106984296D01*
X191574179Y-106863521D01*
X191391097Y-106770236D01*
X191195683Y-106706743D01*
X190992742Y-106674600D01*
X190992737Y-106674600D01*
X190787263Y-106674600D01*
X190787258Y-106674600D01*
X190584316Y-106706743D01*
X190388902Y-106770236D01*
X190205820Y-106863521D01*
X190110979Y-106932427D01*
X190039589Y-106984296D01*
X190039587Y-106984298D01*
X190039586Y-106984298D01*
X189894298Y-107129586D01*
X189894298Y-107129587D01*
X189894296Y-107129589D01*
X189842427Y-107200979D01*
X189773521Y-107295820D01*
X189680236Y-107478902D01*
X189616743Y-107674316D01*
X189584600Y-107877257D01*
X105760900Y-107877257D01*
X105760900Y-105460847D01*
X111464300Y-105460847D01*
X111464300Y-107450352D01*
X111475931Y-107508829D01*
X111475932Y-107508830D01*
X111520247Y-107575152D01*
X111586569Y-107619467D01*
X111586570Y-107619468D01*
X111645047Y-107631099D01*
X111645050Y-107631100D01*
X111645052Y-107631100D01*
X113634550Y-107631100D01*
X113634551Y-107631099D01*
X113649368Y-107628152D01*
X113693029Y-107619468D01*
X113693029Y-107619467D01*
X113693031Y-107619467D01*
X113759352Y-107575152D01*
X113803667Y-107508831D01*
X113803667Y-107508829D01*
X113803668Y-107508829D01*
X113815299Y-107450352D01*
X113815300Y-107450350D01*
X113815300Y-105666457D01*
X173904178Y-105666457D01*
X173904178Y-105809537D01*
X173941210Y-105947742D01*
X174012750Y-106071652D01*
X174113923Y-106172825D01*
X174237833Y-106244365D01*
X174376038Y-106281397D01*
X174376040Y-106281397D01*
X174519115Y-106281397D01*
X174519118Y-106281397D01*
X174657323Y-106244365D01*
X174781233Y-106172825D01*
X174882406Y-106071652D01*
X174953946Y-105947742D01*
X174990978Y-105809537D01*
X174990978Y-105666457D01*
X174953946Y-105528252D01*
X174882406Y-105404342D01*
X174781233Y-105303169D01*
X174657323Y-105231629D01*
X174519118Y-105194597D01*
X174376038Y-105194597D01*
X174237833Y-105231629D01*
X174237831Y-105231629D01*
X174237831Y-105231630D01*
X174113923Y-105303169D01*
X174113920Y-105303171D01*
X174012752Y-105404339D01*
X174012750Y-105404342D01*
X173941210Y-105528252D01*
X173904178Y-105666457D01*
X113815300Y-105666457D01*
X113815300Y-105460849D01*
X113815299Y-105460847D01*
X113803668Y-105402370D01*
X113803667Y-105402369D01*
X113759352Y-105336047D01*
X113693030Y-105291732D01*
X113693029Y-105291731D01*
X113634552Y-105280100D01*
X113634548Y-105280100D01*
X111645052Y-105280100D01*
X111645047Y-105280100D01*
X111586570Y-105291731D01*
X111586569Y-105291732D01*
X111520247Y-105336047D01*
X111475932Y-105402369D01*
X111475931Y-105402370D01*
X111464300Y-105460847D01*
X105760900Y-105460847D01*
X105760900Y-103626247D01*
X130770500Y-103626247D01*
X130770500Y-105173752D01*
X130782131Y-105232229D01*
X130782132Y-105232230D01*
X130826447Y-105298552D01*
X130892769Y-105342867D01*
X130892770Y-105342868D01*
X130951247Y-105354499D01*
X130951250Y-105354500D01*
X130951252Y-105354500D01*
X132498750Y-105354500D01*
X132498751Y-105354499D01*
X132513568Y-105351552D01*
X132557229Y-105342868D01*
X132557229Y-105342867D01*
X132557231Y-105342867D01*
X132623552Y-105298552D01*
X132667867Y-105232231D01*
X132667867Y-105232229D01*
X132667868Y-105232229D01*
X132679499Y-105173752D01*
X132679500Y-105173750D01*
X132679500Y-104301302D01*
X132971000Y-104301302D01*
X132971000Y-104498697D01*
X133001876Y-104693646D01*
X133062873Y-104881373D01*
X133152483Y-105057239D01*
X133178457Y-105092988D01*
X133178457Y-105092989D01*
X133742037Y-104529409D01*
X133759075Y-104592993D01*
X133824901Y-104707007D01*
X133917993Y-104800099D01*
X134032007Y-104865925D01*
X134095590Y-104882962D01*
X133532009Y-105446541D01*
X133532010Y-105446542D01*
X133567755Y-105472512D01*
X133567768Y-105472520D01*
X133743626Y-105562126D01*
X133931353Y-105623123D01*
X134126303Y-105654000D01*
X134323697Y-105654000D01*
X134518646Y-105623123D01*
X134706373Y-105562126D01*
X134882241Y-105472516D01*
X134917988Y-105446543D01*
X134917988Y-105446541D01*
X134354410Y-104882962D01*
X134417993Y-104865925D01*
X134532007Y-104800099D01*
X134625099Y-104707007D01*
X134690925Y-104592993D01*
X134707962Y-104529409D01*
X135271541Y-105092988D01*
X135271543Y-105092988D01*
X135297516Y-105057241D01*
X135387126Y-104881373D01*
X135448123Y-104693646D01*
X135479000Y-104498697D01*
X135479000Y-104305985D01*
X135770500Y-104305985D01*
X135770500Y-104494014D01*
X135807179Y-104678409D01*
X135807182Y-104678421D01*
X135879129Y-104852118D01*
X135879136Y-104852131D01*
X135983591Y-105008457D01*
X135983594Y-105008461D01*
X136116538Y-105141405D01*
X136116542Y-105141408D01*
X136272868Y-105245863D01*
X136272881Y-105245870D01*
X136411219Y-105303171D01*
X136446583Y-105317819D01*
X136630985Y-105354499D01*
X136630988Y-105354500D01*
X136630990Y-105354500D01*
X136819012Y-105354500D01*
X136819013Y-105354499D01*
X137003417Y-105317819D01*
X137177125Y-105245867D01*
X137333458Y-105141408D01*
X137466408Y-105008458D01*
X137570867Y-104852125D01*
X137642819Y-104678417D01*
X137679500Y-104494010D01*
X137679500Y-104305990D01*
X137679500Y-104305987D01*
X137679499Y-104305985D01*
X138270500Y-104305985D01*
X138270500Y-104494014D01*
X138307179Y-104678409D01*
X138307182Y-104678421D01*
X138379129Y-104852118D01*
X138379136Y-104852131D01*
X138483591Y-105008457D01*
X138483594Y-105008461D01*
X138616538Y-105141405D01*
X138616542Y-105141408D01*
X138772868Y-105245863D01*
X138772881Y-105245870D01*
X138911219Y-105303171D01*
X138946583Y-105317819D01*
X139130985Y-105354499D01*
X139130988Y-105354500D01*
X139130990Y-105354500D01*
X139319012Y-105354500D01*
X139319013Y-105354499D01*
X139503417Y-105317819D01*
X139677125Y-105245867D01*
X139833458Y-105141408D01*
X139966408Y-105008458D01*
X140070867Y-104852125D01*
X140142819Y-104678417D01*
X140179500Y-104494010D01*
X140179500Y-104305990D01*
X140179500Y-104305987D01*
X140179499Y-104305985D01*
X140170188Y-104259174D01*
X140142819Y-104121583D01*
X140130977Y-104092993D01*
X140070870Y-103947881D01*
X140070863Y-103947868D01*
X139966408Y-103791542D01*
X139966405Y-103791538D01*
X139833461Y-103658594D01*
X139817998Y-103648262D01*
X139817996Y-103648260D01*
X139677131Y-103554136D01*
X139677118Y-103554129D01*
X139670160Y-103551247D01*
X147295500Y-103551247D01*
X147295500Y-105098752D01*
X147307131Y-105157229D01*
X147307132Y-105157230D01*
X147351447Y-105223552D01*
X147417769Y-105267867D01*
X147417770Y-105267868D01*
X147476247Y-105279499D01*
X147476250Y-105279500D01*
X147476252Y-105279500D01*
X149023750Y-105279500D01*
X149023751Y-105279499D01*
X149038568Y-105276552D01*
X149082229Y-105267868D01*
X149082229Y-105267867D01*
X149082231Y-105267867D01*
X149148552Y-105223552D01*
X149192867Y-105157231D01*
X149192867Y-105157229D01*
X149192868Y-105157229D01*
X149204499Y-105098752D01*
X149204500Y-105098750D01*
X149204500Y-104226302D01*
X149496000Y-104226302D01*
X149496000Y-104423697D01*
X149526876Y-104618646D01*
X149587873Y-104806373D01*
X149677483Y-104982239D01*
X149703457Y-105017988D01*
X149703457Y-105017989D01*
X150267037Y-104454409D01*
X150284075Y-104517993D01*
X150349901Y-104632007D01*
X150442993Y-104725099D01*
X150557007Y-104790925D01*
X150620590Y-104807962D01*
X150057009Y-105371541D01*
X150057010Y-105371542D01*
X150092755Y-105397512D01*
X150092768Y-105397520D01*
X150268626Y-105487126D01*
X150456353Y-105548123D01*
X150651303Y-105579000D01*
X150848697Y-105579000D01*
X151043647Y-105548122D01*
X151043650Y-105548122D01*
X151067418Y-105540399D01*
X151067419Y-105540399D01*
X151231373Y-105487126D01*
X151407241Y-105397516D01*
X151442988Y-105371543D01*
X151442988Y-105371541D01*
X150879410Y-104807962D01*
X150942993Y-104790925D01*
X151057007Y-104725099D01*
X151150099Y-104632007D01*
X151215925Y-104517993D01*
X151232962Y-104454409D01*
X151796541Y-105017988D01*
X151796543Y-105017988D01*
X151822516Y-104982241D01*
X151912126Y-104806373D01*
X151973123Y-104618646D01*
X152004000Y-104423697D01*
X152004000Y-104230985D01*
X152295500Y-104230985D01*
X152295500Y-104419014D01*
X152332179Y-104603409D01*
X152332182Y-104603421D01*
X152404129Y-104777118D01*
X152404136Y-104777131D01*
X152508591Y-104933457D01*
X152508594Y-104933461D01*
X152641538Y-105066405D01*
X152641542Y-105066408D01*
X152797868Y-105170863D01*
X152797881Y-105170870D01*
X152946021Y-105232231D01*
X152971583Y-105242819D01*
X153155985Y-105279499D01*
X153155988Y-105279500D01*
X153155990Y-105279500D01*
X153344012Y-105279500D01*
X153344013Y-105279499D01*
X153528417Y-105242819D01*
X153702125Y-105170867D01*
X153858458Y-105066408D01*
X153991408Y-104933458D01*
X154095867Y-104777125D01*
X154167819Y-104603417D01*
X154204500Y-104419010D01*
X154204500Y-104230990D01*
X154204500Y-104230987D01*
X154204499Y-104230985D01*
X154795500Y-104230985D01*
X154795500Y-104419014D01*
X154832179Y-104603409D01*
X154832182Y-104603421D01*
X154904129Y-104777118D01*
X154904136Y-104777131D01*
X155008591Y-104933457D01*
X155008594Y-104933461D01*
X155141538Y-105066405D01*
X155141542Y-105066408D01*
X155297868Y-105170863D01*
X155297881Y-105170870D01*
X155446021Y-105232231D01*
X155471583Y-105242819D01*
X155655985Y-105279499D01*
X155655988Y-105279500D01*
X155655990Y-105279500D01*
X155844012Y-105279500D01*
X155844013Y-105279499D01*
X156028417Y-105242819D01*
X156202125Y-105170867D01*
X156358458Y-105066408D01*
X156491408Y-104933458D01*
X156595867Y-104777125D01*
X156667819Y-104603417D01*
X156704500Y-104419010D01*
X156704500Y-104230990D01*
X156704500Y-104230987D01*
X156704499Y-104230985D01*
X156688555Y-104150828D01*
X156667819Y-104046583D01*
X156648483Y-103999901D01*
X156595870Y-103872881D01*
X156595863Y-103872868D01*
X156491408Y-103716542D01*
X156491405Y-103716538D01*
X156358461Y-103583594D01*
X156358457Y-103583591D01*
X156202131Y-103479136D01*
X156202118Y-103479129D01*
X156028421Y-103407182D01*
X156028409Y-103407179D01*
X155844013Y-103370500D01*
X155844010Y-103370500D01*
X155655990Y-103370500D01*
X155655987Y-103370500D01*
X155471590Y-103407179D01*
X155471578Y-103407182D01*
X155297881Y-103479129D01*
X155297868Y-103479136D01*
X155141542Y-103583591D01*
X155141538Y-103583594D01*
X155008594Y-103716538D01*
X155008591Y-103716542D01*
X154904136Y-103872868D01*
X154904129Y-103872881D01*
X154832182Y-104046578D01*
X154832179Y-104046590D01*
X154795500Y-104230985D01*
X154204499Y-104230985D01*
X154188555Y-104150828D01*
X154167819Y-104046583D01*
X154148483Y-103999901D01*
X154095870Y-103872881D01*
X154095863Y-103872868D01*
X153991408Y-103716542D01*
X153991405Y-103716538D01*
X153858461Y-103583594D01*
X153858457Y-103583591D01*
X153702131Y-103479136D01*
X153702118Y-103479129D01*
X153528421Y-103407182D01*
X153528409Y-103407179D01*
X153344013Y-103370500D01*
X153344010Y-103370500D01*
X153155990Y-103370500D01*
X153155987Y-103370500D01*
X152971590Y-103407179D01*
X152971578Y-103407182D01*
X152797881Y-103479129D01*
X152797868Y-103479136D01*
X152641542Y-103583591D01*
X152641538Y-103583594D01*
X152508594Y-103716538D01*
X152508591Y-103716542D01*
X152404136Y-103872868D01*
X152404129Y-103872881D01*
X152332182Y-104046578D01*
X152332179Y-104046590D01*
X152295500Y-104230985D01*
X152004000Y-104230985D01*
X152004000Y-104226302D01*
X151973123Y-104031353D01*
X151912126Y-103843626D01*
X151822520Y-103667768D01*
X151822512Y-103667755D01*
X151796542Y-103632010D01*
X151796541Y-103632009D01*
X151232962Y-104195589D01*
X151215925Y-104132007D01*
X151150099Y-104017993D01*
X151057007Y-103924901D01*
X150942993Y-103859075D01*
X150879409Y-103842037D01*
X151442989Y-103278457D01*
X151407239Y-103252483D01*
X151231373Y-103162873D01*
X151043646Y-103101876D01*
X150848697Y-103071000D01*
X150651303Y-103071000D01*
X150456353Y-103101876D01*
X150268626Y-103162873D01*
X150092762Y-103252482D01*
X150092760Y-103252483D01*
X150057010Y-103278456D01*
X150057010Y-103278457D01*
X150620591Y-103842037D01*
X150557007Y-103859075D01*
X150442993Y-103924901D01*
X150349901Y-104017993D01*
X150284075Y-104132007D01*
X150267037Y-104195590D01*
X149703457Y-103632010D01*
X149703456Y-103632010D01*
X149677483Y-103667760D01*
X149677482Y-103667762D01*
X149587873Y-103843626D01*
X149526876Y-104031353D01*
X149496000Y-104226302D01*
X149204500Y-104226302D01*
X149204500Y-103551249D01*
X149204499Y-103551247D01*
X149192868Y-103492770D01*
X149192867Y-103492769D01*
X149183758Y-103479136D01*
X149148552Y-103426448D01*
X149119718Y-103407181D01*
X149082230Y-103382132D01*
X149082229Y-103382131D01*
X149023752Y-103370500D01*
X149023748Y-103370500D01*
X147476252Y-103370500D01*
X147476247Y-103370500D01*
X147417770Y-103382131D01*
X147417769Y-103382132D01*
X147351447Y-103426447D01*
X147307132Y-103492769D01*
X147307131Y-103492770D01*
X147295500Y-103551247D01*
X139670160Y-103551247D01*
X139503421Y-103482182D01*
X139503409Y-103482179D01*
X139319013Y-103445500D01*
X139319010Y-103445500D01*
X139130990Y-103445500D01*
X139130987Y-103445500D01*
X138946590Y-103482179D01*
X138946578Y-103482182D01*
X138772881Y-103554129D01*
X138772868Y-103554136D01*
X138616542Y-103658591D01*
X138616538Y-103658594D01*
X138483594Y-103791538D01*
X138483591Y-103791542D01*
X138379136Y-103947868D01*
X138379129Y-103947881D01*
X138307182Y-104121578D01*
X138307179Y-104121590D01*
X138270500Y-104305985D01*
X137679499Y-104305985D01*
X137670188Y-104259174D01*
X137642819Y-104121583D01*
X137630977Y-104092993D01*
X137570870Y-103947881D01*
X137570863Y-103947868D01*
X137466408Y-103791542D01*
X137466405Y-103791538D01*
X137333461Y-103658594D01*
X137333457Y-103658591D01*
X137177131Y-103554136D01*
X137177118Y-103554129D01*
X137003421Y-103482182D01*
X137003409Y-103482179D01*
X136819013Y-103445500D01*
X136819010Y-103445500D01*
X136630990Y-103445500D01*
X136630987Y-103445500D01*
X136446590Y-103482179D01*
X136446578Y-103482182D01*
X136272881Y-103554129D01*
X136272868Y-103554136D01*
X136116542Y-103658591D01*
X136116538Y-103658594D01*
X135983594Y-103791538D01*
X135983591Y-103791542D01*
X135879136Y-103947868D01*
X135879129Y-103947881D01*
X135807182Y-104121578D01*
X135807179Y-104121590D01*
X135770500Y-104305985D01*
X135479000Y-104305985D01*
X135479000Y-104301302D01*
X135448123Y-104106353D01*
X135387126Y-103918626D01*
X135297520Y-103742768D01*
X135297512Y-103742755D01*
X135271542Y-103707010D01*
X135271541Y-103707009D01*
X134707962Y-104270589D01*
X134690925Y-104207007D01*
X134625099Y-104092993D01*
X134532007Y-103999901D01*
X134417993Y-103934075D01*
X134354409Y-103917037D01*
X134917989Y-103353457D01*
X134882239Y-103327483D01*
X134706373Y-103237873D01*
X134518646Y-103176876D01*
X134323697Y-103146000D01*
X134126303Y-103146000D01*
X133931353Y-103176876D01*
X133743626Y-103237873D01*
X133567762Y-103327482D01*
X133567760Y-103327483D01*
X133532010Y-103353456D01*
X133532010Y-103353457D01*
X134095591Y-103917037D01*
X134032007Y-103934075D01*
X133917993Y-103999901D01*
X133824901Y-104092993D01*
X133759075Y-104207007D01*
X133742037Y-104270590D01*
X133178457Y-103707010D01*
X133178456Y-103707010D01*
X133152483Y-103742760D01*
X133152482Y-103742762D01*
X133062873Y-103918626D01*
X133001876Y-104106353D01*
X132971000Y-104301302D01*
X132679500Y-104301302D01*
X132679500Y-103626249D01*
X132679499Y-103626247D01*
X132667868Y-103567770D01*
X132667867Y-103567769D01*
X132658758Y-103554136D01*
X132623552Y-103501448D01*
X132610564Y-103492769D01*
X132557230Y-103457132D01*
X132557229Y-103457131D01*
X132498752Y-103445500D01*
X132498748Y-103445500D01*
X130951252Y-103445500D01*
X130951247Y-103445500D01*
X130892770Y-103457131D01*
X130892769Y-103457132D01*
X130826447Y-103501447D01*
X130782132Y-103567769D01*
X130782131Y-103567770D01*
X130770500Y-103626247D01*
X105760900Y-103626247D01*
X105760900Y-102064982D01*
X165724500Y-102064982D01*
X165724500Y-102177018D01*
X165753497Y-102285237D01*
X165809515Y-102382263D01*
X165888737Y-102461485D01*
X165985763Y-102517503D01*
X166093982Y-102546500D01*
X166093984Y-102546500D01*
X166206016Y-102546500D01*
X166206018Y-102546500D01*
X166314237Y-102517503D01*
X166411263Y-102461485D01*
X166490485Y-102382263D01*
X166546503Y-102285237D01*
X166575500Y-102177018D01*
X166575500Y-102064982D01*
X166546503Y-101956763D01*
X166490485Y-101859737D01*
X166411263Y-101780515D01*
X166314237Y-101724497D01*
X166206018Y-101695500D01*
X166093982Y-101695500D01*
X165985763Y-101724497D01*
X165985760Y-101724498D01*
X165888740Y-101780513D01*
X165888734Y-101780517D01*
X165809517Y-101859734D01*
X165809513Y-101859740D01*
X165753498Y-101956760D01*
X165753497Y-101956763D01*
X165724500Y-102064982D01*
X105760900Y-102064982D01*
X105760900Y-101203460D01*
X141556600Y-101203460D01*
X141556600Y-101346540D01*
X141593632Y-101484745D01*
X141665172Y-101608655D01*
X141766345Y-101709828D01*
X141890255Y-101781368D01*
X142028460Y-101818400D01*
X142028462Y-101818400D01*
X142171537Y-101818400D01*
X142171540Y-101818400D01*
X142309745Y-101781368D01*
X142433655Y-101709828D01*
X142534828Y-101608655D01*
X142606368Y-101484745D01*
X142643400Y-101346540D01*
X142643400Y-101203460D01*
X142634162Y-101168982D01*
X161774500Y-101168982D01*
X161774500Y-101281018D01*
X161803497Y-101389237D01*
X161859515Y-101486263D01*
X161938737Y-101565485D01*
X162035763Y-101621503D01*
X162143982Y-101650500D01*
X162143984Y-101650500D01*
X162256016Y-101650500D01*
X162256018Y-101650500D01*
X162358717Y-101622982D01*
X171424500Y-101622982D01*
X171424500Y-101735018D01*
X171446568Y-101817375D01*
X171453497Y-101843236D01*
X171453498Y-101843239D01*
X171463023Y-101859737D01*
X171509515Y-101940263D01*
X171588737Y-102019485D01*
X171685763Y-102075503D01*
X171793982Y-102104500D01*
X171793984Y-102104500D01*
X171906016Y-102104500D01*
X171906018Y-102104500D01*
X172014237Y-102075503D01*
X172111263Y-102019485D01*
X172190485Y-101940263D01*
X172238212Y-101857597D01*
X177924500Y-101857597D01*
X177924500Y-101969633D01*
X177953497Y-102077852D01*
X178009515Y-102174878D01*
X178088737Y-102254100D01*
X178185763Y-102310118D01*
X178293982Y-102339115D01*
X178293984Y-102339115D01*
X178357866Y-102339115D01*
X178424905Y-102358800D01*
X178470629Y-102411534D01*
X178474950Y-102420980D01*
X178490667Y-102479637D01*
X178544175Y-102572315D01*
X178546617Y-102577654D01*
X178550805Y-102606660D01*
X178557714Y-102635136D01*
X178555740Y-102640836D01*
X178556603Y-102646807D01*
X178544445Y-102673470D01*
X178534861Y-102701163D01*
X178528262Y-102708963D01*
X178527617Y-102710380D01*
X178526404Y-102711160D01*
X178521536Y-102716916D01*
X178443714Y-102794738D01*
X178443713Y-102794740D01*
X178387698Y-102891760D01*
X178387697Y-102891763D01*
X178358700Y-102999982D01*
X178358700Y-103112018D01*
X178372327Y-103162873D01*
X178387697Y-103220236D01*
X178387698Y-103220239D01*
X178447779Y-103324302D01*
X178445485Y-103325626D01*
X178465965Y-103378581D01*
X178451935Y-103447027D01*
X178449783Y-103450913D01*
X178417833Y-103506251D01*
X178417832Y-103506255D01*
X178380800Y-103644460D01*
X178380800Y-103787540D01*
X178417832Y-103925745D01*
X178489372Y-104049655D01*
X178590545Y-104150828D01*
X178714455Y-104222368D01*
X178852660Y-104259400D01*
X178852662Y-104259400D01*
X178995737Y-104259400D01*
X178995740Y-104259400D01*
X179133945Y-104222368D01*
X179257855Y-104150828D01*
X179359028Y-104049655D01*
X179430568Y-103925745D01*
X179467600Y-103787540D01*
X179467600Y-103644460D01*
X179430568Y-103506255D01*
X179359028Y-103382345D01*
X179257855Y-103281172D01*
X179257852Y-103281170D01*
X179251406Y-103276224D01*
X179252466Y-103274841D01*
X179211082Y-103231435D01*
X179197862Y-103162827D01*
X179201523Y-103142533D01*
X179209700Y-103112018D01*
X179209700Y-102999982D01*
X179180703Y-102891763D01*
X179130128Y-102804164D01*
X179113655Y-102736264D01*
X179136508Y-102670237D01*
X179149823Y-102654494D01*
X179227655Y-102576663D01*
X179283673Y-102479637D01*
X179312670Y-102371418D01*
X179312670Y-102259382D01*
X179283673Y-102151163D01*
X179227655Y-102054137D01*
X179148433Y-101974915D01*
X179051407Y-101918897D01*
X178943188Y-101889900D01*
X178879304Y-101889900D01*
X178812265Y-101870215D01*
X178766510Y-101817411D01*
X178759531Y-101797999D01*
X178746503Y-101749378D01*
X178690485Y-101652352D01*
X178611263Y-101573130D01*
X178514237Y-101517112D01*
X178406018Y-101488115D01*
X178293982Y-101488115D01*
X178185763Y-101517112D01*
X178185760Y-101517113D01*
X178088740Y-101573128D01*
X178088734Y-101573132D01*
X178009517Y-101652349D01*
X178009513Y-101652355D01*
X177953498Y-101749375D01*
X177953498Y-101749376D01*
X177953497Y-101749378D01*
X177924500Y-101857597D01*
X172238212Y-101857597D01*
X172246503Y-101843237D01*
X172275500Y-101735018D01*
X172275500Y-101622982D01*
X172246503Y-101514763D01*
X172190485Y-101417737D01*
X172111263Y-101338515D01*
X172014237Y-101282497D01*
X171906018Y-101253500D01*
X171793982Y-101253500D01*
X171685763Y-101282497D01*
X171685760Y-101282498D01*
X171588740Y-101338513D01*
X171588734Y-101338517D01*
X171509517Y-101417734D01*
X171509513Y-101417740D01*
X171453498Y-101514760D01*
X171453497Y-101514763D01*
X171424500Y-101622982D01*
X162358717Y-101622982D01*
X162364237Y-101621503D01*
X162461263Y-101565485D01*
X162540485Y-101486263D01*
X162596503Y-101389237D01*
X162625500Y-101281018D01*
X162625500Y-101168982D01*
X162596503Y-101060763D01*
X162540485Y-100963737D01*
X162461263Y-100884515D01*
X162364237Y-100828497D01*
X162256018Y-100799500D01*
X162143982Y-100799500D01*
X162035763Y-100828497D01*
X162035760Y-100828498D01*
X161938740Y-100884513D01*
X161938734Y-100884517D01*
X161859517Y-100963734D01*
X161859513Y-100963740D01*
X161803498Y-101060760D01*
X161803497Y-101060763D01*
X161774500Y-101168982D01*
X142634162Y-101168982D01*
X142606368Y-101065255D01*
X142534828Y-100941345D01*
X142433655Y-100840172D01*
X142309745Y-100768632D01*
X142171540Y-100731600D01*
X142028460Y-100731600D01*
X141890255Y-100768632D01*
X141890253Y-100768632D01*
X141890253Y-100768633D01*
X141766345Y-100840172D01*
X141766342Y-100840174D01*
X141665174Y-100941342D01*
X141665172Y-100941345D01*
X141624805Y-101011263D01*
X141593632Y-101065255D01*
X141556600Y-101203460D01*
X105760900Y-101203460D01*
X105760900Y-100343982D01*
X162774500Y-100343982D01*
X162774500Y-100456018D01*
X162781124Y-100480737D01*
X162803497Y-100564236D01*
X162803498Y-100564239D01*
X162811306Y-100577763D01*
X162859515Y-100661263D01*
X162938737Y-100740485D01*
X163035763Y-100796503D01*
X163143982Y-100825500D01*
X163143984Y-100825500D01*
X163256016Y-100825500D01*
X163256018Y-100825500D01*
X163364237Y-100796503D01*
X163461263Y-100740485D01*
X163507766Y-100693982D01*
X178724500Y-100693982D01*
X178724500Y-100806018D01*
X178753497Y-100914237D01*
X178809515Y-101011263D01*
X178888737Y-101090485D01*
X178985763Y-101146503D01*
X179093982Y-101175500D01*
X179093984Y-101175500D01*
X179206016Y-101175500D01*
X179206018Y-101175500D01*
X179314237Y-101146503D01*
X179411263Y-101090485D01*
X179490485Y-101011263D01*
X179546503Y-100914237D01*
X179575500Y-100806018D01*
X179575500Y-100693982D01*
X179573356Y-100685982D01*
X181719700Y-100685982D01*
X181719700Y-100798018D01*
X181748697Y-100906237D01*
X181804715Y-101003263D01*
X181883937Y-101082485D01*
X181980963Y-101138503D01*
X182089182Y-101167500D01*
X182089184Y-101167500D01*
X182201216Y-101167500D01*
X182201218Y-101167500D01*
X182309437Y-101138503D01*
X182406463Y-101082485D01*
X182485685Y-101003263D01*
X182541703Y-100906237D01*
X182570700Y-100798018D01*
X182570700Y-100685982D01*
X182541703Y-100577763D01*
X182485685Y-100480737D01*
X182406463Y-100401515D01*
X182323295Y-100353498D01*
X182309439Y-100345498D01*
X182309438Y-100345497D01*
X182309437Y-100345497D01*
X182201218Y-100316500D01*
X182089182Y-100316500D01*
X181980963Y-100345497D01*
X181980960Y-100345498D01*
X181883940Y-100401513D01*
X181883934Y-100401517D01*
X181804717Y-100480734D01*
X181804713Y-100480740D01*
X181748698Y-100577760D01*
X181748697Y-100577763D01*
X181719700Y-100685982D01*
X179573356Y-100685982D01*
X179546503Y-100585763D01*
X179490485Y-100488737D01*
X179411263Y-100409515D01*
X179314237Y-100353497D01*
X179206018Y-100324500D01*
X179093982Y-100324500D01*
X178985763Y-100353497D01*
X178985760Y-100353498D01*
X178888740Y-100409513D01*
X178888734Y-100409517D01*
X178809517Y-100488734D01*
X178809513Y-100488740D01*
X178753498Y-100585760D01*
X178753497Y-100585763D01*
X178724500Y-100693982D01*
X163507766Y-100693982D01*
X163540485Y-100661263D01*
X163596503Y-100564237D01*
X163625500Y-100456018D01*
X163625500Y-100343982D01*
X163596503Y-100235763D01*
X163540485Y-100138737D01*
X163461263Y-100059515D01*
X163364237Y-100003497D01*
X163256018Y-99974500D01*
X163143982Y-99974500D01*
X163035763Y-100003497D01*
X163035760Y-100003498D01*
X162938740Y-100059513D01*
X162938734Y-100059517D01*
X162859517Y-100138734D01*
X162859513Y-100138740D01*
X162803498Y-100235760D01*
X162803497Y-100235763D01*
X162774500Y-100343982D01*
X105760900Y-100343982D01*
X105760900Y-99817015D01*
X120249480Y-99817015D01*
X120249480Y-99929051D01*
X120278477Y-100037270D01*
X120334495Y-100134296D01*
X120413717Y-100213518D01*
X120510743Y-100269536D01*
X120618962Y-100298533D01*
X120618964Y-100298533D01*
X120730996Y-100298533D01*
X120730998Y-100298533D01*
X120839217Y-100269536D01*
X120936243Y-100213518D01*
X121015465Y-100134296D01*
X121071483Y-100037270D01*
X121100480Y-99929051D01*
X121100480Y-99817015D01*
X121071483Y-99708796D01*
X121015465Y-99611770D01*
X120936243Y-99532548D01*
X120907512Y-99515960D01*
X148344100Y-99515960D01*
X148344100Y-99659040D01*
X148381132Y-99797245D01*
X148452672Y-99921155D01*
X148553845Y-100022328D01*
X148677755Y-100093868D01*
X148815960Y-100130900D01*
X148815962Y-100130900D01*
X148959037Y-100130900D01*
X148959040Y-100130900D01*
X149097245Y-100093868D01*
X149221155Y-100022328D01*
X149322328Y-99921155D01*
X149393868Y-99797245D01*
X149411468Y-99731560D01*
X175926600Y-99731560D01*
X175926600Y-99874640D01*
X175963632Y-100012845D01*
X176035172Y-100136755D01*
X176136345Y-100237928D01*
X176260255Y-100309468D01*
X176398460Y-100346500D01*
X176398462Y-100346500D01*
X176541537Y-100346500D01*
X176541540Y-100346500D01*
X176679745Y-100309468D01*
X176803655Y-100237928D01*
X176861219Y-100180364D01*
X176922542Y-100146879D01*
X176992234Y-100151863D01*
X177036581Y-100180364D01*
X177126345Y-100270128D01*
X177250255Y-100341668D01*
X177388460Y-100378700D01*
X177388462Y-100378700D01*
X177531537Y-100378700D01*
X177531540Y-100378700D01*
X177669745Y-100341668D01*
X177793655Y-100270128D01*
X177877801Y-100185982D01*
X179719700Y-100185982D01*
X179719700Y-100298018D01*
X179747433Y-100401517D01*
X179748697Y-100406236D01*
X179748698Y-100406239D01*
X179750591Y-100409517D01*
X179804715Y-100503263D01*
X179883937Y-100582485D01*
X179980963Y-100638503D01*
X180089182Y-100667500D01*
X180089184Y-100667500D01*
X180201216Y-100667500D01*
X180201218Y-100667500D01*
X180309437Y-100638503D01*
X180406463Y-100582485D01*
X180485685Y-100503263D01*
X180541703Y-100406237D01*
X180570700Y-100298018D01*
X180570700Y-100298009D01*
X180571761Y-100289958D01*
X180573437Y-100290178D01*
X180590385Y-100232461D01*
X180643189Y-100186706D01*
X180694700Y-100175500D01*
X180706016Y-100175500D01*
X180706018Y-100175500D01*
X180814237Y-100146503D01*
X180911263Y-100090485D01*
X180990485Y-100011263D01*
X181042613Y-99920973D01*
X181093180Y-99872759D01*
X181161787Y-99859535D01*
X181226651Y-99885503D01*
X181257385Y-99920972D01*
X181309515Y-100011263D01*
X181388737Y-100090485D01*
X181485763Y-100146503D01*
X181593982Y-100175500D01*
X181593984Y-100175500D01*
X181706016Y-100175500D01*
X181706018Y-100175500D01*
X181814237Y-100146503D01*
X181911263Y-100090485D01*
X181990485Y-100011263D01*
X182046503Y-99914237D01*
X182075500Y-99806018D01*
X182075500Y-99693982D01*
X182046503Y-99585763D01*
X181990485Y-99488737D01*
X181911263Y-99409515D01*
X181814237Y-99353497D01*
X181706018Y-99324500D01*
X181593982Y-99324500D01*
X181485763Y-99353497D01*
X181485760Y-99353498D01*
X181388740Y-99409513D01*
X181388734Y-99409517D01*
X181309517Y-99488734D01*
X181309513Y-99488740D01*
X181257387Y-99579025D01*
X181206820Y-99627241D01*
X181138213Y-99640463D01*
X181073348Y-99614495D01*
X181042613Y-99579025D01*
X180997937Y-99501645D01*
X180990485Y-99488737D01*
X180911263Y-99409515D01*
X180814237Y-99353497D01*
X180706018Y-99324500D01*
X180593982Y-99324500D01*
X180485763Y-99353497D01*
X180485760Y-99353498D01*
X180388740Y-99409513D01*
X180388734Y-99409517D01*
X180309517Y-99488734D01*
X180309513Y-99488740D01*
X180253498Y-99585760D01*
X180253497Y-99585763D01*
X180224500Y-99693982D01*
X180223439Y-99702042D01*
X180221762Y-99701821D01*
X180204815Y-99759539D01*
X180152011Y-99805294D01*
X180100500Y-99816500D01*
X180089182Y-99816500D01*
X179980963Y-99845497D01*
X179980960Y-99845498D01*
X179883940Y-99901513D01*
X179883934Y-99901517D01*
X179804717Y-99980734D01*
X179804713Y-99980740D01*
X179748698Y-100077760D01*
X179748697Y-100077763D01*
X179719700Y-100185982D01*
X177877801Y-100185982D01*
X177894828Y-100168955D01*
X177966368Y-100045045D01*
X178003400Y-99906840D01*
X178003400Y-99763760D01*
X177966368Y-99625555D01*
X177894828Y-99501645D01*
X177793655Y-99400472D01*
X177669745Y-99328932D01*
X177531540Y-99291900D01*
X177388460Y-99291900D01*
X177250255Y-99328932D01*
X177250253Y-99328932D01*
X177250253Y-99328933D01*
X177126345Y-99400472D01*
X177126342Y-99400474D01*
X177068781Y-99458036D01*
X177007458Y-99491521D01*
X176937766Y-99486537D01*
X176893419Y-99458036D01*
X176803657Y-99368274D01*
X176803655Y-99368272D01*
X176679745Y-99296732D01*
X176541540Y-99259700D01*
X176398460Y-99259700D01*
X176260255Y-99296732D01*
X176260253Y-99296732D01*
X176260253Y-99296733D01*
X176136345Y-99368272D01*
X176136342Y-99368274D01*
X176035174Y-99469442D01*
X176035172Y-99469445D01*
X175986554Y-99553654D01*
X175963632Y-99593355D01*
X175926600Y-99731560D01*
X149411468Y-99731560D01*
X149430900Y-99659040D01*
X149430900Y-99515960D01*
X149393868Y-99377755D01*
X149322328Y-99253845D01*
X149221155Y-99152672D01*
X149097245Y-99081132D01*
X148959040Y-99044100D01*
X148815960Y-99044100D01*
X148677755Y-99081132D01*
X148677753Y-99081132D01*
X148677753Y-99081133D01*
X148553845Y-99152672D01*
X148553842Y-99152674D01*
X148452674Y-99253842D01*
X148452672Y-99253845D01*
X148381132Y-99377755D01*
X148344100Y-99515960D01*
X120907512Y-99515960D01*
X120856550Y-99486537D01*
X120839219Y-99476531D01*
X120839218Y-99476530D01*
X120839217Y-99476530D01*
X120730998Y-99447533D01*
X120618962Y-99447533D01*
X120510743Y-99476530D01*
X120510740Y-99476531D01*
X120413720Y-99532546D01*
X120413714Y-99532550D01*
X120334497Y-99611767D01*
X120334493Y-99611773D01*
X120278478Y-99708793D01*
X120278477Y-99708796D01*
X120249480Y-99817015D01*
X105760900Y-99817015D01*
X105760900Y-99148460D01*
X117736600Y-99148460D01*
X117736600Y-99291540D01*
X117773632Y-99429745D01*
X117845172Y-99553655D01*
X117946345Y-99654828D01*
X118070255Y-99726368D01*
X118208460Y-99763400D01*
X118208462Y-99763400D01*
X118351537Y-99763400D01*
X118351540Y-99763400D01*
X118489745Y-99726368D01*
X118613655Y-99654828D01*
X118714828Y-99553655D01*
X118786368Y-99429745D01*
X118823400Y-99291540D01*
X118823400Y-99148460D01*
X118786368Y-99010255D01*
X118714828Y-98886345D01*
X118613655Y-98785172D01*
X118550081Y-98748467D01*
X121336382Y-98748467D01*
X121336382Y-98860503D01*
X121365379Y-98968722D01*
X121421397Y-99065748D01*
X121500619Y-99144970D01*
X121597645Y-99200988D01*
X121705864Y-99229985D01*
X121705866Y-99229985D01*
X121817898Y-99229985D01*
X121817900Y-99229985D01*
X121926119Y-99200988D01*
X122023145Y-99144970D01*
X122102367Y-99065748D01*
X122138028Y-99003982D01*
X182904500Y-99003982D01*
X182904500Y-99116018D01*
X182927268Y-99200988D01*
X182933497Y-99224236D01*
X182933498Y-99224239D01*
X182950589Y-99253842D01*
X182989515Y-99321263D01*
X183068737Y-99400485D01*
X183165763Y-99456503D01*
X183273982Y-99485500D01*
X183273984Y-99485500D01*
X183386016Y-99485500D01*
X183386018Y-99485500D01*
X183494237Y-99456503D01*
X183591263Y-99400485D01*
X183670485Y-99321263D01*
X183726503Y-99224237D01*
X183755500Y-99116018D01*
X183755500Y-99003982D01*
X183726503Y-98895763D01*
X183670485Y-98798737D01*
X183591263Y-98719515D01*
X183494237Y-98663497D01*
X183386018Y-98634500D01*
X183273982Y-98634500D01*
X183165763Y-98663497D01*
X183165760Y-98663498D01*
X183068740Y-98719513D01*
X183068734Y-98719517D01*
X182989517Y-98798734D01*
X182989513Y-98798740D01*
X182933498Y-98895760D01*
X182933497Y-98895763D01*
X182904500Y-99003982D01*
X122138028Y-99003982D01*
X122158385Y-98968722D01*
X122187382Y-98860503D01*
X122187382Y-98748467D01*
X122158385Y-98640248D01*
X122102367Y-98543222D01*
X122023145Y-98464000D01*
X121958461Y-98426654D01*
X121926121Y-98407983D01*
X121926120Y-98407982D01*
X121926119Y-98407982D01*
X121817900Y-98378985D01*
X121705864Y-98378985D01*
X121597645Y-98407982D01*
X121597642Y-98407983D01*
X121500622Y-98463998D01*
X121500616Y-98464002D01*
X121421399Y-98543219D01*
X121421395Y-98543225D01*
X121365380Y-98640245D01*
X121365379Y-98640248D01*
X121336382Y-98748467D01*
X118550081Y-98748467D01*
X118489745Y-98713632D01*
X118351540Y-98676600D01*
X118208460Y-98676600D01*
X118070255Y-98713632D01*
X118070253Y-98713632D01*
X118070253Y-98713633D01*
X117946345Y-98785172D01*
X117946342Y-98785174D01*
X117845174Y-98886342D01*
X117845172Y-98886345D01*
X117777253Y-99003984D01*
X117773632Y-99010255D01*
X117736600Y-99148460D01*
X105760900Y-99148460D01*
X105760900Y-97938460D01*
X118856600Y-97938460D01*
X118856600Y-98081540D01*
X118893632Y-98219745D01*
X118965172Y-98343655D01*
X119066345Y-98444828D01*
X119190255Y-98516368D01*
X119328460Y-98553400D01*
X119328462Y-98553400D01*
X119471537Y-98553400D01*
X119471540Y-98553400D01*
X119609745Y-98516368D01*
X119733655Y-98444828D01*
X119834828Y-98343655D01*
X119906368Y-98219745D01*
X119943400Y-98081540D01*
X119943400Y-97938460D01*
X119906368Y-97800255D01*
X119834828Y-97676345D01*
X119733655Y-97575172D01*
X119609745Y-97503632D01*
X119471540Y-97466600D01*
X119328460Y-97466600D01*
X119190255Y-97503632D01*
X119190253Y-97503632D01*
X119190253Y-97503633D01*
X119066345Y-97575172D01*
X119066342Y-97575174D01*
X118965174Y-97676342D01*
X118965172Y-97676345D01*
X118895223Y-97797500D01*
X118893632Y-97800255D01*
X118856600Y-97938460D01*
X105760900Y-97938460D01*
X105760900Y-97353460D01*
X156456600Y-97353460D01*
X156456600Y-97496540D01*
X156493632Y-97634745D01*
X156565172Y-97758655D01*
X156666345Y-97859828D01*
X156790255Y-97931368D01*
X156928460Y-97968400D01*
X156928462Y-97968400D01*
X157071537Y-97968400D01*
X157071540Y-97968400D01*
X157209745Y-97931368D01*
X157333655Y-97859828D01*
X157434828Y-97758655D01*
X157506368Y-97634745D01*
X157543400Y-97496540D01*
X157543400Y-97353460D01*
X157506368Y-97215255D01*
X157458867Y-97132982D01*
X174814500Y-97132982D01*
X174814500Y-97245018D01*
X174843497Y-97353237D01*
X174899515Y-97450263D01*
X174899517Y-97450265D01*
X174936311Y-97487059D01*
X174969796Y-97548382D01*
X174968405Y-97606833D01*
X174962081Y-97630434D01*
X174944757Y-97695090D01*
X174944757Y-97807126D01*
X174973754Y-97915345D01*
X175029772Y-98012371D01*
X175108994Y-98091593D01*
X175206020Y-98147611D01*
X175314239Y-98176608D01*
X175314241Y-98176608D01*
X175426273Y-98176608D01*
X175426275Y-98176608D01*
X175534494Y-98147611D01*
X175631520Y-98091593D01*
X175710742Y-98012371D01*
X175766760Y-97915345D01*
X175795757Y-97807126D01*
X175795757Y-97695090D01*
X175766760Y-97586871D01*
X175710742Y-97489845D01*
X175673945Y-97453048D01*
X175640460Y-97391725D01*
X175641850Y-97333278D01*
X175665500Y-97245018D01*
X175665500Y-97132982D01*
X175657730Y-97103982D01*
X177364500Y-97103982D01*
X177364500Y-97216018D01*
X177393497Y-97324237D01*
X177449515Y-97421263D01*
X177528737Y-97500485D01*
X177625763Y-97556503D01*
X177707575Y-97578424D01*
X177767234Y-97614787D01*
X177797764Y-97677634D01*
X177789470Y-97747010D01*
X177744985Y-97800888D01*
X177707576Y-97817972D01*
X177675767Y-97826495D01*
X177675760Y-97826498D01*
X177578740Y-97882513D01*
X177578734Y-97882517D01*
X177499517Y-97961734D01*
X177499513Y-97961740D01*
X177443498Y-98058760D01*
X177443497Y-98058763D01*
X177414500Y-98166982D01*
X177414500Y-98279018D01*
X177443497Y-98387237D01*
X177499515Y-98484263D01*
X177578737Y-98563485D01*
X177675763Y-98619503D01*
X177783982Y-98648500D01*
X177783984Y-98648500D01*
X177896016Y-98648500D01*
X177896018Y-98648500D01*
X178004237Y-98619503D01*
X178101263Y-98563485D01*
X178180485Y-98484263D01*
X178236503Y-98387237D01*
X178265500Y-98279018D01*
X178265500Y-98166982D01*
X178236503Y-98058763D01*
X178180485Y-97961737D01*
X178101263Y-97882515D01*
X178004237Y-97826497D01*
X177926358Y-97805629D01*
X177924364Y-97805095D01*
X177922426Y-97804576D01*
X177862766Y-97768213D01*
X177832235Y-97705367D01*
X177833596Y-97693982D01*
X178724500Y-97693982D01*
X178724500Y-97806018D01*
X178753497Y-97914237D01*
X178809515Y-98011263D01*
X178888737Y-98090485D01*
X178985763Y-98146503D01*
X179093982Y-98175500D01*
X179093984Y-98175500D01*
X179100500Y-98175500D01*
X179167539Y-98195185D01*
X179213294Y-98247989D01*
X179224500Y-98299500D01*
X179224500Y-98306018D01*
X179253497Y-98414237D01*
X179309515Y-98511263D01*
X179388737Y-98590485D01*
X179485763Y-98646503D01*
X179593982Y-98675500D01*
X179593984Y-98675500D01*
X179706016Y-98675500D01*
X179706018Y-98675500D01*
X179814237Y-98646503D01*
X179911263Y-98590485D01*
X179990485Y-98511263D01*
X180046503Y-98414237D01*
X180075500Y-98306018D01*
X180075500Y-98193982D01*
X180046503Y-98085763D01*
X179990485Y-97988737D01*
X179911263Y-97909515D01*
X179825201Y-97859827D01*
X179814239Y-97853498D01*
X179814238Y-97853497D01*
X179814237Y-97853497D01*
X179706018Y-97824500D01*
X179699500Y-97824500D01*
X179690814Y-97821949D01*
X179681853Y-97823238D01*
X179657812Y-97812259D01*
X179632461Y-97804815D01*
X179626533Y-97797974D01*
X179618297Y-97794213D01*
X179604007Y-97771978D01*
X179586706Y-97752011D01*
X179584418Y-97741496D01*
X179580523Y-97735435D01*
X179575500Y-97700500D01*
X179575500Y-97693982D01*
X181724500Y-97693982D01*
X181724500Y-97806018D01*
X181753497Y-97914237D01*
X181809515Y-98011263D01*
X181888737Y-98090485D01*
X181985763Y-98146503D01*
X182093982Y-98175500D01*
X182093984Y-98175500D01*
X182206016Y-98175500D01*
X182206018Y-98175500D01*
X182314237Y-98146503D01*
X182411263Y-98090485D01*
X182490485Y-98011263D01*
X182546503Y-97914237D01*
X182575500Y-97806018D01*
X182575500Y-97693982D01*
X182555404Y-97618982D01*
X182949500Y-97618982D01*
X182949500Y-97731018D01*
X182978497Y-97839237D01*
X183034515Y-97936263D01*
X183113737Y-98015485D01*
X183210763Y-98071503D01*
X183318982Y-98100500D01*
X183318984Y-98100500D01*
X183431016Y-98100500D01*
X183431018Y-98100500D01*
X183539237Y-98071503D01*
X183636263Y-98015485D01*
X183715485Y-97936263D01*
X183751443Y-97873982D01*
X189564500Y-97873982D01*
X189564500Y-97986018D01*
X189593497Y-98094237D01*
X189649515Y-98191263D01*
X189728737Y-98270485D01*
X189825763Y-98326503D01*
X189933982Y-98355500D01*
X189933984Y-98355500D01*
X190046016Y-98355500D01*
X190046018Y-98355500D01*
X190154237Y-98326503D01*
X190251263Y-98270485D01*
X190330485Y-98191263D01*
X190386503Y-98094237D01*
X190415500Y-97986018D01*
X190415500Y-97873982D01*
X190386503Y-97765763D01*
X190330485Y-97668737D01*
X190251263Y-97589515D01*
X190154237Y-97533497D01*
X190046018Y-97504500D01*
X189933982Y-97504500D01*
X189825763Y-97533497D01*
X189825760Y-97533498D01*
X189728740Y-97589513D01*
X189728734Y-97589517D01*
X189649517Y-97668734D01*
X189649513Y-97668740D01*
X189593498Y-97765760D01*
X189593497Y-97765763D01*
X189564500Y-97873982D01*
X183751443Y-97873982D01*
X183771503Y-97839237D01*
X183800500Y-97731018D01*
X183800500Y-97618982D01*
X183771503Y-97510763D01*
X183715485Y-97413737D01*
X183636263Y-97334515D01*
X183539237Y-97278497D01*
X183431018Y-97249500D01*
X183318982Y-97249500D01*
X183210763Y-97278497D01*
X183210760Y-97278498D01*
X183113740Y-97334513D01*
X183113734Y-97334517D01*
X183034517Y-97413734D01*
X183034513Y-97413740D01*
X182978498Y-97510760D01*
X182978497Y-97510763D01*
X182949500Y-97618982D01*
X182555404Y-97618982D01*
X182546503Y-97585763D01*
X182490485Y-97488737D01*
X182411263Y-97409515D01*
X182314237Y-97353497D01*
X182206018Y-97324500D01*
X182093982Y-97324500D01*
X181985763Y-97353497D01*
X181985760Y-97353498D01*
X181888740Y-97409513D01*
X181888734Y-97409517D01*
X181809517Y-97488734D01*
X181809513Y-97488740D01*
X181753498Y-97585760D01*
X181753497Y-97585763D01*
X181724500Y-97693982D01*
X179575500Y-97693982D01*
X179575500Y-97685855D01*
X179581579Y-97665151D01*
X179586998Y-97630434D01*
X179594133Y-97622396D01*
X179595185Y-97618816D01*
X179604408Y-97610823D01*
X179633386Y-97578185D01*
X179646381Y-97574453D01*
X179647989Y-97573061D01*
X179661380Y-97570147D01*
X179699164Y-97559300D01*
X179704016Y-97559300D01*
X179704018Y-97559300D01*
X179812237Y-97530303D01*
X179909263Y-97474285D01*
X179988485Y-97395063D01*
X180044503Y-97298037D01*
X180073500Y-97189818D01*
X180073500Y-97077782D01*
X180044503Y-96969563D01*
X179988485Y-96872537D01*
X179909263Y-96793315D01*
X179845417Y-96756453D01*
X179844683Y-96756016D01*
X179821496Y-96731012D01*
X179797952Y-96706320D01*
X179797782Y-96705440D01*
X179797174Y-96704784D01*
X179797031Y-96703982D01*
X182219700Y-96703982D01*
X182219700Y-96816018D01*
X182248697Y-96924237D01*
X182304715Y-97021263D01*
X182383937Y-97100485D01*
X182480963Y-97156503D01*
X182589182Y-97185500D01*
X182589184Y-97185500D01*
X182701216Y-97185500D01*
X182701218Y-97185500D01*
X182809437Y-97156503D01*
X182875329Y-97118460D01*
X187936600Y-97118460D01*
X187936600Y-97261540D01*
X187973632Y-97399745D01*
X188045172Y-97523655D01*
X188146345Y-97624828D01*
X188270255Y-97696368D01*
X188408460Y-97733400D01*
X188408462Y-97733400D01*
X188551537Y-97733400D01*
X188551540Y-97733400D01*
X188689745Y-97696368D01*
X188813655Y-97624828D01*
X188914828Y-97523655D01*
X188986368Y-97399745D01*
X189023400Y-97261540D01*
X189023400Y-97118460D01*
X188986368Y-96980255D01*
X188914828Y-96856345D01*
X188813655Y-96755172D01*
X188689745Y-96683632D01*
X188551540Y-96646600D01*
X188408460Y-96646600D01*
X188270255Y-96683632D01*
X188270253Y-96683632D01*
X188270253Y-96683633D01*
X188146345Y-96755172D01*
X188146342Y-96755174D01*
X188045174Y-96856342D01*
X188045172Y-96856345D01*
X188003954Y-96927737D01*
X187973632Y-96980255D01*
X187936600Y-97118460D01*
X182875329Y-97118460D01*
X182906463Y-97100485D01*
X182985685Y-97021263D01*
X183041703Y-96924237D01*
X183070700Y-96816018D01*
X183070700Y-96703982D01*
X183041703Y-96595763D01*
X182985685Y-96498737D01*
X182906463Y-96419515D01*
X182809437Y-96363497D01*
X182701218Y-96334500D01*
X182589182Y-96334500D01*
X182480963Y-96363497D01*
X182480960Y-96363498D01*
X182383940Y-96419513D01*
X182383934Y-96419517D01*
X182304717Y-96498734D01*
X182304713Y-96498740D01*
X182248698Y-96595760D01*
X182248697Y-96595763D01*
X182219700Y-96703982D01*
X179797031Y-96703982D01*
X179791189Y-96671234D01*
X179784729Y-96637713D01*
X179785062Y-96636880D01*
X179784905Y-96636000D01*
X179798025Y-96604502D01*
X179810698Y-96572848D01*
X179811426Y-96572329D01*
X179811771Y-96571502D01*
X179839860Y-96552081D01*
X179867612Y-96532320D01*
X179868710Y-96532135D01*
X179869242Y-96531768D01*
X179871309Y-96531698D01*
X179908168Y-96525500D01*
X179986016Y-96525500D01*
X179986018Y-96525500D01*
X180094237Y-96496503D01*
X180191263Y-96440485D01*
X180270485Y-96361263D01*
X180326503Y-96264237D01*
X180355500Y-96156018D01*
X180355500Y-96049500D01*
X180375185Y-95982461D01*
X180427989Y-95936706D01*
X180479500Y-95925500D01*
X180576016Y-95925500D01*
X180576018Y-95925500D01*
X180684237Y-95896503D01*
X180781263Y-95840485D01*
X180860485Y-95761263D01*
X180916503Y-95664237D01*
X180945500Y-95556018D01*
X180945500Y-95443982D01*
X180916503Y-95335763D01*
X180860485Y-95238737D01*
X180781263Y-95159515D01*
X180716579Y-95122169D01*
X180684239Y-95103498D01*
X180684238Y-95103497D01*
X180684237Y-95103497D01*
X180576018Y-95074500D01*
X180463982Y-95074500D01*
X180355763Y-95103497D01*
X180355760Y-95103498D01*
X180258740Y-95159513D01*
X180258734Y-95159517D01*
X180179517Y-95238734D01*
X180179513Y-95238740D01*
X180123498Y-95335760D01*
X180123497Y-95335763D01*
X180094500Y-95443982D01*
X180094500Y-95550500D01*
X180074815Y-95617539D01*
X180022011Y-95663294D01*
X179970500Y-95674500D01*
X179873982Y-95674500D01*
X179765763Y-95703497D01*
X179765760Y-95703498D01*
X179668740Y-95759513D01*
X179668734Y-95759517D01*
X179589517Y-95838734D01*
X179589513Y-95838740D01*
X179533498Y-95935760D01*
X179533497Y-95935763D01*
X179504500Y-96043982D01*
X179504500Y-96156018D01*
X179533497Y-96264237D01*
X179589515Y-96361263D01*
X179668737Y-96440485D01*
X179725865Y-96473468D01*
X179731832Y-96476913D01*
X179780048Y-96527480D01*
X179793271Y-96596087D01*
X179767302Y-96660952D01*
X179710388Y-96701480D01*
X179669832Y-96708300D01*
X179591982Y-96708300D01*
X179483763Y-96737297D01*
X179483760Y-96737298D01*
X179386740Y-96793313D01*
X179386734Y-96793317D01*
X179307517Y-96872534D01*
X179307513Y-96872540D01*
X179251498Y-96969560D01*
X179251497Y-96969563D01*
X179222500Y-97077782D01*
X179222500Y-97197945D01*
X179219652Y-97197945D01*
X179211002Y-97253366D01*
X179164614Y-97305615D01*
X179098836Y-97324500D01*
X179093982Y-97324500D01*
X178985763Y-97353497D01*
X178985760Y-97353498D01*
X178888740Y-97409513D01*
X178888734Y-97409517D01*
X178809517Y-97488734D01*
X178809513Y-97488740D01*
X178753498Y-97585760D01*
X178753497Y-97585763D01*
X178724500Y-97693982D01*
X177833596Y-97693982D01*
X177840528Y-97635991D01*
X177885012Y-97582112D01*
X177922422Y-97565027D01*
X177954237Y-97556503D01*
X178051263Y-97500485D01*
X178130485Y-97421263D01*
X178186503Y-97324237D01*
X178215500Y-97216018D01*
X178215500Y-97103982D01*
X178186503Y-96995763D01*
X178130485Y-96898737D01*
X178051263Y-96819515D01*
X177954237Y-96763497D01*
X177846018Y-96734500D01*
X177733982Y-96734500D01*
X177625763Y-96763497D01*
X177625760Y-96763498D01*
X177528740Y-96819513D01*
X177528734Y-96819517D01*
X177449517Y-96898734D01*
X177449513Y-96898740D01*
X177393498Y-96995760D01*
X177393497Y-96995763D01*
X177364500Y-97103982D01*
X175657730Y-97103982D01*
X175636503Y-97024763D01*
X175580485Y-96927737D01*
X175501263Y-96848515D01*
X175410762Y-96796264D01*
X175404239Y-96792498D01*
X175404238Y-96792497D01*
X175404237Y-96792497D01*
X175296018Y-96763500D01*
X175183982Y-96763500D01*
X175075763Y-96792497D01*
X175075760Y-96792498D01*
X174978740Y-96848513D01*
X174978734Y-96848517D01*
X174899517Y-96927734D01*
X174899513Y-96927740D01*
X174843498Y-97024760D01*
X174843498Y-97024761D01*
X174843497Y-97024763D01*
X174814500Y-97132982D01*
X157458867Y-97132982D01*
X157434828Y-97091345D01*
X157333655Y-96990172D01*
X157209745Y-96918632D01*
X157071540Y-96881600D01*
X156928460Y-96881600D01*
X156790255Y-96918632D01*
X156790253Y-96918632D01*
X156790253Y-96918633D01*
X156666345Y-96990172D01*
X156666342Y-96990174D01*
X156565174Y-97091342D01*
X156565172Y-97091345D01*
X156541132Y-97132984D01*
X156493632Y-97215255D01*
X156456600Y-97353460D01*
X105760900Y-97353460D01*
X105760900Y-96641980D01*
X173444500Y-96641980D01*
X173444500Y-96754016D01*
X173469822Y-96848517D01*
X173473497Y-96862234D01*
X173473498Y-96862237D01*
X173484677Y-96881600D01*
X173529515Y-96959261D01*
X173608737Y-97038483D01*
X173705763Y-97094501D01*
X173813982Y-97123498D01*
X173813984Y-97123498D01*
X173926016Y-97123498D01*
X173926018Y-97123498D01*
X174034237Y-97094501D01*
X174131263Y-97038483D01*
X174210485Y-96959261D01*
X174266503Y-96862235D01*
X174295500Y-96754016D01*
X174295500Y-96641980D01*
X174266503Y-96533761D01*
X174210485Y-96436735D01*
X174131263Y-96357513D01*
X174034237Y-96301495D01*
X173926018Y-96272498D01*
X173813982Y-96272498D01*
X173705763Y-96301495D01*
X173705760Y-96301496D01*
X173608740Y-96357511D01*
X173608734Y-96357515D01*
X173529517Y-96436732D01*
X173529513Y-96436738D01*
X173473498Y-96533758D01*
X173473497Y-96533761D01*
X173444500Y-96641980D01*
X105760900Y-96641980D01*
X105760900Y-94408460D01*
X119236600Y-94408460D01*
X119236600Y-94551540D01*
X119273632Y-94689745D01*
X119345172Y-94813655D01*
X119446345Y-94914828D01*
X119570255Y-94986368D01*
X119708460Y-95023400D01*
X119708462Y-95023400D01*
X119851537Y-95023400D01*
X119851540Y-95023400D01*
X119989745Y-94986368D01*
X120113655Y-94914828D01*
X120214828Y-94813655D01*
X120286368Y-94689745D01*
X120323400Y-94551540D01*
X120323400Y-94515960D01*
X174559100Y-94515960D01*
X174559100Y-94659040D01*
X174596132Y-94797245D01*
X174667672Y-94921155D01*
X174768845Y-95022328D01*
X174892755Y-95093868D01*
X175030960Y-95130900D01*
X175030962Y-95130900D01*
X175174037Y-95130900D01*
X175174040Y-95130900D01*
X175312245Y-95093868D01*
X175436155Y-95022328D01*
X175537328Y-94921155D01*
X175608868Y-94797245D01*
X175645900Y-94659040D01*
X175645900Y-94594782D01*
X177099500Y-94594782D01*
X177099500Y-94706818D01*
X177128128Y-94813657D01*
X177128497Y-94815036D01*
X177128498Y-94815039D01*
X177188579Y-94919102D01*
X177186457Y-94920326D01*
X177207182Y-94973947D01*
X177193138Y-95042391D01*
X177191002Y-95046248D01*
X177182468Y-95061029D01*
X177182466Y-95061036D01*
X177153469Y-95169255D01*
X177153469Y-95281291D01*
X177175627Y-95363984D01*
X177182466Y-95389509D01*
X177182467Y-95389512D01*
X177190632Y-95403654D01*
X177238484Y-95486536D01*
X177317706Y-95565758D01*
X177414732Y-95621776D01*
X177522951Y-95650773D01*
X177522953Y-95650773D01*
X177634985Y-95650773D01*
X177634987Y-95650773D01*
X177743206Y-95621776D01*
X177840232Y-95565758D01*
X177919454Y-95486536D01*
X177975472Y-95389510D01*
X178004469Y-95281291D01*
X178004469Y-95169255D01*
X177975472Y-95061036D01*
X177919454Y-94964010D01*
X177919453Y-94964009D01*
X177915390Y-94956971D01*
X177917512Y-94955745D01*
X177896787Y-94902131D01*
X177910827Y-94833686D01*
X177912971Y-94829816D01*
X177921500Y-94815042D01*
X177921499Y-94815042D01*
X177921503Y-94815037D01*
X177950500Y-94706818D01*
X177950500Y-94594782D01*
X177936084Y-94540982D01*
X180778910Y-94540982D01*
X180778910Y-94653018D01*
X180807907Y-94761237D01*
X180863925Y-94858263D01*
X180943147Y-94937485D01*
X181040173Y-94993503D01*
X181148392Y-95022500D01*
X181148394Y-95022500D01*
X181260426Y-95022500D01*
X181260428Y-95022500D01*
X181368647Y-94993503D01*
X181465673Y-94937485D01*
X181532173Y-94870985D01*
X181941502Y-94870985D01*
X181941502Y-94983021D01*
X181958595Y-95046811D01*
X181970499Y-95091239D01*
X181970501Y-95091244D01*
X181982197Y-95111503D01*
X181998668Y-95179403D01*
X181982198Y-95235497D01*
X181970502Y-95255756D01*
X181970499Y-95255763D01*
X181941502Y-95363982D01*
X181941502Y-95476018D01*
X181970499Y-95584237D01*
X182026517Y-95681263D01*
X182105739Y-95760485D01*
X182202765Y-95816503D01*
X182310984Y-95845500D01*
X182310986Y-95845500D01*
X182423018Y-95845500D01*
X182423020Y-95845500D01*
X182531239Y-95816503D01*
X182628265Y-95760485D01*
X182707487Y-95681263D01*
X182763505Y-95584237D01*
X182779650Y-95523982D01*
X184731900Y-95523982D01*
X184731900Y-95636018D01*
X184744024Y-95681263D01*
X184760897Y-95744236D01*
X184760898Y-95744239D01*
X184769717Y-95759513D01*
X184816915Y-95841263D01*
X184896137Y-95920485D01*
X184993163Y-95976503D01*
X185101382Y-96005500D01*
X185101384Y-96005500D01*
X185213416Y-96005500D01*
X185213418Y-96005500D01*
X185321637Y-95976503D01*
X185418663Y-95920485D01*
X185497885Y-95841263D01*
X185553903Y-95744237D01*
X185582900Y-95636018D01*
X185582900Y-95523982D01*
X185553903Y-95415763D01*
X185497885Y-95318737D01*
X185418663Y-95239515D01*
X185321637Y-95183497D01*
X185213418Y-95154500D01*
X185101382Y-95154500D01*
X184993163Y-95183497D01*
X184993162Y-95183497D01*
X184940107Y-95214128D01*
X184940103Y-95214130D01*
X184896137Y-95239515D01*
X184821825Y-95313826D01*
X184821813Y-95313837D01*
X184816919Y-95318732D01*
X184816913Y-95318740D01*
X184760898Y-95415760D01*
X184760897Y-95415763D01*
X184731900Y-95523982D01*
X182779650Y-95523982D01*
X182792502Y-95476018D01*
X182792502Y-95363982D01*
X182763505Y-95255763D01*
X182751805Y-95235499D01*
X182735334Y-95167600D01*
X182751807Y-95111501D01*
X182763505Y-95091240D01*
X182792502Y-94983021D01*
X182792502Y-94870985D01*
X182763505Y-94762766D01*
X182707487Y-94665740D01*
X182628265Y-94586518D01*
X182531239Y-94530500D01*
X182531240Y-94530500D01*
X182476975Y-94515960D01*
X182423020Y-94501503D01*
X182310984Y-94501503D01*
X182202765Y-94530500D01*
X182202762Y-94530501D01*
X182105742Y-94586516D01*
X182105736Y-94586520D01*
X182026519Y-94665737D01*
X182026515Y-94665743D01*
X181970500Y-94762763D01*
X181970499Y-94762766D01*
X181941502Y-94870985D01*
X181532173Y-94870985D01*
X181544895Y-94858263D01*
X181600913Y-94761237D01*
X181629910Y-94653018D01*
X181629910Y-94540982D01*
X181600913Y-94432763D01*
X181595843Y-94423982D01*
X183263486Y-94423982D01*
X183263486Y-94536018D01*
X183289638Y-94633617D01*
X183292483Y-94644236D01*
X183292484Y-94644239D01*
X183304896Y-94665737D01*
X183348501Y-94741263D01*
X183427723Y-94820485D01*
X183524749Y-94876503D01*
X183632968Y-94905500D01*
X183632970Y-94905500D01*
X183745001Y-94905500D01*
X183745004Y-94905500D01*
X183779331Y-94896302D01*
X183849178Y-94897965D01*
X183907040Y-94937127D01*
X183918806Y-94954072D01*
X183941841Y-94993969D01*
X184043014Y-95095142D01*
X184166924Y-95166682D01*
X184305129Y-95203714D01*
X184305131Y-95203714D01*
X184448206Y-95203714D01*
X184448209Y-95203714D01*
X184586414Y-95166682D01*
X184586416Y-95166680D01*
X184586418Y-95166680D01*
X184586419Y-95166679D01*
X184598824Y-95159517D01*
X184710324Y-95095142D01*
X184811497Y-94993969D01*
X184868213Y-94895735D01*
X186921578Y-94895735D01*
X186921578Y-95038815D01*
X186958610Y-95177020D01*
X187030150Y-95300930D01*
X187131323Y-95402103D01*
X187255233Y-95473643D01*
X187393438Y-95510675D01*
X187393440Y-95510675D01*
X187536515Y-95510675D01*
X187536518Y-95510675D01*
X187674723Y-95473643D01*
X187798633Y-95402103D01*
X187899806Y-95300930D01*
X187971346Y-95177020D01*
X187984291Y-95128706D01*
X188020653Y-95069048D01*
X188083500Y-95038517D01*
X188152876Y-95046811D01*
X188206754Y-95091295D01*
X188223010Y-95134087D01*
X188224497Y-95133689D01*
X188226600Y-95141537D01*
X188226600Y-95141540D01*
X188263632Y-95279745D01*
X188335172Y-95403655D01*
X188436345Y-95504828D01*
X188560255Y-95576368D01*
X188698460Y-95613400D01*
X188698462Y-95613400D01*
X188841537Y-95613400D01*
X188841540Y-95613400D01*
X188979745Y-95576368D01*
X189103655Y-95504828D01*
X189204828Y-95403655D01*
X189276368Y-95279745D01*
X189313400Y-95141540D01*
X189313400Y-94998460D01*
X189276368Y-94860255D01*
X189204828Y-94736345D01*
X189103655Y-94635172D01*
X188979745Y-94563632D01*
X188841540Y-94526600D01*
X188698460Y-94526600D01*
X188560255Y-94563632D01*
X188560253Y-94563632D01*
X188560253Y-94563633D01*
X188436345Y-94635172D01*
X188436342Y-94635174D01*
X188335174Y-94736342D01*
X188335172Y-94736345D01*
X188290536Y-94813657D01*
X188263632Y-94860255D01*
X188251509Y-94905499D01*
X188250687Y-94908568D01*
X188214322Y-94968228D01*
X188151475Y-94998757D01*
X188082099Y-94990462D01*
X188028221Y-94945977D01*
X188011970Y-94903186D01*
X188010481Y-94903586D01*
X188008378Y-94895737D01*
X188008378Y-94895735D01*
X187971346Y-94757530D01*
X187899806Y-94633620D01*
X187798633Y-94532447D01*
X187674723Y-94460907D01*
X187536518Y-94423875D01*
X187393438Y-94423875D01*
X187255233Y-94460907D01*
X187255231Y-94460907D01*
X187255231Y-94460908D01*
X187131323Y-94532447D01*
X187131320Y-94532449D01*
X187030152Y-94633617D01*
X187030150Y-94633620D01*
X186958610Y-94757530D01*
X186921578Y-94895735D01*
X184868213Y-94895735D01*
X184883037Y-94870059D01*
X184920069Y-94731854D01*
X184920069Y-94588774D01*
X184883037Y-94450569D01*
X184811497Y-94326659D01*
X184710324Y-94225486D01*
X184586414Y-94153946D01*
X184448209Y-94116914D01*
X184305129Y-94116914D01*
X184220789Y-94139513D01*
X184166919Y-94153947D01*
X184166918Y-94153948D01*
X184121104Y-94180398D01*
X184053203Y-94196869D01*
X183987177Y-94174016D01*
X183971425Y-94160691D01*
X183950251Y-94139517D01*
X183950249Y-94139515D01*
X183853223Y-94083497D01*
X183745004Y-94054500D01*
X183632968Y-94054500D01*
X183524749Y-94083497D01*
X183524746Y-94083498D01*
X183427726Y-94139513D01*
X183427720Y-94139517D01*
X183348503Y-94218734D01*
X183348499Y-94218740D01*
X183292484Y-94315760D01*
X183292483Y-94315763D01*
X183263486Y-94423982D01*
X181595843Y-94423982D01*
X181544895Y-94335737D01*
X181465673Y-94256515D01*
X181396370Y-94216503D01*
X181368649Y-94200498D01*
X181368648Y-94200497D01*
X181368647Y-94200497D01*
X181260428Y-94171500D01*
X181148392Y-94171500D01*
X181040173Y-94200497D01*
X181040170Y-94200498D01*
X180943150Y-94256513D01*
X180943144Y-94256517D01*
X180863927Y-94335734D01*
X180863923Y-94335740D01*
X180807908Y-94432760D01*
X180807907Y-94432763D01*
X180778910Y-94540982D01*
X177936084Y-94540982D01*
X177921503Y-94486563D01*
X177865485Y-94389537D01*
X177786263Y-94310315D01*
X177689237Y-94254297D01*
X177581018Y-94225300D01*
X177468982Y-94225300D01*
X177360763Y-94254297D01*
X177360760Y-94254298D01*
X177263740Y-94310313D01*
X177263734Y-94310317D01*
X177184517Y-94389534D01*
X177184513Y-94389540D01*
X177128498Y-94486560D01*
X177128498Y-94486561D01*
X177128497Y-94486563D01*
X177099500Y-94594782D01*
X175645900Y-94594782D01*
X175645900Y-94515960D01*
X175608868Y-94377755D01*
X175537328Y-94253845D01*
X175436155Y-94152672D01*
X175312245Y-94081132D01*
X175174040Y-94044100D01*
X175030960Y-94044100D01*
X174892755Y-94081132D01*
X174892753Y-94081132D01*
X174892753Y-94081133D01*
X174768845Y-94152672D01*
X174768842Y-94152674D01*
X174667674Y-94253842D01*
X174667672Y-94253845D01*
X174602630Y-94366501D01*
X174596132Y-94377755D01*
X174559100Y-94515960D01*
X120323400Y-94515960D01*
X120323400Y-94408460D01*
X120286368Y-94270255D01*
X120214828Y-94146345D01*
X120113655Y-94045172D01*
X119989745Y-93973632D01*
X119851540Y-93936600D01*
X119708460Y-93936600D01*
X119570255Y-93973632D01*
X119570253Y-93973632D01*
X119570253Y-93973633D01*
X119446345Y-94045172D01*
X119446342Y-94045174D01*
X119345174Y-94146342D01*
X119345172Y-94146345D01*
X119296147Y-94231259D01*
X119273632Y-94270255D01*
X119236600Y-94408460D01*
X105760900Y-94408460D01*
X105760900Y-93763982D01*
X185054500Y-93763982D01*
X185054500Y-93876018D01*
X185083497Y-93984237D01*
X185139515Y-94081263D01*
X185218737Y-94160485D01*
X185315763Y-94216503D01*
X185423982Y-94245500D01*
X185423984Y-94245500D01*
X185536016Y-94245500D01*
X185536018Y-94245500D01*
X185644237Y-94216503D01*
X185729417Y-94167323D01*
X185797317Y-94150851D01*
X185863344Y-94173703D01*
X185898803Y-94212710D01*
X185909515Y-94231263D01*
X185988737Y-94310485D01*
X186085763Y-94366503D01*
X186193982Y-94395500D01*
X186193984Y-94395500D01*
X186306016Y-94395500D01*
X186306018Y-94395500D01*
X186414237Y-94366503D01*
X186511263Y-94310485D01*
X186590485Y-94231263D01*
X186646503Y-94134237D01*
X186675500Y-94026018D01*
X186675500Y-93913982D01*
X186646503Y-93805763D01*
X186590485Y-93708737D01*
X186511263Y-93629515D01*
X186446579Y-93592169D01*
X186414239Y-93573498D01*
X186414238Y-93573497D01*
X186414237Y-93573497D01*
X186306018Y-93544500D01*
X186193982Y-93544500D01*
X186085763Y-93573497D01*
X186085762Y-93573497D01*
X186000581Y-93622676D01*
X185932681Y-93639147D01*
X185866654Y-93616295D01*
X185831196Y-93577289D01*
X185820485Y-93558737D01*
X185741263Y-93479515D01*
X185644237Y-93423497D01*
X185536018Y-93394500D01*
X185423982Y-93394500D01*
X185315763Y-93423497D01*
X185315760Y-93423498D01*
X185218740Y-93479513D01*
X185218734Y-93479517D01*
X185139517Y-93558734D01*
X185139513Y-93558740D01*
X185083498Y-93655760D01*
X185083497Y-93655763D01*
X185054500Y-93763982D01*
X105760900Y-93763982D01*
X105760900Y-92712233D01*
X177928512Y-92712233D01*
X177928512Y-92855313D01*
X177965544Y-92993518D01*
X178037084Y-93117428D01*
X178138257Y-93218601D01*
X178262167Y-93290141D01*
X178400372Y-93327173D01*
X178400374Y-93327173D01*
X178543449Y-93327173D01*
X178543452Y-93327173D01*
X178681657Y-93290141D01*
X178805567Y-93218601D01*
X178805569Y-93218598D01*
X178805574Y-93218596D01*
X178812018Y-93213652D01*
X178813332Y-93215364D01*
X178864669Y-93187324D01*
X178934361Y-93192298D01*
X178953041Y-93201097D01*
X179074753Y-93271368D01*
X179212958Y-93308400D01*
X179212960Y-93308400D01*
X179356035Y-93308400D01*
X179356038Y-93308400D01*
X179494243Y-93271368D01*
X179618153Y-93199828D01*
X179713494Y-93104486D01*
X179774813Y-93071004D01*
X179844505Y-93075988D01*
X179900439Y-93117859D01*
X179920945Y-93160074D01*
X179943497Y-93244237D01*
X179999515Y-93341263D01*
X180078737Y-93420485D01*
X180175763Y-93476503D01*
X180283982Y-93505500D01*
X180283984Y-93505500D01*
X180396016Y-93505500D01*
X180396018Y-93505500D01*
X180504237Y-93476503D01*
X180601263Y-93420485D01*
X180649457Y-93372291D01*
X180710780Y-93338806D01*
X180780472Y-93343790D01*
X180784590Y-93345410D01*
X180789143Y-93347295D01*
X180789151Y-93347300D01*
X180897370Y-93376297D01*
X180897372Y-93376297D01*
X181009404Y-93376297D01*
X181009406Y-93376297D01*
X181117625Y-93347300D01*
X181214651Y-93291282D01*
X181293873Y-93212060D01*
X181349891Y-93115034D01*
X181378888Y-93006815D01*
X181378888Y-92894779D01*
X181349891Y-92786560D01*
X181322731Y-92739518D01*
X187983391Y-92739518D01*
X187983391Y-92851554D01*
X188012388Y-92959773D01*
X188068406Y-93056799D01*
X188147628Y-93136021D01*
X188244654Y-93192039D01*
X188352873Y-93221036D01*
X188352875Y-93221036D01*
X188464907Y-93221036D01*
X188464909Y-93221036D01*
X188573128Y-93192039D01*
X188670154Y-93136021D01*
X188749376Y-93056799D01*
X188805394Y-92959773D01*
X188834391Y-92851554D01*
X188834391Y-92739518D01*
X188805394Y-92631299D01*
X188749376Y-92534273D01*
X188670154Y-92455051D01*
X188573128Y-92399033D01*
X188464909Y-92370036D01*
X188352873Y-92370036D01*
X188244654Y-92399033D01*
X188244651Y-92399034D01*
X188147631Y-92455049D01*
X188147625Y-92455053D01*
X188068408Y-92534270D01*
X188068404Y-92534276D01*
X188012389Y-92631296D01*
X188012388Y-92631299D01*
X187983391Y-92739518D01*
X181322731Y-92739518D01*
X181293873Y-92689534D01*
X181214651Y-92610312D01*
X181117625Y-92554294D01*
X181009406Y-92525297D01*
X180897370Y-92525297D01*
X180789151Y-92554294D01*
X180789148Y-92554295D01*
X180692128Y-92610310D01*
X180692125Y-92610312D01*
X180643929Y-92658507D01*
X180582605Y-92691991D01*
X180512913Y-92687005D01*
X180508802Y-92685388D01*
X180504239Y-92683498D01*
X180504237Y-92683497D01*
X180396018Y-92654500D01*
X180283982Y-92654500D01*
X180175763Y-92683497D01*
X180175760Y-92683498D01*
X180078740Y-92739513D01*
X180078734Y-92739517D01*
X180039579Y-92778673D01*
X179978256Y-92812158D01*
X179908564Y-92807174D01*
X179852631Y-92765302D01*
X179828214Y-92699838D01*
X179828019Y-92694381D01*
X179827898Y-92693462D01*
X179827898Y-92693460D01*
X179790866Y-92555255D01*
X179719326Y-92431345D01*
X179618153Y-92330172D01*
X179494243Y-92258632D01*
X179356038Y-92221600D01*
X179212958Y-92221600D01*
X179074753Y-92258632D01*
X179074751Y-92258632D01*
X179074751Y-92258633D01*
X178950843Y-92330172D01*
X178944397Y-92335119D01*
X178943086Y-92333410D01*
X178891706Y-92361457D01*
X178822015Y-92356463D01*
X178803372Y-92347678D01*
X178681657Y-92277405D01*
X178543452Y-92240373D01*
X178400372Y-92240373D01*
X178262167Y-92277405D01*
X178262165Y-92277405D01*
X178262165Y-92277406D01*
X178138257Y-92348945D01*
X178138254Y-92348947D01*
X178037086Y-92450115D01*
X178037084Y-92450118D01*
X177976938Y-92554294D01*
X177965544Y-92574028D01*
X177928512Y-92712233D01*
X105760900Y-92712233D01*
X105760900Y-91111468D01*
X158280000Y-91111468D01*
X158280000Y-91238531D01*
X158304785Y-91363132D01*
X158304788Y-91363144D01*
X158353404Y-91480515D01*
X158353411Y-91480528D01*
X158423995Y-91586163D01*
X158423998Y-91586167D01*
X158513832Y-91676001D01*
X158513836Y-91676004D01*
X158619471Y-91746588D01*
X158619484Y-91746595D01*
X158711788Y-91784828D01*
X158736860Y-91795213D01*
X158861468Y-91819999D01*
X158861472Y-91820000D01*
X158861473Y-91820000D01*
X158988528Y-91820000D01*
X158988529Y-91819999D01*
X159113140Y-91795213D01*
X159230522Y-91746592D01*
X159336164Y-91676004D01*
X159426004Y-91586164D01*
X159496592Y-91480522D01*
X159545213Y-91363140D01*
X159560850Y-91284526D01*
X159562057Y-91278460D01*
X164246600Y-91278460D01*
X164246600Y-91421540D01*
X164283632Y-91559745D01*
X164355172Y-91683655D01*
X164456345Y-91784828D01*
X164580255Y-91856368D01*
X164718460Y-91893400D01*
X164718462Y-91893400D01*
X164861537Y-91893400D01*
X164861540Y-91893400D01*
X164999745Y-91856368D01*
X165123655Y-91784828D01*
X165224828Y-91683655D01*
X165296368Y-91559745D01*
X165333400Y-91421540D01*
X165333400Y-91278460D01*
X165296368Y-91140255D01*
X165224828Y-91016345D01*
X165123655Y-90915172D01*
X164999745Y-90843632D01*
X164861540Y-90806600D01*
X164718460Y-90806600D01*
X164580255Y-90843632D01*
X164580253Y-90843632D01*
X164580253Y-90843633D01*
X164456345Y-90915172D01*
X164456342Y-90915174D01*
X164355174Y-91016342D01*
X164355172Y-91016345D01*
X164283632Y-91140255D01*
X164246600Y-91278460D01*
X159562057Y-91278460D01*
X159568481Y-91246165D01*
X159568485Y-91246144D01*
X159570000Y-91238526D01*
X159570000Y-91111472D01*
X159569999Y-91111468D01*
X159555874Y-91040457D01*
X159545213Y-90986860D01*
X159515519Y-90915172D01*
X159496595Y-90869484D01*
X159496588Y-90869471D01*
X159426004Y-90763836D01*
X159426001Y-90763832D01*
X159336167Y-90673998D01*
X159336163Y-90673995D01*
X159230528Y-90603411D01*
X159230515Y-90603404D01*
X159113144Y-90554788D01*
X159113132Y-90554785D01*
X158988531Y-90530000D01*
X158988527Y-90530000D01*
X158861473Y-90530000D01*
X158861468Y-90530000D01*
X158736867Y-90554785D01*
X158736855Y-90554788D01*
X158619484Y-90603404D01*
X158619471Y-90603411D01*
X158513836Y-90673995D01*
X158513832Y-90673998D01*
X158423998Y-90763832D01*
X158423995Y-90763836D01*
X158353411Y-90869471D01*
X158353404Y-90869484D01*
X158304788Y-90986855D01*
X158304785Y-90986867D01*
X158280000Y-91111468D01*
X105760900Y-91111468D01*
X105760900Y-90053460D01*
X167306600Y-90053460D01*
X167306600Y-90196540D01*
X167343632Y-90334745D01*
X167415172Y-90458655D01*
X167516345Y-90559828D01*
X167640255Y-90631368D01*
X167778460Y-90668400D01*
X167778462Y-90668400D01*
X167921537Y-90668400D01*
X167921540Y-90668400D01*
X168045220Y-90635260D01*
X174756600Y-90635260D01*
X174756600Y-90778340D01*
X174793632Y-90916545D01*
X174865172Y-91040455D01*
X174966345Y-91141628D01*
X175090255Y-91213168D01*
X175228460Y-91250200D01*
X175228462Y-91250200D01*
X175371537Y-91250200D01*
X175371540Y-91250200D01*
X175509745Y-91213168D01*
X175633655Y-91141628D01*
X175734828Y-91040455D01*
X175806368Y-90916545D01*
X175843400Y-90778340D01*
X175843400Y-90635260D01*
X175806368Y-90497055D01*
X175734828Y-90373145D01*
X175633655Y-90271972D01*
X175509745Y-90200432D01*
X175371540Y-90163400D01*
X175228460Y-90163400D01*
X175090255Y-90200432D01*
X175090253Y-90200432D01*
X175090253Y-90200433D01*
X174966345Y-90271972D01*
X174966342Y-90271974D01*
X174865174Y-90373142D01*
X174865172Y-90373145D01*
X174793632Y-90497055D01*
X174756600Y-90635260D01*
X168045220Y-90635260D01*
X168059745Y-90631368D01*
X168183655Y-90559828D01*
X168284828Y-90458655D01*
X168356368Y-90334745D01*
X168393400Y-90196540D01*
X168393400Y-90053460D01*
X168356368Y-89915255D01*
X168284828Y-89791345D01*
X168183655Y-89690172D01*
X168059745Y-89618632D01*
X167921540Y-89581600D01*
X167778460Y-89581600D01*
X167640255Y-89618632D01*
X167640253Y-89618632D01*
X167640253Y-89618633D01*
X167516345Y-89690172D01*
X167516342Y-89690174D01*
X167415174Y-89791342D01*
X167415172Y-89791345D01*
X167343632Y-89915255D01*
X167306600Y-90053460D01*
X105760900Y-90053460D01*
X105760900Y-89128460D01*
X163406600Y-89128460D01*
X163406600Y-89271540D01*
X163443632Y-89409745D01*
X163515172Y-89533655D01*
X163616345Y-89634828D01*
X163740255Y-89706368D01*
X163878460Y-89743400D01*
X163878462Y-89743400D01*
X164021537Y-89743400D01*
X164021540Y-89743400D01*
X164159745Y-89706368D01*
X164283655Y-89634828D01*
X164384828Y-89533655D01*
X164456368Y-89409745D01*
X164457912Y-89403982D01*
X187004500Y-89403982D01*
X187004500Y-89516018D01*
X187033497Y-89624237D01*
X187089515Y-89721263D01*
X187168737Y-89800485D01*
X187265763Y-89856503D01*
X187373982Y-89885500D01*
X187373984Y-89885500D01*
X187486016Y-89885500D01*
X187486018Y-89885500D01*
X187594237Y-89856503D01*
X187691263Y-89800485D01*
X187770485Y-89721263D01*
X187826503Y-89624237D01*
X187855500Y-89516018D01*
X187855500Y-89403982D01*
X187826503Y-89295763D01*
X187770485Y-89198737D01*
X187691263Y-89119515D01*
X187594237Y-89063497D01*
X187486018Y-89034500D01*
X187373982Y-89034500D01*
X187265763Y-89063497D01*
X187265760Y-89063498D01*
X187168740Y-89119513D01*
X187168734Y-89119517D01*
X187089517Y-89198734D01*
X187089513Y-89198740D01*
X187033498Y-89295760D01*
X187033497Y-89295763D01*
X187004500Y-89403982D01*
X164457912Y-89403982D01*
X164493400Y-89271540D01*
X164493400Y-89128460D01*
X164456368Y-88990255D01*
X164384828Y-88866345D01*
X164283655Y-88765172D01*
X164159745Y-88693632D01*
X164021540Y-88656600D01*
X163878460Y-88656600D01*
X163740255Y-88693632D01*
X163740253Y-88693632D01*
X163740253Y-88693633D01*
X163616345Y-88765172D01*
X163616342Y-88765174D01*
X163515174Y-88866342D01*
X163515172Y-88866345D01*
X163443632Y-88990255D01*
X163406600Y-89128460D01*
X105760900Y-89128460D01*
X105760900Y-87305985D01*
X118845500Y-87305985D01*
X118845500Y-87494014D01*
X118882179Y-87678409D01*
X118882182Y-87678421D01*
X118954129Y-87852118D01*
X118954136Y-87852131D01*
X119058591Y-88008457D01*
X119058594Y-88008461D01*
X119191538Y-88141405D01*
X119191542Y-88141408D01*
X119347868Y-88245863D01*
X119347881Y-88245870D01*
X119521578Y-88317817D01*
X119521583Y-88317819D01*
X119705985Y-88354499D01*
X119705988Y-88354500D01*
X119705990Y-88354500D01*
X119894012Y-88354500D01*
X119894013Y-88354499D01*
X120078417Y-88317819D01*
X120252125Y-88245867D01*
X120408458Y-88141408D01*
X120541408Y-88008458D01*
X120645867Y-87852125D01*
X120717819Y-87678417D01*
X120754500Y-87494010D01*
X120754500Y-87305990D01*
X120754500Y-87305987D01*
X120754499Y-87305985D01*
X121345500Y-87305985D01*
X121345500Y-87494014D01*
X121382179Y-87678409D01*
X121382182Y-87678421D01*
X121454129Y-87852118D01*
X121454136Y-87852131D01*
X121558591Y-88008457D01*
X121558594Y-88008461D01*
X121691538Y-88141405D01*
X121691542Y-88141408D01*
X121847868Y-88245863D01*
X121847881Y-88245870D01*
X122021578Y-88317817D01*
X122021583Y-88317819D01*
X122205985Y-88354499D01*
X122205988Y-88354500D01*
X122205990Y-88354500D01*
X122394012Y-88354500D01*
X122394013Y-88354499D01*
X122578417Y-88317819D01*
X122624932Y-88298552D01*
X122658324Y-88284721D01*
X122752118Y-88245870D01*
X122752118Y-88245869D01*
X122752125Y-88245867D01*
X122908458Y-88141408D01*
X123041408Y-88008458D01*
X123145867Y-87852125D01*
X123217819Y-87678417D01*
X123254500Y-87494010D01*
X123254500Y-87305990D01*
X123254500Y-87305987D01*
X123254499Y-87305986D01*
X123253567Y-87301302D01*
X123546000Y-87301302D01*
X123546000Y-87498697D01*
X123576876Y-87693646D01*
X123637873Y-87881373D01*
X123727483Y-88057239D01*
X123753457Y-88092988D01*
X123753457Y-88092989D01*
X124317037Y-87529409D01*
X124334075Y-87592993D01*
X124399901Y-87707007D01*
X124492993Y-87800099D01*
X124607007Y-87865925D01*
X124670590Y-87882962D01*
X124107009Y-88446541D01*
X124107010Y-88446542D01*
X124142755Y-88472512D01*
X124142768Y-88472520D01*
X124318626Y-88562126D01*
X124506353Y-88623123D01*
X124701303Y-88654000D01*
X124898697Y-88654000D01*
X125093646Y-88623123D01*
X125281373Y-88562126D01*
X125457241Y-88472516D01*
X125492988Y-88446543D01*
X125492988Y-88446541D01*
X124929410Y-87882962D01*
X124992993Y-87865925D01*
X125107007Y-87800099D01*
X125200099Y-87707007D01*
X125265925Y-87592993D01*
X125282962Y-87529409D01*
X125846541Y-88092988D01*
X125846543Y-88092988D01*
X125872516Y-88057241D01*
X125962126Y-87881373D01*
X126023123Y-87693646D01*
X126054000Y-87498697D01*
X126054000Y-87301302D01*
X126023123Y-87106353D01*
X125962126Y-86918626D01*
X125872520Y-86742768D01*
X125872512Y-86742755D01*
X125846542Y-86707010D01*
X125846541Y-86707009D01*
X125282962Y-87270589D01*
X125265925Y-87207007D01*
X125200099Y-87092993D01*
X125107007Y-86999901D01*
X124992993Y-86934075D01*
X124929409Y-86917037D01*
X125220199Y-86626247D01*
X126345500Y-86626247D01*
X126345500Y-88173752D01*
X126357131Y-88232229D01*
X126357132Y-88232230D01*
X126401447Y-88298552D01*
X126467769Y-88342867D01*
X126467770Y-88342868D01*
X126526247Y-88354499D01*
X126526250Y-88354500D01*
X126526252Y-88354500D01*
X128073750Y-88354500D01*
X128073751Y-88354499D01*
X128088568Y-88351552D01*
X128132229Y-88342868D01*
X128132229Y-88342867D01*
X128132231Y-88342867D01*
X128198552Y-88298552D01*
X128242867Y-88232231D01*
X128242867Y-88232229D01*
X128242868Y-88232229D01*
X128254499Y-88173752D01*
X128254500Y-88173750D01*
X128254500Y-87330985D01*
X135095500Y-87330985D01*
X135095500Y-87519014D01*
X135132179Y-87703409D01*
X135132182Y-87703421D01*
X135204129Y-87877118D01*
X135204136Y-87877131D01*
X135308591Y-88033457D01*
X135308594Y-88033461D01*
X135441538Y-88166405D01*
X135441542Y-88166408D01*
X135597868Y-88270863D01*
X135597881Y-88270870D01*
X135725068Y-88323552D01*
X135771583Y-88342819D01*
X135955985Y-88379499D01*
X135955988Y-88379500D01*
X135955990Y-88379500D01*
X136144012Y-88379500D01*
X136144013Y-88379499D01*
X136328417Y-88342819D01*
X136481283Y-88279500D01*
X136502118Y-88270870D01*
X136502118Y-88270869D01*
X136502125Y-88270867D01*
X136658458Y-88166408D01*
X136791408Y-88033458D01*
X136895867Y-87877125D01*
X136967819Y-87703417D01*
X137004500Y-87519010D01*
X137004500Y-87330990D01*
X137004500Y-87330987D01*
X137004499Y-87330985D01*
X137595500Y-87330985D01*
X137595500Y-87519014D01*
X137632179Y-87703409D01*
X137632182Y-87703421D01*
X137704129Y-87877118D01*
X137704136Y-87877131D01*
X137808591Y-88033457D01*
X137808594Y-88033461D01*
X137941538Y-88166405D01*
X137941542Y-88166408D01*
X138097868Y-88270863D01*
X138097881Y-88270870D01*
X138225068Y-88323552D01*
X138271583Y-88342819D01*
X138455985Y-88379499D01*
X138455988Y-88379500D01*
X138455990Y-88379500D01*
X138644012Y-88379500D01*
X138644013Y-88379499D01*
X138828417Y-88342819D01*
X138874932Y-88323552D01*
X138908324Y-88309721D01*
X139002118Y-88270870D01*
X139002118Y-88270869D01*
X139002125Y-88270867D01*
X139158458Y-88166408D01*
X139291408Y-88033458D01*
X139395867Y-87877125D01*
X139467819Y-87703417D01*
X139504500Y-87519010D01*
X139504500Y-87330990D01*
X139504500Y-87330987D01*
X139504499Y-87330986D01*
X139503567Y-87326302D01*
X139796000Y-87326302D01*
X139796000Y-87523697D01*
X139826876Y-87718646D01*
X139887873Y-87906373D01*
X139977483Y-88082239D01*
X140003457Y-88117988D01*
X140003457Y-88117989D01*
X140567037Y-87554409D01*
X140584075Y-87617993D01*
X140649901Y-87732007D01*
X140742993Y-87825099D01*
X140857007Y-87890925D01*
X140920590Y-87907962D01*
X140357009Y-88471541D01*
X140357010Y-88471542D01*
X140392755Y-88497512D01*
X140392768Y-88497520D01*
X140568626Y-88587126D01*
X140756353Y-88648123D01*
X140951303Y-88679000D01*
X141148697Y-88679000D01*
X141343646Y-88648123D01*
X141531373Y-88587126D01*
X141707241Y-88497516D01*
X141742988Y-88471543D01*
X141742988Y-88471541D01*
X141179410Y-87907962D01*
X141242993Y-87890925D01*
X141357007Y-87825099D01*
X141450099Y-87732007D01*
X141515925Y-87617993D01*
X141532962Y-87554409D01*
X142096541Y-88117988D01*
X142096543Y-88117988D01*
X142122516Y-88082241D01*
X142212126Y-87906373D01*
X142273123Y-87718646D01*
X142304000Y-87523697D01*
X142304000Y-87326302D01*
X142273123Y-87131353D01*
X142212126Y-86943626D01*
X142122520Y-86767768D01*
X142122512Y-86767755D01*
X142096542Y-86732010D01*
X142096541Y-86732009D01*
X141532962Y-87295589D01*
X141515925Y-87232007D01*
X141450099Y-87117993D01*
X141357007Y-87024901D01*
X141242993Y-86959075D01*
X141179409Y-86942037D01*
X141470199Y-86651247D01*
X142595500Y-86651247D01*
X142595500Y-88198752D01*
X142607131Y-88257229D01*
X142607132Y-88257230D01*
X142651447Y-88323552D01*
X142717769Y-88367867D01*
X142717770Y-88367868D01*
X142776247Y-88379499D01*
X142776250Y-88379500D01*
X142776252Y-88379500D01*
X144323750Y-88379500D01*
X144323751Y-88379499D01*
X144338568Y-88376552D01*
X144382229Y-88367868D01*
X144382229Y-88367867D01*
X144382231Y-88367867D01*
X144448552Y-88323552D01*
X144492867Y-88257231D01*
X144492867Y-88257229D01*
X144492868Y-88257229D01*
X144504499Y-88198752D01*
X144504500Y-88198750D01*
X144504500Y-87230985D01*
X151533000Y-87230985D01*
X151533000Y-87419014D01*
X151569679Y-87603409D01*
X151569682Y-87603421D01*
X151641629Y-87777118D01*
X151641636Y-87777131D01*
X151746091Y-87933457D01*
X151746094Y-87933461D01*
X151879038Y-88066405D01*
X151879042Y-88066408D01*
X152035368Y-88170863D01*
X152035381Y-88170870D01*
X152183521Y-88232231D01*
X152209083Y-88242819D01*
X152393485Y-88279499D01*
X152393488Y-88279500D01*
X152393490Y-88279500D01*
X152581512Y-88279500D01*
X152581513Y-88279499D01*
X152765917Y-88242819D01*
X152939625Y-88170867D01*
X153095958Y-88066408D01*
X153228908Y-87933458D01*
X153333367Y-87777125D01*
X153405319Y-87603417D01*
X153442000Y-87419010D01*
X153442000Y-87230990D01*
X153442000Y-87230987D01*
X153441999Y-87230985D01*
X154033000Y-87230985D01*
X154033000Y-87419014D01*
X154069679Y-87603409D01*
X154069682Y-87603421D01*
X154141629Y-87777118D01*
X154141636Y-87777131D01*
X154246091Y-87933457D01*
X154246094Y-87933461D01*
X154379038Y-88066405D01*
X154379042Y-88066408D01*
X154535368Y-88170863D01*
X154535381Y-88170870D01*
X154683521Y-88232231D01*
X154709083Y-88242819D01*
X154893485Y-88279499D01*
X154893488Y-88279500D01*
X154893490Y-88279500D01*
X155081512Y-88279500D01*
X155081513Y-88279499D01*
X155265917Y-88242819D01*
X155312432Y-88223552D01*
X155345824Y-88209721D01*
X155439618Y-88170870D01*
X155439618Y-88170869D01*
X155439625Y-88170867D01*
X155595958Y-88066408D01*
X155728908Y-87933458D01*
X155833367Y-87777125D01*
X155905319Y-87603417D01*
X155942000Y-87419010D01*
X155942000Y-87230990D01*
X155942000Y-87230987D01*
X155941999Y-87230986D01*
X155941067Y-87226302D01*
X156233500Y-87226302D01*
X156233500Y-87423697D01*
X156264376Y-87618646D01*
X156325373Y-87806373D01*
X156414983Y-87982239D01*
X156440957Y-88017988D01*
X156440957Y-88017989D01*
X157004537Y-87454409D01*
X157021575Y-87517993D01*
X157087401Y-87632007D01*
X157180493Y-87725099D01*
X157294507Y-87790925D01*
X157358090Y-87807962D01*
X156794509Y-88371541D01*
X156794510Y-88371542D01*
X156830255Y-88397512D01*
X156830268Y-88397520D01*
X157006126Y-88487126D01*
X157193853Y-88548123D01*
X157388803Y-88579000D01*
X157586197Y-88579000D01*
X157781146Y-88548123D01*
X157968873Y-88487126D01*
X158144741Y-88397516D01*
X158180488Y-88371543D01*
X158180488Y-88371541D01*
X157616910Y-87807962D01*
X157680493Y-87790925D01*
X157794507Y-87725099D01*
X157887599Y-87632007D01*
X157953425Y-87517993D01*
X157970462Y-87454409D01*
X158534041Y-88017988D01*
X158534043Y-88017988D01*
X158560016Y-87982241D01*
X158649626Y-87806373D01*
X158710623Y-87618646D01*
X158741500Y-87423697D01*
X158741500Y-87226302D01*
X158710623Y-87031353D01*
X158649626Y-86843626D01*
X158560020Y-86667768D01*
X158560012Y-86667755D01*
X158534042Y-86632010D01*
X158534041Y-86632009D01*
X157970462Y-87195589D01*
X157953425Y-87132007D01*
X157887599Y-87017993D01*
X157794507Y-86924901D01*
X157680493Y-86859075D01*
X157616909Y-86842037D01*
X157907699Y-86551247D01*
X159033000Y-86551247D01*
X159033000Y-88098752D01*
X159044631Y-88157229D01*
X159044632Y-88157230D01*
X159088947Y-88223552D01*
X159155269Y-88267867D01*
X159155270Y-88267868D01*
X159213747Y-88279499D01*
X159213750Y-88279500D01*
X159213752Y-88279500D01*
X160761250Y-88279500D01*
X160761251Y-88279499D01*
X160776068Y-88276552D01*
X160819729Y-88267868D01*
X160819729Y-88267867D01*
X160819731Y-88267867D01*
X160886052Y-88223552D01*
X160930367Y-88157231D01*
X160930367Y-88157229D01*
X160930368Y-88157229D01*
X160939052Y-88113568D01*
X160942000Y-88098748D01*
X160942000Y-87968460D01*
X174486600Y-87968460D01*
X174486600Y-88111540D01*
X174523632Y-88249745D01*
X174595172Y-88373655D01*
X174696345Y-88474828D01*
X174820255Y-88546368D01*
X174958460Y-88583400D01*
X174958462Y-88583400D01*
X175101537Y-88583400D01*
X175101540Y-88583400D01*
X175239745Y-88546368D01*
X175363655Y-88474828D01*
X175464828Y-88373655D01*
X175536368Y-88249745D01*
X175573400Y-88111540D01*
X175573400Y-87968460D01*
X175536368Y-87830255D01*
X175464828Y-87706345D01*
X175363655Y-87605172D01*
X175239745Y-87533632D01*
X175101540Y-87496600D01*
X174958460Y-87496600D01*
X174820255Y-87533632D01*
X174820253Y-87533632D01*
X174820253Y-87533633D01*
X174696345Y-87605172D01*
X174696342Y-87605174D01*
X174595174Y-87706342D01*
X174595172Y-87706345D01*
X174523632Y-87830255D01*
X174486600Y-87968460D01*
X160942000Y-87968460D01*
X160942000Y-86551252D01*
X160942000Y-86551249D01*
X160941999Y-86551247D01*
X160930368Y-86492770D01*
X160930367Y-86492769D01*
X160886052Y-86426447D01*
X160819730Y-86382132D01*
X160819729Y-86382131D01*
X160761252Y-86370500D01*
X160761248Y-86370500D01*
X159213752Y-86370500D01*
X159213747Y-86370500D01*
X159155270Y-86382131D01*
X159155269Y-86382132D01*
X159088947Y-86426447D01*
X159044632Y-86492769D01*
X159044631Y-86492770D01*
X159033000Y-86551247D01*
X157907699Y-86551247D01*
X158180489Y-86278457D01*
X158144739Y-86252483D01*
X157968873Y-86162873D01*
X157781146Y-86101876D01*
X157586197Y-86071000D01*
X157388803Y-86071000D01*
X157193853Y-86101876D01*
X157006126Y-86162873D01*
X156830262Y-86252482D01*
X156830260Y-86252483D01*
X156794510Y-86278456D01*
X156794510Y-86278457D01*
X157358091Y-86842037D01*
X157294507Y-86859075D01*
X157180493Y-86924901D01*
X157087401Y-87017993D01*
X157021575Y-87132007D01*
X157004537Y-87195590D01*
X156440957Y-86632010D01*
X156440956Y-86632010D01*
X156414983Y-86667760D01*
X156414982Y-86667762D01*
X156325373Y-86843626D01*
X156264376Y-87031353D01*
X156233500Y-87226302D01*
X155941067Y-87226302D01*
X155937229Y-87207007D01*
X155905319Y-87046583D01*
X155874788Y-86972875D01*
X155833370Y-86872881D01*
X155833363Y-86872868D01*
X155728908Y-86716542D01*
X155728905Y-86716538D01*
X155595961Y-86583594D01*
X155595957Y-86583591D01*
X155439631Y-86479136D01*
X155439618Y-86479129D01*
X155345819Y-86440277D01*
X155265921Y-86407182D01*
X155265909Y-86407179D01*
X155081513Y-86370500D01*
X155081510Y-86370500D01*
X154893490Y-86370500D01*
X154893487Y-86370500D01*
X154709090Y-86407179D01*
X154709078Y-86407182D01*
X154535381Y-86479129D01*
X154535368Y-86479136D01*
X154379042Y-86583591D01*
X154379038Y-86583594D01*
X154246094Y-86716538D01*
X154246091Y-86716542D01*
X154141636Y-86872868D01*
X154141629Y-86872881D01*
X154069682Y-87046578D01*
X154069679Y-87046590D01*
X154033000Y-87230985D01*
X153441999Y-87230985D01*
X153420237Y-87121583D01*
X153405319Y-87046583D01*
X153374788Y-86972875D01*
X153333370Y-86872881D01*
X153333363Y-86872868D01*
X153228908Y-86716542D01*
X153228905Y-86716538D01*
X153095961Y-86583594D01*
X153095957Y-86583591D01*
X152939631Y-86479136D01*
X152939618Y-86479129D01*
X152765921Y-86407182D01*
X152765909Y-86407179D01*
X152581513Y-86370500D01*
X152581510Y-86370500D01*
X152393490Y-86370500D01*
X152393487Y-86370500D01*
X152209090Y-86407179D01*
X152209078Y-86407182D01*
X152035381Y-86479129D01*
X152035368Y-86479136D01*
X151879042Y-86583591D01*
X151879038Y-86583594D01*
X151746094Y-86716538D01*
X151746091Y-86716542D01*
X151641636Y-86872868D01*
X151641629Y-86872881D01*
X151569682Y-87046578D01*
X151569679Y-87046590D01*
X151533000Y-87230985D01*
X144504500Y-87230985D01*
X144504500Y-86651249D01*
X144504499Y-86651247D01*
X144492868Y-86592770D01*
X144492867Y-86592769D01*
X144448552Y-86526447D01*
X144382230Y-86482132D01*
X144382229Y-86482131D01*
X144323752Y-86470500D01*
X144323748Y-86470500D01*
X142776252Y-86470500D01*
X142776247Y-86470500D01*
X142717770Y-86482131D01*
X142717769Y-86482132D01*
X142651447Y-86526447D01*
X142607132Y-86592769D01*
X142607131Y-86592770D01*
X142595500Y-86651247D01*
X141470199Y-86651247D01*
X141742989Y-86378457D01*
X141707239Y-86352483D01*
X141531373Y-86262873D01*
X141343646Y-86201876D01*
X141148697Y-86171000D01*
X140951303Y-86171000D01*
X140756353Y-86201876D01*
X140568626Y-86262873D01*
X140392762Y-86352482D01*
X140392760Y-86352483D01*
X140357010Y-86378456D01*
X140357010Y-86378457D01*
X140920591Y-86942037D01*
X140857007Y-86959075D01*
X140742993Y-87024901D01*
X140649901Y-87117993D01*
X140584075Y-87232007D01*
X140567037Y-87295590D01*
X140003457Y-86732010D01*
X140003456Y-86732010D01*
X139977483Y-86767760D01*
X139977482Y-86767762D01*
X139887873Y-86943626D01*
X139826876Y-87131353D01*
X139796000Y-87326302D01*
X139503567Y-87326302D01*
X139467819Y-87146583D01*
X139467817Y-87146578D01*
X139395870Y-86972881D01*
X139395863Y-86972868D01*
X139291408Y-86816542D01*
X139291405Y-86816538D01*
X139158461Y-86683594D01*
X139158457Y-86683591D01*
X139002131Y-86579136D01*
X139002118Y-86579129D01*
X138908319Y-86540277D01*
X138828421Y-86507182D01*
X138828409Y-86507179D01*
X138644013Y-86470500D01*
X138644010Y-86470500D01*
X138455990Y-86470500D01*
X138455987Y-86470500D01*
X138271590Y-86507179D01*
X138271578Y-86507182D01*
X138097881Y-86579129D01*
X138097868Y-86579136D01*
X137941542Y-86683591D01*
X137941538Y-86683594D01*
X137808594Y-86816538D01*
X137808591Y-86816542D01*
X137704136Y-86972868D01*
X137704129Y-86972881D01*
X137632182Y-87146578D01*
X137632179Y-87146590D01*
X137595500Y-87330985D01*
X137004499Y-87330985D01*
X137003309Y-87325001D01*
X136967819Y-87146583D01*
X136967817Y-87146578D01*
X136895870Y-86972881D01*
X136895863Y-86972868D01*
X136791408Y-86816542D01*
X136791405Y-86816538D01*
X136658461Y-86683594D01*
X136658457Y-86683591D01*
X136502131Y-86579136D01*
X136502118Y-86579129D01*
X136328421Y-86507182D01*
X136328409Y-86507179D01*
X136144013Y-86470500D01*
X136144010Y-86470500D01*
X135955990Y-86470500D01*
X135955987Y-86470500D01*
X135771590Y-86507179D01*
X135771578Y-86507182D01*
X135597881Y-86579129D01*
X135597868Y-86579136D01*
X135441542Y-86683591D01*
X135441538Y-86683594D01*
X135308594Y-86816538D01*
X135308591Y-86816542D01*
X135204136Y-86972868D01*
X135204129Y-86972881D01*
X135132182Y-87146578D01*
X135132179Y-87146590D01*
X135095500Y-87330985D01*
X128254500Y-87330985D01*
X128254500Y-86626249D01*
X128254499Y-86626247D01*
X128242868Y-86567770D01*
X128242867Y-86567769D01*
X128198552Y-86501447D01*
X128132230Y-86457132D01*
X128132229Y-86457131D01*
X128073752Y-86445500D01*
X128073748Y-86445500D01*
X126526252Y-86445500D01*
X126526247Y-86445500D01*
X126467770Y-86457131D01*
X126467769Y-86457132D01*
X126401447Y-86501447D01*
X126357132Y-86567769D01*
X126357131Y-86567770D01*
X126345500Y-86626247D01*
X125220199Y-86626247D01*
X125492989Y-86353457D01*
X125457239Y-86327483D01*
X125281373Y-86237873D01*
X125093646Y-86176876D01*
X124898697Y-86146000D01*
X124701303Y-86146000D01*
X124506353Y-86176876D01*
X124318626Y-86237873D01*
X124142762Y-86327482D01*
X124142760Y-86327483D01*
X124107010Y-86353456D01*
X124107010Y-86353457D01*
X124670591Y-86917037D01*
X124607007Y-86934075D01*
X124492993Y-86999901D01*
X124399901Y-87092993D01*
X124334075Y-87207007D01*
X124317037Y-87270590D01*
X123753457Y-86707010D01*
X123753456Y-86707010D01*
X123727483Y-86742760D01*
X123727482Y-86742762D01*
X123637873Y-86918626D01*
X123576876Y-87106353D01*
X123546000Y-87301302D01*
X123253567Y-87301302D01*
X123217819Y-87121583D01*
X123186751Y-87046578D01*
X123145870Y-86947881D01*
X123145863Y-86947868D01*
X123041408Y-86791542D01*
X123041405Y-86791538D01*
X122908461Y-86658594D01*
X122908457Y-86658591D01*
X122752131Y-86554136D01*
X122752118Y-86554129D01*
X122658319Y-86515277D01*
X122578421Y-86482182D01*
X122578409Y-86482179D01*
X122394013Y-86445500D01*
X122394010Y-86445500D01*
X122205990Y-86445500D01*
X122205987Y-86445500D01*
X122021590Y-86482179D01*
X122021578Y-86482182D01*
X121847881Y-86554129D01*
X121847868Y-86554136D01*
X121691542Y-86658591D01*
X121691538Y-86658594D01*
X121558594Y-86791538D01*
X121558591Y-86791542D01*
X121454136Y-86947868D01*
X121454129Y-86947881D01*
X121382182Y-87121578D01*
X121382179Y-87121590D01*
X121345500Y-87305985D01*
X120754499Y-87305985D01*
X120739784Y-87232007D01*
X120717819Y-87121583D01*
X120686751Y-87046578D01*
X120645870Y-86947881D01*
X120645863Y-86947868D01*
X120541408Y-86791542D01*
X120541405Y-86791538D01*
X120408461Y-86658594D01*
X120408457Y-86658591D01*
X120252131Y-86554136D01*
X120252118Y-86554129D01*
X120078421Y-86482182D01*
X120078409Y-86482179D01*
X119894013Y-86445500D01*
X119894010Y-86445500D01*
X119705990Y-86445500D01*
X119705987Y-86445500D01*
X119521590Y-86482179D01*
X119521578Y-86482182D01*
X119347881Y-86554129D01*
X119347868Y-86554136D01*
X119191542Y-86658591D01*
X119191538Y-86658594D01*
X119058594Y-86791538D01*
X119058591Y-86791542D01*
X118954136Y-86947868D01*
X118954129Y-86947881D01*
X118882182Y-87121578D01*
X118882179Y-87121590D01*
X118845500Y-87305985D01*
X105760900Y-87305985D01*
X105760900Y-85378460D01*
X162481600Y-85378460D01*
X162481600Y-85521540D01*
X162518632Y-85659745D01*
X162590172Y-85783655D01*
X162691345Y-85884828D01*
X162815255Y-85956368D01*
X162953460Y-85993400D01*
X162953462Y-85993400D01*
X163096537Y-85993400D01*
X163096540Y-85993400D01*
X163234745Y-85956368D01*
X163239782Y-85953460D01*
X165006600Y-85953460D01*
X165006600Y-86096540D01*
X165043632Y-86234745D01*
X165115172Y-86358655D01*
X165216345Y-86459828D01*
X165340255Y-86531368D01*
X165478460Y-86568400D01*
X165478462Y-86568400D01*
X165621537Y-86568400D01*
X165621540Y-86568400D01*
X165759745Y-86531368D01*
X165883655Y-86459828D01*
X165984828Y-86358655D01*
X166056368Y-86234745D01*
X166093400Y-86096540D01*
X166093400Y-85953460D01*
X166056368Y-85815255D01*
X165984828Y-85691345D01*
X165883655Y-85590172D01*
X165759745Y-85518632D01*
X165621540Y-85481600D01*
X165478460Y-85481600D01*
X165340255Y-85518632D01*
X165340253Y-85518632D01*
X165340253Y-85518633D01*
X165216345Y-85590172D01*
X165216342Y-85590174D01*
X165115174Y-85691342D01*
X165115172Y-85691345D01*
X165043632Y-85815255D01*
X165006600Y-85953460D01*
X163239782Y-85953460D01*
X163358655Y-85884828D01*
X163459828Y-85783655D01*
X163531368Y-85659745D01*
X163568400Y-85521540D01*
X163568400Y-85378460D01*
X163531368Y-85240255D01*
X163459828Y-85116345D01*
X163358655Y-85015172D01*
X163234745Y-84943632D01*
X163096540Y-84906600D01*
X162953460Y-84906600D01*
X162815255Y-84943632D01*
X162815253Y-84943632D01*
X162815253Y-84943633D01*
X162691345Y-85015172D01*
X162691342Y-85015174D01*
X162590174Y-85116342D01*
X162590172Y-85116345D01*
X162518632Y-85240255D01*
X162481600Y-85378460D01*
X105760900Y-85378460D01*
X105760900Y-78492680D01*
X105761095Y-78485727D01*
X105771109Y-78307406D01*
X105777484Y-78193891D01*
X105779038Y-78180098D01*
X105827415Y-77895367D01*
X105830509Y-77881815D01*
X105910460Y-77604300D01*
X105915053Y-77591175D01*
X105915968Y-77588967D01*
X106025575Y-77324351D01*
X106031595Y-77311851D01*
X106171302Y-77059068D01*
X106178697Y-77047300D01*
X106345822Y-76811759D01*
X106354477Y-76800905D01*
X106546934Y-76585546D01*
X106556746Y-76575734D01*
X106772105Y-76383277D01*
X106782959Y-76374622D01*
X107018505Y-76207493D01*
X107030268Y-76200102D01*
X107283051Y-76060395D01*
X107295551Y-76054375D01*
X107562379Y-75943851D01*
X107575496Y-75939261D01*
X107853021Y-75859307D01*
X107866567Y-75856215D01*
X108151298Y-75807838D01*
X108165091Y-75806284D01*
X108456928Y-75789895D01*
X108463881Y-75789700D01*
X108526292Y-75789700D01*
X191994508Y-75789700D01*
X192056919Y-75789700D01*
X192063872Y-75789895D01*
G37*
G04 #@! TD.AperFunction*
M02*
