M48
; DRILL file {KiCad 9.0.0} date 2025-12-22T10:36:32+0200
; FORMAT={-:-/ absolute / metric / decimal}
; #@! TF.CreationDate,2025-12-22T10:36:32+02:00
; #@! TF.GenerationSoftware,Kicad,Pcbnew,9.0.0
; #@! TF.FileFunction,Plated,1,4,PTH
FMAT,2
METRIC
; #@! TA.AperFunction,Plated,PTH,ViaDrill
T1C0.200
; #@! TA.AperFunction,Plated,PTH,ViaDrill
T2C0.330
; #@! TA.AperFunction,Plated,PTH,ViaDrill
T3C0.381
; #@! TA.AperFunction,Plated,PTH,ComponentDrill
T4C0.500
; #@! TA.AperFunction,Plated,PTH,ComponentDrill
T5C1.000
; #@! TA.AperFunction,Plated,PTH,ComponentDrill
T6C1.300
; #@! TA.AperFunction,Plated,PTH,ComponentDrill
T7C1.702
; #@! TA.AperFunction,Plated,PTH,ComponentDrill
T8C3.200
%
G90
G05
T1
X111.21Y-111.49
X111.75Y-110.25
X111.75Y-112.75
X113.0Y-113.0
X113.25Y-110.0
X114.0Y-112.25
X114.25Y-111.0
X119.18Y-101.04
X119.2Y-99.26
X119.2Y-99.8
X119.2Y-102.71
X120.55Y-101.26
X120.675Y-99.873
X121.762Y-98.804
X162.2Y-101.225
X163.2Y-100.4
X166.15Y-102.121
X171.3Y-96.93
X171.85Y-101.679
X173.87Y-96.698
X175.24Y-97.189
X175.37Y-97.751
X177.525Y-94.651
X177.579Y-95.225
X177.637Y-94.085
X177.79Y-97.16
X177.84Y-98.223
X178.35Y-101.914
X178.49Y-96.79
X178.784Y-103.056
X178.887Y-102.315
X179.15Y-97.75
X179.15Y-100.75
X179.25Y-94.02
X179.648Y-97.134
X179.65Y-98.25
X179.65Y-99.25
X179.804Y-91.801
X179.93Y-96.1
X180.145Y-100.242
X180.239Y-103.941
X180.32Y-112.2
X180.34Y-93.08
X180.36Y-110.51
X180.52Y-95.5
X180.59Y-107.89
X180.65Y-99.75
X180.85Y-111.29
X180.953Y-92.951
X181.14Y-100.76
X181.204Y-94.597
X181.366Y-96.32
X181.37Y-112.19
X181.41Y-110.5
X181.415Y-106.185
X181.65Y-99.75
X181.67Y-107.9
X181.775Y-106.655
X181.98Y-111.38
X182.145Y-100.742
X182.15Y-97.75
X182.21Y-91.84
X182.3Y-109.4
X182.34Y-94.35
X182.367Y-94.927
X182.367Y-95.42
X182.374Y-93.016
X182.415Y-106.595
X182.45Y-112.2
X182.49Y-110.51
X182.625Y-106.055
X182.645Y-96.76
X183.0Y-111.36
X183.33Y-99.06
X183.375Y-97.675
X183.54Y-112.22
X183.58Y-110.53
X183.689Y-94.48
X183.93Y-107.17
X184.02Y-109.85
X184.07Y-108.59
X184.22Y-106.42
X184.51Y-110.92
X184.51Y-112.4
X184.53Y-109.29
X184.73Y-101.04
X184.75Y-107.2
X184.87Y-102.91
X184.904Y-93.846
X185.02Y-111.63
X185.157Y-95.58
X185.157Y-96.19
X185.157Y-97.52
X185.18Y-106.46
X185.23Y-109.94
X185.28Y-108.68
X185.48Y-93.82
X185.59Y-110.93
X185.59Y-112.41
X185.65Y-107.17
X186.05Y-109.32
X186.1Y-111.64
X186.25Y-93.97
X186.25Y-106.38
X186.55Y-107.19
X186.66Y-109.9
X186.68Y-110.95
X186.68Y-112.43
X186.71Y-108.64
X187.08Y-103.05
X187.25Y-104.0
X187.25Y-107.0
X187.25Y-112.0
X187.41Y-95.66
X187.43Y-89.46
X187.5Y-109.0
X188.007Y-89.47
X188.13Y-103.04
X188.409Y-92.796
X188.45Y-92.22
X189.21Y-103.05
X189.99Y-97.93
X190.0Y-111.0
X190.25Y-105.06
X190.3Y-103.07
X190.561Y-97.85
X191.505Y-103.07
X191.75Y-104.75
X191.75Y-110.75
X192.13Y-102.33
X192.585Y-103.08
X193.22Y-102.35
X193.675Y-103.1
X193.75Y-107.25
X193.87Y-112.5
X194.0Y-108.75
X194.25Y-103.75
T2
X109.32Y-97.82
X109.34Y-99.43
X109.36Y-101.17
X110.38Y-97.299
X110.38Y-98.949
X110.38Y-100.469
X110.4Y-101.879
X111.72Y-103.07
X113.18Y-91.01
X113.18Y-92.66
X113.18Y-94.18
X113.2Y-95.59
X113.48Y-103.07
X114.57Y-91.63
X114.59Y-93.24
X114.61Y-94.98
X115.22Y-103.17
X115.85Y-91.06
X115.85Y-92.71
X115.85Y-94.23
X115.87Y-95.64
X117.172Y-100.536
X117.57Y-112.68
X117.61Y-113.92
X117.65Y-109.02
X117.65Y-110.52
X117.75Y-96.75
X117.75Y-105.25
X118.12Y-107.76
X118.28Y-99.22
X118.401Y-96.901
X118.94Y-110.46
X118.97Y-109.37
X119.0Y-113.31
X119.33Y-107.8
X119.4Y-98.01
X119.78Y-94.48
X120.713Y-100.567
X121.04Y-107.86
X121.446Y-104.0
X121.446Y-104.75
X122.08Y-106.57
X122.78Y-107.82
X123.43Y-106.55
X124.0Y-95.0
X124.2Y-107.91
X124.47Y-103.52
X124.47Y-105.02
X124.72Y-97.23
X124.73Y-95.97
X124.75Y-106.62
X125.5Y-95.0
X125.61Y-104.35
X125.61Y-106.06
X125.62Y-107.89
X125.64Y-98.289
X126.17Y-96.1
X126.5Y-98.99
X126.84Y-97.2
X126.99Y-94.93
X127.6Y-98.21
X127.62Y-96.12
X128.28Y-97.33
X128.29Y-94.98
X128.3Y-99.05
X142.1Y-101.275
X148.887Y-99.587
X152.18Y-97.84
X152.57Y-94.6
X153.03Y-93.17
X153.85Y-98.06
X154.4Y-94.27
X154.55Y-92.83
X155.44Y-97.84
X155.99Y-93.22
X156.08Y-91.77
X157.0Y-97.425
X157.53Y-91.81
X160.46Y-106.78
X160.48Y-109.92
X161.27Y-93.1
X161.31Y-94.52
X161.37Y-96.17
X162.42Y-91.81
X162.44Y-93.34
X162.637Y-94.537
X162.775Y-95.25
X162.9Y-97.159
X163.025Y-85.45
X163.5Y-90.52
X163.95Y-89.2
X164.79Y-91.35
X165.55Y-86.025
X166.16Y-90.52
X167.85Y-90.125
X169.32Y-90.52
X173.64Y-105.83
X174.448Y-105.738
X175.03Y-88.04
X175.102Y-94.587
X175.3Y-90.707
X175.48Y-91.64
X175.537Y-99.803
X176.34Y-87.98
X176.47Y-99.803
X177.46Y-99.835
X177.87Y-105.135
X178.472Y-92.784
X178.858Y-104.526
X178.924Y-103.716
X179.284Y-92.765
X179.585Y-105.12
X179.634Y-105.936
X179.634Y-106.736
X179.634Y-107.536
X179.634Y-108.336
X184.377Y-94.66
X186.242Y-99.794
X187.465Y-94.967
X187.51Y-87.039
X188.215Y-101.5
X188.48Y-97.19
X188.77Y-95.07
X189.579Y-95.148
X190.44Y-100.249
X190.64Y-100.84
T3
X134.225Y-103.0
X150.75Y-103.075
X158.925Y-91.175
T4
X107.86Y-79.789
X107.913Y-120.236
X108.563Y-78.092
X108.563Y-81.486
X108.616Y-118.539
X108.616Y-121.933
X110.26Y-77.389
X110.26Y-82.189
X110.313Y-117.836
X110.313Y-122.636
X111.957Y-78.092
X111.957Y-81.486
X112.01Y-118.539
X112.01Y-121.933
X112.66Y-79.789
X112.713Y-120.236
X188.11Y-79.84
X188.11Y-120.289
X188.813Y-78.143
X188.813Y-81.537
X188.813Y-118.592
X188.813Y-121.986
X190.51Y-77.44
X190.51Y-82.24
X190.51Y-117.889
X190.51Y-122.689
X192.207Y-78.143
X192.207Y-81.537
X192.207Y-118.592
X192.207Y-121.986
X192.91Y-79.84
X192.91Y-120.289
T5
X119.8Y-87.4
X122.3Y-87.4
X124.8Y-87.4
X127.3Y-87.4
X131.725Y-104.4
X134.225Y-104.4
X136.05Y-87.425
X136.725Y-104.4
X138.55Y-87.425
X139.225Y-104.4
X141.05Y-87.425
X143.55Y-87.425
X148.25Y-104.325
X150.75Y-104.325
X152.487Y-87.325
X153.25Y-104.325
X154.987Y-87.325
X155.75Y-104.325
X157.487Y-87.325
X159.987Y-87.325
T6
X112.64Y-106.456
X112.64Y-111.456
T7
X188.35Y-105.44
X188.35Y-110.52
X190.89Y-107.98
X193.43Y-105.44
X193.43Y-110.52
T8
X110.26Y-79.789
X110.313Y-120.236
X190.51Y-79.84
X190.51Y-120.289
M30
