G04 #@! TF.GenerationSoftware,KiCad,Pcbnew,9.0.0*
G04 #@! TF.CreationDate,2025-12-22T10:36:45+02:00*
G04 #@! TF.ProjectId,stm32wl5_karavakia,73746d33-3277-46c3-955f-6b6172617661,rev?*
G04 #@! TF.SameCoordinates,Original*
G04 #@! TF.FileFunction,Copper,L4,Bot*
G04 #@! TF.FilePolarity,Positive*
%FSLAX46Y46*%
G04 Gerber Fmt 4.6, Leading zero omitted, Abs format (unit mm)*
G04 Created by KiCad (PCBNEW 9.0.0) date 2025-12-22 10:36:45*
%MOMM*%
%LPD*%
G01*
G04 APERTURE LIST*
G04 #@! TA.AperFunction,ComponentPad*
%ADD10C,2.209800*%
G04 #@! TD*
G04 #@! TA.AperFunction,ComponentPad*
%ADD11R,1.508000X1.508000*%
G04 #@! TD*
G04 #@! TA.AperFunction,ComponentPad*
%ADD12C,1.508000*%
G04 #@! TD*
G04 #@! TA.AperFunction,ComponentPad*
%ADD13C,0.800000*%
G04 #@! TD*
G04 #@! TA.AperFunction,ComponentPad*
%ADD14C,6.400000*%
G04 #@! TD*
G04 #@! TA.AperFunction,ComponentPad*
%ADD15R,1.950000X1.950000*%
G04 #@! TD*
G04 #@! TA.AperFunction,ComponentPad*
%ADD16C,1.950000*%
G04 #@! TD*
G04 #@! TA.AperFunction,ViaPad*
%ADD17C,0.450000*%
G04 #@! TD*
G04 #@! TA.AperFunction,ViaPad*
%ADD18C,0.685800*%
G04 #@! TD*
G04 #@! TA.AperFunction,ViaPad*
%ADD19C,0.889000*%
G04 #@! TD*
G04 #@! TA.AperFunction,Conductor*
%ADD20C,0.127000*%
G04 #@! TD*
G04 #@! TA.AperFunction,Conductor*
%ADD21C,0.100000*%
G04 #@! TD*
G04 #@! TA.AperFunction,Conductor*
%ADD22C,0.254000*%
G04 #@! TD*
G04 #@! TA.AperFunction,Conductor*
%ADD23C,0.090000*%
G04 #@! TD*
G04 #@! TA.AperFunction,Conductor*
%ADD24C,0.349300*%
G04 #@! TD*
G04 APERTURE END LIST*
D10*
X190890000Y-107980000D03*
X193430000Y-105440000D03*
X188350000Y-105440000D03*
X188350000Y-110520000D03*
X193430000Y-110520000D03*
D11*
X127300000Y-87400000D03*
D12*
X124800000Y-87400000D03*
X122300000Y-87400000D03*
X119800000Y-87400000D03*
D11*
X143550000Y-87425000D03*
D12*
X141050000Y-87425000D03*
X138550000Y-87425000D03*
X136050000Y-87425000D03*
D13*
X107860400Y-79789200D03*
X108563344Y-78092144D03*
X108563344Y-81486256D03*
X110260400Y-77389200D03*
D14*
X110260400Y-79789200D03*
D13*
X110260400Y-82189200D03*
X111957456Y-78092144D03*
X111957456Y-81486256D03*
X112660400Y-79789200D03*
X188110400Y-120289200D03*
X188813344Y-118592144D03*
X188813344Y-121986256D03*
X190510400Y-117889200D03*
D14*
X190510400Y-120289200D03*
D13*
X190510400Y-122689200D03*
X192207456Y-118592144D03*
X192207456Y-121986256D03*
X192910400Y-120289200D03*
D11*
X148250000Y-104325000D03*
D12*
X150750000Y-104325000D03*
X153250000Y-104325000D03*
X155750000Y-104325000D03*
D13*
X107913344Y-120236256D03*
X108616288Y-118539200D03*
X108616288Y-121933312D03*
X110313344Y-117836256D03*
D14*
X110313344Y-120236256D03*
D13*
X110313344Y-122636256D03*
X112010400Y-118539200D03*
X112010400Y-121933312D03*
X112713344Y-120236256D03*
D15*
X112639800Y-106455600D03*
D16*
X112639800Y-111455600D03*
D11*
X159987500Y-87325000D03*
D12*
X157487500Y-87325000D03*
X154987500Y-87325000D03*
X152487500Y-87325000D03*
D13*
X188110000Y-79840000D03*
X188812944Y-78142944D03*
X188812944Y-81537056D03*
X190510000Y-77440000D03*
D14*
X190510000Y-79840000D03*
D13*
X190510000Y-82240000D03*
X192207056Y-78142944D03*
X192207056Y-81537056D03*
X192910000Y-79840000D03*
D11*
X131725000Y-104400000D03*
D12*
X134225000Y-104400000D03*
X136725000Y-104400000D03*
X139225000Y-104400000D03*
D17*
X180650000Y-99750000D03*
X178887170Y-102315400D03*
D18*
X179634200Y-107536000D03*
X178857863Y-104526091D03*
D17*
X183580000Y-110530000D03*
X185590000Y-112410000D03*
D18*
X122080000Y-106570000D03*
X190640000Y-100840000D03*
D17*
X186250000Y-106380000D03*
D18*
X126840000Y-97200000D03*
X117750000Y-96750000D03*
X175480000Y-91640000D03*
D17*
X188450000Y-92220000D03*
D18*
X113180000Y-91010000D03*
X153030000Y-93170000D03*
X155440000Y-97840000D03*
X162420000Y-91810000D03*
X128280000Y-97330000D03*
X117570000Y-112680000D03*
X126170000Y-96100000D03*
X175537197Y-99803100D03*
D17*
X182340000Y-94350000D03*
X193220000Y-102350000D03*
D18*
X126990000Y-94930000D03*
D17*
X182450000Y-112200000D03*
X181670000Y-107900000D03*
X186050000Y-109320000D03*
D18*
X177870000Y-105134800D03*
D17*
X193870000Y-112500000D03*
D18*
X123430000Y-106550000D03*
D17*
X111210000Y-111490000D03*
X120550300Y-101259700D03*
D18*
X124730000Y-95970000D03*
X124000000Y-95000000D03*
X121445702Y-104000000D03*
D17*
X185157400Y-96190000D03*
X182210000Y-91840000D03*
X187250000Y-107000000D03*
D18*
X121445702Y-104750000D03*
X124470000Y-105020000D03*
D17*
X193750000Y-107250000D03*
D18*
X161310000Y-94520000D03*
D17*
X184070000Y-108590000D03*
X187410000Y-95660000D03*
D18*
X161370000Y-96170000D03*
D17*
X184870000Y-102910000D03*
X119200000Y-102710000D03*
D18*
X118970000Y-109370000D03*
X113180000Y-94180000D03*
X114590000Y-93240000D03*
D17*
X189210000Y-103050000D03*
X185590000Y-110930000D03*
D18*
X153850000Y-98060000D03*
D17*
X184220000Y-106420000D03*
D18*
X128300000Y-99050000D03*
D17*
X185650000Y-107170000D03*
D18*
X166160000Y-90520000D03*
D17*
X194250000Y-103750000D03*
X186660000Y-109900000D03*
X185180000Y-106460000D03*
X190561430Y-97850000D03*
D18*
X113180000Y-92660000D03*
D17*
X119200000Y-99260000D03*
X186100000Y-111640000D03*
X186680000Y-110950000D03*
D18*
X118400625Y-96900625D03*
D17*
X119200000Y-99800000D03*
X184530000Y-109290000D03*
D18*
X187510400Y-87039200D03*
X169320000Y-90520000D03*
X118940000Y-110460000D03*
D17*
X179804000Y-91801408D03*
X191750000Y-110750000D03*
D18*
X157530000Y-91810000D03*
D17*
X171300000Y-96930000D03*
X178490000Y-96790000D03*
D18*
X127600000Y-98210000D03*
X115850000Y-94230000D03*
D17*
X182490000Y-110510000D03*
D18*
X162440000Y-93340000D03*
D17*
X188130000Y-103040000D03*
D18*
X113200000Y-95590000D03*
X124750000Y-106620000D03*
D17*
X194000000Y-108750000D03*
D18*
X179634200Y-106736000D03*
D17*
X182373705Y-93016295D03*
D18*
X188215098Y-101500000D03*
D17*
X111750000Y-110250000D03*
D18*
X119000000Y-113310000D03*
X109360000Y-101170000D03*
D17*
X187250000Y-104000000D03*
D18*
X109340000Y-99430000D03*
X109320000Y-97820000D03*
X115220000Y-103170000D03*
X179585400Y-105120000D03*
X125500000Y-95000000D03*
X125610000Y-104350000D03*
D17*
X185157400Y-97520000D03*
X179650000Y-99250000D03*
D18*
X117610000Y-113920000D03*
D19*
X150750000Y-103075000D03*
D17*
X186680000Y-112430000D03*
X111750000Y-112750000D03*
D18*
X160480000Y-109920000D03*
D17*
X113250000Y-110000000D03*
D18*
X122780000Y-107820000D03*
D17*
X181365800Y-96320000D03*
D18*
X113480000Y-103070000D03*
D17*
X183930000Y-107170000D03*
D18*
X189579091Y-95147584D03*
X110380000Y-98948900D03*
X124720000Y-97230000D03*
D17*
X184510000Y-110920000D03*
D18*
X115870000Y-95640000D03*
X161270000Y-93100000D03*
D17*
X180239100Y-103940900D03*
X192585000Y-103080000D03*
D18*
X110380000Y-97298900D03*
D17*
X187500000Y-109000000D03*
X114000000Y-112250000D03*
D18*
X186242241Y-99793685D03*
X152570000Y-94600000D03*
X152180000Y-97840000D03*
X114610000Y-94980000D03*
X173640000Y-105830000D03*
X110380000Y-100468900D03*
D17*
X192130000Y-102330000D03*
X187080000Y-103050000D03*
D18*
X120712900Y-100566900D03*
X114570000Y-91630000D03*
D17*
X191750000Y-104750000D03*
X119180000Y-101040000D03*
X185280000Y-108680000D03*
D18*
X124200000Y-107910000D03*
D17*
X180360000Y-110510000D03*
X191505000Y-103070000D03*
X181370000Y-112190000D03*
X181414503Y-106184816D03*
D18*
X121040000Y-107860000D03*
D17*
X182624503Y-106054816D03*
D18*
X179634200Y-105936000D03*
X124470000Y-103520000D03*
X117650000Y-110520000D03*
X127620000Y-96120000D03*
X125620000Y-107890000D03*
D17*
X184510000Y-112400000D03*
X193675000Y-103100000D03*
X181774503Y-106654816D03*
X182300000Y-109400000D03*
X114250000Y-111000000D03*
X113000000Y-113000000D03*
X181140000Y-100760000D03*
D18*
X162900000Y-97159200D03*
X190440400Y-100249200D03*
X126500000Y-98990000D03*
D17*
X183540000Y-112220000D03*
D18*
X128290000Y-94980000D03*
D17*
X180320000Y-112200000D03*
X180850000Y-111290000D03*
D18*
X125610000Y-106060000D03*
X154550000Y-92830000D03*
D17*
X181980000Y-111380000D03*
X179250000Y-94020000D03*
X187250000Y-112000000D03*
X180590000Y-107890000D03*
D18*
X125640000Y-98289200D03*
D17*
X184020000Y-109850000D03*
D18*
X117650000Y-109020000D03*
D17*
X190250000Y-105060000D03*
X188006911Y-89470302D03*
D18*
X111720000Y-103070000D03*
X162775000Y-95250000D03*
D19*
X134225000Y-103000000D03*
D17*
X183000000Y-111360000D03*
D18*
X160460000Y-106780000D03*
X110400000Y-101878900D03*
X156080000Y-91770000D03*
D17*
X181410000Y-110500000D03*
D18*
X119330000Y-107800000D03*
X154400000Y-94270000D03*
X155990000Y-93220000D03*
D17*
X184730000Y-101040000D03*
X186550000Y-107190000D03*
X190300000Y-103070000D03*
D18*
X163500000Y-90520000D03*
D17*
X190000000Y-111000000D03*
D18*
X176340000Y-87980000D03*
X115850000Y-92710000D03*
X179634200Y-108336000D03*
X117172370Y-100536401D03*
X117750000Y-105250000D03*
D17*
X182414503Y-106594816D03*
X184903593Y-93846201D03*
X185020000Y-111630000D03*
X185230000Y-109940000D03*
X186710000Y-108640000D03*
D18*
X162637500Y-94537500D03*
D17*
X184750000Y-107200000D03*
D18*
X115850000Y-91060000D03*
X118120000Y-107760000D03*
D17*
X177636970Y-94084766D03*
X179150000Y-97750000D03*
X175370257Y-97751108D03*
X181650000Y-99750000D03*
X182645200Y-96760000D03*
D18*
X163025000Y-85450000D03*
X179284498Y-92765000D03*
D17*
X179648000Y-97133800D03*
D18*
X178471912Y-92783773D03*
X163950000Y-89200000D03*
X142100000Y-101275000D03*
D17*
X179650000Y-98250000D03*
X180145200Y-100242000D03*
X163200000Y-100400000D03*
X179150000Y-100750000D03*
X162200000Y-101225000D03*
X177790000Y-97160000D03*
X175240000Y-97189000D03*
X183375000Y-97675000D03*
X183688986Y-94480000D03*
X182150000Y-97750000D03*
D18*
X175300000Y-90706800D03*
D17*
X120674980Y-99873033D03*
X121761882Y-98804485D03*
X177525000Y-94650800D03*
D18*
X175102500Y-94587500D03*
D17*
X181204410Y-94597000D03*
X180953388Y-92950797D03*
D18*
X148887500Y-99587500D03*
D17*
X178350000Y-101913615D03*
X166150000Y-102121000D03*
X177840000Y-98223000D03*
X173870000Y-96697998D03*
D18*
X118280000Y-99220000D03*
X187464978Y-94967275D03*
D17*
X189990000Y-97930000D03*
X182367002Y-95420000D03*
X188408891Y-92795536D03*
X182145200Y-100742000D03*
D18*
X176470000Y-99803100D03*
X184376669Y-94660314D03*
X119400000Y-98010000D03*
X178924200Y-103716000D03*
X177460000Y-99835300D03*
X175030000Y-88040000D03*
X119780000Y-94480000D03*
D17*
X180520000Y-95500000D03*
D18*
X167850000Y-90125000D03*
X188770000Y-95070000D03*
X188480000Y-97190000D03*
X174447578Y-105737997D03*
D17*
X186250000Y-93970000D03*
X171850000Y-101679000D03*
X180340000Y-93080000D03*
X185480000Y-93820000D03*
X179930000Y-96100000D03*
X185157400Y-95580000D03*
X183330000Y-99060000D03*
X182367002Y-94927003D03*
D18*
X165550000Y-86025000D03*
X164790000Y-91350000D03*
D19*
X158925000Y-91175000D03*
D17*
X178784200Y-103056000D03*
X177578969Y-95225273D03*
X187430000Y-89460000D03*
D18*
X157000000Y-97425000D03*
D20*
X180650000Y-100552570D02*
X178887170Y-102315400D01*
X180650000Y-99750000D02*
X180650000Y-100552570D01*
X181140000Y-100760000D02*
X180239100Y-101660900D01*
X180239100Y-101660900D02*
X180239100Y-103940900D01*
X179829605Y-97750000D02*
X179150000Y-97750000D01*
X179150000Y-97750000D02*
X175371365Y-97750000D01*
D21*
X179140000Y-97760000D02*
X179150000Y-97750000D01*
D20*
X175371365Y-97750000D02*
X175370257Y-97751108D01*
X181650000Y-99750000D02*
X181650000Y-99570395D01*
X181650000Y-99570395D02*
X179829605Y-97750000D01*
D22*
X163025000Y-85450000D02*
X154362500Y-85450000D01*
X182670600Y-96734600D02*
X182664600Y-96734600D01*
X182645200Y-96760000D02*
X182670600Y-96734600D01*
X182664600Y-96734600D02*
X179284498Y-93354498D01*
X154362500Y-85450000D02*
X152487500Y-87325000D01*
X179284498Y-93354498D02*
X179284498Y-92765000D01*
X140550000Y-89425000D02*
X152887500Y-89425000D01*
X122300000Y-87400000D02*
X124325000Y-89425000D01*
X154987500Y-87325000D02*
X156862500Y-89200000D01*
X138550000Y-87425000D02*
X140550000Y-89425000D01*
X178471912Y-96084712D02*
X179521000Y-97133800D01*
X178471912Y-92783773D02*
X178471912Y-96084712D01*
X156862500Y-89200000D02*
X163950000Y-89200000D01*
X124325000Y-89425000D02*
X136550000Y-89425000D01*
X152887500Y-89425000D02*
X154987500Y-87325000D01*
X179521000Y-97133800D02*
X179648000Y-97133800D01*
X136550000Y-89425000D02*
X138550000Y-87425000D01*
D20*
X179650000Y-98250000D02*
X179630000Y-98250000D01*
D22*
X144606968Y-98768032D02*
X144142500Y-99232500D01*
X179131968Y-98768032D02*
X144606968Y-98768032D01*
X142100000Y-101275000D02*
X144142500Y-99232500D01*
X179650000Y-98250000D02*
X179131968Y-98768032D01*
D23*
X180037000Y-100350200D02*
X177050000Y-100350200D01*
X177050000Y-100350200D02*
X177000200Y-100400000D01*
D22*
X163200000Y-100400000D02*
X177000200Y-100400000D01*
D23*
X180145200Y-100242000D02*
X180037000Y-100350200D01*
D22*
X177950000Y-101200000D02*
X162225000Y-101200000D01*
D23*
X179150000Y-100760000D02*
X178710000Y-101200000D01*
X178710000Y-101200000D02*
X177950000Y-101200000D01*
D22*
X162225000Y-101200000D02*
X162200000Y-101225000D01*
D23*
X179150000Y-100750000D02*
X179150000Y-100760000D01*
D20*
X177761000Y-97189000D02*
X175240000Y-97189000D01*
X177790000Y-97160000D02*
X177761000Y-97189000D01*
D22*
X175269000Y-97160000D02*
X175240000Y-97189000D01*
D20*
X183688986Y-97361014D02*
X183688986Y-94480000D01*
X183375000Y-97675000D02*
X183688986Y-97361014D01*
D22*
X183150600Y-97159156D02*
X183150600Y-94470600D01*
X183150600Y-94470600D02*
X179438400Y-90758400D01*
X182559756Y-97750000D02*
X183150600Y-97159156D01*
X182150000Y-97750000D02*
X182559756Y-97750000D01*
X179438400Y-90758400D02*
X175351600Y-90758400D01*
X175351600Y-90758400D02*
X175300000Y-90706800D01*
X121761882Y-98804485D02*
X121761882Y-98818118D01*
X120706967Y-99873033D02*
X120674980Y-99873033D01*
X121761882Y-98818118D02*
X120706967Y-99873033D01*
X175165800Y-94650800D02*
X177525000Y-94650800D01*
X180953388Y-94345978D02*
X180953388Y-92950797D01*
X181204410Y-94597000D02*
X180953388Y-94345978D01*
X148887500Y-99587500D02*
X148250000Y-100225000D01*
X148250000Y-100225000D02*
X148250000Y-104325000D01*
X172048823Y-102159000D02*
X172057823Y-102150000D01*
D24*
X167700000Y-102150000D02*
X166179000Y-102150000D01*
X166179000Y-102150000D02*
X166150000Y-102121000D01*
D22*
X171642177Y-102150000D02*
X171651177Y-102159000D01*
X171651177Y-102159000D02*
X172048823Y-102159000D01*
X172057823Y-102150000D02*
X178100000Y-102150000D01*
X167700000Y-102150000D02*
X171642177Y-102150000D01*
X178100000Y-102150000D02*
X178336385Y-101913615D01*
X178336385Y-101913615D02*
X178350000Y-101913615D01*
D20*
X173870000Y-97072052D02*
X173870000Y-96697998D01*
X177840000Y-98223000D02*
X177823000Y-98240000D01*
X175037948Y-98240000D02*
X173870000Y-97072052D01*
X177823000Y-98240000D02*
X175037948Y-98240000D01*
D22*
X187497700Y-98192300D02*
X184694900Y-98192300D01*
X188350000Y-97320000D02*
X188350000Y-97340000D01*
X182228000Y-100742000D02*
X182145200Y-100742000D01*
X188350000Y-97340000D02*
X187497700Y-98192300D01*
X184694900Y-98192300D02*
X182145200Y-100742000D01*
X188480000Y-97190000D02*
X188350000Y-97320000D01*
G04 #@! TA.AperFunction,Conductor*
G36*
X180176819Y-98471807D02*
G01*
X180187852Y-98481599D01*
X180822384Y-99116131D01*
X180855869Y-99177454D01*
X180850885Y-99247146D01*
X180809013Y-99303079D01*
X180743549Y-99327496D01*
X180714188Y-99324692D01*
X180714074Y-99325561D01*
X180706019Y-99324500D01*
X180706018Y-99324500D01*
X180593982Y-99324500D01*
X180485763Y-99353497D01*
X180485760Y-99353498D01*
X180388740Y-99409513D01*
X180388734Y-99409517D01*
X180309517Y-99488734D01*
X180309513Y-99488740D01*
X180253498Y-99585760D01*
X180253497Y-99585763D01*
X180224500Y-99693982D01*
X180223439Y-99702042D01*
X180221762Y-99701821D01*
X180204815Y-99759539D01*
X180152011Y-99805294D01*
X180100500Y-99816500D01*
X180089182Y-99816500D01*
X179980963Y-99845497D01*
X179980960Y-99845498D01*
X179883940Y-99901513D01*
X179883934Y-99901517D01*
X179804717Y-99980734D01*
X179804715Y-99980737D01*
X179768940Y-100042701D01*
X179718372Y-100090916D01*
X179661553Y-100104700D01*
X178111983Y-100104700D01*
X178044944Y-100085015D01*
X177999189Y-100032211D01*
X177989245Y-99963053D01*
X177992205Y-99948618D01*
X178003400Y-99906840D01*
X178003400Y-99763760D01*
X177966368Y-99625555D01*
X177894828Y-99501645D01*
X177793655Y-99400472D01*
X177669745Y-99328932D01*
X177669744Y-99328931D01*
X177666258Y-99326919D01*
X177618043Y-99276352D01*
X177604821Y-99207744D01*
X177630789Y-99142880D01*
X177687703Y-99102352D01*
X177728259Y-99095532D01*
X179175082Y-99095532D01*
X179175084Y-99095532D01*
X179258378Y-99073213D01*
X179333058Y-99030097D01*
X179657441Y-98705713D01*
X179713023Y-98673622D01*
X179814237Y-98646503D01*
X179911263Y-98590485D01*
X179990485Y-98511263D01*
X179992782Y-98507283D01*
X180043347Y-98459067D01*
X180111953Y-98445841D01*
X180176819Y-98471807D01*
G37*
G04 #@! TD.AperFunction*
G04 #@! TA.AperFunction,Conductor*
G36*
X181486091Y-93269692D02*
G01*
X181492569Y-93275724D01*
X182506667Y-94289822D01*
X182540152Y-94351145D01*
X182535168Y-94420837D01*
X182493296Y-94476770D01*
X182427832Y-94501187D01*
X182418986Y-94501503D01*
X182310984Y-94501503D01*
X182202765Y-94530500D01*
X182202762Y-94530501D01*
X182105742Y-94586516D01*
X182105736Y-94586520D01*
X182026519Y-94665737D01*
X182026515Y-94665743D01*
X181970500Y-94762763D01*
X181970499Y-94762766D01*
X181941502Y-94870985D01*
X181941502Y-94983021D01*
X181959661Y-95050789D01*
X181970499Y-95091239D01*
X181970501Y-95091244D01*
X181982197Y-95111503D01*
X181998668Y-95179403D01*
X181990783Y-95217387D01*
X181987221Y-95226797D01*
X181970499Y-95255763D01*
X181956522Y-95307922D01*
X181954328Y-95313723D01*
X181936849Y-95336841D01*
X181921764Y-95361591D01*
X181916033Y-95364374D01*
X181912191Y-95369457D01*
X181884985Y-95379456D01*
X181858917Y-95392120D01*
X181852591Y-95391363D01*
X181846611Y-95393562D01*
X181818316Y-95387265D01*
X181789542Y-95383825D01*
X181783020Y-95379410D01*
X181778410Y-95378385D01*
X181772116Y-95372030D01*
X181750673Y-95357518D01*
X181485837Y-95092682D01*
X181452352Y-95031359D01*
X181457336Y-94961667D01*
X181485833Y-94917324D01*
X181544895Y-94858263D01*
X181600913Y-94761237D01*
X181629910Y-94653018D01*
X181629910Y-94540982D01*
X181600913Y-94432763D01*
X181544895Y-94335737D01*
X181465673Y-94256515D01*
X181396370Y-94216503D01*
X181368649Y-94200498D01*
X181361140Y-94197388D01*
X181362092Y-94195089D01*
X181313118Y-94165225D01*
X181282601Y-94102372D01*
X181280888Y-94081833D01*
X181280888Y-93363405D01*
X181300573Y-93296366D01*
X181353377Y-93250611D01*
X181422535Y-93240667D01*
X181486091Y-93269692D01*
G37*
G04 #@! TD.AperFunction*
G04 #@! TA.AperFunction,Conductor*
G36*
X192063872Y-75789895D02*
G01*
X192355706Y-75806284D01*
X192369503Y-75807838D01*
X192654227Y-75856215D01*
X192667784Y-75859309D01*
X192945299Y-75939260D01*
X192958425Y-75943853D01*
X193225241Y-76054372D01*
X193237755Y-76060398D01*
X193437941Y-76171036D01*
X193490525Y-76200099D01*
X193502299Y-76207497D01*
X193737830Y-76374615D01*
X193748702Y-76383285D01*
X193910111Y-76527529D01*
X193964042Y-76575724D01*
X193973875Y-76585557D01*
X194166314Y-76800897D01*
X194174984Y-76811769D01*
X194342102Y-77047300D01*
X194349500Y-77059074D01*
X194489197Y-77311837D01*
X194495230Y-77324365D01*
X194605746Y-77591175D01*
X194610339Y-77604300D01*
X194690290Y-77881815D01*
X194693384Y-77895372D01*
X194741759Y-78180085D01*
X194743316Y-78193903D01*
X194759705Y-78485727D01*
X194759900Y-78492680D01*
X194759900Y-104566709D01*
X194740215Y-104633748D01*
X194687411Y-104679503D01*
X194618253Y-104689447D01*
X194554697Y-104660422D01*
X194535583Y-104639595D01*
X194496428Y-104585704D01*
X194496426Y-104585703D01*
X194128431Y-104953697D01*
X194090937Y-104897583D01*
X193972417Y-104779063D01*
X193916301Y-104741567D01*
X194284295Y-104373573D01*
X194284294Y-104373572D01*
X194145364Y-104272632D01*
X193953940Y-104175097D01*
X193953937Y-104175095D01*
X193749616Y-104108708D01*
X193537425Y-104075100D01*
X193322575Y-104075100D01*
X193110383Y-104108708D01*
X192906062Y-104175095D01*
X192906059Y-104175097D01*
X192714635Y-104272632D01*
X192575704Y-104373572D01*
X192575703Y-104373572D01*
X192943698Y-104741567D01*
X192887583Y-104779063D01*
X192769063Y-104897583D01*
X192731567Y-104953698D01*
X192363572Y-104585703D01*
X192363572Y-104585704D01*
X192262632Y-104724635D01*
X192165097Y-104916059D01*
X192165095Y-104916062D01*
X192098708Y-105120383D01*
X192065100Y-105332574D01*
X192065100Y-105547425D01*
X192098708Y-105759616D01*
X192165095Y-105963937D01*
X192165097Y-105963940D01*
X192262632Y-106155364D01*
X192363572Y-106294294D01*
X192363573Y-106294295D01*
X192731567Y-105926300D01*
X192769063Y-105982417D01*
X192887583Y-106100937D01*
X192943698Y-106138432D01*
X192575703Y-106506426D01*
X192714635Y-106607367D01*
X192906059Y-106704902D01*
X192906062Y-106704904D01*
X193110383Y-106771291D01*
X193322575Y-106804900D01*
X193537425Y-106804900D01*
X193749616Y-106771291D01*
X193953937Y-106704904D01*
X193953940Y-106704902D01*
X194145356Y-106607371D01*
X194145362Y-106607367D01*
X194284294Y-106506426D01*
X194284295Y-106506426D01*
X193916301Y-106138432D01*
X193972417Y-106100937D01*
X194090937Y-105982417D01*
X194128432Y-105926301D01*
X194496426Y-106294295D01*
X194496427Y-106294294D01*
X194535582Y-106240403D01*
X194590912Y-106197737D01*
X194660525Y-106191758D01*
X194722320Y-106224364D01*
X194756677Y-106285202D01*
X194759900Y-106313288D01*
X194759900Y-109646709D01*
X194740215Y-109713748D01*
X194687411Y-109759503D01*
X194618253Y-109769447D01*
X194554697Y-109740422D01*
X194535583Y-109719595D01*
X194496428Y-109665704D01*
X194496426Y-109665703D01*
X194128431Y-110033697D01*
X194090937Y-109977583D01*
X193972417Y-109859063D01*
X193916301Y-109821567D01*
X194284295Y-109453573D01*
X194284294Y-109453572D01*
X194145364Y-109352632D01*
X193953940Y-109255097D01*
X193953937Y-109255095D01*
X193749616Y-109188708D01*
X193537425Y-109155100D01*
X193322575Y-109155100D01*
X193110383Y-109188708D01*
X192906062Y-109255095D01*
X192906059Y-109255097D01*
X192714635Y-109352632D01*
X192575704Y-109453572D01*
X192575703Y-109453572D01*
X192943698Y-109821567D01*
X192887583Y-109859063D01*
X192769063Y-109977583D01*
X192731567Y-110033698D01*
X192363572Y-109665703D01*
X192363572Y-109665704D01*
X192262632Y-109804635D01*
X192165097Y-109996059D01*
X192165095Y-109996062D01*
X192098708Y-110200383D01*
X192065100Y-110412574D01*
X192065100Y-110627425D01*
X192098708Y-110839616D01*
X192165095Y-111043937D01*
X192165097Y-111043940D01*
X192262632Y-111235364D01*
X192363572Y-111374294D01*
X192363573Y-111374295D01*
X192731567Y-111006300D01*
X192769063Y-111062417D01*
X192887583Y-111180937D01*
X192943698Y-111218432D01*
X192575703Y-111586426D01*
X192714635Y-111687367D01*
X192906059Y-111784902D01*
X192906062Y-111784904D01*
X193110383Y-111851291D01*
X193322575Y-111884900D01*
X193537425Y-111884900D01*
X193749616Y-111851291D01*
X193953937Y-111784904D01*
X193953940Y-111784902D01*
X194145356Y-111687371D01*
X194145362Y-111687367D01*
X194284294Y-111586426D01*
X194284295Y-111586426D01*
X193916301Y-111218432D01*
X193972417Y-111180937D01*
X194090937Y-111062417D01*
X194128432Y-111006301D01*
X194496426Y-111374295D01*
X194496427Y-111374294D01*
X194535582Y-111320403D01*
X194590912Y-111277737D01*
X194660525Y-111271758D01*
X194722320Y-111304364D01*
X194756677Y-111365202D01*
X194759900Y-111393288D01*
X194759900Y-122085719D01*
X194759705Y-122092672D01*
X194743316Y-122384496D01*
X194741759Y-122398314D01*
X194693384Y-122683027D01*
X194690290Y-122696584D01*
X194610339Y-122974099D01*
X194605746Y-122987224D01*
X194495230Y-123254034D01*
X194489197Y-123266562D01*
X194349500Y-123519325D01*
X194342102Y-123531099D01*
X194174984Y-123766630D01*
X194166314Y-123777502D01*
X193973875Y-123992842D01*
X193964042Y-124002675D01*
X193748702Y-124195114D01*
X193737830Y-124203784D01*
X193502299Y-124370902D01*
X193490525Y-124378300D01*
X193237762Y-124517997D01*
X193225234Y-124524030D01*
X192958424Y-124634546D01*
X192945299Y-124639139D01*
X192667784Y-124719090D01*
X192654227Y-124722184D01*
X192369514Y-124770559D01*
X192355696Y-124772116D01*
X192063872Y-124788505D01*
X192056919Y-124788700D01*
X108463881Y-124788700D01*
X108456928Y-124788505D01*
X108165103Y-124772116D01*
X108151285Y-124770559D01*
X107866572Y-124722184D01*
X107853015Y-124719090D01*
X107575500Y-124639139D01*
X107562375Y-124634546D01*
X107295565Y-124524030D01*
X107283037Y-124517997D01*
X107030274Y-124378300D01*
X107018500Y-124370902D01*
X106782969Y-124203784D01*
X106772097Y-124195114D01*
X106556757Y-124002675D01*
X106546924Y-123992842D01*
X106354485Y-123777502D01*
X106345815Y-123766630D01*
X106178697Y-123531099D01*
X106171299Y-123519325D01*
X106031602Y-123266562D01*
X106025572Y-123254041D01*
X105915053Y-122987224D01*
X105910460Y-122974099D01*
X105857108Y-122788912D01*
X105830509Y-122696583D01*
X105827415Y-122683027D01*
X105809363Y-122576779D01*
X105779038Y-122398303D01*
X105777484Y-122384506D01*
X105761095Y-122092672D01*
X105760900Y-122085719D01*
X105760900Y-120066280D01*
X106853344Y-120066280D01*
X106853344Y-120406231D01*
X106886664Y-120744553D01*
X106952987Y-121077977D01*
X107051673Y-121403306D01*
X107181770Y-121717383D01*
X107181772Y-121717388D01*
X107342017Y-122017185D01*
X107342028Y-122017203D01*
X107530888Y-122299852D01*
X107530898Y-122299866D01*
X107746565Y-122562657D01*
X107760687Y-122576779D01*
X107760688Y-122576779D01*
X109078603Y-121258863D01*
X109092932Y-121278586D01*
X109271014Y-121456668D01*
X109290734Y-121470996D01*
X107972820Y-122788910D01*
X107972820Y-122788912D01*
X107986942Y-122803034D01*
X108249733Y-123018701D01*
X108249747Y-123018711D01*
X108532396Y-123207571D01*
X108532414Y-123207582D01*
X108832211Y-123367827D01*
X108832216Y-123367829D01*
X109146293Y-123497926D01*
X109471622Y-123596612D01*
X109805046Y-123662935D01*
X110143368Y-123696256D01*
X110483320Y-123696256D01*
X110821641Y-123662935D01*
X111155065Y-123596612D01*
X111480394Y-123497926D01*
X111794471Y-123367829D01*
X111794476Y-123367827D01*
X112094273Y-123207582D01*
X112094291Y-123207571D01*
X112376940Y-123018711D01*
X112376954Y-123018701D01*
X112639734Y-122803043D01*
X112653866Y-122788910D01*
X111335952Y-121470996D01*
X111355674Y-121456668D01*
X111533756Y-121278586D01*
X111548084Y-121258864D01*
X112865998Y-122576778D01*
X112880131Y-122562646D01*
X113095789Y-122299866D01*
X113095799Y-122299852D01*
X113284659Y-122017203D01*
X113284670Y-122017185D01*
X113444915Y-121717388D01*
X113444917Y-121717383D01*
X113575014Y-121403306D01*
X113673700Y-121077977D01*
X113740023Y-120744553D01*
X113773344Y-120406231D01*
X113773344Y-120119224D01*
X187050400Y-120119224D01*
X187050400Y-120459175D01*
X187083720Y-120797497D01*
X187150043Y-121130921D01*
X187248729Y-121456250D01*
X187378826Y-121770327D01*
X187378828Y-121770332D01*
X187539073Y-122070129D01*
X187539084Y-122070147D01*
X187727944Y-122352796D01*
X187727954Y-122352810D01*
X187943621Y-122615601D01*
X187957743Y-122629723D01*
X187957744Y-122629723D01*
X189275659Y-121311808D01*
X189289988Y-121331530D01*
X189468070Y-121509612D01*
X189487791Y-121523940D01*
X188169876Y-122841855D01*
X188183998Y-122855978D01*
X188446789Y-123071645D01*
X188446803Y-123071655D01*
X188729452Y-123260515D01*
X188729470Y-123260526D01*
X189029267Y-123420771D01*
X189029272Y-123420773D01*
X189343349Y-123550870D01*
X189668678Y-123649556D01*
X190002102Y-123715879D01*
X190340424Y-123749200D01*
X190680376Y-123749200D01*
X191018697Y-123715879D01*
X191352121Y-123649556D01*
X191677450Y-123550870D01*
X191991527Y-123420773D01*
X191991532Y-123420771D01*
X192291329Y-123260526D01*
X192291347Y-123260515D01*
X192573996Y-123071655D01*
X192574010Y-123071645D01*
X192836790Y-122855987D01*
X192850922Y-122841854D01*
X191533008Y-121523940D01*
X191552730Y-121509612D01*
X191730812Y-121331530D01*
X191745140Y-121311808D01*
X193063054Y-122629722D01*
X193077187Y-122615590D01*
X193292845Y-122352810D01*
X193292855Y-122352796D01*
X193481715Y-122070147D01*
X193481726Y-122070129D01*
X193641971Y-121770332D01*
X193641973Y-121770327D01*
X193772070Y-121456250D01*
X193870756Y-121130921D01*
X193937079Y-120797497D01*
X193970400Y-120459175D01*
X193970400Y-120119224D01*
X193937079Y-119780902D01*
X193870756Y-119447478D01*
X193772070Y-119122149D01*
X193641973Y-118808072D01*
X193641971Y-118808067D01*
X193481726Y-118508270D01*
X193481715Y-118508252D01*
X193292855Y-118225603D01*
X193292845Y-118225589D01*
X193077178Y-117962798D01*
X193063056Y-117948676D01*
X193063054Y-117948676D01*
X191745139Y-119266590D01*
X191730812Y-119246870D01*
X191552730Y-119068788D01*
X191533008Y-119054459D01*
X192850923Y-117736545D01*
X192850923Y-117736543D01*
X192836801Y-117722421D01*
X192574010Y-117506754D01*
X192573996Y-117506744D01*
X192291347Y-117317884D01*
X192291329Y-117317873D01*
X191991532Y-117157628D01*
X191991527Y-117157626D01*
X191677450Y-117027529D01*
X191352121Y-116928843D01*
X191018697Y-116862520D01*
X190680376Y-116829200D01*
X190340424Y-116829200D01*
X190002102Y-116862520D01*
X189668678Y-116928843D01*
X189343349Y-117027529D01*
X189029272Y-117157626D01*
X189029267Y-117157628D01*
X188729470Y-117317873D01*
X188729452Y-117317884D01*
X188446803Y-117506744D01*
X188446789Y-117506754D01*
X188184009Y-117722411D01*
X188169875Y-117736544D01*
X189487791Y-119054459D01*
X189468070Y-119068788D01*
X189289988Y-119246870D01*
X189275659Y-119266590D01*
X187957744Y-117948675D01*
X187943611Y-117962809D01*
X187727954Y-118225589D01*
X187727944Y-118225603D01*
X187539084Y-118508252D01*
X187539073Y-118508270D01*
X187378828Y-118808067D01*
X187378826Y-118808072D01*
X187248729Y-119122149D01*
X187150043Y-119447478D01*
X187083720Y-119780902D01*
X187050400Y-120119224D01*
X113773344Y-120119224D01*
X113773344Y-120066280D01*
X113740023Y-119727958D01*
X113673700Y-119394534D01*
X113575014Y-119069205D01*
X113444917Y-118755128D01*
X113444915Y-118755123D01*
X113284670Y-118455326D01*
X113284659Y-118455308D01*
X113095799Y-118172659D01*
X113095789Y-118172645D01*
X112880123Y-117909855D01*
X112866000Y-117895732D01*
X112865998Y-117895732D01*
X111548083Y-119213646D01*
X111533756Y-119193926D01*
X111355674Y-119015844D01*
X111335952Y-119001515D01*
X112653867Y-117683601D01*
X112653867Y-117683599D01*
X112639745Y-117669477D01*
X112376954Y-117453810D01*
X112376940Y-117453800D01*
X112094291Y-117264940D01*
X112094273Y-117264929D01*
X111794476Y-117104684D01*
X111794471Y-117104682D01*
X111480394Y-116974585D01*
X111155065Y-116875899D01*
X110821641Y-116809576D01*
X110483320Y-116776256D01*
X110143368Y-116776256D01*
X109805046Y-116809576D01*
X109471622Y-116875899D01*
X109146293Y-116974585D01*
X108832216Y-117104682D01*
X108832211Y-117104684D01*
X108532414Y-117264929D01*
X108532396Y-117264940D01*
X108249747Y-117453800D01*
X108249733Y-117453810D01*
X107986953Y-117669467D01*
X107972819Y-117683600D01*
X109290735Y-119001515D01*
X109271014Y-119015844D01*
X109092932Y-119193926D01*
X109078603Y-119213646D01*
X107760688Y-117895731D01*
X107746555Y-117909865D01*
X107530898Y-118172645D01*
X107530888Y-118172659D01*
X107342028Y-118455308D01*
X107342017Y-118455326D01*
X107181772Y-118755123D01*
X107181770Y-118755128D01*
X107051673Y-119069205D01*
X106952987Y-119394534D01*
X106886664Y-119727958D01*
X106853344Y-120066280D01*
X105760900Y-120066280D01*
X105760900Y-111358403D01*
X111404800Y-111358403D01*
X111404800Y-111552796D01*
X111435210Y-111744798D01*
X111495278Y-111929673D01*
X111495279Y-111929676D01*
X111583535Y-112102884D01*
X111666369Y-112216896D01*
X111666370Y-112216897D01*
X112086208Y-111797059D01*
X112134912Y-111869951D01*
X112225449Y-111960488D01*
X112298339Y-112009191D01*
X111878501Y-112429028D01*
X111878502Y-112429030D01*
X111992515Y-112511864D01*
X112165723Y-112600120D01*
X112165726Y-112600121D01*
X112350601Y-112660189D01*
X112542604Y-112690600D01*
X112736996Y-112690600D01*
X112928998Y-112660189D01*
X113113873Y-112600121D01*
X113113876Y-112600120D01*
X113287081Y-112511866D01*
X113401096Y-112429028D01*
X113401097Y-112429028D01*
X112981259Y-112009191D01*
X113054151Y-111960488D01*
X113144688Y-111869951D01*
X113193391Y-111797060D01*
X113613228Y-112216897D01*
X113613228Y-112216896D01*
X113696066Y-112102881D01*
X113784320Y-111929676D01*
X113784321Y-111929673D01*
X113844389Y-111744798D01*
X113874800Y-111552796D01*
X113874800Y-111358403D01*
X113844389Y-111166401D01*
X113784321Y-110981526D01*
X113784320Y-110981523D01*
X113696064Y-110808315D01*
X113613230Y-110694302D01*
X113613228Y-110694301D01*
X113193390Y-111114139D01*
X113144688Y-111041249D01*
X113054151Y-110950712D01*
X112981259Y-110902008D01*
X113401097Y-110482170D01*
X113401096Y-110482169D01*
X113305306Y-110412574D01*
X186985100Y-110412574D01*
X186985100Y-110627425D01*
X187018708Y-110839616D01*
X187085095Y-111043937D01*
X187085097Y-111043940D01*
X187182632Y-111235364D01*
X187283572Y-111374294D01*
X187283573Y-111374295D01*
X187651567Y-111006300D01*
X187689063Y-111062417D01*
X187807583Y-111180937D01*
X187863698Y-111218432D01*
X187495703Y-111586426D01*
X187634635Y-111687367D01*
X187826059Y-111784902D01*
X187826062Y-111784904D01*
X188030383Y-111851291D01*
X188242575Y-111884900D01*
X188457425Y-111884900D01*
X188669616Y-111851291D01*
X188873937Y-111784904D01*
X188873940Y-111784902D01*
X189065356Y-111687371D01*
X189065362Y-111687367D01*
X189204294Y-111586426D01*
X189204295Y-111586426D01*
X188836301Y-111218432D01*
X188892417Y-111180937D01*
X189010937Y-111062417D01*
X189048432Y-111006301D01*
X189416426Y-111374295D01*
X189416426Y-111374294D01*
X189517367Y-111235362D01*
X189517371Y-111235356D01*
X189614902Y-111043940D01*
X189614904Y-111043937D01*
X189681291Y-110839616D01*
X189714900Y-110627425D01*
X189714900Y-110412574D01*
X189681291Y-110200383D01*
X189614904Y-109996062D01*
X189614902Y-109996059D01*
X189517367Y-109804635D01*
X189416426Y-109665704D01*
X189416426Y-109665703D01*
X189048431Y-110033697D01*
X189010937Y-109977583D01*
X188892417Y-109859063D01*
X188836301Y-109821567D01*
X189204295Y-109453573D01*
X189204294Y-109453572D01*
X189065364Y-109352632D01*
X188873940Y-109255097D01*
X188873937Y-109255095D01*
X188669616Y-109188708D01*
X188457425Y-109155100D01*
X188242575Y-109155100D01*
X188030383Y-109188708D01*
X187826062Y-109255095D01*
X187826059Y-109255097D01*
X187634635Y-109352632D01*
X187495704Y-109453572D01*
X187495703Y-109453572D01*
X187863698Y-109821567D01*
X187807583Y-109859063D01*
X187689063Y-109977583D01*
X187651567Y-110033698D01*
X187283572Y-109665703D01*
X187283572Y-109665704D01*
X187182632Y-109804635D01*
X187085097Y-109996059D01*
X187085095Y-109996062D01*
X187018708Y-110200383D01*
X186985100Y-110412574D01*
X113305306Y-110412574D01*
X113287084Y-110399335D01*
X113113876Y-110311079D01*
X113113873Y-110311078D01*
X112928998Y-110251010D01*
X112736996Y-110220600D01*
X112542604Y-110220600D01*
X112350601Y-110251010D01*
X112165726Y-110311078D01*
X112165723Y-110311079D01*
X111992522Y-110399331D01*
X111878502Y-110482170D01*
X112298340Y-110902008D01*
X112225449Y-110950712D01*
X112134912Y-111041249D01*
X112086208Y-111114140D01*
X111666370Y-110694302D01*
X111583531Y-110808322D01*
X111495279Y-110981523D01*
X111495278Y-110981526D01*
X111435210Y-111166401D01*
X111404800Y-111358403D01*
X105760900Y-111358403D01*
X105760900Y-107877257D01*
X189584600Y-107877257D01*
X189584600Y-108082742D01*
X189616743Y-108285683D01*
X189680236Y-108481097D01*
X189680238Y-108481100D01*
X189773521Y-108664179D01*
X189894296Y-108830411D01*
X190039589Y-108975704D01*
X190205821Y-109096479D01*
X190320872Y-109155100D01*
X190388902Y-109189763D01*
X190486609Y-109221509D01*
X190584318Y-109253257D01*
X190678311Y-109268143D01*
X190787258Y-109285400D01*
X190787263Y-109285400D01*
X190992742Y-109285400D01*
X191091125Y-109269817D01*
X191195682Y-109253257D01*
X191391100Y-109189762D01*
X191574179Y-109096479D01*
X191740411Y-108975704D01*
X191885704Y-108830411D01*
X192006479Y-108664179D01*
X192099762Y-108481100D01*
X192163257Y-108285682D01*
X192179817Y-108181125D01*
X192195400Y-108082742D01*
X192195400Y-107877257D01*
X192176700Y-107759197D01*
X192163257Y-107674318D01*
X192109487Y-107508830D01*
X192099763Y-107478902D01*
X192006478Y-107295820D01*
X191885704Y-107129589D01*
X191740411Y-106984296D01*
X191574179Y-106863521D01*
X191391097Y-106770236D01*
X191195683Y-106706743D01*
X190992742Y-106674600D01*
X190992737Y-106674600D01*
X190787263Y-106674600D01*
X190787258Y-106674600D01*
X190584316Y-106706743D01*
X190388902Y-106770236D01*
X190205820Y-106863521D01*
X190110979Y-106932427D01*
X190039589Y-106984296D01*
X190039587Y-106984298D01*
X190039586Y-106984298D01*
X189894298Y-107129586D01*
X189894298Y-107129587D01*
X189894296Y-107129589D01*
X189842427Y-107200979D01*
X189773521Y-107295820D01*
X189680236Y-107478902D01*
X189616743Y-107674316D01*
X189584600Y-107877257D01*
X105760900Y-107877257D01*
X105760900Y-105460847D01*
X111464300Y-105460847D01*
X111464300Y-107450352D01*
X111475931Y-107508829D01*
X111475932Y-107508830D01*
X111520247Y-107575152D01*
X111586569Y-107619467D01*
X111586570Y-107619468D01*
X111645047Y-107631099D01*
X111645050Y-107631100D01*
X111645052Y-107631100D01*
X113634550Y-107631100D01*
X113634551Y-107631099D01*
X113649368Y-107628152D01*
X113693029Y-107619468D01*
X113693029Y-107619467D01*
X113693031Y-107619467D01*
X113759352Y-107575152D01*
X113803667Y-107508831D01*
X113803667Y-107508829D01*
X113803668Y-107508829D01*
X113815299Y-107450352D01*
X113815300Y-107450350D01*
X113815300Y-105666457D01*
X173904178Y-105666457D01*
X173904178Y-105809537D01*
X173941210Y-105947742D01*
X174012750Y-106071652D01*
X174113923Y-106172825D01*
X174237833Y-106244365D01*
X174376038Y-106281397D01*
X174376040Y-106281397D01*
X174519115Y-106281397D01*
X174519118Y-106281397D01*
X174657323Y-106244365D01*
X174781233Y-106172825D01*
X174882406Y-106071652D01*
X174953946Y-105947742D01*
X174990978Y-105809537D01*
X174990978Y-105666457D01*
X174953946Y-105528252D01*
X174882406Y-105404342D01*
X174810638Y-105332574D01*
X186985100Y-105332574D01*
X186985100Y-105547425D01*
X187018708Y-105759616D01*
X187085095Y-105963937D01*
X187085097Y-105963940D01*
X187182632Y-106155364D01*
X187283572Y-106294294D01*
X187283573Y-106294295D01*
X187651567Y-105926300D01*
X187689063Y-105982417D01*
X187807583Y-106100937D01*
X187863698Y-106138432D01*
X187495703Y-106506426D01*
X187634635Y-106607367D01*
X187826059Y-106704902D01*
X187826062Y-106704904D01*
X188030383Y-106771291D01*
X188242575Y-106804900D01*
X188457425Y-106804900D01*
X188669616Y-106771291D01*
X188873937Y-106704904D01*
X188873940Y-106704902D01*
X189065356Y-106607371D01*
X189065362Y-106607367D01*
X189204294Y-106506426D01*
X189204295Y-106506426D01*
X188836301Y-106138432D01*
X188892417Y-106100937D01*
X189010937Y-105982417D01*
X189048432Y-105926301D01*
X189416426Y-106294295D01*
X189416426Y-106294294D01*
X189517367Y-106155362D01*
X189517371Y-106155356D01*
X189614902Y-105963940D01*
X189614904Y-105963937D01*
X189681291Y-105759616D01*
X189714900Y-105547425D01*
X189714900Y-105332574D01*
X189681291Y-105120383D01*
X189614904Y-104916062D01*
X189614902Y-104916059D01*
X189517367Y-104724635D01*
X189416426Y-104585704D01*
X189416426Y-104585703D01*
X189048431Y-104953697D01*
X189010937Y-104897583D01*
X188892417Y-104779063D01*
X188836301Y-104741567D01*
X189204295Y-104373573D01*
X189204294Y-104373572D01*
X189065364Y-104272632D01*
X188873940Y-104175097D01*
X188873937Y-104175095D01*
X188669616Y-104108708D01*
X188457425Y-104075100D01*
X188242575Y-104075100D01*
X188030383Y-104108708D01*
X187826062Y-104175095D01*
X187826059Y-104175097D01*
X187634635Y-104272632D01*
X187495704Y-104373572D01*
X187495703Y-104373572D01*
X187863698Y-104741567D01*
X187807583Y-104779063D01*
X187689063Y-104897583D01*
X187651567Y-104953698D01*
X187283572Y-104585703D01*
X187283572Y-104585704D01*
X187182632Y-104724635D01*
X187085097Y-104916059D01*
X187085095Y-104916062D01*
X187018708Y-105120383D01*
X186985100Y-105332574D01*
X174810638Y-105332574D01*
X174781233Y-105303169D01*
X174657323Y-105231629D01*
X174519118Y-105194597D01*
X174376038Y-105194597D01*
X174237833Y-105231629D01*
X174237831Y-105231629D01*
X174237831Y-105231630D01*
X174113923Y-105303169D01*
X174113920Y-105303171D01*
X174012752Y-105404339D01*
X174012750Y-105404342D01*
X173941210Y-105528252D01*
X173904178Y-105666457D01*
X113815300Y-105666457D01*
X113815300Y-105460849D01*
X113815299Y-105460847D01*
X113803668Y-105402370D01*
X113803667Y-105402369D01*
X113759352Y-105336047D01*
X113693030Y-105291732D01*
X113693029Y-105291731D01*
X113634552Y-105280100D01*
X113634548Y-105280100D01*
X111645052Y-105280100D01*
X111645047Y-105280100D01*
X111586570Y-105291731D01*
X111586569Y-105291732D01*
X111520247Y-105336047D01*
X111475932Y-105402369D01*
X111475931Y-105402370D01*
X111464300Y-105460847D01*
X105760900Y-105460847D01*
X105760900Y-103626247D01*
X130770500Y-103626247D01*
X130770500Y-105173752D01*
X130782131Y-105232229D01*
X130782132Y-105232230D01*
X130826447Y-105298552D01*
X130892769Y-105342867D01*
X130892770Y-105342868D01*
X130951247Y-105354499D01*
X130951250Y-105354500D01*
X130951252Y-105354500D01*
X132498750Y-105354500D01*
X132498751Y-105354499D01*
X132513568Y-105351552D01*
X132557229Y-105342868D01*
X132557229Y-105342867D01*
X132557231Y-105342867D01*
X132623552Y-105298552D01*
X132667867Y-105232231D01*
X132667867Y-105232229D01*
X132667868Y-105232229D01*
X132679499Y-105173752D01*
X132679500Y-105173750D01*
X132679500Y-104499872D01*
X133210999Y-104499872D01*
X133249966Y-104695767D01*
X133249969Y-104695777D01*
X133326403Y-104880307D01*
X133326405Y-104880311D01*
X133408976Y-105003888D01*
X133408978Y-105003888D01*
X133781329Y-104631538D01*
X133824901Y-104707007D01*
X133917993Y-104800099D01*
X133993460Y-104843670D01*
X133621110Y-105216020D01*
X133621110Y-105216021D01*
X133744684Y-105298591D01*
X133744697Y-105298598D01*
X133929222Y-105375030D01*
X133929232Y-105375033D01*
X134125127Y-105414000D01*
X134324872Y-105414000D01*
X134520767Y-105375033D01*
X134520777Y-105375030D01*
X134705302Y-105298598D01*
X134705315Y-105298591D01*
X134828889Y-105216021D01*
X134456539Y-104843670D01*
X134532007Y-104800099D01*
X134625099Y-104707007D01*
X134668670Y-104631538D01*
X135041021Y-105003889D01*
X135123591Y-104880315D01*
X135123598Y-104880302D01*
X135200030Y-104695777D01*
X135200033Y-104695767D01*
X135239000Y-104499872D01*
X135239000Y-104305985D01*
X135770500Y-104305985D01*
X135770500Y-104494014D01*
X135807179Y-104678409D01*
X135807182Y-104678421D01*
X135879129Y-104852118D01*
X135879136Y-104852131D01*
X135983591Y-105008457D01*
X135983594Y-105008461D01*
X136116538Y-105141405D01*
X136116542Y-105141408D01*
X136272868Y-105245863D01*
X136272881Y-105245870D01*
X136411219Y-105303171D01*
X136446583Y-105317819D01*
X136630985Y-105354499D01*
X136630988Y-105354500D01*
X136630990Y-105354500D01*
X136819012Y-105354500D01*
X136819013Y-105354499D01*
X137003417Y-105317819D01*
X137177125Y-105245867D01*
X137333458Y-105141408D01*
X137466408Y-105008458D01*
X137570867Y-104852125D01*
X137642819Y-104678417D01*
X137679500Y-104494010D01*
X137679500Y-104305990D01*
X137679500Y-104305987D01*
X137679499Y-104305985D01*
X138270500Y-104305985D01*
X138270500Y-104494014D01*
X138307179Y-104678409D01*
X138307182Y-104678421D01*
X138379129Y-104852118D01*
X138379136Y-104852131D01*
X138483591Y-105008457D01*
X138483594Y-105008461D01*
X138616538Y-105141405D01*
X138616542Y-105141408D01*
X138772868Y-105245863D01*
X138772881Y-105245870D01*
X138911219Y-105303171D01*
X138946583Y-105317819D01*
X139130985Y-105354499D01*
X139130988Y-105354500D01*
X139130990Y-105354500D01*
X139319012Y-105354500D01*
X139319013Y-105354499D01*
X139503417Y-105317819D01*
X139677125Y-105245867D01*
X139833458Y-105141408D01*
X139966408Y-105008458D01*
X140070867Y-104852125D01*
X140142819Y-104678417D01*
X140179500Y-104494010D01*
X140179500Y-104305990D01*
X140179500Y-104305987D01*
X140179499Y-104305985D01*
X140170188Y-104259174D01*
X140142819Y-104121583D01*
X140123565Y-104075100D01*
X140070870Y-103947881D01*
X140070863Y-103947868D01*
X139966408Y-103791542D01*
X139966405Y-103791538D01*
X139833461Y-103658594D01*
X139833457Y-103658591D01*
X139677131Y-103554136D01*
X139677118Y-103554129D01*
X139503421Y-103482182D01*
X139503409Y-103482179D01*
X139319013Y-103445500D01*
X139319010Y-103445500D01*
X139130990Y-103445500D01*
X139130987Y-103445500D01*
X138946590Y-103482179D01*
X138946578Y-103482182D01*
X138772881Y-103554129D01*
X138772868Y-103554136D01*
X138616542Y-103658591D01*
X138616538Y-103658594D01*
X138483594Y-103791538D01*
X138483591Y-103791542D01*
X138379136Y-103947868D01*
X138379129Y-103947881D01*
X138307182Y-104121578D01*
X138307179Y-104121590D01*
X138270500Y-104305985D01*
X137679499Y-104305985D01*
X137670188Y-104259174D01*
X137642819Y-104121583D01*
X137623565Y-104075100D01*
X137570870Y-103947881D01*
X137570863Y-103947868D01*
X137466408Y-103791542D01*
X137466405Y-103791538D01*
X137333461Y-103658594D01*
X137333457Y-103658591D01*
X137177131Y-103554136D01*
X137177118Y-103554129D01*
X137003421Y-103482182D01*
X137003409Y-103482179D01*
X136819013Y-103445500D01*
X136819010Y-103445500D01*
X136630990Y-103445500D01*
X136630987Y-103445500D01*
X136446590Y-103482179D01*
X136446578Y-103482182D01*
X136272881Y-103554129D01*
X136272868Y-103554136D01*
X136116542Y-103658591D01*
X136116538Y-103658594D01*
X135983594Y-103791538D01*
X135983591Y-103791542D01*
X135879136Y-103947868D01*
X135879129Y-103947881D01*
X135807182Y-104121578D01*
X135807179Y-104121590D01*
X135770500Y-104305985D01*
X135239000Y-104305985D01*
X135239000Y-104300127D01*
X135200033Y-104104232D01*
X135200030Y-104104222D01*
X135123598Y-103919697D01*
X135123591Y-103919684D01*
X135041020Y-103796110D01*
X134668670Y-104168460D01*
X134625099Y-104092993D01*
X134532007Y-103999901D01*
X134456538Y-103956329D01*
X134828888Y-103583978D01*
X134828888Y-103583976D01*
X134705311Y-103501405D01*
X134705307Y-103501403D01*
X134520777Y-103424969D01*
X134520767Y-103424966D01*
X134324872Y-103386000D01*
X134125128Y-103386000D01*
X133929232Y-103424966D01*
X133929226Y-103424968D01*
X133744694Y-103501403D01*
X133744687Y-103501407D01*
X133621110Y-103583978D01*
X133621109Y-103583978D01*
X133993461Y-103956329D01*
X133917993Y-103999901D01*
X133824901Y-104092993D01*
X133781329Y-104168460D01*
X133408978Y-103796109D01*
X133408978Y-103796110D01*
X133326407Y-103919687D01*
X133326403Y-103919694D01*
X133249968Y-104104226D01*
X133249966Y-104104232D01*
X133211000Y-104300127D01*
X133211000Y-104499872D01*
X133210999Y-104499872D01*
X132679500Y-104499872D01*
X132679500Y-103626249D01*
X132679499Y-103626247D01*
X132667868Y-103567770D01*
X132667867Y-103567769D01*
X132623552Y-103501447D01*
X132557230Y-103457132D01*
X132557229Y-103457131D01*
X132498752Y-103445500D01*
X132498748Y-103445500D01*
X130951252Y-103445500D01*
X130951247Y-103445500D01*
X130892770Y-103457131D01*
X130892769Y-103457132D01*
X130826447Y-103501447D01*
X130782132Y-103567769D01*
X130782131Y-103567770D01*
X130770500Y-103626247D01*
X105760900Y-103626247D01*
X105760900Y-101203460D01*
X141556600Y-101203460D01*
X141556600Y-101346540D01*
X141593632Y-101484745D01*
X141665172Y-101608655D01*
X141766345Y-101709828D01*
X141890255Y-101781368D01*
X142028460Y-101818400D01*
X142028462Y-101818400D01*
X142171537Y-101818400D01*
X142171540Y-101818400D01*
X142309745Y-101781368D01*
X142433655Y-101709828D01*
X142534828Y-101608655D01*
X142606368Y-101484745D01*
X142643400Y-101346540D01*
X142643400Y-101246116D01*
X142663085Y-101179077D01*
X142679719Y-101158435D01*
X143539622Y-100298533D01*
X144404565Y-99433590D01*
X144706304Y-99131851D01*
X144767627Y-99098366D01*
X144793985Y-99095532D01*
X148329300Y-99095532D01*
X148396339Y-99115217D01*
X148442094Y-99168021D01*
X148452038Y-99237179D01*
X148436688Y-99281529D01*
X148381132Y-99377755D01*
X148344100Y-99515960D01*
X148344100Y-99515962D01*
X148344100Y-99616382D01*
X148324415Y-99683421D01*
X148307781Y-99704063D01*
X148048910Y-99962935D01*
X147987936Y-100023908D01*
X147987934Y-100023911D01*
X147944819Y-100098589D01*
X147944819Y-100098590D01*
X147931981Y-100146503D01*
X147922500Y-100181885D01*
X147922500Y-103246500D01*
X147902815Y-103313539D01*
X147850011Y-103359294D01*
X147798500Y-103370500D01*
X147476247Y-103370500D01*
X147417770Y-103382131D01*
X147417769Y-103382132D01*
X147351447Y-103426447D01*
X147307132Y-103492769D01*
X147307131Y-103492770D01*
X147295500Y-103551247D01*
X147295500Y-105098752D01*
X147307131Y-105157229D01*
X147307132Y-105157230D01*
X147351447Y-105223552D01*
X147417769Y-105267867D01*
X147417770Y-105267868D01*
X147476247Y-105279499D01*
X147476250Y-105279500D01*
X147476252Y-105279500D01*
X149023750Y-105279500D01*
X149023751Y-105279499D01*
X149038568Y-105276552D01*
X149082229Y-105267868D01*
X149082229Y-105267867D01*
X149082231Y-105267867D01*
X149148552Y-105223552D01*
X149192867Y-105157231D01*
X149192867Y-105157229D01*
X149192868Y-105157229D01*
X149204499Y-105098752D01*
X149204500Y-105098750D01*
X149204500Y-104424872D01*
X149735999Y-104424872D01*
X149774966Y-104620767D01*
X149774969Y-104620777D01*
X149851403Y-104805307D01*
X149851405Y-104805311D01*
X149933976Y-104928888D01*
X149933978Y-104928888D01*
X150306329Y-104556538D01*
X150349901Y-104632007D01*
X150442993Y-104725099D01*
X150518460Y-104768670D01*
X150146110Y-105141020D01*
X150146110Y-105141021D01*
X150269684Y-105223591D01*
X150269697Y-105223598D01*
X150454222Y-105300030D01*
X150454232Y-105300033D01*
X150650127Y-105339000D01*
X150849872Y-105339000D01*
X151045767Y-105300033D01*
X151045777Y-105300030D01*
X151230302Y-105223598D01*
X151230315Y-105223591D01*
X151353889Y-105141021D01*
X150981539Y-104768670D01*
X151057007Y-104725099D01*
X151150099Y-104632007D01*
X151193670Y-104556538D01*
X151566021Y-104928889D01*
X151648591Y-104805315D01*
X151648598Y-104805302D01*
X151725030Y-104620777D01*
X151725033Y-104620767D01*
X151764000Y-104424872D01*
X151764000Y-104230985D01*
X152295500Y-104230985D01*
X152295500Y-104419014D01*
X152332179Y-104603409D01*
X152332182Y-104603421D01*
X152404129Y-104777118D01*
X152404136Y-104777131D01*
X152508591Y-104933457D01*
X152508594Y-104933461D01*
X152641538Y-105066405D01*
X152641542Y-105066408D01*
X152797868Y-105170863D01*
X152797881Y-105170870D01*
X152946021Y-105232231D01*
X152971583Y-105242819D01*
X153155985Y-105279499D01*
X153155988Y-105279500D01*
X153155990Y-105279500D01*
X153344012Y-105279500D01*
X153344013Y-105279499D01*
X153528417Y-105242819D01*
X153702125Y-105170867D01*
X153858458Y-105066408D01*
X153991408Y-104933458D01*
X154095867Y-104777125D01*
X154167819Y-104603417D01*
X154204500Y-104419010D01*
X154204500Y-104230990D01*
X154204500Y-104230987D01*
X154204499Y-104230985D01*
X154795500Y-104230985D01*
X154795500Y-104419014D01*
X154832179Y-104603409D01*
X154832182Y-104603421D01*
X154904129Y-104777118D01*
X154904136Y-104777131D01*
X155008591Y-104933457D01*
X155008594Y-104933461D01*
X155141538Y-105066405D01*
X155141542Y-105066408D01*
X155297868Y-105170863D01*
X155297881Y-105170870D01*
X155446021Y-105232231D01*
X155471583Y-105242819D01*
X155655985Y-105279499D01*
X155655988Y-105279500D01*
X155655990Y-105279500D01*
X155844012Y-105279500D01*
X155844013Y-105279499D01*
X156028417Y-105242819D01*
X156202125Y-105170867D01*
X156358458Y-105066408D01*
X156491408Y-104933458D01*
X156595867Y-104777125D01*
X156667819Y-104603417D01*
X156704500Y-104419010D01*
X156704500Y-104230990D01*
X156704500Y-104230987D01*
X156704499Y-104230985D01*
X156688555Y-104150828D01*
X156667819Y-104046583D01*
X156648483Y-103999901D01*
X156595870Y-103872881D01*
X156595863Y-103872868D01*
X156491408Y-103716542D01*
X156491405Y-103716538D01*
X156358461Y-103583594D01*
X156358457Y-103583591D01*
X156202131Y-103479136D01*
X156202118Y-103479129D01*
X156028421Y-103407182D01*
X156028409Y-103407179D01*
X155844013Y-103370500D01*
X155844010Y-103370500D01*
X155655990Y-103370500D01*
X155655987Y-103370500D01*
X155471590Y-103407179D01*
X155471578Y-103407182D01*
X155297881Y-103479129D01*
X155297868Y-103479136D01*
X155141542Y-103583591D01*
X155141538Y-103583594D01*
X155008594Y-103716538D01*
X155008591Y-103716542D01*
X154904136Y-103872868D01*
X154904129Y-103872881D01*
X154832182Y-104046578D01*
X154832179Y-104046590D01*
X154795500Y-104230985D01*
X154204499Y-104230985D01*
X154188555Y-104150828D01*
X154167819Y-104046583D01*
X154148483Y-103999901D01*
X154095870Y-103872881D01*
X154095863Y-103872868D01*
X153991408Y-103716542D01*
X153991405Y-103716538D01*
X153858461Y-103583594D01*
X153858457Y-103583591D01*
X153702131Y-103479136D01*
X153702118Y-103479129D01*
X153528421Y-103407182D01*
X153528409Y-103407179D01*
X153344013Y-103370500D01*
X153344010Y-103370500D01*
X153155990Y-103370500D01*
X153155987Y-103370500D01*
X152971590Y-103407179D01*
X152971578Y-103407182D01*
X152797881Y-103479129D01*
X152797868Y-103479136D01*
X152641542Y-103583591D01*
X152641538Y-103583594D01*
X152508594Y-103716538D01*
X152508591Y-103716542D01*
X152404136Y-103872868D01*
X152404129Y-103872881D01*
X152332182Y-104046578D01*
X152332179Y-104046590D01*
X152295500Y-104230985D01*
X151764000Y-104230985D01*
X151764000Y-104225127D01*
X151725033Y-104029232D01*
X151725030Y-104029222D01*
X151648598Y-103844697D01*
X151648591Y-103844684D01*
X151566020Y-103721110D01*
X151193670Y-104093460D01*
X151150099Y-104017993D01*
X151057007Y-103924901D01*
X150981538Y-103881329D01*
X151353888Y-103508978D01*
X151353888Y-103508976D01*
X151230311Y-103426405D01*
X151230307Y-103426403D01*
X151045777Y-103349969D01*
X151045767Y-103349966D01*
X150849872Y-103311000D01*
X150650128Y-103311000D01*
X150454232Y-103349966D01*
X150454226Y-103349968D01*
X150269694Y-103426403D01*
X150269687Y-103426407D01*
X150146110Y-103508978D01*
X150146109Y-103508978D01*
X150518461Y-103881329D01*
X150442993Y-103924901D01*
X150349901Y-104017993D01*
X150306329Y-104093460D01*
X149933978Y-103721109D01*
X149933978Y-103721110D01*
X149851407Y-103844687D01*
X149851403Y-103844694D01*
X149774968Y-104029226D01*
X149774966Y-104029232D01*
X149736000Y-104225127D01*
X149736000Y-104424872D01*
X149735999Y-104424872D01*
X149204500Y-104424872D01*
X149204500Y-103551249D01*
X149204499Y-103551247D01*
X149192868Y-103492770D01*
X149192867Y-103492769D01*
X149148552Y-103426447D01*
X149082230Y-103382132D01*
X149082229Y-103382131D01*
X149023752Y-103370500D01*
X149023748Y-103370500D01*
X148701500Y-103370500D01*
X148634461Y-103350815D01*
X148588706Y-103298011D01*
X148577500Y-103246500D01*
X148577500Y-100412016D01*
X148586144Y-100382575D01*
X148592668Y-100352589D01*
X148596422Y-100347573D01*
X148597185Y-100344977D01*
X148613815Y-100324339D01*
X148770935Y-100167218D01*
X148832258Y-100133734D01*
X148858616Y-100130900D01*
X148959037Y-100130900D01*
X148959040Y-100130900D01*
X149097245Y-100093868D01*
X149221155Y-100022328D01*
X149322328Y-99921155D01*
X149393868Y-99797245D01*
X149430900Y-99659040D01*
X149430900Y-99515960D01*
X149393868Y-99377755D01*
X149338312Y-99281530D01*
X149321840Y-99213633D01*
X149344692Y-99147606D01*
X149399613Y-99104415D01*
X149445700Y-99095532D01*
X176145969Y-99095532D01*
X176213008Y-99115217D01*
X176258763Y-99168021D01*
X176268707Y-99237179D01*
X176239682Y-99300735D01*
X176207970Y-99326919D01*
X176136345Y-99368272D01*
X176136342Y-99368274D01*
X176035174Y-99469442D01*
X176035172Y-99469445D01*
X175986554Y-99553654D01*
X175963632Y-99593355D01*
X175926600Y-99731560D01*
X175926600Y-99874640D01*
X175937791Y-99916408D01*
X175936129Y-99986256D01*
X175896967Y-100044119D01*
X175832739Y-100071623D01*
X175818017Y-100072500D01*
X163516979Y-100072500D01*
X163454979Y-100055887D01*
X163442416Y-100048634D01*
X163364237Y-100003497D01*
X163256018Y-99974500D01*
X163143982Y-99974500D01*
X163035763Y-100003497D01*
X163035760Y-100003498D01*
X162938740Y-100059513D01*
X162938734Y-100059517D01*
X162859517Y-100138734D01*
X162859513Y-100138740D01*
X162803498Y-100235760D01*
X162803497Y-100235763D01*
X162774500Y-100343982D01*
X162774500Y-100456018D01*
X162781124Y-100480737D01*
X162803497Y-100564236D01*
X162803498Y-100564239D01*
X162811306Y-100577763D01*
X162859515Y-100661263D01*
X162859519Y-100661267D01*
X162864462Y-100667709D01*
X162863314Y-100668589D01*
X162892556Y-100722142D01*
X162887572Y-100791834D01*
X162845700Y-100847767D01*
X162780236Y-100872184D01*
X162771390Y-100872500D01*
X162473678Y-100872500D01*
X162411678Y-100855887D01*
X162377373Y-100836081D01*
X162364238Y-100828497D01*
X162295910Y-100810189D01*
X162256018Y-100799500D01*
X162143982Y-100799500D01*
X162035763Y-100828497D01*
X162035760Y-100828498D01*
X161938740Y-100884513D01*
X161938734Y-100884517D01*
X161859517Y-100963734D01*
X161859513Y-100963740D01*
X161803498Y-101060760D01*
X161803497Y-101060763D01*
X161774500Y-101168982D01*
X161774500Y-101281018D01*
X161803497Y-101389237D01*
X161859515Y-101486263D01*
X161938737Y-101565485D01*
X162035763Y-101621503D01*
X162143982Y-101650500D01*
X162143984Y-101650500D01*
X162256016Y-101650500D01*
X162256018Y-101650500D01*
X162364237Y-101621503D01*
X162461263Y-101565485D01*
X162462929Y-101563819D01*
X162464677Y-101562864D01*
X162467709Y-101560538D01*
X162468071Y-101561010D01*
X162524252Y-101530334D01*
X162550610Y-101527500D01*
X165864198Y-101527500D01*
X165931237Y-101547185D01*
X165976992Y-101599989D01*
X165986936Y-101669147D01*
X165957911Y-101732703D01*
X165926198Y-101758887D01*
X165888740Y-101780513D01*
X165888734Y-101780517D01*
X165809517Y-101859734D01*
X165809513Y-101859740D01*
X165753498Y-101956760D01*
X165753497Y-101956763D01*
X165724500Y-102064982D01*
X165724500Y-102177018D01*
X165753497Y-102285237D01*
X165809515Y-102382263D01*
X165888737Y-102461485D01*
X165985763Y-102517503D01*
X166093982Y-102546500D01*
X166093984Y-102546500D01*
X166206016Y-102546500D01*
X166206018Y-102546500D01*
X166269930Y-102529375D01*
X166302023Y-102525150D01*
X167749386Y-102525150D01*
X167749389Y-102525150D01*
X167844802Y-102499584D01*
X167854278Y-102494112D01*
X167916278Y-102477500D01*
X171558148Y-102477500D01*
X171590240Y-102481725D01*
X171595368Y-102483099D01*
X171608061Y-102486500D01*
X171608063Y-102486500D01*
X172091937Y-102486500D01*
X172091939Y-102486500D01*
X172106125Y-102482698D01*
X172109760Y-102481725D01*
X172141852Y-102477500D01*
X178143114Y-102477500D01*
X178143116Y-102477500D01*
X178226410Y-102455181D01*
X178301090Y-102412065D01*
X178301090Y-102412064D01*
X178308129Y-102408001D01*
X178309664Y-102410660D01*
X178361221Y-102390711D01*
X178429670Y-102404729D01*
X178479674Y-102453528D01*
X178480603Y-102455211D01*
X178487565Y-102468063D01*
X178490667Y-102479637D01*
X178542073Y-102568675D01*
X178542882Y-102570168D01*
X178549857Y-102602751D01*
X178557714Y-102635136D01*
X178557143Y-102636785D01*
X178557508Y-102638490D01*
X178545764Y-102669661D01*
X178534861Y-102701163D01*
X178533120Y-102703220D01*
X178532875Y-102703873D01*
X178532049Y-102704486D01*
X178521536Y-102716916D01*
X178443714Y-102794738D01*
X178443713Y-102794740D01*
X178387698Y-102891760D01*
X178387697Y-102891763D01*
X178358700Y-102999982D01*
X178358700Y-103112018D01*
X178366875Y-103142525D01*
X178387697Y-103220236D01*
X178387698Y-103220239D01*
X178447779Y-103324302D01*
X178445485Y-103325626D01*
X178465965Y-103378581D01*
X178451935Y-103447027D01*
X178449783Y-103450913D01*
X178417833Y-103506251D01*
X178417832Y-103506255D01*
X178380800Y-103644460D01*
X178380800Y-103787540D01*
X178417832Y-103925745D01*
X178489372Y-104049655D01*
X178590545Y-104150828D01*
X178714455Y-104222368D01*
X178852660Y-104259400D01*
X178852662Y-104259400D01*
X178995737Y-104259400D01*
X178995740Y-104259400D01*
X179133945Y-104222368D01*
X179257855Y-104150828D01*
X179359028Y-104049655D01*
X179430568Y-103925745D01*
X179467600Y-103787540D01*
X179467600Y-103644460D01*
X179430568Y-103506255D01*
X179359028Y-103382345D01*
X179257855Y-103281172D01*
X179257852Y-103281170D01*
X179251406Y-103276224D01*
X179252466Y-103274841D01*
X179211082Y-103231435D01*
X179197862Y-103162827D01*
X179201523Y-103142533D01*
X179209700Y-103112018D01*
X179209700Y-102999982D01*
X179180703Y-102891763D01*
X179130128Y-102804164D01*
X179113655Y-102736264D01*
X179136508Y-102670237D01*
X179149823Y-102654494D01*
X179227655Y-102576663D01*
X179283673Y-102479637D01*
X179312670Y-102371418D01*
X179312670Y-102314614D01*
X179332355Y-102247575D01*
X179348989Y-102226933D01*
X180107672Y-101468250D01*
X180873808Y-100702114D01*
X180880490Y-100685982D01*
X181719700Y-100685982D01*
X181719700Y-100798018D01*
X181748697Y-100906237D01*
X181804715Y-101003263D01*
X181883937Y-101082485D01*
X181980963Y-101138503D01*
X182089182Y-101167500D01*
X182089184Y-101167500D01*
X182201216Y-101167500D01*
X182201218Y-101167500D01*
X182309437Y-101138503D01*
X182406463Y-101082485D01*
X182485685Y-101003263D01*
X182541703Y-100906237D01*
X182568822Y-100805023D01*
X182600913Y-100749441D01*
X184794236Y-98556119D01*
X184855559Y-98522634D01*
X184881917Y-98519800D01*
X187540814Y-98519800D01*
X187540816Y-98519800D01*
X187624110Y-98497481D01*
X187698790Y-98454365D01*
X188279173Y-97873982D01*
X189564500Y-97873982D01*
X189564500Y-97986018D01*
X189593497Y-98094237D01*
X189649515Y-98191263D01*
X189728737Y-98270485D01*
X189825763Y-98326503D01*
X189933982Y-98355500D01*
X189933984Y-98355500D01*
X190046016Y-98355500D01*
X190046018Y-98355500D01*
X190154237Y-98326503D01*
X190251263Y-98270485D01*
X190330485Y-98191263D01*
X190386503Y-98094237D01*
X190415500Y-97986018D01*
X190415500Y-97873982D01*
X190386503Y-97765763D01*
X190330485Y-97668737D01*
X190251263Y-97589515D01*
X190154237Y-97533497D01*
X190046018Y-97504500D01*
X189933982Y-97504500D01*
X189825763Y-97533497D01*
X189825760Y-97533498D01*
X189728740Y-97589513D01*
X189728734Y-97589517D01*
X189649517Y-97668734D01*
X189649513Y-97668740D01*
X189593498Y-97765760D01*
X189593497Y-97765763D01*
X189564500Y-97873982D01*
X188279173Y-97873982D01*
X188383436Y-97769719D01*
X188444759Y-97736234D01*
X188471117Y-97733400D01*
X188551537Y-97733400D01*
X188551540Y-97733400D01*
X188689745Y-97696368D01*
X188813655Y-97624828D01*
X188914828Y-97523655D01*
X188986368Y-97399745D01*
X189023400Y-97261540D01*
X189023400Y-97118460D01*
X188986368Y-96980255D01*
X188914828Y-96856345D01*
X188813655Y-96755172D01*
X188689745Y-96683632D01*
X188551540Y-96646600D01*
X188408460Y-96646600D01*
X188270255Y-96683632D01*
X188270253Y-96683632D01*
X188270253Y-96683633D01*
X188146345Y-96755172D01*
X188146342Y-96755174D01*
X188045174Y-96856342D01*
X188045172Y-96856345D01*
X188003954Y-96927737D01*
X187973632Y-96980255D01*
X187936600Y-97118460D01*
X187936600Y-97118462D01*
X187936600Y-97238882D01*
X187916915Y-97305921D01*
X187900281Y-97326563D01*
X187398364Y-97828481D01*
X187337041Y-97861966D01*
X187310683Y-97864800D01*
X184738016Y-97864800D01*
X184651784Y-97864800D01*
X184617510Y-97873984D01*
X184568489Y-97887119D01*
X184493811Y-97930234D01*
X184493808Y-97930236D01*
X183730350Y-98693693D01*
X183669027Y-98727178D01*
X183599335Y-98722194D01*
X183580673Y-98713400D01*
X183494237Y-98663497D01*
X183386018Y-98634500D01*
X183273982Y-98634500D01*
X183165763Y-98663497D01*
X183165760Y-98663498D01*
X183068740Y-98719513D01*
X183068734Y-98719517D01*
X182989517Y-98798734D01*
X182989513Y-98798740D01*
X182933498Y-98895760D01*
X182933497Y-98895763D01*
X182904500Y-99003982D01*
X182904500Y-99116018D01*
X182927268Y-99200988D01*
X182933497Y-99224236D01*
X182933498Y-99224239D01*
X182938542Y-99232976D01*
X182979016Y-99303079D01*
X182983399Y-99310669D01*
X182999872Y-99378569D01*
X182977020Y-99444596D01*
X182963693Y-99460350D01*
X182137760Y-100286284D01*
X182082173Y-100318378D01*
X181980961Y-100345497D01*
X181980960Y-100345498D01*
X181883940Y-100401513D01*
X181883934Y-100401517D01*
X181804717Y-100480734D01*
X181804713Y-100480740D01*
X181748698Y-100577760D01*
X181748697Y-100577763D01*
X181719700Y-100685982D01*
X180880490Y-100685982D01*
X180900157Y-100638503D01*
X180903511Y-100630406D01*
X180903513Y-100630402D01*
X180913999Y-100605085D01*
X180914000Y-100605083D01*
X180914000Y-100500057D01*
X180914000Y-100139110D01*
X180933685Y-100072071D01*
X180937242Y-100066834D01*
X180943149Y-100058598D01*
X180990485Y-100011263D01*
X181045676Y-99915668D01*
X181049242Y-99910698D01*
X181072149Y-99892811D01*
X181093180Y-99872759D01*
X181099354Y-99871568D01*
X181104312Y-99867698D01*
X181133248Y-99865035D01*
X181161787Y-99859535D01*
X181167626Y-99861873D01*
X181173888Y-99861297D01*
X181199667Y-99874700D01*
X181226651Y-99885503D01*
X181231739Y-99891375D01*
X181235880Y-99893528D01*
X181240315Y-99901273D01*
X181257385Y-99920972D01*
X181309515Y-100011263D01*
X181388737Y-100090485D01*
X181485763Y-100146503D01*
X181593982Y-100175500D01*
X181593984Y-100175500D01*
X181706016Y-100175500D01*
X181706018Y-100175500D01*
X181814237Y-100146503D01*
X181911263Y-100090485D01*
X181990485Y-100011263D01*
X182046503Y-99914237D01*
X182075500Y-99806018D01*
X182075500Y-99693982D01*
X182046503Y-99585763D01*
X181990485Y-99488737D01*
X181911263Y-99409515D01*
X181814239Y-99353498D01*
X181809956Y-99351025D01*
X181784276Y-99331319D01*
X180004351Y-97551394D01*
X179970866Y-97490071D01*
X179975850Y-97420379D01*
X179984645Y-97401713D01*
X179988483Y-97395064D01*
X179988485Y-97395063D01*
X180044503Y-97298037D01*
X180073500Y-97189818D01*
X180073500Y-97077782D01*
X180044503Y-96969563D01*
X179988485Y-96872537D01*
X179909263Y-96793315D01*
X179812237Y-96737297D01*
X179704018Y-96708300D01*
X179610017Y-96708300D01*
X179542978Y-96688615D01*
X179522336Y-96671981D01*
X178835731Y-95985376D01*
X178802246Y-95924053D01*
X178799412Y-95897695D01*
X178799412Y-93630233D01*
X178819097Y-93563194D01*
X178871901Y-93517439D01*
X178941059Y-93507495D01*
X179004615Y-93536520D01*
X179021788Y-93554747D01*
X179022434Y-93555589D01*
X180377532Y-94910687D01*
X180411017Y-94972010D01*
X180406033Y-95041702D01*
X180364161Y-95097635D01*
X180351852Y-95105755D01*
X180258737Y-95159515D01*
X180258734Y-95159517D01*
X180179517Y-95238734D01*
X180179513Y-95238740D01*
X180123498Y-95335760D01*
X180123497Y-95335763D01*
X180094500Y-95443982D01*
X180094500Y-95550500D01*
X180074815Y-95617539D01*
X180022011Y-95663294D01*
X179970500Y-95674500D01*
X179873982Y-95674500D01*
X179765763Y-95703497D01*
X179765760Y-95703498D01*
X179668740Y-95759513D01*
X179668734Y-95759517D01*
X179589517Y-95838734D01*
X179589513Y-95838740D01*
X179533498Y-95935760D01*
X179533497Y-95935763D01*
X179504500Y-96043982D01*
X179504500Y-96156018D01*
X179533497Y-96264237D01*
X179589515Y-96361263D01*
X179668737Y-96440485D01*
X179765763Y-96496503D01*
X179873982Y-96525500D01*
X179924822Y-96525500D01*
X179986016Y-96525500D01*
X179986018Y-96525500D01*
X180094237Y-96496503D01*
X180191263Y-96440485D01*
X180270485Y-96361263D01*
X180326503Y-96264237D01*
X180355500Y-96156018D01*
X180355500Y-96049500D01*
X180375185Y-95982461D01*
X180427989Y-95936706D01*
X180479500Y-95925500D01*
X180576016Y-95925500D01*
X180576018Y-95925500D01*
X180684237Y-95896503D01*
X180781263Y-95840485D01*
X180860485Y-95761263D01*
X180914246Y-95668146D01*
X180964810Y-95619933D01*
X181033417Y-95606709D01*
X181098282Y-95632677D01*
X181109312Y-95642467D01*
X182183381Y-96716536D01*
X182216866Y-96777859D01*
X182219700Y-96804217D01*
X182219700Y-96816018D01*
X182247196Y-96918633D01*
X182248697Y-96924236D01*
X182248698Y-96924239D01*
X182250597Y-96927528D01*
X182304715Y-97021263D01*
X182383937Y-97100485D01*
X182473599Y-97152251D01*
X182490850Y-97170344D01*
X182510866Y-97185328D01*
X182514546Y-97195196D01*
X182521814Y-97202818D01*
X182526545Y-97227366D01*
X182535283Y-97250792D01*
X182533044Y-97261082D01*
X182535038Y-97271425D01*
X182525744Y-97294637D01*
X182520431Y-97319065D01*
X182510832Y-97331887D01*
X182509070Y-97336289D01*
X182499280Y-97347319D01*
X182494913Y-97351686D01*
X182433590Y-97385171D01*
X182363898Y-97380187D01*
X182345232Y-97371392D01*
X182314239Y-97353498D01*
X182314238Y-97353497D01*
X182314237Y-97353497D01*
X182206018Y-97324500D01*
X182093982Y-97324500D01*
X181985763Y-97353497D01*
X181985760Y-97353498D01*
X181888740Y-97409513D01*
X181888734Y-97409517D01*
X181809517Y-97488734D01*
X181809513Y-97488740D01*
X181753498Y-97585760D01*
X181753497Y-97585763D01*
X181724500Y-97693982D01*
X181724500Y-97806018D01*
X181753497Y-97914237D01*
X181809515Y-98011263D01*
X181888737Y-98090485D01*
X181985763Y-98146503D01*
X182093982Y-98175500D01*
X182093984Y-98175500D01*
X182206016Y-98175500D01*
X182206018Y-98175500D01*
X182314237Y-98146503D01*
X182404979Y-98094112D01*
X182466979Y-98077500D01*
X182602870Y-98077500D01*
X182602872Y-98077500D01*
X182686166Y-98055181D01*
X182760846Y-98012065D01*
X182848627Y-97924283D01*
X182909947Y-97890800D01*
X182979639Y-97895784D01*
X183027852Y-97931431D01*
X183028768Y-97930516D01*
X183034515Y-97936263D01*
X183113737Y-98015485D01*
X183210763Y-98071503D01*
X183318982Y-98100500D01*
X183318984Y-98100500D01*
X183431016Y-98100500D01*
X183431018Y-98100500D01*
X183539237Y-98071503D01*
X183636263Y-98015485D01*
X183715485Y-97936263D01*
X183771503Y-97839237D01*
X183800500Y-97731018D01*
X183800500Y-97674214D01*
X183820185Y-97607175D01*
X183836819Y-97586533D01*
X183871958Y-97551394D01*
X183912794Y-97510558D01*
X183952986Y-97413527D01*
X183952986Y-97308502D01*
X183952986Y-95523982D01*
X184731900Y-95523982D01*
X184731900Y-95636018D01*
X184760175Y-95741540D01*
X184760897Y-95744236D01*
X184760898Y-95744239D01*
X184764441Y-95750375D01*
X184816915Y-95841263D01*
X184896137Y-95920485D01*
X184993163Y-95976503D01*
X185101382Y-96005500D01*
X185101384Y-96005500D01*
X185213416Y-96005500D01*
X185213418Y-96005500D01*
X185321637Y-95976503D01*
X185418663Y-95920485D01*
X185497885Y-95841263D01*
X185553903Y-95744237D01*
X185582900Y-95636018D01*
X185582900Y-95523982D01*
X185553903Y-95415763D01*
X185497885Y-95318737D01*
X185418663Y-95239515D01*
X185353979Y-95202169D01*
X185321639Y-95183498D01*
X185321638Y-95183497D01*
X185321637Y-95183497D01*
X185213418Y-95154500D01*
X185101382Y-95154500D01*
X184993163Y-95183497D01*
X184993162Y-95183497D01*
X184940107Y-95214128D01*
X184940103Y-95214130D01*
X184896137Y-95239515D01*
X184821825Y-95313826D01*
X184821813Y-95313837D01*
X184816919Y-95318732D01*
X184816913Y-95318740D01*
X184760898Y-95415760D01*
X184760897Y-95415763D01*
X184731900Y-95523982D01*
X183952986Y-95523982D01*
X183952986Y-95257939D01*
X183972671Y-95190900D01*
X184025475Y-95145145D01*
X184094633Y-95135201D01*
X184138987Y-95150553D01*
X184166918Y-95166679D01*
X184166919Y-95166680D01*
X184166921Y-95166680D01*
X184166924Y-95166682D01*
X184305129Y-95203714D01*
X184305131Y-95203714D01*
X184448206Y-95203714D01*
X184448209Y-95203714D01*
X184586414Y-95166682D01*
X184586416Y-95166680D01*
X184586418Y-95166680D01*
X184586419Y-95166679D01*
X184598824Y-95159517D01*
X184710324Y-95095142D01*
X184811497Y-94993969D01*
X184868213Y-94895735D01*
X186921578Y-94895735D01*
X186921578Y-95038815D01*
X186958610Y-95177020D01*
X187030150Y-95300930D01*
X187131323Y-95402103D01*
X187255233Y-95473643D01*
X187393438Y-95510675D01*
X187393440Y-95510675D01*
X187536515Y-95510675D01*
X187536518Y-95510675D01*
X187674723Y-95473643D01*
X187798633Y-95402103D01*
X187899806Y-95300930D01*
X187971346Y-95177020D01*
X187984291Y-95128706D01*
X188020653Y-95069048D01*
X188083500Y-95038517D01*
X188152876Y-95046811D01*
X188206754Y-95091295D01*
X188223010Y-95134087D01*
X188224497Y-95133689D01*
X188226600Y-95141537D01*
X188226600Y-95141540D01*
X188263632Y-95279745D01*
X188335172Y-95403655D01*
X188436345Y-95504828D01*
X188560255Y-95576368D01*
X188698460Y-95613400D01*
X188698462Y-95613400D01*
X188841537Y-95613400D01*
X188841540Y-95613400D01*
X188979745Y-95576368D01*
X189103655Y-95504828D01*
X189204828Y-95403655D01*
X189276368Y-95279745D01*
X189313400Y-95141540D01*
X189313400Y-94998460D01*
X189276368Y-94860255D01*
X189204828Y-94736345D01*
X189103655Y-94635172D01*
X188979745Y-94563632D01*
X188841540Y-94526600D01*
X188698460Y-94526600D01*
X188560255Y-94563632D01*
X188560253Y-94563632D01*
X188560253Y-94563633D01*
X188436345Y-94635172D01*
X188436342Y-94635174D01*
X188335174Y-94736342D01*
X188335172Y-94736345D01*
X188290536Y-94813657D01*
X188263632Y-94860255D01*
X188250687Y-94908568D01*
X188214322Y-94968228D01*
X188151475Y-94998757D01*
X188082099Y-94990462D01*
X188028221Y-94945977D01*
X188011970Y-94903186D01*
X188010481Y-94903586D01*
X188008378Y-94895737D01*
X188008378Y-94895735D01*
X187971346Y-94757530D01*
X187899806Y-94633620D01*
X187798633Y-94532447D01*
X187674723Y-94460907D01*
X187536518Y-94423875D01*
X187393438Y-94423875D01*
X187255233Y-94460907D01*
X187255231Y-94460907D01*
X187255231Y-94460908D01*
X187131323Y-94532447D01*
X187131320Y-94532449D01*
X187030152Y-94633617D01*
X187030150Y-94633620D01*
X186958610Y-94757530D01*
X186921578Y-94895735D01*
X184868213Y-94895735D01*
X184883037Y-94870059D01*
X184920069Y-94731854D01*
X184920069Y-94588774D01*
X184883037Y-94450569D01*
X184811497Y-94326659D01*
X184710324Y-94225486D01*
X184586414Y-94153946D01*
X184448209Y-94116914D01*
X184305129Y-94116914D01*
X184220789Y-94139513D01*
X184166919Y-94153947D01*
X184166918Y-94153948D01*
X184121104Y-94180398D01*
X184053203Y-94196869D01*
X183987177Y-94174016D01*
X183971425Y-94160691D01*
X183950251Y-94139517D01*
X183950249Y-94139515D01*
X183853223Y-94083497D01*
X183745004Y-94054500D01*
X183632968Y-94054500D01*
X183524749Y-94083497D01*
X183524746Y-94083498D01*
X183420685Y-94143578D01*
X183419300Y-94141179D01*
X183366708Y-94161491D01*
X183298268Y-94147428D01*
X183268753Y-94125598D01*
X182907137Y-93763982D01*
X185054500Y-93763982D01*
X185054500Y-93876018D01*
X185083497Y-93984237D01*
X185139515Y-94081263D01*
X185218737Y-94160485D01*
X185315763Y-94216503D01*
X185423982Y-94245500D01*
X185423984Y-94245500D01*
X185536016Y-94245500D01*
X185536018Y-94245500D01*
X185644237Y-94216503D01*
X185729417Y-94167323D01*
X185797317Y-94150851D01*
X185863344Y-94173703D01*
X185898803Y-94212710D01*
X185909515Y-94231263D01*
X185988737Y-94310485D01*
X186085763Y-94366503D01*
X186193982Y-94395500D01*
X186193984Y-94395500D01*
X186306016Y-94395500D01*
X186306018Y-94395500D01*
X186414237Y-94366503D01*
X186511263Y-94310485D01*
X186590485Y-94231263D01*
X186646503Y-94134237D01*
X186675500Y-94026018D01*
X186675500Y-93913982D01*
X186646503Y-93805763D01*
X186590485Y-93708737D01*
X186511263Y-93629515D01*
X186444181Y-93590785D01*
X186414239Y-93573498D01*
X186414238Y-93573497D01*
X186414237Y-93573497D01*
X186306018Y-93544500D01*
X186193982Y-93544500D01*
X186085763Y-93573497D01*
X186085762Y-93573497D01*
X186000581Y-93622676D01*
X185932681Y-93639147D01*
X185866654Y-93616295D01*
X185831196Y-93577289D01*
X185820485Y-93558737D01*
X185741263Y-93479515D01*
X185644237Y-93423497D01*
X185536018Y-93394500D01*
X185423982Y-93394500D01*
X185315763Y-93423497D01*
X185315760Y-93423498D01*
X185218740Y-93479513D01*
X185218734Y-93479517D01*
X185139517Y-93558734D01*
X185139513Y-93558740D01*
X185083498Y-93655760D01*
X185083497Y-93655763D01*
X185054500Y-93763982D01*
X182907137Y-93763982D01*
X181882673Y-92739518D01*
X187983391Y-92739518D01*
X187983391Y-92851554D01*
X188012388Y-92959773D01*
X188068406Y-93056799D01*
X188147628Y-93136021D01*
X188244654Y-93192039D01*
X188352873Y-93221036D01*
X188352875Y-93221036D01*
X188464907Y-93221036D01*
X188464909Y-93221036D01*
X188573128Y-93192039D01*
X188670154Y-93136021D01*
X188749376Y-93056799D01*
X188805394Y-92959773D01*
X188834391Y-92851554D01*
X188834391Y-92739518D01*
X188805394Y-92631299D01*
X188749376Y-92534273D01*
X188670154Y-92455051D01*
X188573128Y-92399033D01*
X188464909Y-92370036D01*
X188352873Y-92370036D01*
X188244654Y-92399033D01*
X188244651Y-92399034D01*
X188147631Y-92455049D01*
X188147625Y-92455053D01*
X188068408Y-92534270D01*
X188068404Y-92534276D01*
X188012389Y-92631296D01*
X188012388Y-92631299D01*
X187983391Y-92739518D01*
X181882673Y-92739518D01*
X179639491Y-90496336D01*
X179639490Y-90496335D01*
X179564810Y-90453219D01*
X179564811Y-90453219D01*
X179537045Y-90445779D01*
X179481516Y-90430900D01*
X179481514Y-90430900D01*
X175839764Y-90430900D01*
X175772725Y-90411215D01*
X175741392Y-90378353D01*
X175739776Y-90379594D01*
X175734830Y-90373148D01*
X175734828Y-90373145D01*
X175633655Y-90271972D01*
X175509745Y-90200432D01*
X175371540Y-90163400D01*
X175228460Y-90163400D01*
X175090255Y-90200432D01*
X175090253Y-90200432D01*
X175090253Y-90200433D01*
X174966345Y-90271972D01*
X174966342Y-90271974D01*
X174865174Y-90373142D01*
X174865172Y-90373145D01*
X174793632Y-90497055D01*
X174756600Y-90635260D01*
X174756600Y-90778340D01*
X174793632Y-90916545D01*
X174865172Y-91040455D01*
X174966345Y-91141628D01*
X175090255Y-91213168D01*
X175228460Y-91250200D01*
X175228462Y-91250200D01*
X175371537Y-91250200D01*
X175371540Y-91250200D01*
X175509745Y-91213168D01*
X175633655Y-91141628D01*
X175653064Y-91122219D01*
X175714387Y-91088734D01*
X175740745Y-91085900D01*
X179251383Y-91085900D01*
X179318422Y-91105585D01*
X179339064Y-91122219D01*
X180671959Y-92455114D01*
X180676297Y-92463059D01*
X180683545Y-92468485D01*
X180692779Y-92493244D01*
X180705444Y-92516437D01*
X180704798Y-92525466D01*
X180707962Y-92533949D01*
X180702345Y-92559769D01*
X180700460Y-92586129D01*
X180694641Y-92595182D01*
X180693110Y-92602222D01*
X180671959Y-92630476D01*
X180643930Y-92658505D01*
X180582607Y-92691990D01*
X180512915Y-92687006D01*
X180508802Y-92685388D01*
X180504239Y-92683498D01*
X180504237Y-92683497D01*
X180396018Y-92654500D01*
X180283982Y-92654500D01*
X180175763Y-92683497D01*
X180175760Y-92683498D01*
X180078740Y-92739513D01*
X180078734Y-92739517D01*
X180039579Y-92778673D01*
X179978256Y-92812158D01*
X179908564Y-92807174D01*
X179852631Y-92765302D01*
X179828214Y-92699838D01*
X179828019Y-92694381D01*
X179827898Y-92693462D01*
X179827898Y-92693460D01*
X179790866Y-92555255D01*
X179719326Y-92431345D01*
X179618153Y-92330172D01*
X179494243Y-92258632D01*
X179356038Y-92221600D01*
X179212958Y-92221600D01*
X179074753Y-92258632D01*
X179074751Y-92258632D01*
X179074751Y-92258633D01*
X178950843Y-92330172D01*
X178944397Y-92335119D01*
X178943086Y-92333410D01*
X178891706Y-92361457D01*
X178822015Y-92356463D01*
X178803372Y-92347678D01*
X178681657Y-92277405D01*
X178543452Y-92240373D01*
X178400372Y-92240373D01*
X178262167Y-92277405D01*
X178262165Y-92277405D01*
X178262165Y-92277406D01*
X178138257Y-92348945D01*
X178138254Y-92348947D01*
X178037086Y-92450115D01*
X178037084Y-92450118D01*
X177973132Y-92560886D01*
X177965544Y-92574028D01*
X177928512Y-92712233D01*
X177928512Y-92855313D01*
X177965544Y-92993518D01*
X178037084Y-93117428D01*
X178037086Y-93117430D01*
X178108093Y-93188437D01*
X178141578Y-93249760D01*
X178144412Y-93276118D01*
X178144412Y-94409878D01*
X178124727Y-94476917D01*
X178071923Y-94522672D01*
X178002765Y-94532616D01*
X177939209Y-94503591D01*
X177913025Y-94471878D01*
X177896483Y-94443228D01*
X177865485Y-94389537D01*
X177786263Y-94310315D01*
X177689237Y-94254297D01*
X177581018Y-94225300D01*
X177468982Y-94225300D01*
X177360763Y-94254297D01*
X177360760Y-94254298D01*
X177270021Y-94306687D01*
X177208021Y-94323300D01*
X175649019Y-94323300D01*
X175581980Y-94303615D01*
X175541632Y-94261300D01*
X175537328Y-94253845D01*
X175436155Y-94152672D01*
X175312245Y-94081132D01*
X175174040Y-94044100D01*
X175030960Y-94044100D01*
X174892755Y-94081132D01*
X174892753Y-94081132D01*
X174892753Y-94081133D01*
X174768845Y-94152672D01*
X174768842Y-94152674D01*
X174667674Y-94253842D01*
X174667672Y-94253845D01*
X174602630Y-94366501D01*
X174596132Y-94377755D01*
X174559100Y-94515960D01*
X174559100Y-94659040D01*
X174596132Y-94797245D01*
X174667672Y-94921155D01*
X174768845Y-95022328D01*
X174892755Y-95093868D01*
X175030960Y-95130900D01*
X175030962Y-95130900D01*
X175174037Y-95130900D01*
X175174040Y-95130900D01*
X175312245Y-95093868D01*
X175436155Y-95022328D01*
X175443864Y-95014619D01*
X175505187Y-94981134D01*
X175531545Y-94978300D01*
X177043036Y-94978300D01*
X177110075Y-94997985D01*
X177155830Y-95050789D01*
X177165774Y-95119947D01*
X177162814Y-95134376D01*
X177153469Y-95169255D01*
X177153469Y-95281291D01*
X177181865Y-95387265D01*
X177182466Y-95389509D01*
X177182467Y-95389512D01*
X177190632Y-95403654D01*
X177238484Y-95486536D01*
X177317706Y-95565758D01*
X177414732Y-95621776D01*
X177522951Y-95650773D01*
X177522953Y-95650773D01*
X177634985Y-95650773D01*
X177634987Y-95650773D01*
X177743206Y-95621776D01*
X177840232Y-95565758D01*
X177919454Y-95486536D01*
X177919458Y-95486528D01*
X177922037Y-95483169D01*
X177924942Y-95481047D01*
X177925201Y-95480789D01*
X177925241Y-95480829D01*
X177978466Y-95441967D01*
X178048212Y-95437813D01*
X178109132Y-95472027D01*
X178141884Y-95533744D01*
X178144412Y-95558657D01*
X178144412Y-96041596D01*
X178144412Y-96127828D01*
X178151966Y-96156018D01*
X178166731Y-96211122D01*
X178209846Y-96285800D01*
X178209848Y-96285803D01*
X179064013Y-97139968D01*
X179097498Y-97201291D01*
X179092514Y-97270983D01*
X179050642Y-97326916D01*
X179008429Y-97347423D01*
X178985764Y-97353496D01*
X178985760Y-97353498D01*
X178888740Y-97409513D01*
X178888734Y-97409517D01*
X178848571Y-97449681D01*
X178787248Y-97483166D01*
X178760890Y-97486000D01*
X178304758Y-97486000D01*
X178237719Y-97466315D01*
X178191964Y-97413511D01*
X178182020Y-97344353D01*
X178184983Y-97329906D01*
X178186501Y-97324240D01*
X178186503Y-97324237D01*
X178215500Y-97216018D01*
X178215500Y-97103982D01*
X178186503Y-96995763D01*
X178130485Y-96898737D01*
X178051263Y-96819515D01*
X177979113Y-96777859D01*
X177954239Y-96763498D01*
X177954238Y-96763497D01*
X177954237Y-96763497D01*
X177846018Y-96734500D01*
X177733982Y-96734500D01*
X177625763Y-96763497D01*
X177625760Y-96763498D01*
X177528740Y-96819513D01*
X177528734Y-96819517D01*
X177459571Y-96888681D01*
X177398248Y-96922166D01*
X177371890Y-96925000D01*
X175629110Y-96925000D01*
X175562071Y-96905315D01*
X175541429Y-96888681D01*
X175501265Y-96848517D01*
X175501263Y-96848515D01*
X175424537Y-96804217D01*
X175404239Y-96792498D01*
X175404238Y-96792497D01*
X175404237Y-96792497D01*
X175296018Y-96763500D01*
X175183982Y-96763500D01*
X175075763Y-96792497D01*
X175075760Y-96792498D01*
X174978740Y-96848513D01*
X174978734Y-96848517D01*
X174899517Y-96927734D01*
X174899513Y-96927740D01*
X174843498Y-97024760D01*
X174843497Y-97024763D01*
X174814500Y-97132982D01*
X174814500Y-97245018D01*
X174837776Y-97331887D01*
X174840470Y-97341939D01*
X174838807Y-97411789D01*
X174799644Y-97469651D01*
X174735416Y-97497155D01*
X174666514Y-97485568D01*
X174633014Y-97461713D01*
X174248511Y-97077210D01*
X174215026Y-97015887D01*
X174220010Y-96946195D01*
X174228800Y-96927537D01*
X174266503Y-96862235D01*
X174295500Y-96754016D01*
X174295500Y-96641980D01*
X174266503Y-96533761D01*
X174210485Y-96436735D01*
X174131263Y-96357513D01*
X174034237Y-96301495D01*
X173926018Y-96272498D01*
X173813982Y-96272498D01*
X173705763Y-96301495D01*
X173705760Y-96301496D01*
X173608740Y-96357511D01*
X173608734Y-96357515D01*
X173529517Y-96436732D01*
X173529513Y-96436738D01*
X173473498Y-96533758D01*
X173473497Y-96533761D01*
X173444500Y-96641980D01*
X173444500Y-96754016D01*
X173469822Y-96848517D01*
X173473497Y-96862234D01*
X173473498Y-96862237D01*
X173484677Y-96881600D01*
X173529515Y-96959261D01*
X173529517Y-96959263D01*
X173569681Y-96999427D01*
X173603166Y-97060750D01*
X173606000Y-97087108D01*
X173606000Y-97124565D01*
X173646192Y-97221596D01*
X173646193Y-97221597D01*
X174653446Y-98228851D01*
X174686931Y-98290174D01*
X174681947Y-98359866D01*
X174640075Y-98415799D01*
X174574611Y-98440216D01*
X174565765Y-98440532D01*
X144650084Y-98440532D01*
X144563852Y-98440532D01*
X144512235Y-98454363D01*
X144480557Y-98462851D01*
X144405879Y-98505966D01*
X144405876Y-98505968D01*
X143941410Y-98970435D01*
X142216563Y-100695281D01*
X142155240Y-100728766D01*
X142128882Y-100731600D01*
X142028460Y-100731600D01*
X141890255Y-100768632D01*
X141890253Y-100768632D01*
X141890253Y-100768633D01*
X141766345Y-100840172D01*
X141766342Y-100840174D01*
X141665174Y-100941342D01*
X141665172Y-100941345D01*
X141624805Y-101011263D01*
X141593632Y-101065255D01*
X141556600Y-101203460D01*
X105760900Y-101203460D01*
X105760900Y-99817015D01*
X120249480Y-99817015D01*
X120249480Y-99929051D01*
X120277122Y-100032211D01*
X120278477Y-100037269D01*
X120278478Y-100037272D01*
X120291319Y-100059513D01*
X120334495Y-100134296D01*
X120413717Y-100213518D01*
X120510743Y-100269536D01*
X120618962Y-100298533D01*
X120618964Y-100298533D01*
X120730996Y-100298533D01*
X120730998Y-100298533D01*
X120839217Y-100269536D01*
X120936243Y-100213518D01*
X121015465Y-100134296D01*
X121071483Y-100037270D01*
X121086894Y-99979752D01*
X121118985Y-99924168D01*
X121787946Y-99255208D01*
X121843528Y-99223117D01*
X121926119Y-99200988D01*
X122023145Y-99144970D01*
X122102367Y-99065748D01*
X122158385Y-98968722D01*
X122187382Y-98860503D01*
X122187382Y-98748467D01*
X122158385Y-98640248D01*
X122102367Y-98543222D01*
X122023145Y-98464000D01*
X121948402Y-98420847D01*
X121926121Y-98407983D01*
X121926120Y-98407982D01*
X121926119Y-98407982D01*
X121817900Y-98378985D01*
X121705864Y-98378985D01*
X121597645Y-98407982D01*
X121597642Y-98407983D01*
X121500622Y-98463998D01*
X121500616Y-98464002D01*
X121421399Y-98543219D01*
X121421395Y-98543225D01*
X121365380Y-98640245D01*
X121365379Y-98640248D01*
X121342087Y-98727178D01*
X121334279Y-98756317D01*
X121331699Y-98755625D01*
X121308749Y-98807490D01*
X121301767Y-98815077D01*
X120705631Y-99411214D01*
X120644308Y-99444699D01*
X120623478Y-99446938D01*
X120618962Y-99447533D01*
X120510743Y-99476530D01*
X120510740Y-99476531D01*
X120413720Y-99532546D01*
X120413714Y-99532550D01*
X120334497Y-99611767D01*
X120334493Y-99611773D01*
X120278478Y-99708793D01*
X120278477Y-99708796D01*
X120249480Y-99817015D01*
X105760900Y-99817015D01*
X105760900Y-99148460D01*
X117736600Y-99148460D01*
X117736600Y-99291540D01*
X117773632Y-99429745D01*
X117845172Y-99553655D01*
X117946345Y-99654828D01*
X118070255Y-99726368D01*
X118208460Y-99763400D01*
X118208462Y-99763400D01*
X118351537Y-99763400D01*
X118351540Y-99763400D01*
X118489745Y-99726368D01*
X118613655Y-99654828D01*
X118714828Y-99553655D01*
X118786368Y-99429745D01*
X118823400Y-99291540D01*
X118823400Y-99148460D01*
X118786368Y-99010255D01*
X118714828Y-98886345D01*
X118613655Y-98785172D01*
X118489745Y-98713632D01*
X118351540Y-98676600D01*
X118208460Y-98676600D01*
X118070255Y-98713632D01*
X118070253Y-98713632D01*
X118070253Y-98713633D01*
X117946345Y-98785172D01*
X117946342Y-98785174D01*
X117845174Y-98886342D01*
X117845172Y-98886345D01*
X117773632Y-99010255D01*
X117736600Y-99148460D01*
X105760900Y-99148460D01*
X105760900Y-97938460D01*
X118856600Y-97938460D01*
X118856600Y-98081540D01*
X118893632Y-98219745D01*
X118965172Y-98343655D01*
X119066345Y-98444828D01*
X119190255Y-98516368D01*
X119328460Y-98553400D01*
X119328462Y-98553400D01*
X119471537Y-98553400D01*
X119471540Y-98553400D01*
X119609745Y-98516368D01*
X119733655Y-98444828D01*
X119834828Y-98343655D01*
X119906368Y-98219745D01*
X119943400Y-98081540D01*
X119943400Y-97938460D01*
X119906368Y-97800255D01*
X119834828Y-97676345D01*
X119733655Y-97575172D01*
X119609745Y-97503632D01*
X119471540Y-97466600D01*
X119328460Y-97466600D01*
X119190255Y-97503632D01*
X119190253Y-97503632D01*
X119190253Y-97503633D01*
X119066345Y-97575172D01*
X119066342Y-97575174D01*
X118965174Y-97676342D01*
X118965172Y-97676345D01*
X118906381Y-97778174D01*
X118893632Y-97800255D01*
X118856600Y-97938460D01*
X105760900Y-97938460D01*
X105760900Y-97353460D01*
X156456600Y-97353460D01*
X156456600Y-97496540D01*
X156493632Y-97634745D01*
X156565172Y-97758655D01*
X156666345Y-97859828D01*
X156790255Y-97931368D01*
X156928460Y-97968400D01*
X156928462Y-97968400D01*
X157071537Y-97968400D01*
X157071540Y-97968400D01*
X157209745Y-97931368D01*
X157333655Y-97859828D01*
X157434828Y-97758655D01*
X157506368Y-97634745D01*
X157543400Y-97496540D01*
X157543400Y-97353460D01*
X157506368Y-97215255D01*
X157434828Y-97091345D01*
X157333655Y-96990172D01*
X157209745Y-96918632D01*
X157071540Y-96881600D01*
X156928460Y-96881600D01*
X156790255Y-96918632D01*
X156790253Y-96918632D01*
X156790253Y-96918633D01*
X156666345Y-96990172D01*
X156666342Y-96990174D01*
X156565174Y-97091342D01*
X156565172Y-97091345D01*
X156500813Y-97202818D01*
X156493632Y-97215255D01*
X156456600Y-97353460D01*
X105760900Y-97353460D01*
X105760900Y-94408460D01*
X119236600Y-94408460D01*
X119236600Y-94551540D01*
X119273632Y-94689745D01*
X119345172Y-94813655D01*
X119446345Y-94914828D01*
X119570255Y-94986368D01*
X119708460Y-95023400D01*
X119708462Y-95023400D01*
X119851537Y-95023400D01*
X119851540Y-95023400D01*
X119989745Y-94986368D01*
X120113655Y-94914828D01*
X120214828Y-94813655D01*
X120286368Y-94689745D01*
X120323400Y-94551540D01*
X120323400Y-94408460D01*
X120286368Y-94270255D01*
X120214828Y-94146345D01*
X120113655Y-94045172D01*
X119989745Y-93973632D01*
X119851540Y-93936600D01*
X119708460Y-93936600D01*
X119570255Y-93973632D01*
X119570253Y-93973632D01*
X119570253Y-93973633D01*
X119446345Y-94045172D01*
X119446342Y-94045174D01*
X119345174Y-94146342D01*
X119345172Y-94146345D01*
X119296147Y-94231259D01*
X119273632Y-94270255D01*
X119236600Y-94408460D01*
X105760900Y-94408460D01*
X105760900Y-91111468D01*
X158280000Y-91111468D01*
X158280000Y-91238531D01*
X158304785Y-91363132D01*
X158304788Y-91363144D01*
X158353404Y-91480515D01*
X158353411Y-91480528D01*
X158423995Y-91586163D01*
X158423998Y-91586167D01*
X158513832Y-91676001D01*
X158513836Y-91676004D01*
X158619471Y-91746588D01*
X158619484Y-91746595D01*
X158711788Y-91784828D01*
X158736860Y-91795213D01*
X158861468Y-91819999D01*
X158861472Y-91820000D01*
X158861473Y-91820000D01*
X158988528Y-91820000D01*
X158988529Y-91819999D01*
X159113140Y-91795213D01*
X159230522Y-91746592D01*
X159336164Y-91676004D01*
X159426004Y-91586164D01*
X159496592Y-91480522D01*
X159545213Y-91363140D01*
X159560850Y-91284526D01*
X159562057Y-91278460D01*
X164246600Y-91278460D01*
X164246600Y-91421540D01*
X164283632Y-91559745D01*
X164355172Y-91683655D01*
X164456345Y-91784828D01*
X164580255Y-91856368D01*
X164718460Y-91893400D01*
X164718462Y-91893400D01*
X164861537Y-91893400D01*
X164861540Y-91893400D01*
X164999745Y-91856368D01*
X165123655Y-91784828D01*
X165224828Y-91683655D01*
X165296368Y-91559745D01*
X165333400Y-91421540D01*
X165333400Y-91278460D01*
X165296368Y-91140255D01*
X165224828Y-91016345D01*
X165123655Y-90915172D01*
X164999745Y-90843632D01*
X164861540Y-90806600D01*
X164718460Y-90806600D01*
X164580255Y-90843632D01*
X164580253Y-90843632D01*
X164580253Y-90843633D01*
X164456345Y-90915172D01*
X164456342Y-90915174D01*
X164355174Y-91016342D01*
X164355172Y-91016345D01*
X164283632Y-91140255D01*
X164246600Y-91278460D01*
X159562057Y-91278460D01*
X159568481Y-91246165D01*
X159568485Y-91246144D01*
X159570000Y-91238526D01*
X159570000Y-91111472D01*
X159569999Y-91111468D01*
X159555874Y-91040457D01*
X159545213Y-90986860D01*
X159515519Y-90915172D01*
X159496595Y-90869484D01*
X159496588Y-90869471D01*
X159426004Y-90763836D01*
X159426001Y-90763832D01*
X159336167Y-90673998D01*
X159336163Y-90673995D01*
X159230528Y-90603411D01*
X159230515Y-90603404D01*
X159113144Y-90554788D01*
X159113132Y-90554785D01*
X158988531Y-90530000D01*
X158988527Y-90530000D01*
X158861473Y-90530000D01*
X158861468Y-90530000D01*
X158736867Y-90554785D01*
X158736855Y-90554788D01*
X158619484Y-90603404D01*
X158619471Y-90603411D01*
X158513836Y-90673995D01*
X158513832Y-90673998D01*
X158423998Y-90763832D01*
X158423995Y-90763836D01*
X158353411Y-90869471D01*
X158353404Y-90869484D01*
X158304788Y-90986855D01*
X158304785Y-90986867D01*
X158280000Y-91111468D01*
X105760900Y-91111468D01*
X105760900Y-90053460D01*
X167306600Y-90053460D01*
X167306600Y-90196540D01*
X167343632Y-90334745D01*
X167415172Y-90458655D01*
X167516345Y-90559828D01*
X167640255Y-90631368D01*
X167778460Y-90668400D01*
X167778462Y-90668400D01*
X167921537Y-90668400D01*
X167921540Y-90668400D01*
X168059745Y-90631368D01*
X168183655Y-90559828D01*
X168284828Y-90458655D01*
X168356368Y-90334745D01*
X168393400Y-90196540D01*
X168393400Y-90053460D01*
X168356368Y-89915255D01*
X168284828Y-89791345D01*
X168183655Y-89690172D01*
X168059745Y-89618632D01*
X167921540Y-89581600D01*
X167778460Y-89581600D01*
X167640255Y-89618632D01*
X167640253Y-89618632D01*
X167640253Y-89618633D01*
X167516345Y-89690172D01*
X167516342Y-89690174D01*
X167415174Y-89791342D01*
X167415172Y-89791345D01*
X167343632Y-89915255D01*
X167306600Y-90053460D01*
X105760900Y-90053460D01*
X105760900Y-87305985D01*
X118845500Y-87305985D01*
X118845500Y-87494014D01*
X118882179Y-87678409D01*
X118882182Y-87678421D01*
X118954129Y-87852118D01*
X118954136Y-87852131D01*
X119058591Y-88008457D01*
X119058594Y-88008461D01*
X119191538Y-88141405D01*
X119191542Y-88141408D01*
X119347868Y-88245863D01*
X119347881Y-88245870D01*
X119515827Y-88315435D01*
X119521583Y-88317819D01*
X119682276Y-88349783D01*
X119705985Y-88354499D01*
X119705988Y-88354500D01*
X119705990Y-88354500D01*
X119894012Y-88354500D01*
X119894013Y-88354499D01*
X120078417Y-88317819D01*
X120224695Y-88257229D01*
X120252118Y-88245870D01*
X120252118Y-88245869D01*
X120252125Y-88245867D01*
X120408458Y-88141408D01*
X120541408Y-88008458D01*
X120645867Y-87852125D01*
X120655843Y-87828042D01*
X120696198Y-87730614D01*
X120717819Y-87678417D01*
X120754500Y-87494010D01*
X120754500Y-87305990D01*
X120754500Y-87305987D01*
X120754499Y-87305985D01*
X121345500Y-87305985D01*
X121345500Y-87494014D01*
X121382179Y-87678409D01*
X121382182Y-87678421D01*
X121454129Y-87852118D01*
X121454136Y-87852131D01*
X121558591Y-88008457D01*
X121558594Y-88008461D01*
X121691538Y-88141405D01*
X121691542Y-88141408D01*
X121847868Y-88245863D01*
X121847881Y-88245870D01*
X122015827Y-88315435D01*
X122021583Y-88317819D01*
X122182276Y-88349783D01*
X122205985Y-88354499D01*
X122205988Y-88354500D01*
X122205990Y-88354500D01*
X122394012Y-88354500D01*
X122394013Y-88354499D01*
X122578417Y-88317819D01*
X122626495Y-88297903D01*
X122695964Y-88290435D01*
X122758443Y-88321710D01*
X122761629Y-88324784D01*
X124123910Y-89687065D01*
X124198589Y-89730181D01*
X124281884Y-89752500D01*
X124281887Y-89752500D01*
X136593114Y-89752500D01*
X136593116Y-89752500D01*
X136676410Y-89730181D01*
X136751090Y-89687065D01*
X138088372Y-88349781D01*
X138149693Y-88316298D01*
X138219384Y-88321282D01*
X138223487Y-88322897D01*
X138243822Y-88331320D01*
X138271577Y-88342817D01*
X138271579Y-88342817D01*
X138271583Y-88342819D01*
X138433518Y-88375030D01*
X138455985Y-88379499D01*
X138455988Y-88379500D01*
X138455990Y-88379500D01*
X138644012Y-88379500D01*
X138644013Y-88379499D01*
X138828417Y-88342819D01*
X138876495Y-88322903D01*
X138945964Y-88315435D01*
X139008443Y-88346710D01*
X139011628Y-88349783D01*
X140348910Y-89687065D01*
X140423590Y-89730181D01*
X140506884Y-89752500D01*
X140506886Y-89752500D01*
X152930614Y-89752500D01*
X152930616Y-89752500D01*
X153013910Y-89730181D01*
X153088590Y-89687065D01*
X154525872Y-88249781D01*
X154587193Y-88216298D01*
X154656884Y-88221282D01*
X154660987Y-88222897D01*
X154662569Y-88223552D01*
X154709077Y-88242817D01*
X154709079Y-88242817D01*
X154709083Y-88242819D01*
X154893485Y-88279499D01*
X154893488Y-88279500D01*
X154893490Y-88279500D01*
X155081512Y-88279500D01*
X155081513Y-88279499D01*
X155265917Y-88242819D01*
X155313995Y-88222903D01*
X155383464Y-88215435D01*
X155445943Y-88246710D01*
X155449128Y-88249783D01*
X156600435Y-89401090D01*
X156661410Y-89462065D01*
X156736090Y-89505181D01*
X156819384Y-89527500D01*
X163457655Y-89527500D01*
X163524694Y-89547185D01*
X163545336Y-89563819D01*
X163616345Y-89634828D01*
X163740255Y-89706368D01*
X163878460Y-89743400D01*
X163878462Y-89743400D01*
X164021537Y-89743400D01*
X164021540Y-89743400D01*
X164159745Y-89706368D01*
X164283655Y-89634828D01*
X164384828Y-89533655D01*
X164456368Y-89409745D01*
X164457912Y-89403982D01*
X187004500Y-89403982D01*
X187004500Y-89516018D01*
X187033497Y-89624237D01*
X187089515Y-89721263D01*
X187168737Y-89800485D01*
X187265763Y-89856503D01*
X187373982Y-89885500D01*
X187373984Y-89885500D01*
X187486016Y-89885500D01*
X187486018Y-89885500D01*
X187594237Y-89856503D01*
X187691263Y-89800485D01*
X187770485Y-89721263D01*
X187826503Y-89624237D01*
X187855500Y-89516018D01*
X187855500Y-89403982D01*
X187826503Y-89295763D01*
X187770485Y-89198737D01*
X187691263Y-89119515D01*
X187626579Y-89082169D01*
X187594239Y-89063498D01*
X187594238Y-89063497D01*
X187594237Y-89063497D01*
X187486018Y-89034500D01*
X187373982Y-89034500D01*
X187265763Y-89063497D01*
X187265760Y-89063498D01*
X187168740Y-89119513D01*
X187168734Y-89119517D01*
X187089517Y-89198734D01*
X187089513Y-89198740D01*
X187033498Y-89295760D01*
X187033497Y-89295763D01*
X187004500Y-89403982D01*
X164457912Y-89403982D01*
X164493400Y-89271540D01*
X164493400Y-89128460D01*
X164456368Y-88990255D01*
X164384828Y-88866345D01*
X164283655Y-88765172D01*
X164159745Y-88693632D01*
X164021540Y-88656600D01*
X163878460Y-88656600D01*
X163740255Y-88693632D01*
X163740253Y-88693632D01*
X163740253Y-88693633D01*
X163616345Y-88765172D01*
X163616342Y-88765174D01*
X163545336Y-88836181D01*
X163484013Y-88869666D01*
X163457655Y-88872500D01*
X157049517Y-88872500D01*
X156982478Y-88852815D01*
X156961836Y-88836181D01*
X155912284Y-87786629D01*
X155878799Y-87725306D01*
X155883783Y-87655614D01*
X155885404Y-87651495D01*
X155905319Y-87603417D01*
X155940834Y-87424872D01*
X156473499Y-87424872D01*
X156512466Y-87620767D01*
X156512469Y-87620777D01*
X156588903Y-87805307D01*
X156588905Y-87805311D01*
X156671476Y-87928888D01*
X156671478Y-87928888D01*
X157043829Y-87556538D01*
X157087401Y-87632007D01*
X157180493Y-87725099D01*
X157255960Y-87768670D01*
X156883610Y-88141020D01*
X156883610Y-88141021D01*
X157007184Y-88223591D01*
X157007197Y-88223598D01*
X157191722Y-88300030D01*
X157191732Y-88300033D01*
X157387627Y-88339000D01*
X157587372Y-88339000D01*
X157783267Y-88300033D01*
X157783277Y-88300030D01*
X157967802Y-88223598D01*
X157967815Y-88223591D01*
X158091389Y-88141021D01*
X157719039Y-87768670D01*
X157794507Y-87725099D01*
X157887599Y-87632007D01*
X157931170Y-87556538D01*
X158303521Y-87928889D01*
X158386091Y-87805315D01*
X158386098Y-87805302D01*
X158462530Y-87620777D01*
X158462533Y-87620767D01*
X158501500Y-87424872D01*
X158501500Y-87225127D01*
X158462533Y-87029232D01*
X158462530Y-87029222D01*
X158386098Y-86844697D01*
X158386091Y-86844684D01*
X158303520Y-86721110D01*
X157931170Y-87093460D01*
X157887599Y-87017993D01*
X157794507Y-86924901D01*
X157719038Y-86881329D01*
X158049119Y-86551247D01*
X159033000Y-86551247D01*
X159033000Y-88098752D01*
X159044631Y-88157229D01*
X159044632Y-88157230D01*
X159088947Y-88223552D01*
X159155269Y-88267867D01*
X159155270Y-88267868D01*
X159213747Y-88279499D01*
X159213750Y-88279500D01*
X159213752Y-88279500D01*
X160761250Y-88279500D01*
X160761251Y-88279499D01*
X160776068Y-88276552D01*
X160819729Y-88267868D01*
X160819729Y-88267867D01*
X160819731Y-88267867D01*
X160886052Y-88223552D01*
X160930367Y-88157231D01*
X160930367Y-88157229D01*
X160930368Y-88157229D01*
X160939052Y-88113568D01*
X160942000Y-88098748D01*
X160942000Y-87968460D01*
X174486600Y-87968460D01*
X174486600Y-88111540D01*
X174523632Y-88249745D01*
X174595172Y-88373655D01*
X174696345Y-88474828D01*
X174820255Y-88546368D01*
X174958460Y-88583400D01*
X174958462Y-88583400D01*
X175101537Y-88583400D01*
X175101540Y-88583400D01*
X175239745Y-88546368D01*
X175363655Y-88474828D01*
X175464828Y-88373655D01*
X175536368Y-88249745D01*
X175573400Y-88111540D01*
X175573400Y-87968460D01*
X175536368Y-87830255D01*
X175464828Y-87706345D01*
X175363655Y-87605172D01*
X175239745Y-87533632D01*
X175101540Y-87496600D01*
X174958460Y-87496600D01*
X174820255Y-87533632D01*
X174820253Y-87533632D01*
X174820253Y-87533633D01*
X174696345Y-87605172D01*
X174696342Y-87605174D01*
X174595174Y-87706342D01*
X174595172Y-87706345D01*
X174538034Y-87805311D01*
X174523632Y-87830255D01*
X174486600Y-87968460D01*
X160942000Y-87968460D01*
X160942000Y-86551252D01*
X160942000Y-86551249D01*
X160941999Y-86551247D01*
X160930368Y-86492770D01*
X160930367Y-86492769D01*
X160886052Y-86426447D01*
X160819730Y-86382132D01*
X160819729Y-86382131D01*
X160761252Y-86370500D01*
X160761248Y-86370500D01*
X159213752Y-86370500D01*
X159213747Y-86370500D01*
X159155270Y-86382131D01*
X159155269Y-86382132D01*
X159088947Y-86426447D01*
X159044632Y-86492769D01*
X159044631Y-86492770D01*
X159033000Y-86551247D01*
X158049119Y-86551247D01*
X158091388Y-86508978D01*
X158091388Y-86508976D01*
X157967811Y-86426405D01*
X157967807Y-86426403D01*
X157783277Y-86349969D01*
X157783267Y-86349966D01*
X157587372Y-86311000D01*
X157387628Y-86311000D01*
X157191732Y-86349966D01*
X157191726Y-86349968D01*
X157007194Y-86426403D01*
X157007187Y-86426407D01*
X156883610Y-86508978D01*
X156883609Y-86508978D01*
X157255961Y-86881329D01*
X157180493Y-86924901D01*
X157087401Y-87017993D01*
X157043829Y-87093460D01*
X156671478Y-86721109D01*
X156671478Y-86721110D01*
X156588907Y-86844687D01*
X156588903Y-86844694D01*
X156512468Y-87029226D01*
X156512466Y-87029232D01*
X156473500Y-87225127D01*
X156473500Y-87424872D01*
X156473499Y-87424872D01*
X155940834Y-87424872D01*
X155942000Y-87419010D01*
X155942000Y-87230990D01*
X155942000Y-87230987D01*
X155941999Y-87230985D01*
X155920237Y-87121583D01*
X155905319Y-87046583D01*
X155885983Y-86999901D01*
X155833370Y-86872881D01*
X155833363Y-86872868D01*
X155728908Y-86716542D01*
X155728905Y-86716538D01*
X155595961Y-86583594D01*
X155595957Y-86583591D01*
X155439631Y-86479136D01*
X155439618Y-86479129D01*
X155265921Y-86407182D01*
X155265909Y-86407179D01*
X155081513Y-86370500D01*
X155081510Y-86370500D01*
X154893490Y-86370500D01*
X154893487Y-86370500D01*
X154709090Y-86407179D01*
X154709078Y-86407182D01*
X154535381Y-86479129D01*
X154535368Y-86479136D01*
X154379042Y-86583591D01*
X154379038Y-86583594D01*
X154246094Y-86716538D01*
X154246091Y-86716542D01*
X154141636Y-86872868D01*
X154141629Y-86872881D01*
X154069682Y-87046578D01*
X154069679Y-87046590D01*
X154033000Y-87230985D01*
X154033000Y-87419014D01*
X154069679Y-87603409D01*
X154069682Y-87603421D01*
X154089595Y-87651495D01*
X154097064Y-87720964D01*
X154065788Y-87783443D01*
X154062715Y-87786628D01*
X152788164Y-89061181D01*
X152726841Y-89094666D01*
X152700483Y-89097500D01*
X140737017Y-89097500D01*
X140669978Y-89077815D01*
X140649336Y-89061181D01*
X139474784Y-87886629D01*
X139441299Y-87825306D01*
X139446283Y-87755614D01*
X139447904Y-87751495D01*
X139456553Y-87730614D01*
X139467819Y-87703417D01*
X139503334Y-87524872D01*
X140035999Y-87524872D01*
X140074966Y-87720767D01*
X140074969Y-87720777D01*
X140151403Y-87905307D01*
X140151405Y-87905311D01*
X140233976Y-88028888D01*
X140233978Y-88028888D01*
X140606329Y-87656538D01*
X140649901Y-87732007D01*
X140742993Y-87825099D01*
X140818460Y-87868670D01*
X140446110Y-88241020D01*
X140446110Y-88241021D01*
X140569684Y-88323591D01*
X140569697Y-88323598D01*
X140754222Y-88400030D01*
X140754232Y-88400033D01*
X140950127Y-88439000D01*
X141149872Y-88439000D01*
X141345767Y-88400033D01*
X141345777Y-88400030D01*
X141530302Y-88323598D01*
X141530315Y-88323591D01*
X141653889Y-88241021D01*
X141281539Y-87868670D01*
X141357007Y-87825099D01*
X141450099Y-87732007D01*
X141493670Y-87656538D01*
X141866021Y-88028889D01*
X141948591Y-87905315D01*
X141948598Y-87905302D01*
X142025030Y-87720777D01*
X142025033Y-87720767D01*
X142064000Y-87524872D01*
X142064000Y-87325127D01*
X142025033Y-87129232D01*
X142025030Y-87129222D01*
X141948598Y-86944697D01*
X141948591Y-86944684D01*
X141866020Y-86821110D01*
X141493670Y-87193460D01*
X141450099Y-87117993D01*
X141357007Y-87024901D01*
X141281538Y-86981329D01*
X141611619Y-86651247D01*
X142595500Y-86651247D01*
X142595500Y-88198752D01*
X142607131Y-88257229D01*
X142607132Y-88257230D01*
X142651447Y-88323552D01*
X142717769Y-88367867D01*
X142717770Y-88367868D01*
X142776247Y-88379499D01*
X142776250Y-88379500D01*
X142776252Y-88379500D01*
X144323750Y-88379500D01*
X144323751Y-88379499D01*
X144338568Y-88376552D01*
X144382229Y-88367868D01*
X144382229Y-88367867D01*
X144382231Y-88367867D01*
X144448552Y-88323552D01*
X144492867Y-88257231D01*
X144492867Y-88257229D01*
X144492868Y-88257229D01*
X144504499Y-88198752D01*
X144504500Y-88198750D01*
X144504500Y-87230985D01*
X151533000Y-87230985D01*
X151533000Y-87419014D01*
X151569679Y-87603409D01*
X151569682Y-87603421D01*
X151641629Y-87777118D01*
X151641636Y-87777131D01*
X151746091Y-87933457D01*
X151746094Y-87933461D01*
X151879038Y-88066405D01*
X151879042Y-88066408D01*
X152035368Y-88170863D01*
X152035381Y-88170870D01*
X152183521Y-88232231D01*
X152209083Y-88242819D01*
X152393485Y-88279499D01*
X152393488Y-88279500D01*
X152393490Y-88279500D01*
X152581512Y-88279500D01*
X152581513Y-88279499D01*
X152765917Y-88242819D01*
X152939625Y-88170867D01*
X153095958Y-88066408D01*
X153228908Y-87933458D01*
X153333367Y-87777125D01*
X153405319Y-87603417D01*
X153442000Y-87419010D01*
X153442000Y-87230990D01*
X153442000Y-87230987D01*
X153441999Y-87230985D01*
X153420237Y-87121583D01*
X153405319Y-87046583D01*
X153398129Y-87029226D01*
X153393477Y-87017993D01*
X153385403Y-86998503D01*
X153377934Y-86929036D01*
X153409208Y-86866556D01*
X153412253Y-86863400D01*
X154461836Y-85813819D01*
X154523159Y-85780334D01*
X154549517Y-85777500D01*
X162532655Y-85777500D01*
X162599694Y-85797185D01*
X162620336Y-85813819D01*
X162691345Y-85884828D01*
X162815255Y-85956368D01*
X162953460Y-85993400D01*
X162953462Y-85993400D01*
X163096537Y-85993400D01*
X163096540Y-85993400D01*
X163234745Y-85956368D01*
X163239782Y-85953460D01*
X165006600Y-85953460D01*
X165006600Y-86096540D01*
X165043632Y-86234745D01*
X165115172Y-86358655D01*
X165216345Y-86459828D01*
X165340255Y-86531368D01*
X165478460Y-86568400D01*
X165478462Y-86568400D01*
X165621537Y-86568400D01*
X165621540Y-86568400D01*
X165759745Y-86531368D01*
X165883655Y-86459828D01*
X165984828Y-86358655D01*
X166056368Y-86234745D01*
X166093400Y-86096540D01*
X166093400Y-85953460D01*
X166056368Y-85815255D01*
X165984828Y-85691345D01*
X165883655Y-85590172D01*
X165759745Y-85518632D01*
X165621540Y-85481600D01*
X165478460Y-85481600D01*
X165340255Y-85518632D01*
X165340253Y-85518632D01*
X165340253Y-85518633D01*
X165216345Y-85590172D01*
X165216342Y-85590174D01*
X165115174Y-85691342D01*
X165115172Y-85691345D01*
X165043632Y-85815255D01*
X165006600Y-85953460D01*
X163239782Y-85953460D01*
X163358655Y-85884828D01*
X163459828Y-85783655D01*
X163531368Y-85659745D01*
X163568400Y-85521540D01*
X163568400Y-85378460D01*
X163531368Y-85240255D01*
X163459828Y-85116345D01*
X163358655Y-85015172D01*
X163234745Y-84943632D01*
X163096540Y-84906600D01*
X162953460Y-84906600D01*
X162815255Y-84943632D01*
X162815253Y-84943632D01*
X162815253Y-84943633D01*
X162691345Y-85015172D01*
X162691342Y-85015174D01*
X162620336Y-85086181D01*
X162559013Y-85119666D01*
X162532655Y-85122500D01*
X154405616Y-85122500D01*
X154319384Y-85122500D01*
X154263854Y-85137379D01*
X154236089Y-85144819D01*
X154161411Y-85187934D01*
X154161408Y-85187936D01*
X152949128Y-86400215D01*
X152887805Y-86433700D01*
X152818113Y-86428716D01*
X152813995Y-86427095D01*
X152765921Y-86407182D01*
X152765909Y-86407179D01*
X152581513Y-86370500D01*
X152581510Y-86370500D01*
X152393490Y-86370500D01*
X152393487Y-86370500D01*
X152209090Y-86407179D01*
X152209078Y-86407182D01*
X152035381Y-86479129D01*
X152035368Y-86479136D01*
X151879042Y-86583591D01*
X151879038Y-86583594D01*
X151746094Y-86716538D01*
X151746091Y-86716542D01*
X151641636Y-86872868D01*
X151641629Y-86872881D01*
X151569682Y-87046578D01*
X151569679Y-87046590D01*
X151533000Y-87230985D01*
X144504500Y-87230985D01*
X144504500Y-86651249D01*
X144504499Y-86651247D01*
X144492868Y-86592770D01*
X144492867Y-86592769D01*
X144448552Y-86526447D01*
X144382230Y-86482132D01*
X144382229Y-86482131D01*
X144323752Y-86470500D01*
X144323748Y-86470500D01*
X142776252Y-86470500D01*
X142776247Y-86470500D01*
X142717770Y-86482131D01*
X142717769Y-86482132D01*
X142651447Y-86526447D01*
X142607132Y-86592769D01*
X142607131Y-86592770D01*
X142595500Y-86651247D01*
X141611619Y-86651247D01*
X141653888Y-86608978D01*
X141653888Y-86608976D01*
X141530311Y-86526405D01*
X141530307Y-86526403D01*
X141345777Y-86449969D01*
X141345767Y-86449966D01*
X141149872Y-86411000D01*
X140950128Y-86411000D01*
X140754232Y-86449966D01*
X140754226Y-86449968D01*
X140569694Y-86526403D01*
X140569687Y-86526407D01*
X140446110Y-86608978D01*
X140446109Y-86608978D01*
X140818461Y-86981329D01*
X140742993Y-87024901D01*
X140649901Y-87117993D01*
X140606329Y-87193460D01*
X140233978Y-86821109D01*
X140233978Y-86821110D01*
X140151407Y-86944687D01*
X140151403Y-86944694D01*
X140074968Y-87129226D01*
X140074966Y-87129232D01*
X140036000Y-87325127D01*
X140036000Y-87524872D01*
X140035999Y-87524872D01*
X139503334Y-87524872D01*
X139504500Y-87519010D01*
X139504500Y-87330990D01*
X139504500Y-87330987D01*
X139504499Y-87330985D01*
X139503334Y-87325127D01*
X139467819Y-87146583D01*
X139467817Y-87146578D01*
X139395870Y-86972881D01*
X139395863Y-86972868D01*
X139291408Y-86816542D01*
X139291405Y-86816538D01*
X139158461Y-86683594D01*
X139158457Y-86683591D01*
X139002131Y-86579136D01*
X139002118Y-86579129D01*
X138828421Y-86507182D01*
X138828409Y-86507179D01*
X138644013Y-86470500D01*
X138644010Y-86470500D01*
X138455990Y-86470500D01*
X138455987Y-86470500D01*
X138271590Y-86507179D01*
X138271578Y-86507182D01*
X138097881Y-86579129D01*
X138097868Y-86579136D01*
X137941542Y-86683591D01*
X137941538Y-86683594D01*
X137808594Y-86816538D01*
X137808591Y-86816542D01*
X137704136Y-86972868D01*
X137704129Y-86972881D01*
X137632182Y-87146578D01*
X137632179Y-87146590D01*
X137595500Y-87330985D01*
X137595500Y-87519014D01*
X137632179Y-87703409D01*
X137632182Y-87703421D01*
X137652095Y-87751495D01*
X137659564Y-87820964D01*
X137628288Y-87883443D01*
X137625215Y-87886628D01*
X136450664Y-89061181D01*
X136389341Y-89094666D01*
X136362983Y-89097500D01*
X124512017Y-89097500D01*
X124444978Y-89077815D01*
X124424336Y-89061181D01*
X123224784Y-87861629D01*
X123191299Y-87800306D01*
X123196283Y-87730614D01*
X123197904Y-87726495D01*
X123217819Y-87678417D01*
X123253334Y-87499872D01*
X123785999Y-87499872D01*
X123824966Y-87695767D01*
X123824969Y-87695777D01*
X123901403Y-87880307D01*
X123901405Y-87880311D01*
X123983976Y-88003888D01*
X123983978Y-88003888D01*
X124356329Y-87631538D01*
X124399901Y-87707007D01*
X124492993Y-87800099D01*
X124568460Y-87843670D01*
X124196110Y-88216020D01*
X124196110Y-88216021D01*
X124319684Y-88298591D01*
X124319697Y-88298598D01*
X124504222Y-88375030D01*
X124504232Y-88375033D01*
X124700127Y-88414000D01*
X124899872Y-88414000D01*
X125095767Y-88375033D01*
X125095777Y-88375030D01*
X125280302Y-88298598D01*
X125280315Y-88298591D01*
X125403889Y-88216021D01*
X125031539Y-87843670D01*
X125107007Y-87800099D01*
X125200099Y-87707007D01*
X125243670Y-87631538D01*
X125616021Y-88003889D01*
X125698591Y-87880315D01*
X125698598Y-87880302D01*
X125775030Y-87695777D01*
X125775033Y-87695767D01*
X125814000Y-87499872D01*
X125814000Y-87300127D01*
X125775033Y-87104232D01*
X125775030Y-87104222D01*
X125698598Y-86919697D01*
X125698591Y-86919684D01*
X125616020Y-86796110D01*
X125243670Y-87168460D01*
X125200099Y-87092993D01*
X125107007Y-86999901D01*
X125031538Y-86956329D01*
X125361619Y-86626247D01*
X126345500Y-86626247D01*
X126345500Y-88173752D01*
X126357131Y-88232229D01*
X126357132Y-88232230D01*
X126401447Y-88298552D01*
X126467769Y-88342867D01*
X126467770Y-88342868D01*
X126526247Y-88354499D01*
X126526250Y-88354500D01*
X126526252Y-88354500D01*
X128073750Y-88354500D01*
X128073751Y-88354499D01*
X128088568Y-88351552D01*
X128132229Y-88342868D01*
X128132229Y-88342867D01*
X128132231Y-88342867D01*
X128198552Y-88298552D01*
X128242867Y-88232231D01*
X128242867Y-88232229D01*
X128242868Y-88232229D01*
X128254499Y-88173752D01*
X128254500Y-88173750D01*
X128254500Y-87330985D01*
X135095500Y-87330985D01*
X135095500Y-87519014D01*
X135132179Y-87703409D01*
X135132182Y-87703421D01*
X135204129Y-87877118D01*
X135204136Y-87877131D01*
X135308591Y-88033457D01*
X135308594Y-88033461D01*
X135441538Y-88166405D01*
X135441542Y-88166408D01*
X135597868Y-88270863D01*
X135597881Y-88270870D01*
X135762363Y-88339000D01*
X135771583Y-88342819D01*
X135933518Y-88375030D01*
X135955985Y-88379499D01*
X135955988Y-88379500D01*
X135955990Y-88379500D01*
X136144012Y-88379500D01*
X136144013Y-88379499D01*
X136328417Y-88342819D01*
X136481283Y-88279500D01*
X136502118Y-88270870D01*
X136502118Y-88270869D01*
X136502125Y-88270867D01*
X136658458Y-88166408D01*
X136791408Y-88033458D01*
X136895867Y-87877125D01*
X136967819Y-87703417D01*
X137004500Y-87519010D01*
X137004500Y-87330990D01*
X137004500Y-87330987D01*
X137004499Y-87330985D01*
X137003334Y-87325127D01*
X136967819Y-87146583D01*
X136967817Y-87146578D01*
X136895870Y-86972881D01*
X136895863Y-86972868D01*
X136791408Y-86816542D01*
X136791405Y-86816538D01*
X136658461Y-86683594D01*
X136658457Y-86683591D01*
X136502131Y-86579136D01*
X136502118Y-86579129D01*
X136328421Y-86507182D01*
X136328409Y-86507179D01*
X136144013Y-86470500D01*
X136144010Y-86470500D01*
X135955990Y-86470500D01*
X135955987Y-86470500D01*
X135771590Y-86507179D01*
X135771578Y-86507182D01*
X135597881Y-86579129D01*
X135597868Y-86579136D01*
X135441542Y-86683591D01*
X135441538Y-86683594D01*
X135308594Y-86816538D01*
X135308591Y-86816542D01*
X135204136Y-86972868D01*
X135204129Y-86972881D01*
X135132182Y-87146578D01*
X135132179Y-87146590D01*
X135095500Y-87330985D01*
X128254500Y-87330985D01*
X128254500Y-86626249D01*
X128254499Y-86626247D01*
X128242868Y-86567770D01*
X128242867Y-86567769D01*
X128198552Y-86501447D01*
X128132230Y-86457132D01*
X128132229Y-86457131D01*
X128073752Y-86445500D01*
X128073748Y-86445500D01*
X126526252Y-86445500D01*
X126526247Y-86445500D01*
X126467770Y-86457131D01*
X126467769Y-86457132D01*
X126401447Y-86501447D01*
X126357132Y-86567769D01*
X126357131Y-86567770D01*
X126345500Y-86626247D01*
X125361619Y-86626247D01*
X125403888Y-86583978D01*
X125403888Y-86583976D01*
X125280311Y-86501405D01*
X125280307Y-86501403D01*
X125095777Y-86424969D01*
X125095767Y-86424966D01*
X124899872Y-86386000D01*
X124700128Y-86386000D01*
X124504232Y-86424966D01*
X124504226Y-86424968D01*
X124319694Y-86501403D01*
X124319687Y-86501407D01*
X124196110Y-86583978D01*
X124196109Y-86583978D01*
X124568461Y-86956329D01*
X124492993Y-86999901D01*
X124399901Y-87092993D01*
X124356329Y-87168460D01*
X123983978Y-86796109D01*
X123983978Y-86796110D01*
X123901407Y-86919687D01*
X123901403Y-86919694D01*
X123824968Y-87104226D01*
X123824966Y-87104232D01*
X123786000Y-87300127D01*
X123786000Y-87499872D01*
X123785999Y-87499872D01*
X123253334Y-87499872D01*
X123254500Y-87494010D01*
X123254500Y-87305990D01*
X123254500Y-87305987D01*
X123254499Y-87305985D01*
X123239784Y-87232007D01*
X123217819Y-87121583D01*
X123156225Y-86972881D01*
X123145870Y-86947881D01*
X123145863Y-86947868D01*
X123041408Y-86791542D01*
X123041405Y-86791538D01*
X122908461Y-86658594D01*
X122908457Y-86658591D01*
X122752131Y-86554136D01*
X122752118Y-86554129D01*
X122578421Y-86482182D01*
X122578409Y-86482179D01*
X122394013Y-86445500D01*
X122394010Y-86445500D01*
X122205990Y-86445500D01*
X122205987Y-86445500D01*
X122021590Y-86482179D01*
X122021578Y-86482182D01*
X121847881Y-86554129D01*
X121847868Y-86554136D01*
X121691542Y-86658591D01*
X121691538Y-86658594D01*
X121558594Y-86791538D01*
X121558591Y-86791542D01*
X121454136Y-86947868D01*
X121454129Y-86947881D01*
X121382182Y-87121578D01*
X121382179Y-87121590D01*
X121345500Y-87305985D01*
X120754499Y-87305985D01*
X120739784Y-87232007D01*
X120717819Y-87121583D01*
X120656225Y-86972881D01*
X120645870Y-86947881D01*
X120645863Y-86947868D01*
X120541408Y-86791542D01*
X120541405Y-86791538D01*
X120408461Y-86658594D01*
X120408457Y-86658591D01*
X120252131Y-86554136D01*
X120252118Y-86554129D01*
X120078421Y-86482182D01*
X120078409Y-86482179D01*
X119894013Y-86445500D01*
X119894010Y-86445500D01*
X119705990Y-86445500D01*
X119705987Y-86445500D01*
X119521590Y-86482179D01*
X119521578Y-86482182D01*
X119347881Y-86554129D01*
X119347868Y-86554136D01*
X119191542Y-86658591D01*
X119191538Y-86658594D01*
X119058594Y-86791538D01*
X119058591Y-86791542D01*
X118954136Y-86947868D01*
X118954129Y-86947881D01*
X118882182Y-87121578D01*
X118882179Y-87121590D01*
X118845500Y-87305985D01*
X105760900Y-87305985D01*
X105760900Y-79619224D01*
X106800400Y-79619224D01*
X106800400Y-79959175D01*
X106833720Y-80297497D01*
X106900043Y-80630921D01*
X106998729Y-80956250D01*
X107128826Y-81270327D01*
X107128828Y-81270332D01*
X107289073Y-81570129D01*
X107289084Y-81570147D01*
X107477944Y-81852796D01*
X107477954Y-81852810D01*
X107693621Y-82115601D01*
X107707743Y-82129723D01*
X107707744Y-82129723D01*
X109025659Y-80811807D01*
X109039988Y-80831530D01*
X109218070Y-81009612D01*
X109237790Y-81023940D01*
X107919876Y-82341854D01*
X107919876Y-82341856D01*
X107933998Y-82355978D01*
X108196789Y-82571645D01*
X108196803Y-82571655D01*
X108479452Y-82760515D01*
X108479470Y-82760526D01*
X108779267Y-82920771D01*
X108779272Y-82920773D01*
X109093349Y-83050870D01*
X109418678Y-83149556D01*
X109752102Y-83215879D01*
X110090424Y-83249200D01*
X110430376Y-83249200D01*
X110768697Y-83215879D01*
X111102121Y-83149556D01*
X111427450Y-83050870D01*
X111741527Y-82920773D01*
X111741532Y-82920771D01*
X112041329Y-82760526D01*
X112041347Y-82760515D01*
X112323996Y-82571655D01*
X112324010Y-82571645D01*
X112586790Y-82355987D01*
X112600922Y-82341854D01*
X111283008Y-81023940D01*
X111302730Y-81009612D01*
X111480812Y-80831530D01*
X111495140Y-80811808D01*
X112813054Y-82129722D01*
X112827187Y-82115590D01*
X113042845Y-81852810D01*
X113042855Y-81852796D01*
X113231715Y-81570147D01*
X113231726Y-81570129D01*
X113391971Y-81270332D01*
X113391973Y-81270327D01*
X113522070Y-80956250D01*
X113620756Y-80630921D01*
X113687079Y-80297497D01*
X113720400Y-79959175D01*
X113720400Y-79670024D01*
X187050000Y-79670024D01*
X187050000Y-80009975D01*
X187083320Y-80348297D01*
X187149643Y-80681721D01*
X187248329Y-81007050D01*
X187378426Y-81321127D01*
X187378428Y-81321132D01*
X187538673Y-81620929D01*
X187538684Y-81620947D01*
X187727544Y-81903596D01*
X187727554Y-81903610D01*
X187943221Y-82166401D01*
X187957343Y-82180523D01*
X187957344Y-82180523D01*
X189275259Y-80862608D01*
X189289588Y-80882330D01*
X189467670Y-81060412D01*
X189487390Y-81074740D01*
X188169476Y-82392654D01*
X188169476Y-82392656D01*
X188183598Y-82406778D01*
X188446389Y-82622445D01*
X188446403Y-82622455D01*
X188729052Y-82811315D01*
X188729070Y-82811326D01*
X189028867Y-82971571D01*
X189028872Y-82971573D01*
X189342949Y-83101670D01*
X189668278Y-83200356D01*
X190001702Y-83266679D01*
X190340024Y-83300000D01*
X190679976Y-83300000D01*
X191018297Y-83266679D01*
X191351721Y-83200356D01*
X191677050Y-83101670D01*
X191991127Y-82971573D01*
X191991132Y-82971571D01*
X192290929Y-82811326D01*
X192290947Y-82811315D01*
X192573596Y-82622455D01*
X192573610Y-82622445D01*
X192836390Y-82406787D01*
X192850522Y-82392654D01*
X191532608Y-81074740D01*
X191552330Y-81060412D01*
X191730412Y-80882330D01*
X191744740Y-80862608D01*
X193062654Y-82180522D01*
X193076787Y-82166390D01*
X193292445Y-81903610D01*
X193292455Y-81903596D01*
X193481315Y-81620947D01*
X193481326Y-81620929D01*
X193641571Y-81321132D01*
X193641573Y-81321127D01*
X193771670Y-81007050D01*
X193870356Y-80681721D01*
X193936679Y-80348297D01*
X193970000Y-80009975D01*
X193970000Y-79670024D01*
X193936679Y-79331702D01*
X193870356Y-78998278D01*
X193771670Y-78672949D01*
X193641573Y-78358872D01*
X193641571Y-78358867D01*
X193481326Y-78059070D01*
X193481315Y-78059052D01*
X193292455Y-77776403D01*
X193292445Y-77776389D01*
X193076778Y-77513598D01*
X193062656Y-77499476D01*
X193062654Y-77499476D01*
X191744739Y-78817390D01*
X191730412Y-78797670D01*
X191552330Y-78619588D01*
X191532608Y-78605259D01*
X192850523Y-77287345D01*
X192850523Y-77287343D01*
X192836401Y-77273221D01*
X192573610Y-77057554D01*
X192573596Y-77057544D01*
X192290947Y-76868684D01*
X192290929Y-76868673D01*
X191991132Y-76708428D01*
X191991127Y-76708426D01*
X191677050Y-76578329D01*
X191351721Y-76479643D01*
X191018297Y-76413320D01*
X190679976Y-76380000D01*
X190340024Y-76380000D01*
X190001702Y-76413320D01*
X189668278Y-76479643D01*
X189342949Y-76578329D01*
X189028872Y-76708426D01*
X189028867Y-76708428D01*
X188729070Y-76868673D01*
X188729052Y-76868684D01*
X188446403Y-77057544D01*
X188446389Y-77057554D01*
X188183609Y-77273211D01*
X188169475Y-77287344D01*
X189487391Y-78605259D01*
X189467670Y-78619588D01*
X189289588Y-78797670D01*
X189275259Y-78817390D01*
X187957344Y-77499475D01*
X187943211Y-77513609D01*
X187727554Y-77776389D01*
X187727544Y-77776403D01*
X187538684Y-78059052D01*
X187538673Y-78059070D01*
X187378428Y-78358867D01*
X187378426Y-78358872D01*
X187248329Y-78672949D01*
X187149643Y-78998278D01*
X187083320Y-79331702D01*
X187050000Y-79670024D01*
X113720400Y-79670024D01*
X113720400Y-79619224D01*
X113687079Y-79280902D01*
X113620756Y-78947478D01*
X113522070Y-78622149D01*
X113391973Y-78308072D01*
X113391971Y-78308067D01*
X113231726Y-78008270D01*
X113231715Y-78008252D01*
X113042855Y-77725603D01*
X113042845Y-77725589D01*
X112827178Y-77462799D01*
X112813056Y-77448676D01*
X112813054Y-77448676D01*
X111495139Y-78766590D01*
X111480812Y-78746870D01*
X111302730Y-78568788D01*
X111283008Y-78554459D01*
X112600923Y-77236545D01*
X112600923Y-77236543D01*
X112586801Y-77222421D01*
X112324010Y-77006754D01*
X112323996Y-77006744D01*
X112041347Y-76817884D01*
X112041329Y-76817873D01*
X111741532Y-76657628D01*
X111741527Y-76657626D01*
X111427450Y-76527529D01*
X111102121Y-76428843D01*
X110768697Y-76362520D01*
X110430376Y-76329200D01*
X110090424Y-76329200D01*
X109752102Y-76362520D01*
X109418678Y-76428843D01*
X109093349Y-76527529D01*
X108779272Y-76657626D01*
X108779267Y-76657628D01*
X108479470Y-76817873D01*
X108479452Y-76817884D01*
X108196803Y-77006744D01*
X108196789Y-77006754D01*
X107934009Y-77222411D01*
X107919875Y-77236544D01*
X109237791Y-78554459D01*
X109218070Y-78568788D01*
X109039988Y-78746870D01*
X109025659Y-78766590D01*
X107707744Y-77448675D01*
X107693611Y-77462809D01*
X107477954Y-77725589D01*
X107477944Y-77725603D01*
X107289084Y-78008252D01*
X107289073Y-78008270D01*
X107128828Y-78308067D01*
X107128826Y-78308072D01*
X106998729Y-78622149D01*
X106900043Y-78947478D01*
X106833720Y-79280902D01*
X106800400Y-79619224D01*
X105760900Y-79619224D01*
X105760900Y-78492680D01*
X105761095Y-78485727D01*
X105771109Y-78307406D01*
X105777484Y-78193891D01*
X105779038Y-78180098D01*
X105827415Y-77895367D01*
X105830509Y-77881815D01*
X105910460Y-77604300D01*
X105915053Y-77591175D01*
X105947182Y-77513609D01*
X106025575Y-77324351D01*
X106031595Y-77311851D01*
X106171302Y-77059068D01*
X106178697Y-77047300D01*
X106207466Y-77006754D01*
X106345822Y-76811759D01*
X106354477Y-76800905D01*
X106546934Y-76585546D01*
X106556746Y-76575734D01*
X106772105Y-76383277D01*
X106782959Y-76374622D01*
X107018505Y-76207493D01*
X107030268Y-76200102D01*
X107283051Y-76060395D01*
X107295551Y-76054375D01*
X107562379Y-75943851D01*
X107575496Y-75939261D01*
X107853021Y-75859307D01*
X107866567Y-75856215D01*
X108151298Y-75807838D01*
X108165091Y-75806284D01*
X108456928Y-75789895D01*
X108463881Y-75789700D01*
X108526292Y-75789700D01*
X191994508Y-75789700D01*
X192056919Y-75789700D01*
X192063872Y-75789895D01*
G37*
G04 #@! TD.AperFunction*
M02*
