G04 #@! TF.GenerationSoftware,KiCad,Pcbnew,9.0.0*
G04 #@! TF.CreationDate,2025-12-22T10:36:45+02:00*
G04 #@! TF.ProjectId,stm32wl5_karavakia,73746d33-3277-46c3-955f-6b6172617661,rev?*
G04 #@! TF.SameCoordinates,Original*
G04 #@! TF.FileFunction,Legend,Bot*
G04 #@! TF.FilePolarity,Positive*
%FSLAX46Y46*%
G04 Gerber Fmt 4.6, Leading zero omitted, Abs format (unit mm)*
G04 Created by KiCad (PCBNEW 9.0.0) date 2025-12-22 10:36:45*
%MOMM*%
%LPD*%
G01*
G04 APERTURE LIST*
%ADD10C,0.152400*%
%ADD11C,2.209800*%
%ADD12R,1.508000X1.508000*%
%ADD13C,1.508000*%
%ADD14C,0.800000*%
%ADD15C,6.400000*%
%ADD16R,1.950000X1.950000*%
%ADD17C,1.950000*%
G04 APERTURE END LIST*
D10*
X125206491Y-82730460D02*
X125245196Y-82807870D01*
X125245196Y-82807870D02*
X125245196Y-82923984D01*
X125245196Y-82923984D02*
X125206491Y-83040098D01*
X125206491Y-83040098D02*
X125129081Y-83117508D01*
X125129081Y-83117508D02*
X125051672Y-83156213D01*
X125051672Y-83156213D02*
X124896853Y-83194917D01*
X124896853Y-83194917D02*
X124780739Y-83194917D01*
X124780739Y-83194917D02*
X124625920Y-83156213D01*
X124625920Y-83156213D02*
X124548510Y-83117508D01*
X124548510Y-83117508D02*
X124471101Y-83040098D01*
X124471101Y-83040098D02*
X124432396Y-82923984D01*
X124432396Y-82923984D02*
X124432396Y-82846575D01*
X124432396Y-82846575D02*
X124471101Y-82730460D01*
X124471101Y-82730460D02*
X124509805Y-82691756D01*
X124509805Y-82691756D02*
X124780739Y-82691756D01*
X124780739Y-82691756D02*
X124780739Y-82846575D01*
X124432396Y-82343413D02*
X125245196Y-82343413D01*
X125245196Y-82343413D02*
X124432396Y-81878956D01*
X124432396Y-81878956D02*
X125245196Y-81878956D01*
X124432396Y-81491908D02*
X125245196Y-81491908D01*
X125245196Y-81491908D02*
X125245196Y-81298384D01*
X125245196Y-81298384D02*
X125206491Y-81182270D01*
X125206491Y-81182270D02*
X125129081Y-81104860D01*
X125129081Y-81104860D02*
X125051672Y-81066155D01*
X125051672Y-81066155D02*
X124896853Y-81027451D01*
X124896853Y-81027451D02*
X124780739Y-81027451D01*
X124780739Y-81027451D02*
X124625920Y-81066155D01*
X124625920Y-81066155D02*
X124548510Y-81104860D01*
X124548510Y-81104860D02*
X124471101Y-81182270D01*
X124471101Y-81182270D02*
X124432396Y-81298384D01*
X124432396Y-81298384D02*
X124432396Y-81491908D01*
X157881491Y-82855460D02*
X157920196Y-82932870D01*
X157920196Y-82932870D02*
X157920196Y-83048984D01*
X157920196Y-83048984D02*
X157881491Y-83165098D01*
X157881491Y-83165098D02*
X157804081Y-83242508D01*
X157804081Y-83242508D02*
X157726672Y-83281213D01*
X157726672Y-83281213D02*
X157571853Y-83319917D01*
X157571853Y-83319917D02*
X157455739Y-83319917D01*
X157455739Y-83319917D02*
X157300920Y-83281213D01*
X157300920Y-83281213D02*
X157223510Y-83242508D01*
X157223510Y-83242508D02*
X157146101Y-83165098D01*
X157146101Y-83165098D02*
X157107396Y-83048984D01*
X157107396Y-83048984D02*
X157107396Y-82971575D01*
X157107396Y-82971575D02*
X157146101Y-82855460D01*
X157146101Y-82855460D02*
X157184805Y-82816756D01*
X157184805Y-82816756D02*
X157455739Y-82816756D01*
X157455739Y-82816756D02*
X157455739Y-82971575D01*
X157107396Y-82468413D02*
X157920196Y-82468413D01*
X157920196Y-82468413D02*
X157107396Y-82003956D01*
X157107396Y-82003956D02*
X157920196Y-82003956D01*
X157107396Y-81616908D02*
X157920196Y-81616908D01*
X157920196Y-81616908D02*
X157920196Y-81423384D01*
X157920196Y-81423384D02*
X157881491Y-81307270D01*
X157881491Y-81307270D02*
X157804081Y-81229860D01*
X157804081Y-81229860D02*
X157726672Y-81191155D01*
X157726672Y-81191155D02*
X157571853Y-81152451D01*
X157571853Y-81152451D02*
X157455739Y-81152451D01*
X157455739Y-81152451D02*
X157300920Y-81191155D01*
X157300920Y-81191155D02*
X157223510Y-81229860D01*
X157223510Y-81229860D02*
X157146101Y-81307270D01*
X157146101Y-81307270D02*
X157107396Y-81423384D01*
X157107396Y-81423384D02*
X157107396Y-81616908D01*
X143995196Y-83322327D02*
X143182396Y-83051394D01*
X143182396Y-83051394D02*
X143995196Y-82780460D01*
X143259805Y-82045070D02*
X143221101Y-82083774D01*
X143221101Y-82083774D02*
X143182396Y-82199889D01*
X143182396Y-82199889D02*
X143182396Y-82277298D01*
X143182396Y-82277298D02*
X143221101Y-82393412D01*
X143221101Y-82393412D02*
X143298510Y-82470822D01*
X143298510Y-82470822D02*
X143375920Y-82509527D01*
X143375920Y-82509527D02*
X143530739Y-82548231D01*
X143530739Y-82548231D02*
X143646853Y-82548231D01*
X143646853Y-82548231D02*
X143801672Y-82509527D01*
X143801672Y-82509527D02*
X143879081Y-82470822D01*
X143879081Y-82470822D02*
X143956491Y-82393412D01*
X143956491Y-82393412D02*
X143995196Y-82277298D01*
X143995196Y-82277298D02*
X143995196Y-82199889D01*
X143995196Y-82199889D02*
X143956491Y-82083774D01*
X143956491Y-82083774D02*
X143917786Y-82045070D01*
X143259805Y-81232270D02*
X143221101Y-81270974D01*
X143221101Y-81270974D02*
X143182396Y-81387089D01*
X143182396Y-81387089D02*
X143182396Y-81464498D01*
X143182396Y-81464498D02*
X143221101Y-81580612D01*
X143221101Y-81580612D02*
X143298510Y-81658022D01*
X143298510Y-81658022D02*
X143375920Y-81696727D01*
X143375920Y-81696727D02*
X143530739Y-81735431D01*
X143530739Y-81735431D02*
X143646853Y-81735431D01*
X143646853Y-81735431D02*
X143801672Y-81696727D01*
X143801672Y-81696727D02*
X143879081Y-81658022D01*
X143879081Y-81658022D02*
X143956491Y-81580612D01*
X143956491Y-81580612D02*
X143995196Y-81464498D01*
X143995196Y-81464498D02*
X143995196Y-81387089D01*
X143995196Y-81387089D02*
X143956491Y-81270974D01*
X143956491Y-81270974D02*
X143917786Y-81232270D01*
X139820196Y-113606213D02*
X139162215Y-113606213D01*
X139162215Y-113606213D02*
X139084805Y-113567508D01*
X139084805Y-113567508D02*
X139046101Y-113528803D01*
X139046101Y-113528803D02*
X139007396Y-113451394D01*
X139007396Y-113451394D02*
X139007396Y-113296575D01*
X139007396Y-113296575D02*
X139046101Y-113219165D01*
X139046101Y-113219165D02*
X139084805Y-113180460D01*
X139084805Y-113180460D02*
X139162215Y-113141756D01*
X139162215Y-113141756D02*
X139820196Y-113141756D01*
X139239624Y-112793412D02*
X139239624Y-112406365D01*
X139007396Y-112870822D02*
X139820196Y-112599889D01*
X139820196Y-112599889D02*
X139007396Y-112328955D01*
X139007396Y-111593565D02*
X139394443Y-111864498D01*
X139007396Y-112058022D02*
X139820196Y-112058022D01*
X139820196Y-112058022D02*
X139820196Y-111748384D01*
X139820196Y-111748384D02*
X139781491Y-111670974D01*
X139781491Y-111670974D02*
X139742786Y-111632269D01*
X139742786Y-111632269D02*
X139665377Y-111593565D01*
X139665377Y-111593565D02*
X139549262Y-111593565D01*
X139549262Y-111593565D02*
X139471853Y-111632269D01*
X139471853Y-111632269D02*
X139433148Y-111670974D01*
X139433148Y-111670974D02*
X139394443Y-111748384D01*
X139394443Y-111748384D02*
X139394443Y-112058022D01*
X139820196Y-111361336D02*
X139820196Y-110896879D01*
X139007396Y-111129107D02*
X139820196Y-111129107D01*
X138929986Y-110819470D02*
X138929986Y-110200193D01*
X139007396Y-109542213D02*
X139394443Y-109813146D01*
X139007396Y-110006670D02*
X139820196Y-110006670D01*
X139820196Y-110006670D02*
X139820196Y-109697032D01*
X139820196Y-109697032D02*
X139781491Y-109619622D01*
X139781491Y-109619622D02*
X139742786Y-109580917D01*
X139742786Y-109580917D02*
X139665377Y-109542213D01*
X139665377Y-109542213D02*
X139549262Y-109542213D01*
X139549262Y-109542213D02*
X139471853Y-109580917D01*
X139471853Y-109580917D02*
X139433148Y-109619622D01*
X139433148Y-109619622D02*
X139394443Y-109697032D01*
X139394443Y-109697032D02*
X139394443Y-110006670D01*
X139820196Y-109271279D02*
X139007396Y-108729413D01*
X139820196Y-108729413D02*
X139007396Y-109271279D01*
X119346101Y-83019917D02*
X119307396Y-82903803D01*
X119307396Y-82903803D02*
X119307396Y-82710279D01*
X119307396Y-82710279D02*
X119346101Y-82632870D01*
X119346101Y-82632870D02*
X119384805Y-82594165D01*
X119384805Y-82594165D02*
X119462215Y-82555460D01*
X119462215Y-82555460D02*
X119539624Y-82555460D01*
X119539624Y-82555460D02*
X119617034Y-82594165D01*
X119617034Y-82594165D02*
X119655739Y-82632870D01*
X119655739Y-82632870D02*
X119694443Y-82710279D01*
X119694443Y-82710279D02*
X119733148Y-82865098D01*
X119733148Y-82865098D02*
X119771853Y-82942508D01*
X119771853Y-82942508D02*
X119810558Y-82981213D01*
X119810558Y-82981213D02*
X119887967Y-83019917D01*
X119887967Y-83019917D02*
X119965377Y-83019917D01*
X119965377Y-83019917D02*
X120042786Y-82981213D01*
X120042786Y-82981213D02*
X120081491Y-82942508D01*
X120081491Y-82942508D02*
X120120196Y-82865098D01*
X120120196Y-82865098D02*
X120120196Y-82671575D01*
X120120196Y-82671575D02*
X120081491Y-82555460D01*
X119384805Y-81742661D02*
X119346101Y-81781365D01*
X119346101Y-81781365D02*
X119307396Y-81897480D01*
X119307396Y-81897480D02*
X119307396Y-81974889D01*
X119307396Y-81974889D02*
X119346101Y-82091003D01*
X119346101Y-82091003D02*
X119423510Y-82168413D01*
X119423510Y-82168413D02*
X119500920Y-82207118D01*
X119500920Y-82207118D02*
X119655739Y-82245822D01*
X119655739Y-82245822D02*
X119771853Y-82245822D01*
X119771853Y-82245822D02*
X119926672Y-82207118D01*
X119926672Y-82207118D02*
X120004081Y-82168413D01*
X120004081Y-82168413D02*
X120081491Y-82091003D01*
X120081491Y-82091003D02*
X120120196Y-81974889D01*
X120120196Y-81974889D02*
X120120196Y-81897480D01*
X120120196Y-81897480D02*
X120081491Y-81781365D01*
X120081491Y-81781365D02*
X120042786Y-81742661D01*
X119307396Y-81007270D02*
X119307396Y-81394318D01*
X119307396Y-81394318D02*
X120120196Y-81394318D01*
X121946101Y-82994917D02*
X121907396Y-82878803D01*
X121907396Y-82878803D02*
X121907396Y-82685279D01*
X121907396Y-82685279D02*
X121946101Y-82607870D01*
X121946101Y-82607870D02*
X121984805Y-82569165D01*
X121984805Y-82569165D02*
X122062215Y-82530460D01*
X122062215Y-82530460D02*
X122139624Y-82530460D01*
X122139624Y-82530460D02*
X122217034Y-82569165D01*
X122217034Y-82569165D02*
X122255739Y-82607870D01*
X122255739Y-82607870D02*
X122294443Y-82685279D01*
X122294443Y-82685279D02*
X122333148Y-82840098D01*
X122333148Y-82840098D02*
X122371853Y-82917508D01*
X122371853Y-82917508D02*
X122410558Y-82956213D01*
X122410558Y-82956213D02*
X122487967Y-82994917D01*
X122487967Y-82994917D02*
X122565377Y-82994917D01*
X122565377Y-82994917D02*
X122642786Y-82956213D01*
X122642786Y-82956213D02*
X122681491Y-82917508D01*
X122681491Y-82917508D02*
X122720196Y-82840098D01*
X122720196Y-82840098D02*
X122720196Y-82646575D01*
X122720196Y-82646575D02*
X122681491Y-82530460D01*
X121907396Y-82182118D02*
X122720196Y-82182118D01*
X122720196Y-82182118D02*
X122720196Y-81988594D01*
X122720196Y-81988594D02*
X122681491Y-81872480D01*
X122681491Y-81872480D02*
X122604081Y-81795070D01*
X122604081Y-81795070D02*
X122526672Y-81756365D01*
X122526672Y-81756365D02*
X122371853Y-81717661D01*
X122371853Y-81717661D02*
X122255739Y-81717661D01*
X122255739Y-81717661D02*
X122100920Y-81756365D01*
X122100920Y-81756365D02*
X122023510Y-81795070D01*
X122023510Y-81795070D02*
X121946101Y-81872480D01*
X121946101Y-81872480D02*
X121907396Y-81988594D01*
X121907396Y-81988594D02*
X121907396Y-82182118D01*
X122139624Y-81408022D02*
X122139624Y-81020975D01*
X121907396Y-81485432D02*
X122720196Y-81214499D01*
X122720196Y-81214499D02*
X121907396Y-80943565D01*
X156320196Y-113481213D02*
X155662215Y-113481213D01*
X155662215Y-113481213D02*
X155584805Y-113442508D01*
X155584805Y-113442508D02*
X155546101Y-113403803D01*
X155546101Y-113403803D02*
X155507396Y-113326394D01*
X155507396Y-113326394D02*
X155507396Y-113171575D01*
X155507396Y-113171575D02*
X155546101Y-113094165D01*
X155546101Y-113094165D02*
X155584805Y-113055460D01*
X155584805Y-113055460D02*
X155662215Y-113016756D01*
X155662215Y-113016756D02*
X156320196Y-113016756D01*
X155739624Y-112668412D02*
X155739624Y-112281365D01*
X155507396Y-112745822D02*
X156320196Y-112474889D01*
X156320196Y-112474889D02*
X155507396Y-112203955D01*
X155507396Y-111468565D02*
X155894443Y-111739498D01*
X155507396Y-111933022D02*
X156320196Y-111933022D01*
X156320196Y-111933022D02*
X156320196Y-111623384D01*
X156320196Y-111623384D02*
X156281491Y-111545974D01*
X156281491Y-111545974D02*
X156242786Y-111507269D01*
X156242786Y-111507269D02*
X156165377Y-111468565D01*
X156165377Y-111468565D02*
X156049262Y-111468565D01*
X156049262Y-111468565D02*
X155971853Y-111507269D01*
X155971853Y-111507269D02*
X155933148Y-111545974D01*
X155933148Y-111545974D02*
X155894443Y-111623384D01*
X155894443Y-111623384D02*
X155894443Y-111933022D01*
X156320196Y-111236336D02*
X156320196Y-110771879D01*
X155507396Y-111004107D02*
X156320196Y-111004107D01*
X155429986Y-110694470D02*
X155429986Y-110075193D01*
X155507396Y-109417213D02*
X155894443Y-109688146D01*
X155507396Y-109881670D02*
X156320196Y-109881670D01*
X156320196Y-109881670D02*
X156320196Y-109572032D01*
X156320196Y-109572032D02*
X156281491Y-109494622D01*
X156281491Y-109494622D02*
X156242786Y-109455917D01*
X156242786Y-109455917D02*
X156165377Y-109417213D01*
X156165377Y-109417213D02*
X156049262Y-109417213D01*
X156049262Y-109417213D02*
X155971853Y-109455917D01*
X155971853Y-109455917D02*
X155933148Y-109494622D01*
X155933148Y-109494622D02*
X155894443Y-109572032D01*
X155894443Y-109572032D02*
X155894443Y-109881670D01*
X156320196Y-109146279D02*
X155507396Y-108604413D01*
X156320196Y-108604413D02*
X155507396Y-109146279D01*
X151081491Y-110280460D02*
X151120196Y-110357870D01*
X151120196Y-110357870D02*
X151120196Y-110473984D01*
X151120196Y-110473984D02*
X151081491Y-110590098D01*
X151081491Y-110590098D02*
X151004081Y-110667508D01*
X151004081Y-110667508D02*
X150926672Y-110706213D01*
X150926672Y-110706213D02*
X150771853Y-110744917D01*
X150771853Y-110744917D02*
X150655739Y-110744917D01*
X150655739Y-110744917D02*
X150500920Y-110706213D01*
X150500920Y-110706213D02*
X150423510Y-110667508D01*
X150423510Y-110667508D02*
X150346101Y-110590098D01*
X150346101Y-110590098D02*
X150307396Y-110473984D01*
X150307396Y-110473984D02*
X150307396Y-110396575D01*
X150307396Y-110396575D02*
X150346101Y-110280460D01*
X150346101Y-110280460D02*
X150384805Y-110241756D01*
X150384805Y-110241756D02*
X150655739Y-110241756D01*
X150655739Y-110241756D02*
X150655739Y-110396575D01*
X150307396Y-109893413D02*
X151120196Y-109893413D01*
X151120196Y-109893413D02*
X150307396Y-109428956D01*
X150307396Y-109428956D02*
X151120196Y-109428956D01*
X150307396Y-109041908D02*
X151120196Y-109041908D01*
X151120196Y-109041908D02*
X151120196Y-108848384D01*
X151120196Y-108848384D02*
X151081491Y-108732270D01*
X151081491Y-108732270D02*
X151004081Y-108654860D01*
X151004081Y-108654860D02*
X150926672Y-108616155D01*
X150926672Y-108616155D02*
X150771853Y-108577451D01*
X150771853Y-108577451D02*
X150655739Y-108577451D01*
X150655739Y-108577451D02*
X150500920Y-108616155D01*
X150500920Y-108616155D02*
X150423510Y-108654860D01*
X150423510Y-108654860D02*
X150346101Y-108732270D01*
X150346101Y-108732270D02*
X150307396Y-108848384D01*
X150307396Y-108848384D02*
X150307396Y-109041908D01*
X148520196Y-110697327D02*
X147707396Y-110426394D01*
X147707396Y-110426394D02*
X148520196Y-110155460D01*
X147784805Y-109420070D02*
X147746101Y-109458774D01*
X147746101Y-109458774D02*
X147707396Y-109574889D01*
X147707396Y-109574889D02*
X147707396Y-109652298D01*
X147707396Y-109652298D02*
X147746101Y-109768412D01*
X147746101Y-109768412D02*
X147823510Y-109845822D01*
X147823510Y-109845822D02*
X147900920Y-109884527D01*
X147900920Y-109884527D02*
X148055739Y-109923231D01*
X148055739Y-109923231D02*
X148171853Y-109923231D01*
X148171853Y-109923231D02*
X148326672Y-109884527D01*
X148326672Y-109884527D02*
X148404081Y-109845822D01*
X148404081Y-109845822D02*
X148481491Y-109768412D01*
X148481491Y-109768412D02*
X148520196Y-109652298D01*
X148520196Y-109652298D02*
X148520196Y-109574889D01*
X148520196Y-109574889D02*
X148481491Y-109458774D01*
X148481491Y-109458774D02*
X148442786Y-109420070D01*
X147784805Y-108607270D02*
X147746101Y-108645974D01*
X147746101Y-108645974D02*
X147707396Y-108762089D01*
X147707396Y-108762089D02*
X147707396Y-108839498D01*
X147707396Y-108839498D02*
X147746101Y-108955612D01*
X147746101Y-108955612D02*
X147823510Y-109033022D01*
X147823510Y-109033022D02*
X147900920Y-109071727D01*
X147900920Y-109071727D02*
X148055739Y-109110431D01*
X148055739Y-109110431D02*
X148171853Y-109110431D01*
X148171853Y-109110431D02*
X148326672Y-109071727D01*
X148326672Y-109071727D02*
X148404081Y-109033022D01*
X148404081Y-109033022D02*
X148481491Y-108955612D01*
X148481491Y-108955612D02*
X148520196Y-108839498D01*
X148520196Y-108839498D02*
X148520196Y-108762089D01*
X148520196Y-108762089D02*
X148481491Y-108645974D01*
X148481491Y-108645974D02*
X148442786Y-108607270D01*
X132020196Y-110822327D02*
X131207396Y-110551394D01*
X131207396Y-110551394D02*
X132020196Y-110280460D01*
X131284805Y-109545070D02*
X131246101Y-109583774D01*
X131246101Y-109583774D02*
X131207396Y-109699889D01*
X131207396Y-109699889D02*
X131207396Y-109777298D01*
X131207396Y-109777298D02*
X131246101Y-109893412D01*
X131246101Y-109893412D02*
X131323510Y-109970822D01*
X131323510Y-109970822D02*
X131400920Y-110009527D01*
X131400920Y-110009527D02*
X131555739Y-110048231D01*
X131555739Y-110048231D02*
X131671853Y-110048231D01*
X131671853Y-110048231D02*
X131826672Y-110009527D01*
X131826672Y-110009527D02*
X131904081Y-109970822D01*
X131904081Y-109970822D02*
X131981491Y-109893412D01*
X131981491Y-109893412D02*
X132020196Y-109777298D01*
X132020196Y-109777298D02*
X132020196Y-109699889D01*
X132020196Y-109699889D02*
X131981491Y-109583774D01*
X131981491Y-109583774D02*
X131942786Y-109545070D01*
X131284805Y-108732270D02*
X131246101Y-108770974D01*
X131246101Y-108770974D02*
X131207396Y-108887089D01*
X131207396Y-108887089D02*
X131207396Y-108964498D01*
X131207396Y-108964498D02*
X131246101Y-109080612D01*
X131246101Y-109080612D02*
X131323510Y-109158022D01*
X131323510Y-109158022D02*
X131400920Y-109196727D01*
X131400920Y-109196727D02*
X131555739Y-109235431D01*
X131555739Y-109235431D02*
X131671853Y-109235431D01*
X131671853Y-109235431D02*
X131826672Y-109196727D01*
X131826672Y-109196727D02*
X131904081Y-109158022D01*
X131904081Y-109158022D02*
X131981491Y-109080612D01*
X131981491Y-109080612D02*
X132020196Y-108964498D01*
X132020196Y-108964498D02*
X132020196Y-108887089D01*
X132020196Y-108887089D02*
X131981491Y-108770974D01*
X131981491Y-108770974D02*
X131942786Y-108732270D01*
X137120196Y-113431213D02*
X136462215Y-113431213D01*
X136462215Y-113431213D02*
X136384805Y-113392508D01*
X136384805Y-113392508D02*
X136346101Y-113353803D01*
X136346101Y-113353803D02*
X136307396Y-113276394D01*
X136307396Y-113276394D02*
X136307396Y-113121575D01*
X136307396Y-113121575D02*
X136346101Y-113044165D01*
X136346101Y-113044165D02*
X136384805Y-113005460D01*
X136384805Y-113005460D02*
X136462215Y-112966756D01*
X136462215Y-112966756D02*
X137120196Y-112966756D01*
X136539624Y-112618412D02*
X136539624Y-112231365D01*
X136307396Y-112695822D02*
X137120196Y-112424889D01*
X137120196Y-112424889D02*
X136307396Y-112153955D01*
X136307396Y-111418565D02*
X136694443Y-111689498D01*
X136307396Y-111883022D02*
X137120196Y-111883022D01*
X137120196Y-111883022D02*
X137120196Y-111573384D01*
X137120196Y-111573384D02*
X137081491Y-111495974D01*
X137081491Y-111495974D02*
X137042786Y-111457269D01*
X137042786Y-111457269D02*
X136965377Y-111418565D01*
X136965377Y-111418565D02*
X136849262Y-111418565D01*
X136849262Y-111418565D02*
X136771853Y-111457269D01*
X136771853Y-111457269D02*
X136733148Y-111495974D01*
X136733148Y-111495974D02*
X136694443Y-111573384D01*
X136694443Y-111573384D02*
X136694443Y-111883022D01*
X137120196Y-111186336D02*
X137120196Y-110721879D01*
X136307396Y-110954107D02*
X137120196Y-110954107D01*
X136229986Y-110644470D02*
X136229986Y-110025193D01*
X137120196Y-109947784D02*
X137120196Y-109483327D01*
X136307396Y-109715555D02*
X137120196Y-109715555D01*
X137120196Y-109289803D02*
X136307396Y-108747937D01*
X137120196Y-108747937D02*
X136307396Y-109289803D01*
X134581491Y-110405460D02*
X134620196Y-110482870D01*
X134620196Y-110482870D02*
X134620196Y-110598984D01*
X134620196Y-110598984D02*
X134581491Y-110715098D01*
X134581491Y-110715098D02*
X134504081Y-110792508D01*
X134504081Y-110792508D02*
X134426672Y-110831213D01*
X134426672Y-110831213D02*
X134271853Y-110869917D01*
X134271853Y-110869917D02*
X134155739Y-110869917D01*
X134155739Y-110869917D02*
X134000920Y-110831213D01*
X134000920Y-110831213D02*
X133923510Y-110792508D01*
X133923510Y-110792508D02*
X133846101Y-110715098D01*
X133846101Y-110715098D02*
X133807396Y-110598984D01*
X133807396Y-110598984D02*
X133807396Y-110521575D01*
X133807396Y-110521575D02*
X133846101Y-110405460D01*
X133846101Y-110405460D02*
X133884805Y-110366756D01*
X133884805Y-110366756D02*
X134155739Y-110366756D01*
X134155739Y-110366756D02*
X134155739Y-110521575D01*
X133807396Y-110018413D02*
X134620196Y-110018413D01*
X134620196Y-110018413D02*
X133807396Y-109553956D01*
X133807396Y-109553956D02*
X134620196Y-109553956D01*
X133807396Y-109166908D02*
X134620196Y-109166908D01*
X134620196Y-109166908D02*
X134620196Y-108973384D01*
X134620196Y-108973384D02*
X134581491Y-108857270D01*
X134581491Y-108857270D02*
X134504081Y-108779860D01*
X134504081Y-108779860D02*
X134426672Y-108741155D01*
X134426672Y-108741155D02*
X134271853Y-108702451D01*
X134271853Y-108702451D02*
X134155739Y-108702451D01*
X134155739Y-108702451D02*
X134000920Y-108741155D01*
X134000920Y-108741155D02*
X133923510Y-108779860D01*
X133923510Y-108779860D02*
X133846101Y-108857270D01*
X133846101Y-108857270D02*
X133807396Y-108973384D01*
X133807396Y-108973384D02*
X133807396Y-109166908D01*
X121345679Y-106556051D02*
X121229565Y-106594756D01*
X121229565Y-106594756D02*
X121190860Y-106633460D01*
X121190860Y-106633460D02*
X121152156Y-106710870D01*
X121152156Y-106710870D02*
X121152156Y-106826984D01*
X121152156Y-106826984D02*
X121190860Y-106904394D01*
X121190860Y-106904394D02*
X121229565Y-106943099D01*
X121229565Y-106943099D02*
X121306975Y-106981803D01*
X121306975Y-106981803D02*
X121616613Y-106981803D01*
X121616613Y-106981803D02*
X121616613Y-106169003D01*
X121616613Y-106169003D02*
X121345679Y-106169003D01*
X121345679Y-106169003D02*
X121268270Y-106207708D01*
X121268270Y-106207708D02*
X121229565Y-106246413D01*
X121229565Y-106246413D02*
X121190860Y-106323822D01*
X121190860Y-106323822D02*
X121190860Y-106401232D01*
X121190860Y-106401232D02*
X121229565Y-106478641D01*
X121229565Y-106478641D02*
X121268270Y-106517346D01*
X121268270Y-106517346D02*
X121345679Y-106556051D01*
X121345679Y-106556051D02*
X121616613Y-106556051D01*
X120842517Y-106749575D02*
X120455470Y-106749575D01*
X120919927Y-106981803D02*
X120648994Y-106169003D01*
X120648994Y-106169003D02*
X120378060Y-106981803D01*
X120223241Y-106169003D02*
X119758784Y-106169003D01*
X119991012Y-106981803D02*
X119991012Y-106169003D01*
X119603965Y-106169003D02*
X119139508Y-106169003D01*
X119371736Y-106981803D02*
X119371736Y-106169003D01*
X119062099Y-107059213D02*
X118442822Y-107059213D01*
X118249299Y-106981803D02*
X118249299Y-106169003D01*
X117862251Y-106981803D02*
X117862251Y-106169003D01*
X117862251Y-106169003D02*
X117397794Y-106981803D01*
X117397794Y-106981803D02*
X117397794Y-106169003D01*
X119190860Y-111207708D02*
X119268270Y-111169003D01*
X119268270Y-111169003D02*
X119384384Y-111169003D01*
X119384384Y-111169003D02*
X119500498Y-111207708D01*
X119500498Y-111207708D02*
X119577908Y-111285118D01*
X119577908Y-111285118D02*
X119616613Y-111362527D01*
X119616613Y-111362527D02*
X119655317Y-111517346D01*
X119655317Y-111517346D02*
X119655317Y-111633460D01*
X119655317Y-111633460D02*
X119616613Y-111788279D01*
X119616613Y-111788279D02*
X119577908Y-111865689D01*
X119577908Y-111865689D02*
X119500498Y-111943099D01*
X119500498Y-111943099D02*
X119384384Y-111981803D01*
X119384384Y-111981803D02*
X119306975Y-111981803D01*
X119306975Y-111981803D02*
X119190860Y-111943099D01*
X119190860Y-111943099D02*
X119152156Y-111904394D01*
X119152156Y-111904394D02*
X119152156Y-111633460D01*
X119152156Y-111633460D02*
X119306975Y-111633460D01*
X118803813Y-111981803D02*
X118803813Y-111169003D01*
X118803813Y-111169003D02*
X118339356Y-111981803D01*
X118339356Y-111981803D02*
X118339356Y-111169003D01*
X117952308Y-111981803D02*
X117952308Y-111169003D01*
X117952308Y-111169003D02*
X117758784Y-111169003D01*
X117758784Y-111169003D02*
X117642670Y-111207708D01*
X117642670Y-111207708D02*
X117565260Y-111285118D01*
X117565260Y-111285118D02*
X117526555Y-111362527D01*
X117526555Y-111362527D02*
X117487851Y-111517346D01*
X117487851Y-111517346D02*
X117487851Y-111633460D01*
X117487851Y-111633460D02*
X117526555Y-111788279D01*
X117526555Y-111788279D02*
X117565260Y-111865689D01*
X117565260Y-111865689D02*
X117642670Y-111943099D01*
X117642670Y-111943099D02*
X117758784Y-111981803D01*
X117758784Y-111981803D02*
X117952308Y-111981803D01*
X135521101Y-83194917D02*
X135482396Y-83078803D01*
X135482396Y-83078803D02*
X135482396Y-82885279D01*
X135482396Y-82885279D02*
X135521101Y-82807870D01*
X135521101Y-82807870D02*
X135559805Y-82769165D01*
X135559805Y-82769165D02*
X135637215Y-82730460D01*
X135637215Y-82730460D02*
X135714624Y-82730460D01*
X135714624Y-82730460D02*
X135792034Y-82769165D01*
X135792034Y-82769165D02*
X135830739Y-82807870D01*
X135830739Y-82807870D02*
X135869443Y-82885279D01*
X135869443Y-82885279D02*
X135908148Y-83040098D01*
X135908148Y-83040098D02*
X135946853Y-83117508D01*
X135946853Y-83117508D02*
X135985558Y-83156213D01*
X135985558Y-83156213D02*
X136062967Y-83194917D01*
X136062967Y-83194917D02*
X136140377Y-83194917D01*
X136140377Y-83194917D02*
X136217786Y-83156213D01*
X136217786Y-83156213D02*
X136256491Y-83117508D01*
X136256491Y-83117508D02*
X136295196Y-83040098D01*
X136295196Y-83040098D02*
X136295196Y-82846575D01*
X136295196Y-82846575D02*
X136256491Y-82730460D01*
X135559805Y-81917661D02*
X135521101Y-81956365D01*
X135521101Y-81956365D02*
X135482396Y-82072480D01*
X135482396Y-82072480D02*
X135482396Y-82149889D01*
X135482396Y-82149889D02*
X135521101Y-82266003D01*
X135521101Y-82266003D02*
X135598510Y-82343413D01*
X135598510Y-82343413D02*
X135675920Y-82382118D01*
X135675920Y-82382118D02*
X135830739Y-82420822D01*
X135830739Y-82420822D02*
X135946853Y-82420822D01*
X135946853Y-82420822D02*
X136101672Y-82382118D01*
X136101672Y-82382118D02*
X136179081Y-82343413D01*
X136179081Y-82343413D02*
X136256491Y-82266003D01*
X136256491Y-82266003D02*
X136295196Y-82149889D01*
X136295196Y-82149889D02*
X136295196Y-82072480D01*
X136295196Y-82072480D02*
X136256491Y-81956365D01*
X136256491Y-81956365D02*
X136217786Y-81917661D01*
X135482396Y-81182270D02*
X135482396Y-81569318D01*
X135482396Y-81569318D02*
X136295196Y-81569318D01*
X152021101Y-83144917D02*
X151982396Y-83028803D01*
X151982396Y-83028803D02*
X151982396Y-82835279D01*
X151982396Y-82835279D02*
X152021101Y-82757870D01*
X152021101Y-82757870D02*
X152059805Y-82719165D01*
X152059805Y-82719165D02*
X152137215Y-82680460D01*
X152137215Y-82680460D02*
X152214624Y-82680460D01*
X152214624Y-82680460D02*
X152292034Y-82719165D01*
X152292034Y-82719165D02*
X152330739Y-82757870D01*
X152330739Y-82757870D02*
X152369443Y-82835279D01*
X152369443Y-82835279D02*
X152408148Y-82990098D01*
X152408148Y-82990098D02*
X152446853Y-83067508D01*
X152446853Y-83067508D02*
X152485558Y-83106213D01*
X152485558Y-83106213D02*
X152562967Y-83144917D01*
X152562967Y-83144917D02*
X152640377Y-83144917D01*
X152640377Y-83144917D02*
X152717786Y-83106213D01*
X152717786Y-83106213D02*
X152756491Y-83067508D01*
X152756491Y-83067508D02*
X152795196Y-82990098D01*
X152795196Y-82990098D02*
X152795196Y-82796575D01*
X152795196Y-82796575D02*
X152756491Y-82680460D01*
X152059805Y-81867661D02*
X152021101Y-81906365D01*
X152021101Y-81906365D02*
X151982396Y-82022480D01*
X151982396Y-82022480D02*
X151982396Y-82099889D01*
X151982396Y-82099889D02*
X152021101Y-82216003D01*
X152021101Y-82216003D02*
X152098510Y-82293413D01*
X152098510Y-82293413D02*
X152175920Y-82332118D01*
X152175920Y-82332118D02*
X152330739Y-82370822D01*
X152330739Y-82370822D02*
X152446853Y-82370822D01*
X152446853Y-82370822D02*
X152601672Y-82332118D01*
X152601672Y-82332118D02*
X152679081Y-82293413D01*
X152679081Y-82293413D02*
X152756491Y-82216003D01*
X152756491Y-82216003D02*
X152795196Y-82099889D01*
X152795196Y-82099889D02*
X152795196Y-82022480D01*
X152795196Y-82022480D02*
X152756491Y-81906365D01*
X152756491Y-81906365D02*
X152717786Y-81867661D01*
X151982396Y-81132270D02*
X151982396Y-81519318D01*
X151982396Y-81519318D02*
X152795196Y-81519318D01*
X141381491Y-82905460D02*
X141420196Y-82982870D01*
X141420196Y-82982870D02*
X141420196Y-83098984D01*
X141420196Y-83098984D02*
X141381491Y-83215098D01*
X141381491Y-83215098D02*
X141304081Y-83292508D01*
X141304081Y-83292508D02*
X141226672Y-83331213D01*
X141226672Y-83331213D02*
X141071853Y-83369917D01*
X141071853Y-83369917D02*
X140955739Y-83369917D01*
X140955739Y-83369917D02*
X140800920Y-83331213D01*
X140800920Y-83331213D02*
X140723510Y-83292508D01*
X140723510Y-83292508D02*
X140646101Y-83215098D01*
X140646101Y-83215098D02*
X140607396Y-83098984D01*
X140607396Y-83098984D02*
X140607396Y-83021575D01*
X140607396Y-83021575D02*
X140646101Y-82905460D01*
X140646101Y-82905460D02*
X140684805Y-82866756D01*
X140684805Y-82866756D02*
X140955739Y-82866756D01*
X140955739Y-82866756D02*
X140955739Y-83021575D01*
X140607396Y-82518413D02*
X141420196Y-82518413D01*
X141420196Y-82518413D02*
X140607396Y-82053956D01*
X140607396Y-82053956D02*
X141420196Y-82053956D01*
X140607396Y-81666908D02*
X141420196Y-81666908D01*
X141420196Y-81666908D02*
X141420196Y-81473384D01*
X141420196Y-81473384D02*
X141381491Y-81357270D01*
X141381491Y-81357270D02*
X141304081Y-81279860D01*
X141304081Y-81279860D02*
X141226672Y-81241155D01*
X141226672Y-81241155D02*
X141071853Y-81202451D01*
X141071853Y-81202451D02*
X140955739Y-81202451D01*
X140955739Y-81202451D02*
X140800920Y-81241155D01*
X140800920Y-81241155D02*
X140723510Y-81279860D01*
X140723510Y-81279860D02*
X140646101Y-81357270D01*
X140646101Y-81357270D02*
X140607396Y-81473384D01*
X140607396Y-81473384D02*
X140607396Y-81666908D01*
X127820196Y-83147327D02*
X127007396Y-82876394D01*
X127007396Y-82876394D02*
X127820196Y-82605460D01*
X127084805Y-81870070D02*
X127046101Y-81908774D01*
X127046101Y-81908774D02*
X127007396Y-82024889D01*
X127007396Y-82024889D02*
X127007396Y-82102298D01*
X127007396Y-82102298D02*
X127046101Y-82218412D01*
X127046101Y-82218412D02*
X127123510Y-82295822D01*
X127123510Y-82295822D02*
X127200920Y-82334527D01*
X127200920Y-82334527D02*
X127355739Y-82373231D01*
X127355739Y-82373231D02*
X127471853Y-82373231D01*
X127471853Y-82373231D02*
X127626672Y-82334527D01*
X127626672Y-82334527D02*
X127704081Y-82295822D01*
X127704081Y-82295822D02*
X127781491Y-82218412D01*
X127781491Y-82218412D02*
X127820196Y-82102298D01*
X127820196Y-82102298D02*
X127820196Y-82024889D01*
X127820196Y-82024889D02*
X127781491Y-81908774D01*
X127781491Y-81908774D02*
X127742786Y-81870070D01*
X127084805Y-81057270D02*
X127046101Y-81095974D01*
X127046101Y-81095974D02*
X127007396Y-81212089D01*
X127007396Y-81212089D02*
X127007396Y-81289498D01*
X127007396Y-81289498D02*
X127046101Y-81405612D01*
X127046101Y-81405612D02*
X127123510Y-81483022D01*
X127123510Y-81483022D02*
X127200920Y-81521727D01*
X127200920Y-81521727D02*
X127355739Y-81560431D01*
X127355739Y-81560431D02*
X127471853Y-81560431D01*
X127471853Y-81560431D02*
X127626672Y-81521727D01*
X127626672Y-81521727D02*
X127704081Y-81483022D01*
X127704081Y-81483022D02*
X127781491Y-81405612D01*
X127781491Y-81405612D02*
X127820196Y-81289498D01*
X127820196Y-81289498D02*
X127820196Y-81212089D01*
X127820196Y-81212089D02*
X127781491Y-81095974D01*
X127781491Y-81095974D02*
X127742786Y-81057270D01*
X154621101Y-83119917D02*
X154582396Y-83003803D01*
X154582396Y-83003803D02*
X154582396Y-82810279D01*
X154582396Y-82810279D02*
X154621101Y-82732870D01*
X154621101Y-82732870D02*
X154659805Y-82694165D01*
X154659805Y-82694165D02*
X154737215Y-82655460D01*
X154737215Y-82655460D02*
X154814624Y-82655460D01*
X154814624Y-82655460D02*
X154892034Y-82694165D01*
X154892034Y-82694165D02*
X154930739Y-82732870D01*
X154930739Y-82732870D02*
X154969443Y-82810279D01*
X154969443Y-82810279D02*
X155008148Y-82965098D01*
X155008148Y-82965098D02*
X155046853Y-83042508D01*
X155046853Y-83042508D02*
X155085558Y-83081213D01*
X155085558Y-83081213D02*
X155162967Y-83119917D01*
X155162967Y-83119917D02*
X155240377Y-83119917D01*
X155240377Y-83119917D02*
X155317786Y-83081213D01*
X155317786Y-83081213D02*
X155356491Y-83042508D01*
X155356491Y-83042508D02*
X155395196Y-82965098D01*
X155395196Y-82965098D02*
X155395196Y-82771575D01*
X155395196Y-82771575D02*
X155356491Y-82655460D01*
X154582396Y-82307118D02*
X155395196Y-82307118D01*
X155395196Y-82307118D02*
X155395196Y-82113594D01*
X155395196Y-82113594D02*
X155356491Y-81997480D01*
X155356491Y-81997480D02*
X155279081Y-81920070D01*
X155279081Y-81920070D02*
X155201672Y-81881365D01*
X155201672Y-81881365D02*
X155046853Y-81842661D01*
X155046853Y-81842661D02*
X154930739Y-81842661D01*
X154930739Y-81842661D02*
X154775920Y-81881365D01*
X154775920Y-81881365D02*
X154698510Y-81920070D01*
X154698510Y-81920070D02*
X154621101Y-81997480D01*
X154621101Y-81997480D02*
X154582396Y-82113594D01*
X154582396Y-82113594D02*
X154582396Y-82307118D01*
X154814624Y-81533022D02*
X154814624Y-81145975D01*
X154582396Y-81610432D02*
X155395196Y-81339499D01*
X155395196Y-81339499D02*
X154582396Y-81068565D01*
X138121101Y-83169917D02*
X138082396Y-83053803D01*
X138082396Y-83053803D02*
X138082396Y-82860279D01*
X138082396Y-82860279D02*
X138121101Y-82782870D01*
X138121101Y-82782870D02*
X138159805Y-82744165D01*
X138159805Y-82744165D02*
X138237215Y-82705460D01*
X138237215Y-82705460D02*
X138314624Y-82705460D01*
X138314624Y-82705460D02*
X138392034Y-82744165D01*
X138392034Y-82744165D02*
X138430739Y-82782870D01*
X138430739Y-82782870D02*
X138469443Y-82860279D01*
X138469443Y-82860279D02*
X138508148Y-83015098D01*
X138508148Y-83015098D02*
X138546853Y-83092508D01*
X138546853Y-83092508D02*
X138585558Y-83131213D01*
X138585558Y-83131213D02*
X138662967Y-83169917D01*
X138662967Y-83169917D02*
X138740377Y-83169917D01*
X138740377Y-83169917D02*
X138817786Y-83131213D01*
X138817786Y-83131213D02*
X138856491Y-83092508D01*
X138856491Y-83092508D02*
X138895196Y-83015098D01*
X138895196Y-83015098D02*
X138895196Y-82821575D01*
X138895196Y-82821575D02*
X138856491Y-82705460D01*
X138082396Y-82357118D02*
X138895196Y-82357118D01*
X138895196Y-82357118D02*
X138895196Y-82163594D01*
X138895196Y-82163594D02*
X138856491Y-82047480D01*
X138856491Y-82047480D02*
X138779081Y-81970070D01*
X138779081Y-81970070D02*
X138701672Y-81931365D01*
X138701672Y-81931365D02*
X138546853Y-81892661D01*
X138546853Y-81892661D02*
X138430739Y-81892661D01*
X138430739Y-81892661D02*
X138275920Y-81931365D01*
X138275920Y-81931365D02*
X138198510Y-81970070D01*
X138198510Y-81970070D02*
X138121101Y-82047480D01*
X138121101Y-82047480D02*
X138082396Y-82163594D01*
X138082396Y-82163594D02*
X138082396Y-82357118D01*
X138314624Y-81583022D02*
X138314624Y-81195975D01*
X138082396Y-81660432D02*
X138895196Y-81389499D01*
X138895196Y-81389499D02*
X138082396Y-81118565D01*
X153620196Y-113306213D02*
X152962215Y-113306213D01*
X152962215Y-113306213D02*
X152884805Y-113267508D01*
X152884805Y-113267508D02*
X152846101Y-113228803D01*
X152846101Y-113228803D02*
X152807396Y-113151394D01*
X152807396Y-113151394D02*
X152807396Y-112996575D01*
X152807396Y-112996575D02*
X152846101Y-112919165D01*
X152846101Y-112919165D02*
X152884805Y-112880460D01*
X152884805Y-112880460D02*
X152962215Y-112841756D01*
X152962215Y-112841756D02*
X153620196Y-112841756D01*
X153039624Y-112493412D02*
X153039624Y-112106365D01*
X152807396Y-112570822D02*
X153620196Y-112299889D01*
X153620196Y-112299889D02*
X152807396Y-112028955D01*
X152807396Y-111293565D02*
X153194443Y-111564498D01*
X152807396Y-111758022D02*
X153620196Y-111758022D01*
X153620196Y-111758022D02*
X153620196Y-111448384D01*
X153620196Y-111448384D02*
X153581491Y-111370974D01*
X153581491Y-111370974D02*
X153542786Y-111332269D01*
X153542786Y-111332269D02*
X153465377Y-111293565D01*
X153465377Y-111293565D02*
X153349262Y-111293565D01*
X153349262Y-111293565D02*
X153271853Y-111332269D01*
X153271853Y-111332269D02*
X153233148Y-111370974D01*
X153233148Y-111370974D02*
X153194443Y-111448384D01*
X153194443Y-111448384D02*
X153194443Y-111758022D01*
X153620196Y-111061336D02*
X153620196Y-110596879D01*
X152807396Y-110829107D02*
X153620196Y-110829107D01*
X152729986Y-110519470D02*
X152729986Y-109900193D01*
X153620196Y-109822784D02*
X153620196Y-109358327D01*
X152807396Y-109590555D02*
X153620196Y-109590555D01*
X153620196Y-109164803D02*
X152807396Y-108622937D01*
X153620196Y-108622937D02*
X152807396Y-109164803D01*
X160495196Y-83272327D02*
X159682396Y-83001394D01*
X159682396Y-83001394D02*
X160495196Y-82730460D01*
X159759805Y-81995070D02*
X159721101Y-82033774D01*
X159721101Y-82033774D02*
X159682396Y-82149889D01*
X159682396Y-82149889D02*
X159682396Y-82227298D01*
X159682396Y-82227298D02*
X159721101Y-82343412D01*
X159721101Y-82343412D02*
X159798510Y-82420822D01*
X159798510Y-82420822D02*
X159875920Y-82459527D01*
X159875920Y-82459527D02*
X160030739Y-82498231D01*
X160030739Y-82498231D02*
X160146853Y-82498231D01*
X160146853Y-82498231D02*
X160301672Y-82459527D01*
X160301672Y-82459527D02*
X160379081Y-82420822D01*
X160379081Y-82420822D02*
X160456491Y-82343412D01*
X160456491Y-82343412D02*
X160495196Y-82227298D01*
X160495196Y-82227298D02*
X160495196Y-82149889D01*
X160495196Y-82149889D02*
X160456491Y-82033774D01*
X160456491Y-82033774D02*
X160417786Y-81995070D01*
X159759805Y-81182270D02*
X159721101Y-81220974D01*
X159721101Y-81220974D02*
X159682396Y-81337089D01*
X159682396Y-81337089D02*
X159682396Y-81414498D01*
X159682396Y-81414498D02*
X159721101Y-81530612D01*
X159721101Y-81530612D02*
X159798510Y-81608022D01*
X159798510Y-81608022D02*
X159875920Y-81646727D01*
X159875920Y-81646727D02*
X160030739Y-81685431D01*
X160030739Y-81685431D02*
X160146853Y-81685431D01*
X160146853Y-81685431D02*
X160301672Y-81646727D01*
X160301672Y-81646727D02*
X160379081Y-81608022D01*
X160379081Y-81608022D02*
X160456491Y-81530612D01*
X160456491Y-81530612D02*
X160495196Y-81414498D01*
X160495196Y-81414498D02*
X160495196Y-81337089D01*
X160495196Y-81337089D02*
X160456491Y-81220974D01*
X160456491Y-81220974D02*
X160417786Y-81182270D01*
%LPC*%
D11*
X190890000Y-107980000D03*
X193430000Y-105440000D03*
X188350000Y-105440000D03*
X188350000Y-110520000D03*
X193430000Y-110520000D03*
D12*
X127300000Y-87400000D03*
D13*
X124800000Y-87400000D03*
X122300000Y-87400000D03*
X119800000Y-87400000D03*
D12*
X143550000Y-87425000D03*
D13*
X141050000Y-87425000D03*
X138550000Y-87425000D03*
X136050000Y-87425000D03*
D14*
X107860400Y-79789200D03*
X108563344Y-78092144D03*
X108563344Y-81486256D03*
X110260400Y-77389200D03*
D15*
X110260400Y-79789200D03*
D14*
X110260400Y-82189200D03*
X111957456Y-78092144D03*
X111957456Y-81486256D03*
X112660400Y-79789200D03*
X188110400Y-120289200D03*
X188813344Y-118592144D03*
X188813344Y-121986256D03*
X190510400Y-117889200D03*
D15*
X190510400Y-120289200D03*
D14*
X190510400Y-122689200D03*
X192207456Y-118592144D03*
X192207456Y-121986256D03*
X192910400Y-120289200D03*
D12*
X148250000Y-104325000D03*
D13*
X150750000Y-104325000D03*
X153250000Y-104325000D03*
X155750000Y-104325000D03*
D14*
X107913344Y-120236256D03*
X108616288Y-118539200D03*
X108616288Y-121933312D03*
X110313344Y-117836256D03*
D15*
X110313344Y-120236256D03*
D14*
X110313344Y-122636256D03*
X112010400Y-118539200D03*
X112010400Y-121933312D03*
X112713344Y-120236256D03*
D16*
X112639800Y-106455600D03*
D17*
X112639800Y-111455600D03*
D12*
X159987500Y-87325000D03*
D13*
X157487500Y-87325000D03*
X154987500Y-87325000D03*
X152487500Y-87325000D03*
D14*
X188110000Y-79840000D03*
X188812944Y-78142944D03*
X188812944Y-81537056D03*
X190510000Y-77440000D03*
D15*
X190510000Y-79840000D03*
D14*
X190510000Y-82240000D03*
X192207056Y-78142944D03*
X192207056Y-81537056D03*
X192910000Y-79840000D03*
D12*
X131725000Y-104400000D03*
D13*
X134225000Y-104400000D03*
X136725000Y-104400000D03*
X139225000Y-104400000D03*
%LPD*%
M02*
