%TF.GenerationSoftware,KiCad,Pcbnew,9.0.0*%
%TF.CreationDate,2025-12-22T10:36:32+02:00*%
%TF.ProjectId,stm32wl5_karavakia,73746d33-3277-46c3-955f-6b6172617661,rev?*%
%TF.SameCoordinates,Original*%
%TF.FileFunction,Drillmap*%
%TF.FilePolarity,Positive*%
%FSLAX45Y45*%
G04 Gerber Fmt 4.5, Leading zero omitted, Abs format (unit mm)*
G04 Created by KiCad (PCBNEW 9.0.0) date 2025-12-22 10:36:32*
%MOMM*%
%LPD*%
G01*
G04 APERTURE LIST*
%ADD10C,0.038100*%
%ADD11C,0.200000*%
G04 APERTURE END LIST*
D10*
X10526040Y-12208920D02*
X10526040Y-7848920D01*
X10846040Y-7528920D02*
X19206040Y-7528920D01*
X10526040Y-7848920D02*
G75*
G02*
X10846040Y-7528920I320000J0D01*
G01*
X19206040Y-12528920D02*
X10846040Y-12528920D01*
X19526040Y-7848920D02*
X19526040Y-12208920D01*
X19206040Y-7528920D02*
G75*
G02*
X19526040Y-7848920I0J-320000D01*
G01*
X10846040Y-12528920D02*
G75*
G02*
X10526040Y-12208920I0J320000D01*
G01*
X19526040Y-12208920D02*
G75*
G02*
X19206040Y-12528920I-320000J0D01*
G01*
D11*
X10784912Y-12842309D02*
X10784912Y-12642309D01*
X10784912Y-12642309D02*
X10832531Y-12642309D01*
X10832531Y-12642309D02*
X10861102Y-12651833D01*
X10861102Y-12651833D02*
X10880150Y-12670880D01*
X10880150Y-12670880D02*
X10889674Y-12689928D01*
X10889674Y-12689928D02*
X10899198Y-12728023D01*
X10899198Y-12728023D02*
X10899198Y-12756594D01*
X10899198Y-12756594D02*
X10889674Y-12794690D01*
X10889674Y-12794690D02*
X10880150Y-12813737D01*
X10880150Y-12813737D02*
X10861102Y-12832785D01*
X10861102Y-12832785D02*
X10832531Y-12842309D01*
X10832531Y-12842309D02*
X10784912Y-12842309D01*
X10984912Y-12842309D02*
X10984912Y-12708975D01*
X10984912Y-12747071D02*
X10994436Y-12728023D01*
X10994436Y-12728023D02*
X11003959Y-12718499D01*
X11003959Y-12718499D02*
X11023007Y-12708975D01*
X11023007Y-12708975D02*
X11042055Y-12708975D01*
X11108721Y-12842309D02*
X11108721Y-12708975D01*
X11108721Y-12642309D02*
X11099198Y-12651833D01*
X11099198Y-12651833D02*
X11108721Y-12661356D01*
X11108721Y-12661356D02*
X11118245Y-12651833D01*
X11118245Y-12651833D02*
X11108721Y-12642309D01*
X11108721Y-12642309D02*
X11108721Y-12661356D01*
X11232531Y-12842309D02*
X11213483Y-12832785D01*
X11213483Y-12832785D02*
X11203959Y-12813737D01*
X11203959Y-12813737D02*
X11203959Y-12642309D01*
X11337293Y-12842309D02*
X11318245Y-12832785D01*
X11318245Y-12832785D02*
X11308721Y-12813737D01*
X11308721Y-12813737D02*
X11308721Y-12642309D01*
X11565864Y-12842309D02*
X11565864Y-12642309D01*
X11565864Y-12642309D02*
X11632531Y-12785166D01*
X11632531Y-12785166D02*
X11699197Y-12642309D01*
X11699197Y-12642309D02*
X11699197Y-12842309D01*
X11880150Y-12842309D02*
X11880150Y-12737547D01*
X11880150Y-12737547D02*
X11870626Y-12718499D01*
X11870626Y-12718499D02*
X11851578Y-12708975D01*
X11851578Y-12708975D02*
X11813483Y-12708975D01*
X11813483Y-12708975D02*
X11794436Y-12718499D01*
X11880150Y-12832785D02*
X11861102Y-12842309D01*
X11861102Y-12842309D02*
X11813483Y-12842309D01*
X11813483Y-12842309D02*
X11794436Y-12832785D01*
X11794436Y-12832785D02*
X11784912Y-12813737D01*
X11784912Y-12813737D02*
X11784912Y-12794690D01*
X11784912Y-12794690D02*
X11794436Y-12775642D01*
X11794436Y-12775642D02*
X11813483Y-12766118D01*
X11813483Y-12766118D02*
X11861102Y-12766118D01*
X11861102Y-12766118D02*
X11880150Y-12756594D01*
X11975388Y-12708975D02*
X11975388Y-12908975D01*
X11975388Y-12718499D02*
X11994436Y-12708975D01*
X11994436Y-12708975D02*
X12032531Y-12708975D01*
X12032531Y-12708975D02*
X12051578Y-12718499D01*
X12051578Y-12718499D02*
X12061102Y-12728023D01*
X12061102Y-12728023D02*
X12070626Y-12747071D01*
X12070626Y-12747071D02*
X12070626Y-12804213D01*
X12070626Y-12804213D02*
X12061102Y-12823261D01*
X12061102Y-12823261D02*
X12051578Y-12832785D01*
X12051578Y-12832785D02*
X12032531Y-12842309D01*
X12032531Y-12842309D02*
X11994436Y-12842309D01*
X11994436Y-12842309D02*
X11975388Y-12832785D01*
X12156340Y-12823261D02*
X12165864Y-12832785D01*
X12165864Y-12832785D02*
X12156340Y-12842309D01*
X12156340Y-12842309D02*
X12146817Y-12832785D01*
X12146817Y-12832785D02*
X12156340Y-12823261D01*
X12156340Y-12823261D02*
X12156340Y-12842309D01*
X12156340Y-12718499D02*
X12165864Y-12728023D01*
X12165864Y-12728023D02*
X12156340Y-12737547D01*
X12156340Y-12737547D02*
X12146817Y-12728023D01*
X12146817Y-12728023D02*
X12156340Y-12718499D01*
X12156340Y-12718499D02*
X12156340Y-12737547D01*
M02*
