%TF.GenerationSoftware,KiCad,Pcbnew,9.0.0*%
%TF.CreationDate,2025-12-22T10:36:32+02:00*%
%TF.ProjectId,stm32wl5_karavakia,73746d33-3277-46c3-955f-6b6172617661,rev?*%
%TF.SameCoordinates,Original*%
%TF.FileFunction,Drillmap*%
%TF.FilePolarity,Positive*%
%FSLAX45Y45*%
G04 Gerber Fmt 4.5, Leading zero omitted, Abs format (unit mm)*
G04 Created by KiCad (PCBNEW 9.0.0) date 2025-12-22 10:36:32*
%MOMM*%
%LPD*%
G01*
G04 APERTURE LIST*
%ADD10C,0.038100*%
%ADD11C,0.200000*%
%ADD12C,0.100000*%
%ADD13C,0.130000*%
%ADD14C,0.170180*%
%ADD15C,0.320000*%
G04 APERTURE END LIST*
D10*
X10526040Y-12208920D02*
X10526040Y-7848920D01*
X10846040Y-7528920D02*
X19206040Y-7528920D01*
X10526040Y-7848920D02*
G75*
G02*
X10846040Y-7528920I320000J0D01*
G01*
X19206040Y-12528920D02*
X10846040Y-12528920D01*
X19526040Y-7848920D02*
X19526040Y-12208920D01*
X19206040Y-7528920D02*
G75*
G02*
X19526040Y-7848920I0J-320000D01*
G01*
X10846040Y-12528920D02*
G75*
G02*
X10526040Y-12208920I0J320000D01*
G01*
X19526040Y-12208920D02*
G75*
G02*
X19206040Y-12528920I-320000J0D01*
G01*
D11*
D12*
X11111000Y-11139000D02*
X11131000Y-11159000D01*
X11131000Y-11139000D02*
X11111000Y-11159000D01*
X11165000Y-11015000D02*
X11185000Y-11035000D01*
X11185000Y-11015000D02*
X11165000Y-11035000D01*
X11165000Y-11265000D02*
X11185000Y-11285000D01*
X11185000Y-11265000D02*
X11165000Y-11285000D01*
X11290000Y-11290000D02*
X11310000Y-11310000D01*
X11310000Y-11290000D02*
X11290000Y-11310000D01*
X11315000Y-10990000D02*
X11335000Y-11010000D01*
X11335000Y-10990000D02*
X11315000Y-11010000D01*
X11390000Y-11215000D02*
X11410000Y-11235000D01*
X11410000Y-11215000D02*
X11390000Y-11235000D01*
X11415000Y-11090000D02*
X11435000Y-11110000D01*
X11435000Y-11090000D02*
X11415000Y-11110000D01*
X11908000Y-10094000D02*
X11928000Y-10114000D01*
X11928000Y-10094000D02*
X11908000Y-10114000D01*
X11910000Y-9916000D02*
X11930000Y-9936000D01*
X11930000Y-9916000D02*
X11910000Y-9936000D01*
X11910000Y-9970000D02*
X11930000Y-9990000D01*
X11930000Y-9970000D02*
X11910000Y-9990000D01*
X11910000Y-10261000D02*
X11930000Y-10281000D01*
X11930000Y-10261000D02*
X11910000Y-10281000D01*
X12045030Y-10115970D02*
X12065030Y-10135970D01*
X12065030Y-10115970D02*
X12045030Y-10135970D01*
X12057498Y-9977303D02*
X12077498Y-9997303D01*
X12077498Y-9977303D02*
X12057498Y-9997303D01*
X12166188Y-9870449D02*
X12186188Y-9890449D01*
X12186188Y-9870449D02*
X12166188Y-9890449D01*
X16210000Y-10112500D02*
X16230000Y-10132500D01*
X16230000Y-10112500D02*
X16210000Y-10132500D01*
X16310000Y-10030000D02*
X16330000Y-10050000D01*
X16330000Y-10030000D02*
X16310000Y-10050000D01*
X16605000Y-10202100D02*
X16625000Y-10222100D01*
X16625000Y-10202100D02*
X16605000Y-10222100D01*
X17120000Y-9683000D02*
X17140000Y-9703000D01*
X17140000Y-9683000D02*
X17120000Y-9703000D01*
X17175000Y-10157900D02*
X17195000Y-10177900D01*
X17195000Y-10157900D02*
X17175000Y-10177900D01*
X17377000Y-9659800D02*
X17397000Y-9679800D01*
X17397000Y-9659800D02*
X17377000Y-9679800D01*
X17514000Y-9708900D02*
X17534000Y-9728900D01*
X17534000Y-9708900D02*
X17514000Y-9728900D01*
X17527026Y-9765111D02*
X17547026Y-9785111D01*
X17547026Y-9765111D02*
X17527026Y-9785111D01*
X17742500Y-9455080D02*
X17762500Y-9475080D01*
X17762500Y-9455080D02*
X17742500Y-9475080D01*
X17747897Y-9512527D02*
X17767897Y-9532527D01*
X17767897Y-9512527D02*
X17747897Y-9532527D01*
X17753697Y-9398477D02*
X17773697Y-9418477D01*
X17773697Y-9398477D02*
X17753697Y-9418477D01*
X17769000Y-9706000D02*
X17789000Y-9726000D01*
X17789000Y-9706000D02*
X17769000Y-9726000D01*
X17774000Y-9812300D02*
X17794000Y-9832300D01*
X17794000Y-9812300D02*
X17774000Y-9832300D01*
X17825000Y-10181362D02*
X17845000Y-10201362D01*
X17845000Y-10181362D02*
X17825000Y-10201362D01*
X17839000Y-9669000D02*
X17859000Y-9689000D01*
X17859000Y-9669000D02*
X17839000Y-9689000D01*
X17868420Y-10295600D02*
X17888420Y-10315600D01*
X17888420Y-10295600D02*
X17868420Y-10315600D01*
X17878717Y-10221540D02*
X17898717Y-10241540D01*
X17898717Y-10221540D02*
X17878717Y-10241540D01*
X17905000Y-9765000D02*
X17925000Y-9785000D01*
X17925000Y-9765000D02*
X17905000Y-9785000D01*
X17905000Y-10065000D02*
X17925000Y-10085000D01*
X17925000Y-10065000D02*
X17905000Y-10085000D01*
X17915000Y-9392000D02*
X17935000Y-9412000D01*
X17935000Y-9392000D02*
X17915000Y-9412000D01*
X17954800Y-9703380D02*
X17974800Y-9723380D01*
X17974800Y-9703380D02*
X17954800Y-9723380D01*
X17955000Y-9815000D02*
X17975000Y-9835000D01*
X17975000Y-9815000D02*
X17955000Y-9835000D01*
X17955000Y-9915000D02*
X17975000Y-9935000D01*
X17975000Y-9915000D02*
X17955000Y-9935000D01*
X17970400Y-9170141D02*
X17990400Y-9190141D01*
X17990400Y-9170141D02*
X17970400Y-9190141D01*
X17983000Y-9600000D02*
X18003000Y-9620000D01*
X18003000Y-9600000D02*
X17983000Y-9620000D01*
X18004520Y-10014200D02*
X18024520Y-10034200D01*
X18024520Y-10014200D02*
X18004520Y-10034200D01*
X18013910Y-10384090D02*
X18033910Y-10404090D01*
X18033910Y-10384090D02*
X18013910Y-10404090D01*
X18022000Y-11210000D02*
X18042000Y-11230000D01*
X18042000Y-11210000D02*
X18022000Y-11230000D01*
X18024000Y-9298000D02*
X18044000Y-9318000D01*
X18044000Y-9298000D02*
X18024000Y-9318000D01*
X18026000Y-11041000D02*
X18046000Y-11061000D01*
X18046000Y-11041000D02*
X18026000Y-11061000D01*
X18042000Y-9540000D02*
X18062000Y-9560000D01*
X18062000Y-9540000D02*
X18042000Y-9560000D01*
X18049000Y-10779000D02*
X18069000Y-10799000D01*
X18069000Y-10779000D02*
X18049000Y-10799000D01*
X18055000Y-9965000D02*
X18075000Y-9985000D01*
X18075000Y-9965000D02*
X18055000Y-9985000D01*
X18075000Y-11119000D02*
X18095000Y-11139000D01*
X18095000Y-11119000D02*
X18075000Y-11139000D01*
X18085339Y-9285080D02*
X18105339Y-9305080D01*
X18105339Y-9285080D02*
X18085339Y-9305080D01*
X18104000Y-10066000D02*
X18124000Y-10086000D01*
X18124000Y-10066000D02*
X18104000Y-10086000D01*
X18110441Y-9449700D02*
X18130441Y-9469700D01*
X18130441Y-9449700D02*
X18110441Y-9469700D01*
X18126580Y-9622000D02*
X18146580Y-9642000D01*
X18146580Y-9622000D02*
X18126580Y-9642000D01*
X18127000Y-11209000D02*
X18147000Y-11229000D01*
X18147000Y-11209000D02*
X18127000Y-11229000D01*
X18131000Y-11040000D02*
X18151000Y-11060000D01*
X18151000Y-11040000D02*
X18131000Y-11060000D01*
X18131450Y-10608482D02*
X18151450Y-10628482D01*
X18151450Y-10608482D02*
X18131450Y-10628482D01*
X18155000Y-9965000D02*
X18175000Y-9985000D01*
X18175000Y-9965000D02*
X18155000Y-9985000D01*
X18157000Y-10780000D02*
X18177000Y-10800000D01*
X18177000Y-10780000D02*
X18157000Y-10800000D01*
X18167450Y-10655482D02*
X18187450Y-10675482D01*
X18187450Y-10655482D02*
X18167450Y-10675482D01*
X18188000Y-11128000D02*
X18208000Y-11148000D01*
X18208000Y-11128000D02*
X18188000Y-11148000D01*
X18204520Y-10064200D02*
X18224520Y-10084200D01*
X18224520Y-10064200D02*
X18204520Y-10084200D01*
X18205000Y-9765000D02*
X18225000Y-9785000D01*
X18225000Y-9765000D02*
X18205000Y-9785000D01*
X18211000Y-9174000D02*
X18231000Y-9194000D01*
X18231000Y-9174000D02*
X18211000Y-9194000D01*
X18220000Y-10930000D02*
X18240000Y-10950000D01*
X18240000Y-10930000D02*
X18220000Y-10950000D01*
X18224000Y-9425000D02*
X18244000Y-9445000D01*
X18244000Y-9425000D02*
X18224000Y-9445000D01*
X18226700Y-9482700D02*
X18246700Y-9502700D01*
X18246700Y-9482700D02*
X18226700Y-9502700D01*
X18226700Y-9532000D02*
X18246700Y-9552000D01*
X18246700Y-9532000D02*
X18226700Y-9552000D01*
X18227371Y-9291630D02*
X18247371Y-9311630D01*
X18247371Y-9291630D02*
X18227371Y-9311630D01*
X18231450Y-10649482D02*
X18251450Y-10669482D01*
X18251450Y-10649482D02*
X18231450Y-10669482D01*
X18235000Y-11210000D02*
X18255000Y-11230000D01*
X18255000Y-11210000D02*
X18235000Y-11230000D01*
X18239000Y-11041000D02*
X18259000Y-11061000D01*
X18259000Y-11041000D02*
X18239000Y-11061000D01*
X18252450Y-10595482D02*
X18272450Y-10615482D01*
X18272450Y-10595482D02*
X18252450Y-10615482D01*
X18254520Y-9666000D02*
X18274520Y-9686000D01*
X18274520Y-9666000D02*
X18254520Y-9686000D01*
X18290000Y-11126000D02*
X18310000Y-11146000D01*
X18310000Y-11126000D02*
X18290000Y-11146000D01*
X18323000Y-9896000D02*
X18343000Y-9916000D01*
X18343000Y-9896000D02*
X18323000Y-9916000D01*
X18327500Y-9757500D02*
X18347500Y-9777500D01*
X18347500Y-9757500D02*
X18327500Y-9777500D01*
X18344000Y-11212000D02*
X18364000Y-11232000D01*
X18364000Y-11212000D02*
X18344000Y-11232000D01*
X18348000Y-11043000D02*
X18368000Y-11063000D01*
X18368000Y-11043000D02*
X18348000Y-11063000D01*
X18358899Y-9438000D02*
X18378899Y-9458000D01*
X18378899Y-9438000D02*
X18358899Y-9458000D01*
X18383000Y-10707000D02*
X18403000Y-10727000D01*
X18403000Y-10707000D02*
X18383000Y-10727000D01*
X18392000Y-10975000D02*
X18412000Y-10995000D01*
X18412000Y-10975000D02*
X18392000Y-10995000D01*
X18397000Y-10849000D02*
X18417000Y-10869000D01*
X18417000Y-10849000D02*
X18397000Y-10869000D01*
X18412000Y-10632000D02*
X18432000Y-10652000D01*
X18432000Y-10632000D02*
X18412000Y-10652000D01*
X18441000Y-11082000D02*
X18461000Y-11102000D01*
X18461000Y-11082000D02*
X18441000Y-11102000D01*
X18441000Y-11230000D02*
X18461000Y-11250000D01*
X18461000Y-11230000D02*
X18441000Y-11250000D01*
X18443000Y-10919000D02*
X18463000Y-10939000D01*
X18463000Y-10919000D02*
X18443000Y-10939000D01*
X18463000Y-10094000D02*
X18483000Y-10114000D01*
X18483000Y-10094000D02*
X18463000Y-10114000D01*
X18465000Y-10710000D02*
X18485000Y-10730000D01*
X18485000Y-10710000D02*
X18465000Y-10730000D01*
X18477000Y-10281000D02*
X18497000Y-10301000D01*
X18497000Y-10281000D02*
X18477000Y-10301000D01*
X18480359Y-9374620D02*
X18500359Y-9394620D01*
X18500359Y-9374620D02*
X18480359Y-9394620D01*
X18492000Y-11153000D02*
X18512000Y-11173000D01*
X18512000Y-11153000D02*
X18492000Y-11173000D01*
X18505740Y-9548000D02*
X18525740Y-9568000D01*
X18525740Y-9548000D02*
X18505740Y-9568000D01*
X18505740Y-9609000D02*
X18525740Y-9629000D01*
X18525740Y-9609000D02*
X18505740Y-9629000D01*
X18505740Y-9742000D02*
X18525740Y-9762000D01*
X18525740Y-9742000D02*
X18505740Y-9762000D01*
X18508000Y-10636000D02*
X18528000Y-10656000D01*
X18528000Y-10636000D02*
X18508000Y-10656000D01*
X18513000Y-10984000D02*
X18533000Y-11004000D01*
X18533000Y-10984000D02*
X18513000Y-11004000D01*
X18518000Y-10858000D02*
X18538000Y-10878000D01*
X18538000Y-10858000D02*
X18518000Y-10878000D01*
X18538000Y-9372000D02*
X18558000Y-9392000D01*
X18558000Y-9372000D02*
X18538000Y-9392000D01*
X18549000Y-11083000D02*
X18569000Y-11103000D01*
X18569000Y-11083000D02*
X18549000Y-11103000D01*
X18549000Y-11231000D02*
X18569000Y-11251000D01*
X18569000Y-11231000D02*
X18549000Y-11251000D01*
X18555000Y-10707000D02*
X18575000Y-10727000D01*
X18575000Y-10707000D02*
X18555000Y-10727000D01*
X18595000Y-10922000D02*
X18615000Y-10942000D01*
X18615000Y-10922000D02*
X18595000Y-10942000D01*
X18600000Y-11154000D02*
X18620000Y-11174000D01*
X18620000Y-11154000D02*
X18600000Y-11174000D01*
X18615000Y-9387000D02*
X18635000Y-9407000D01*
X18635000Y-9387000D02*
X18615000Y-9407000D01*
X18615000Y-10628000D02*
X18635000Y-10648000D01*
X18635000Y-10628000D02*
X18615000Y-10648000D01*
X18645000Y-10709000D02*
X18665000Y-10729000D01*
X18665000Y-10709000D02*
X18645000Y-10729000D01*
X18656000Y-10980000D02*
X18676000Y-11000000D01*
X18676000Y-10980000D02*
X18656000Y-11000000D01*
X18658000Y-11085000D02*
X18678000Y-11105000D01*
X18678000Y-11085000D02*
X18658000Y-11105000D01*
X18658000Y-11233000D02*
X18678000Y-11253000D01*
X18678000Y-11233000D02*
X18658000Y-11253000D01*
X18661000Y-10854000D02*
X18681000Y-10874000D01*
X18681000Y-10854000D02*
X18661000Y-10874000D01*
X18698000Y-10295000D02*
X18718000Y-10315000D01*
X18718000Y-10295000D02*
X18698000Y-10315000D01*
X18715000Y-10390000D02*
X18735000Y-10410000D01*
X18735000Y-10390000D02*
X18715000Y-10410000D01*
X18715000Y-10690000D02*
X18735000Y-10710000D01*
X18735000Y-10690000D02*
X18715000Y-10710000D01*
X18715000Y-11190000D02*
X18735000Y-11210000D01*
X18735000Y-11190000D02*
X18715000Y-11210000D01*
X18731000Y-9556000D02*
X18751000Y-9576000D01*
X18751000Y-9556000D02*
X18731000Y-9576000D01*
X18733000Y-8936000D02*
X18753000Y-8956000D01*
X18753000Y-8936000D02*
X18733000Y-8956000D01*
X18740000Y-10890000D02*
X18760000Y-10910000D01*
X18760000Y-10890000D02*
X18740000Y-10910000D01*
X18790691Y-8937030D02*
X18810691Y-8957030D01*
X18810691Y-8937030D02*
X18790691Y-8957030D01*
X18803000Y-10294000D02*
X18823000Y-10314000D01*
X18823000Y-10294000D02*
X18803000Y-10314000D01*
X18830889Y-9269554D02*
X18850889Y-9289554D01*
X18850889Y-9269554D02*
X18830889Y-9289554D01*
X18835000Y-9212000D02*
X18855000Y-9232000D01*
X18855000Y-9212000D02*
X18835000Y-9232000D01*
X18911000Y-10295000D02*
X18931000Y-10315000D01*
X18931000Y-10295000D02*
X18911000Y-10315000D01*
X18989000Y-9783000D02*
X19009000Y-9803000D01*
X19009000Y-9783000D02*
X18989000Y-9803000D01*
X18990000Y-11090000D02*
X19010000Y-11110000D01*
X19010000Y-11090000D02*
X18990000Y-11110000D01*
X19015000Y-10496000D02*
X19035000Y-10516000D01*
X19035000Y-10496000D02*
X19015000Y-10516000D01*
X19020000Y-10297000D02*
X19040000Y-10317000D01*
X19040000Y-10297000D02*
X19020000Y-10317000D01*
X19046143Y-9775000D02*
X19066143Y-9795000D01*
X19066143Y-9775000D02*
X19046143Y-9795000D01*
X19140500Y-10297000D02*
X19160500Y-10317000D01*
X19160500Y-10297000D02*
X19140500Y-10317000D01*
X19165000Y-10465000D02*
X19185000Y-10485000D01*
X19185000Y-10465000D02*
X19165000Y-10485000D01*
X19165000Y-11065000D02*
X19185000Y-11085000D01*
X19185000Y-11065000D02*
X19165000Y-11085000D01*
X19203000Y-10223000D02*
X19223000Y-10243000D01*
X19223000Y-10223000D02*
X19203000Y-10243000D01*
X19248500Y-10298000D02*
X19268500Y-10318000D01*
X19268500Y-10298000D02*
X19248500Y-10318000D01*
X19312000Y-10225000D02*
X19332000Y-10245000D01*
X19332000Y-10225000D02*
X19312000Y-10245000D01*
X19357500Y-10300000D02*
X19377500Y-10320000D01*
X19377500Y-10300000D02*
X19357500Y-10320000D01*
X19365000Y-10715000D02*
X19385000Y-10735000D01*
X19385000Y-10715000D02*
X19365000Y-10735000D01*
X19377000Y-11240000D02*
X19397000Y-11260000D01*
X19397000Y-11240000D02*
X19377000Y-11260000D01*
X19390000Y-10865000D02*
X19410000Y-10885000D01*
X19410000Y-10865000D02*
X19390000Y-10885000D01*
X19415000Y-10365000D02*
X19435000Y-10385000D01*
X19435000Y-10365000D02*
X19415000Y-10385000D01*
X10948510Y-9782000D02*
G75*
G02*
X10915490Y-9782000I-16510J0D01*
G01*
X10915490Y-9782000D02*
G75*
G02*
X10948510Y-9782000I16510J0D01*
G01*
X10950510Y-9943000D02*
G75*
G02*
X10917490Y-9943000I-16510J0D01*
G01*
X10917490Y-9943000D02*
G75*
G02*
X10950510Y-9943000I16510J0D01*
G01*
X10952510Y-10117000D02*
G75*
G02*
X10919490Y-10117000I-16510J0D01*
G01*
X10919490Y-10117000D02*
G75*
G02*
X10952510Y-10117000I16510J0D01*
G01*
X11054510Y-9729890D02*
G75*
G02*
X11021490Y-9729890I-16510J0D01*
G01*
X11021490Y-9729890D02*
G75*
G02*
X11054510Y-9729890I16510J0D01*
G01*
X11054510Y-9894890D02*
G75*
G02*
X11021490Y-9894890I-16510J0D01*
G01*
X11021490Y-9894890D02*
G75*
G02*
X11054510Y-9894890I16510J0D01*
G01*
X11054510Y-10046890D02*
G75*
G02*
X11021490Y-10046890I-16510J0D01*
G01*
X11021490Y-10046890D02*
G75*
G02*
X11054510Y-10046890I16510J0D01*
G01*
X11056510Y-10187890D02*
G75*
G02*
X11023490Y-10187890I-16510J0D01*
G01*
X11023490Y-10187890D02*
G75*
G02*
X11056510Y-10187890I16510J0D01*
G01*
X11188510Y-10307000D02*
G75*
G02*
X11155490Y-10307000I-16510J0D01*
G01*
X11155490Y-10307000D02*
G75*
G02*
X11188510Y-10307000I16510J0D01*
G01*
X11334510Y-9101000D02*
G75*
G02*
X11301490Y-9101000I-16510J0D01*
G01*
X11301490Y-9101000D02*
G75*
G02*
X11334510Y-9101000I16510J0D01*
G01*
X11334510Y-9266000D02*
G75*
G02*
X11301490Y-9266000I-16510J0D01*
G01*
X11301490Y-9266000D02*
G75*
G02*
X11334510Y-9266000I16510J0D01*
G01*
X11334510Y-9418000D02*
G75*
G02*
X11301490Y-9418000I-16510J0D01*
G01*
X11301490Y-9418000D02*
G75*
G02*
X11334510Y-9418000I16510J0D01*
G01*
X11336510Y-9559000D02*
G75*
G02*
X11303490Y-9559000I-16510J0D01*
G01*
X11303490Y-9559000D02*
G75*
G02*
X11336510Y-9559000I16510J0D01*
G01*
X11364510Y-10307000D02*
G75*
G02*
X11331490Y-10307000I-16510J0D01*
G01*
X11331490Y-10307000D02*
G75*
G02*
X11364510Y-10307000I16510J0D01*
G01*
X11473510Y-9163000D02*
G75*
G02*
X11440490Y-9163000I-16510J0D01*
G01*
X11440490Y-9163000D02*
G75*
G02*
X11473510Y-9163000I16510J0D01*
G01*
X11475510Y-9324000D02*
G75*
G02*
X11442490Y-9324000I-16510J0D01*
G01*
X11442490Y-9324000D02*
G75*
G02*
X11475510Y-9324000I16510J0D01*
G01*
X11477510Y-9498000D02*
G75*
G02*
X11444490Y-9498000I-16510J0D01*
G01*
X11444490Y-9498000D02*
G75*
G02*
X11477510Y-9498000I16510J0D01*
G01*
X11538510Y-10317000D02*
G75*
G02*
X11505490Y-10317000I-16510J0D01*
G01*
X11505490Y-10317000D02*
G75*
G02*
X11538510Y-10317000I16510J0D01*
G01*
X11601510Y-9106000D02*
G75*
G02*
X11568490Y-9106000I-16510J0D01*
G01*
X11568490Y-9106000D02*
G75*
G02*
X11601510Y-9106000I16510J0D01*
G01*
X11601510Y-9271000D02*
G75*
G02*
X11568490Y-9271000I-16510J0D01*
G01*
X11568490Y-9271000D02*
G75*
G02*
X11601510Y-9271000I16510J0D01*
G01*
X11601510Y-9423000D02*
G75*
G02*
X11568490Y-9423000I-16510J0D01*
G01*
X11568490Y-9423000D02*
G75*
G02*
X11601510Y-9423000I16510J0D01*
G01*
X11603510Y-9564000D02*
G75*
G02*
X11570490Y-9564000I-16510J0D01*
G01*
X11570490Y-9564000D02*
G75*
G02*
X11603510Y-9564000I16510J0D01*
G01*
X11733747Y-10053640D02*
G75*
G02*
X11700727Y-10053640I-16510J0D01*
G01*
X11700727Y-10053640D02*
G75*
G02*
X11733747Y-10053640I16510J0D01*
G01*
X11773510Y-11268000D02*
G75*
G02*
X11740490Y-11268000I-16510J0D01*
G01*
X11740490Y-11268000D02*
G75*
G02*
X11773510Y-11268000I16510J0D01*
G01*
X11777510Y-11392000D02*
G75*
G02*
X11744490Y-11392000I-16510J0D01*
G01*
X11744490Y-11392000D02*
G75*
G02*
X11777510Y-11392000I16510J0D01*
G01*
X11781510Y-10902000D02*
G75*
G02*
X11748490Y-10902000I-16510J0D01*
G01*
X11748490Y-10902000D02*
G75*
G02*
X11781510Y-10902000I16510J0D01*
G01*
X11781510Y-11052000D02*
G75*
G02*
X11748490Y-11052000I-16510J0D01*
G01*
X11748490Y-11052000D02*
G75*
G02*
X11781510Y-11052000I16510J0D01*
G01*
X11791510Y-9675000D02*
G75*
G02*
X11758490Y-9675000I-16510J0D01*
G01*
X11758490Y-9675000D02*
G75*
G02*
X11791510Y-9675000I16510J0D01*
G01*
X11791510Y-10525000D02*
G75*
G02*
X11758490Y-10525000I-16510J0D01*
G01*
X11758490Y-10525000D02*
G75*
G02*
X11791510Y-10525000I16510J0D01*
G01*
X11828510Y-10776000D02*
G75*
G02*
X11795490Y-10776000I-16510J0D01*
G01*
X11795490Y-10776000D02*
G75*
G02*
X11828510Y-10776000I16510J0D01*
G01*
X11844510Y-9922000D02*
G75*
G02*
X11811490Y-9922000I-16510J0D01*
G01*
X11811490Y-9922000D02*
G75*
G02*
X11844510Y-9922000I16510J0D01*
G01*
X11856572Y-9690063D02*
G75*
G02*
X11823552Y-9690063I-16510J0D01*
G01*
X11823552Y-9690063D02*
G75*
G02*
X11856572Y-9690063I16510J0D01*
G01*
X11910510Y-11046000D02*
G75*
G02*
X11877490Y-11046000I-16510J0D01*
G01*
X11877490Y-11046000D02*
G75*
G02*
X11910510Y-11046000I16510J0D01*
G01*
X11913510Y-10937000D02*
G75*
G02*
X11880490Y-10937000I-16510J0D01*
G01*
X11880490Y-10937000D02*
G75*
G02*
X11913510Y-10937000I16510J0D01*
G01*
X11916510Y-11331000D02*
G75*
G02*
X11883490Y-11331000I-16510J0D01*
G01*
X11883490Y-11331000D02*
G75*
G02*
X11916510Y-11331000I16510J0D01*
G01*
X11949510Y-10780000D02*
G75*
G02*
X11916490Y-10780000I-16510J0D01*
G01*
X11916490Y-10780000D02*
G75*
G02*
X11949510Y-10780000I16510J0D01*
G01*
X11956510Y-9801000D02*
G75*
G02*
X11923490Y-9801000I-16510J0D01*
G01*
X11923490Y-9801000D02*
G75*
G02*
X11956510Y-9801000I16510J0D01*
G01*
X11994510Y-9448000D02*
G75*
G02*
X11961490Y-9448000I-16510J0D01*
G01*
X11961490Y-9448000D02*
G75*
G02*
X11994510Y-9448000I16510J0D01*
G01*
X12087800Y-10056690D02*
G75*
G02*
X12054780Y-10056690I-16510J0D01*
G01*
X12054780Y-10056690D02*
G75*
G02*
X12087800Y-10056690I16510J0D01*
G01*
X12120510Y-10786000D02*
G75*
G02*
X12087490Y-10786000I-16510J0D01*
G01*
X12087490Y-10786000D02*
G75*
G02*
X12120510Y-10786000I16510J0D01*
G01*
X12161080Y-10400000D02*
G75*
G02*
X12128060Y-10400000I-16510J0D01*
G01*
X12128060Y-10400000D02*
G75*
G02*
X12161080Y-10400000I16510J0D01*
G01*
X12161080Y-10475000D02*
G75*
G02*
X12128060Y-10475000I-16510J0D01*
G01*
X12128060Y-10475000D02*
G75*
G02*
X12161080Y-10475000I16510J0D01*
G01*
X12224510Y-10657000D02*
G75*
G02*
X12191490Y-10657000I-16510J0D01*
G01*
X12191490Y-10657000D02*
G75*
G02*
X12224510Y-10657000I16510J0D01*
G01*
X12294510Y-10782000D02*
G75*
G02*
X12261490Y-10782000I-16510J0D01*
G01*
X12261490Y-10782000D02*
G75*
G02*
X12294510Y-10782000I16510J0D01*
G01*
X12359510Y-10655000D02*
G75*
G02*
X12326490Y-10655000I-16510J0D01*
G01*
X12326490Y-10655000D02*
G75*
G02*
X12359510Y-10655000I16510J0D01*
G01*
X12416510Y-9500000D02*
G75*
G02*
X12383490Y-9500000I-16510J0D01*
G01*
X12383490Y-9500000D02*
G75*
G02*
X12416510Y-9500000I16510J0D01*
G01*
X12436510Y-10791000D02*
G75*
G02*
X12403490Y-10791000I-16510J0D01*
G01*
X12403490Y-10791000D02*
G75*
G02*
X12436510Y-10791000I16510J0D01*
G01*
X12463510Y-10352000D02*
G75*
G02*
X12430490Y-10352000I-16510J0D01*
G01*
X12430490Y-10352000D02*
G75*
G02*
X12463510Y-10352000I16510J0D01*
G01*
X12463510Y-10502000D02*
G75*
G02*
X12430490Y-10502000I-16510J0D01*
G01*
X12430490Y-10502000D02*
G75*
G02*
X12463510Y-10502000I16510J0D01*
G01*
X12488510Y-9723000D02*
G75*
G02*
X12455490Y-9723000I-16510J0D01*
G01*
X12455490Y-9723000D02*
G75*
G02*
X12488510Y-9723000I16510J0D01*
G01*
X12489510Y-9597000D02*
G75*
G02*
X12456490Y-9597000I-16510J0D01*
G01*
X12456490Y-9597000D02*
G75*
G02*
X12489510Y-9597000I16510J0D01*
G01*
X12491510Y-10662000D02*
G75*
G02*
X12458490Y-10662000I-16510J0D01*
G01*
X12458490Y-10662000D02*
G75*
G02*
X12491510Y-10662000I16510J0D01*
G01*
X12566510Y-9500000D02*
G75*
G02*
X12533490Y-9500000I-16510J0D01*
G01*
X12533490Y-9500000D02*
G75*
G02*
X12566510Y-9500000I16510J0D01*
G01*
X12577510Y-10435000D02*
G75*
G02*
X12544490Y-10435000I-16510J0D01*
G01*
X12544490Y-10435000D02*
G75*
G02*
X12577510Y-10435000I16510J0D01*
G01*
X12577510Y-10606000D02*
G75*
G02*
X12544490Y-10606000I-16510J0D01*
G01*
X12544490Y-10606000D02*
G75*
G02*
X12577510Y-10606000I16510J0D01*
G01*
X12578510Y-10789000D02*
G75*
G02*
X12545490Y-10789000I-16510J0D01*
G01*
X12545490Y-10789000D02*
G75*
G02*
X12578510Y-10789000I16510J0D01*
G01*
X12580510Y-9828920D02*
G75*
G02*
X12547490Y-9828920I-16510J0D01*
G01*
X12547490Y-9828920D02*
G75*
G02*
X12580510Y-9828920I16510J0D01*
G01*
X12633510Y-9610000D02*
G75*
G02*
X12600490Y-9610000I-16510J0D01*
G01*
X12600490Y-9610000D02*
G75*
G02*
X12633510Y-9610000I16510J0D01*
G01*
X12666510Y-9899000D02*
G75*
G02*
X12633490Y-9899000I-16510J0D01*
G01*
X12633490Y-9899000D02*
G75*
G02*
X12666510Y-9899000I16510J0D01*
G01*
X12700510Y-9720000D02*
G75*
G02*
X12667490Y-9720000I-16510J0D01*
G01*
X12667490Y-9720000D02*
G75*
G02*
X12700510Y-9720000I16510J0D01*
G01*
X12715510Y-9493000D02*
G75*
G02*
X12682490Y-9493000I-16510J0D01*
G01*
X12682490Y-9493000D02*
G75*
G02*
X12715510Y-9493000I16510J0D01*
G01*
X12776510Y-9821000D02*
G75*
G02*
X12743490Y-9821000I-16510J0D01*
G01*
X12743490Y-9821000D02*
G75*
G02*
X12776510Y-9821000I16510J0D01*
G01*
X12778510Y-9612000D02*
G75*
G02*
X12745490Y-9612000I-16510J0D01*
G01*
X12745490Y-9612000D02*
G75*
G02*
X12778510Y-9612000I16510J0D01*
G01*
X12844510Y-9733000D02*
G75*
G02*
X12811490Y-9733000I-16510J0D01*
G01*
X12811490Y-9733000D02*
G75*
G02*
X12844510Y-9733000I16510J0D01*
G01*
X12845510Y-9498000D02*
G75*
G02*
X12812490Y-9498000I-16510J0D01*
G01*
X12812490Y-9498000D02*
G75*
G02*
X12845510Y-9498000I16510J0D01*
G01*
X12846510Y-9905000D02*
G75*
G02*
X12813490Y-9905000I-16510J0D01*
G01*
X12813490Y-9905000D02*
G75*
G02*
X12846510Y-9905000I16510J0D01*
G01*
X14226510Y-10127500D02*
G75*
G02*
X14193490Y-10127500I-16510J0D01*
G01*
X14193490Y-10127500D02*
G75*
G02*
X14226510Y-10127500I16510J0D01*
G01*
X14905260Y-9958750D02*
G75*
G02*
X14872240Y-9958750I-16510J0D01*
G01*
X14872240Y-9958750D02*
G75*
G02*
X14905260Y-9958750I16510J0D01*
G01*
X15234510Y-9784000D02*
G75*
G02*
X15201490Y-9784000I-16510J0D01*
G01*
X15201490Y-9784000D02*
G75*
G02*
X15234510Y-9784000I16510J0D01*
G01*
X15273510Y-9460000D02*
G75*
G02*
X15240490Y-9460000I-16510J0D01*
G01*
X15240490Y-9460000D02*
G75*
G02*
X15273510Y-9460000I16510J0D01*
G01*
X15319510Y-9317000D02*
G75*
G02*
X15286490Y-9317000I-16510J0D01*
G01*
X15286490Y-9317000D02*
G75*
G02*
X15319510Y-9317000I16510J0D01*
G01*
X15401510Y-9806000D02*
G75*
G02*
X15368490Y-9806000I-16510J0D01*
G01*
X15368490Y-9806000D02*
G75*
G02*
X15401510Y-9806000I16510J0D01*
G01*
X15456510Y-9427000D02*
G75*
G02*
X15423490Y-9427000I-16510J0D01*
G01*
X15423490Y-9427000D02*
G75*
G02*
X15456510Y-9427000I16510J0D01*
G01*
X15471510Y-9283000D02*
G75*
G02*
X15438490Y-9283000I-16510J0D01*
G01*
X15438490Y-9283000D02*
G75*
G02*
X15471510Y-9283000I16510J0D01*
G01*
X15560510Y-9784000D02*
G75*
G02*
X15527490Y-9784000I-16510J0D01*
G01*
X15527490Y-9784000D02*
G75*
G02*
X15560510Y-9784000I16510J0D01*
G01*
X15615510Y-9322000D02*
G75*
G02*
X15582490Y-9322000I-16510J0D01*
G01*
X15582490Y-9322000D02*
G75*
G02*
X15615510Y-9322000I16510J0D01*
G01*
X15624510Y-9177000D02*
G75*
G02*
X15591490Y-9177000I-16510J0D01*
G01*
X15591490Y-9177000D02*
G75*
G02*
X15624510Y-9177000I16510J0D01*
G01*
X15716510Y-9742500D02*
G75*
G02*
X15683490Y-9742500I-16510J0D01*
G01*
X15683490Y-9742500D02*
G75*
G02*
X15716510Y-9742500I16510J0D01*
G01*
X15769510Y-9181000D02*
G75*
G02*
X15736490Y-9181000I-16510J0D01*
G01*
X15736490Y-9181000D02*
G75*
G02*
X15769510Y-9181000I16510J0D01*
G01*
X16062510Y-10678000D02*
G75*
G02*
X16029490Y-10678000I-16510J0D01*
G01*
X16029490Y-10678000D02*
G75*
G02*
X16062510Y-10678000I16510J0D01*
G01*
X16064510Y-10992000D02*
G75*
G02*
X16031490Y-10992000I-16510J0D01*
G01*
X16031490Y-10992000D02*
G75*
G02*
X16064510Y-10992000I16510J0D01*
G01*
X16143510Y-9310000D02*
G75*
G02*
X16110490Y-9310000I-16510J0D01*
G01*
X16110490Y-9310000D02*
G75*
G02*
X16143510Y-9310000I16510J0D01*
G01*
X16147510Y-9452000D02*
G75*
G02*
X16114490Y-9452000I-16510J0D01*
G01*
X16114490Y-9452000D02*
G75*
G02*
X16147510Y-9452000I16510J0D01*
G01*
X16153510Y-9617000D02*
G75*
G02*
X16120490Y-9617000I-16510J0D01*
G01*
X16120490Y-9617000D02*
G75*
G02*
X16153510Y-9617000I16510J0D01*
G01*
X16258510Y-9181000D02*
G75*
G02*
X16225490Y-9181000I-16510J0D01*
G01*
X16225490Y-9181000D02*
G75*
G02*
X16258510Y-9181000I16510J0D01*
G01*
X16260510Y-9334000D02*
G75*
G02*
X16227490Y-9334000I-16510J0D01*
G01*
X16227490Y-9334000D02*
G75*
G02*
X16260510Y-9334000I16510J0D01*
G01*
X16280260Y-9453750D02*
G75*
G02*
X16247240Y-9453750I-16510J0D01*
G01*
X16247240Y-9453750D02*
G75*
G02*
X16280260Y-9453750I16510J0D01*
G01*
X16294010Y-9525000D02*
G75*
G02*
X16260990Y-9525000I-16510J0D01*
G01*
X16260990Y-9525000D02*
G75*
G02*
X16294010Y-9525000I16510J0D01*
G01*
X16306510Y-9715920D02*
G75*
G02*
X16273490Y-9715920I-16510J0D01*
G01*
X16273490Y-9715920D02*
G75*
G02*
X16306510Y-9715920I16510J0D01*
G01*
X16319010Y-8545000D02*
G75*
G02*
X16285990Y-8545000I-16510J0D01*
G01*
X16285990Y-8545000D02*
G75*
G02*
X16319010Y-8545000I16510J0D01*
G01*
X16366510Y-9052000D02*
G75*
G02*
X16333490Y-9052000I-16510J0D01*
G01*
X16333490Y-9052000D02*
G75*
G02*
X16366510Y-9052000I16510J0D01*
G01*
X16411510Y-8920000D02*
G75*
G02*
X16378490Y-8920000I-16510J0D01*
G01*
X16378490Y-8920000D02*
G75*
G02*
X16411510Y-8920000I16510J0D01*
G01*
X16495510Y-9135000D02*
G75*
G02*
X16462490Y-9135000I-16510J0D01*
G01*
X16462490Y-9135000D02*
G75*
G02*
X16495510Y-9135000I16510J0D01*
G01*
X16571510Y-8602500D02*
G75*
G02*
X16538490Y-8602500I-16510J0D01*
G01*
X16538490Y-8602500D02*
G75*
G02*
X16571510Y-8602500I16510J0D01*
G01*
X16632510Y-9052000D02*
G75*
G02*
X16599490Y-9052000I-16510J0D01*
G01*
X16599490Y-9052000D02*
G75*
G02*
X16632510Y-9052000I16510J0D01*
G01*
X16801510Y-9012500D02*
G75*
G02*
X16768490Y-9012500I-16510J0D01*
G01*
X16768490Y-9012500D02*
G75*
G02*
X16801510Y-9012500I16510J0D01*
G01*
X16948510Y-9052000D02*
G75*
G02*
X16915490Y-9052000I-16510J0D01*
G01*
X16915490Y-9052000D02*
G75*
G02*
X16948510Y-9052000I16510J0D01*
G01*
X17380510Y-10583000D02*
G75*
G02*
X17347490Y-10583000I-16510J0D01*
G01*
X17347490Y-10583000D02*
G75*
G02*
X17380510Y-10583000I16510J0D01*
G01*
X17461268Y-10573800D02*
G75*
G02*
X17428248Y-10573800I-16510J0D01*
G01*
X17428248Y-10573800D02*
G75*
G02*
X17461268Y-10573800I16510J0D01*
G01*
X17519510Y-8804000D02*
G75*
G02*
X17486490Y-8804000I-16510J0D01*
G01*
X17486490Y-8804000D02*
G75*
G02*
X17519510Y-8804000I16510J0D01*
G01*
X17526760Y-9458750D02*
G75*
G02*
X17493740Y-9458750I-16510J0D01*
G01*
X17493740Y-9458750D02*
G75*
G02*
X17526760Y-9458750I16510J0D01*
G01*
X17546510Y-9070680D02*
G75*
G02*
X17513490Y-9070680I-16510J0D01*
G01*
X17513490Y-9070680D02*
G75*
G02*
X17546510Y-9070680I16510J0D01*
G01*
X17564510Y-9164000D02*
G75*
G02*
X17531490Y-9164000I-16510J0D01*
G01*
X17531490Y-9164000D02*
G75*
G02*
X17564510Y-9164000I16510J0D01*
G01*
X17570230Y-9980310D02*
G75*
G02*
X17537210Y-9980310I-16510J0D01*
G01*
X17537210Y-9980310D02*
G75*
G02*
X17570230Y-9980310I16510J0D01*
G01*
X17650510Y-8798000D02*
G75*
G02*
X17617490Y-8798000I-16510J0D01*
G01*
X17617490Y-8798000D02*
G75*
G02*
X17650510Y-8798000I16510J0D01*
G01*
X17663510Y-9980310D02*
G75*
G02*
X17630490Y-9980310I-16510J0D01*
G01*
X17630490Y-9980310D02*
G75*
G02*
X17663510Y-9980310I16510J0D01*
G01*
X17762510Y-9983530D02*
G75*
G02*
X17729490Y-9983530I-16510J0D01*
G01*
X17729490Y-9983530D02*
G75*
G02*
X17762510Y-9983530I16510J0D01*
G01*
X17803510Y-10513480D02*
G75*
G02*
X17770490Y-10513480I-16510J0D01*
G01*
X17770490Y-10513480D02*
G75*
G02*
X17803510Y-10513480I16510J0D01*
G01*
X17863701Y-9278377D02*
G75*
G02*
X17830681Y-9278377I-16510J0D01*
G01*
X17830681Y-9278377D02*
G75*
G02*
X17863701Y-9278377I16510J0D01*
G01*
X17902296Y-10452609D02*
G75*
G02*
X17869276Y-10452609I-16510J0D01*
G01*
X17869276Y-10452609D02*
G75*
G02*
X17902296Y-10452609I16510J0D01*
G01*
X17908930Y-10371600D02*
G75*
G02*
X17875910Y-10371600I-16510J0D01*
G01*
X17875910Y-10371600D02*
G75*
G02*
X17908930Y-10371600I16510J0D01*
G01*
X17944960Y-9276500D02*
G75*
G02*
X17911940Y-9276500I-16510J0D01*
G01*
X17911940Y-9276500D02*
G75*
G02*
X17944960Y-9276500I16510J0D01*
G01*
X17975050Y-10512000D02*
G75*
G02*
X17942030Y-10512000I-16510J0D01*
G01*
X17942030Y-10512000D02*
G75*
G02*
X17975050Y-10512000I16510J0D01*
G01*
X17979930Y-10593600D02*
G75*
G02*
X17946910Y-10593600I-16510J0D01*
G01*
X17946910Y-10593600D02*
G75*
G02*
X17979930Y-10593600I16510J0D01*
G01*
X17979930Y-10673600D02*
G75*
G02*
X17946910Y-10673600I-16510J0D01*
G01*
X17946910Y-10673600D02*
G75*
G02*
X17979930Y-10673600I16510J0D01*
G01*
X17979930Y-10753600D02*
G75*
G02*
X17946910Y-10753600I-16510J0D01*
G01*
X17946910Y-10753600D02*
G75*
G02*
X17979930Y-10753600I16510J0D01*
G01*
X17979930Y-10833600D02*
G75*
G02*
X17946910Y-10833600I-16510J0D01*
G01*
X17946910Y-10833600D02*
G75*
G02*
X17979930Y-10833600I16510J0D01*
G01*
X18454177Y-9466031D02*
G75*
G02*
X18421157Y-9466031I-16510J0D01*
G01*
X18421157Y-9466031D02*
G75*
G02*
X18454177Y-9466031I16510J0D01*
G01*
X18640734Y-9979369D02*
G75*
G02*
X18607714Y-9979369I-16510J0D01*
G01*
X18607714Y-9979369D02*
G75*
G02*
X18640734Y-9979369I16510J0D01*
G01*
X18763008Y-9496728D02*
G75*
G02*
X18729988Y-9496728I-16510J0D01*
G01*
X18729988Y-9496728D02*
G75*
G02*
X18763008Y-9496728I16510J0D01*
G01*
X18767550Y-8703920D02*
G75*
G02*
X18734530Y-8703920I-16510J0D01*
G01*
X18734530Y-8703920D02*
G75*
G02*
X18767550Y-8703920I16510J0D01*
G01*
X18838020Y-10150000D02*
G75*
G02*
X18805000Y-10150000I-16510J0D01*
G01*
X18805000Y-10150000D02*
G75*
G02*
X18838020Y-10150000I16510J0D01*
G01*
X18864510Y-9719000D02*
G75*
G02*
X18831490Y-9719000I-16510J0D01*
G01*
X18831490Y-9719000D02*
G75*
G02*
X18864510Y-9719000I16510J0D01*
G01*
X18893510Y-9507000D02*
G75*
G02*
X18860490Y-9507000I-16510J0D01*
G01*
X18860490Y-9507000D02*
G75*
G02*
X18893510Y-9507000I16510J0D01*
G01*
X18974419Y-9514758D02*
G75*
G02*
X18941399Y-9514758I-16510J0D01*
G01*
X18941399Y-9514758D02*
G75*
G02*
X18974419Y-9514758I16510J0D01*
G01*
X19060550Y-10024920D02*
G75*
G02*
X19027530Y-10024920I-16510J0D01*
G01*
X19027530Y-10024920D02*
G75*
G02*
X19060550Y-10024920I16510J0D01*
G01*
X19080510Y-10084000D02*
G75*
G02*
X19047490Y-10084000I-16510J0D01*
G01*
X19047490Y-10084000D02*
G75*
G02*
X19080510Y-10084000I16510J0D01*
G01*
X13422500Y-10280950D02*
X13422500Y-10319050D01*
X13403450Y-10300000D02*
X13441550Y-10300000D01*
X15075000Y-10288450D02*
X15075000Y-10326550D01*
X15055950Y-10307500D02*
X15094050Y-10307500D01*
X15892500Y-9098450D02*
X15892500Y-9136550D01*
X15873450Y-9117500D02*
X15911550Y-9117500D01*
X10803718Y-7996598D02*
X10803718Y-7961242D01*
X10768362Y-7961242D01*
X10768362Y-7996598D01*
X10803718Y-7996598D01*
X10809012Y-12041303D02*
X10809012Y-12005948D01*
X10773657Y-12005948D01*
X10773657Y-12041303D01*
X10809012Y-12041303D01*
X10874012Y-7826892D02*
X10874012Y-7791537D01*
X10838657Y-7791537D01*
X10838657Y-7826892D01*
X10874012Y-7826892D01*
X10874012Y-8166303D02*
X10874012Y-8130948D01*
X10838657Y-8130948D01*
X10838657Y-8166303D01*
X10874012Y-8166303D01*
X10879307Y-11871598D02*
X10879307Y-11836242D01*
X10843951Y-11836242D01*
X10843951Y-11871598D01*
X10879307Y-11871598D01*
X10879307Y-12211009D02*
X10879307Y-12175653D01*
X10843951Y-12175653D01*
X10843951Y-12211009D01*
X10879307Y-12211009D01*
X11043718Y-7756598D02*
X11043718Y-7721242D01*
X11008362Y-7721242D01*
X11008362Y-7756598D01*
X11043718Y-7756598D01*
X11043718Y-8236598D02*
X11043718Y-8201242D01*
X11008362Y-8201242D01*
X11008362Y-8236598D01*
X11043718Y-8236598D01*
X11049012Y-11801303D02*
X11049012Y-11765948D01*
X11013657Y-11765948D01*
X11013657Y-11801303D01*
X11049012Y-11801303D01*
X11049012Y-12281303D02*
X11049012Y-12245948D01*
X11013657Y-12245948D01*
X11013657Y-12281303D01*
X11049012Y-12281303D01*
X11213423Y-7826892D02*
X11213423Y-7791537D01*
X11178068Y-7791537D01*
X11178068Y-7826892D01*
X11213423Y-7826892D01*
X11213423Y-8166303D02*
X11213423Y-8130948D01*
X11178068Y-8130948D01*
X11178068Y-8166303D01*
X11213423Y-8166303D01*
X11218718Y-11871598D02*
X11218718Y-11836242D01*
X11183362Y-11836242D01*
X11183362Y-11871598D01*
X11218718Y-11871598D01*
X11218718Y-12211009D02*
X11218718Y-12175653D01*
X11183362Y-12175653D01*
X11183362Y-12211009D01*
X11218718Y-12211009D01*
X11283718Y-7996598D02*
X11283718Y-7961242D01*
X11248362Y-7961242D01*
X11248362Y-7996598D01*
X11283718Y-7996598D01*
X11289012Y-12041303D02*
X11289012Y-12005948D01*
X11253657Y-12005948D01*
X11253657Y-12041303D01*
X11289012Y-12041303D01*
X18828678Y-8001678D02*
X18828678Y-7966322D01*
X18793322Y-7966322D01*
X18793322Y-8001678D01*
X18828678Y-8001678D01*
X18828718Y-12046598D02*
X18828718Y-12011242D01*
X18793362Y-12011242D01*
X18793362Y-12046598D01*
X18828718Y-12046598D01*
X18898972Y-7831972D02*
X18898972Y-7796617D01*
X18863617Y-7796617D01*
X18863617Y-7831972D01*
X18898972Y-7831972D01*
X18898972Y-8171383D02*
X18898972Y-8136028D01*
X18863617Y-8136028D01*
X18863617Y-8171383D01*
X18898972Y-8171383D01*
X18899012Y-11876892D02*
X18899012Y-11841537D01*
X18863657Y-11841537D01*
X18863657Y-11876892D01*
X18899012Y-11876892D01*
X18899012Y-12216303D02*
X18899012Y-12180948D01*
X18863657Y-12180948D01*
X18863657Y-12216303D01*
X18899012Y-12216303D01*
X19068678Y-7761678D02*
X19068678Y-7726322D01*
X19033322Y-7726322D01*
X19033322Y-7761678D01*
X19068678Y-7761678D01*
X19068678Y-8241678D02*
X19068678Y-8206322D01*
X19033322Y-8206322D01*
X19033322Y-8241678D01*
X19068678Y-8241678D01*
X19068718Y-11806598D02*
X19068718Y-11771242D01*
X19033362Y-11771242D01*
X19033362Y-11806598D01*
X19068718Y-11806598D01*
X19068718Y-12286598D02*
X19068718Y-12251242D01*
X19033362Y-12251242D01*
X19033362Y-12286598D01*
X19068718Y-12286598D01*
X19238383Y-7831972D02*
X19238383Y-7796617D01*
X19203028Y-7796617D01*
X19203028Y-7831972D01*
X19238383Y-7831972D01*
X19238383Y-8171383D02*
X19238383Y-8136028D01*
X19203028Y-8136028D01*
X19203028Y-8171383D01*
X19238383Y-8171383D01*
X19238423Y-11876892D02*
X19238423Y-11841537D01*
X19203068Y-11841537D01*
X19203068Y-11876892D01*
X19238423Y-11876892D01*
X19238423Y-12216303D02*
X19238423Y-12180948D01*
X19203068Y-12180948D01*
X19203068Y-12216303D01*
X19238423Y-12216303D01*
X19308678Y-8001678D02*
X19308678Y-7966322D01*
X19273322Y-7966322D01*
X19273322Y-8001678D01*
X19308678Y-8001678D01*
X19308718Y-12046598D02*
X19308718Y-12011242D01*
X19273362Y-12011242D01*
X19273362Y-12046598D01*
X19308718Y-12046598D01*
X11980000Y-8790000D02*
X12030000Y-8740000D01*
X11980000Y-8690000D01*
X11930000Y-8740000D01*
X11980000Y-8790000D01*
X12230000Y-8790000D02*
X12280000Y-8740000D01*
X12230000Y-8690000D01*
X12180000Y-8740000D01*
X12230000Y-8790000D01*
X12480000Y-8790000D02*
X12530000Y-8740000D01*
X12480000Y-8690000D01*
X12430000Y-8740000D01*
X12480000Y-8790000D01*
X12730000Y-8790000D02*
X12780000Y-8740000D01*
X12730000Y-8690000D01*
X12680000Y-8740000D01*
X12730000Y-8790000D01*
X13172500Y-10490000D02*
X13222500Y-10440000D01*
X13172500Y-10390000D01*
X13122500Y-10440000D01*
X13172500Y-10490000D01*
X13422500Y-10490000D02*
X13472500Y-10440000D01*
X13422500Y-10390000D01*
X13372500Y-10440000D01*
X13422500Y-10490000D01*
X13605000Y-8792500D02*
X13655000Y-8742500D01*
X13605000Y-8692500D01*
X13555000Y-8742500D01*
X13605000Y-8792500D01*
X13672500Y-10490000D02*
X13722500Y-10440000D01*
X13672500Y-10390000D01*
X13622500Y-10440000D01*
X13672500Y-10490000D01*
X13855000Y-8792500D02*
X13905000Y-8742500D01*
X13855000Y-8692500D01*
X13805000Y-8742500D01*
X13855000Y-8792500D01*
X13922500Y-10490000D02*
X13972500Y-10440000D01*
X13922500Y-10390000D01*
X13872500Y-10440000D01*
X13922500Y-10490000D01*
X14105000Y-8792500D02*
X14155000Y-8742500D01*
X14105000Y-8692500D01*
X14055000Y-8742500D01*
X14105000Y-8792500D01*
X14355000Y-8792500D02*
X14405000Y-8742500D01*
X14355000Y-8692500D01*
X14305000Y-8742500D01*
X14355000Y-8792500D01*
X14825000Y-10482500D02*
X14875000Y-10432500D01*
X14825000Y-10382500D01*
X14775000Y-10432500D01*
X14825000Y-10482500D01*
X15075000Y-10482500D02*
X15125000Y-10432500D01*
X15075000Y-10382500D01*
X15025000Y-10432500D01*
X15075000Y-10482500D01*
X15248750Y-8782500D02*
X15298750Y-8732500D01*
X15248750Y-8682500D01*
X15198750Y-8732500D01*
X15248750Y-8782500D01*
X15325000Y-10482500D02*
X15375000Y-10432500D01*
X15325000Y-10382500D01*
X15275000Y-10432500D01*
X15325000Y-10482500D01*
X15498750Y-8782500D02*
X15548750Y-8732500D01*
X15498750Y-8682500D01*
X15448750Y-8732500D01*
X15498750Y-8782500D01*
X15575000Y-10482500D02*
X15625000Y-10432500D01*
X15575000Y-10382500D01*
X15525000Y-10432500D01*
X15575000Y-10482500D01*
X15748750Y-8782500D02*
X15798750Y-8732500D01*
X15748750Y-8682500D01*
X15698750Y-8732500D01*
X15748750Y-8782500D01*
X15998750Y-8782500D02*
X16048750Y-8732500D01*
X15998750Y-8682500D01*
X15948750Y-8732500D01*
X15998750Y-8782500D01*
D13*
X11198980Y-10580560D02*
X11328980Y-10710560D01*
X11328980Y-10580560D02*
X11198980Y-10710560D01*
X11328980Y-10645560D02*
G75*
G02*
X11198980Y-10645560I-65000J0D01*
G01*
X11198980Y-10645560D02*
G75*
G02*
X11328980Y-10645560I65000J0D01*
G01*
X11198980Y-11080560D02*
X11328980Y-11210560D01*
X11328980Y-11080560D02*
X11198980Y-11210560D01*
X11328980Y-11145560D02*
G75*
G02*
X11198980Y-11145560I-65000J0D01*
G01*
X11198980Y-11145560D02*
G75*
G02*
X11328980Y-11145560I65000J0D01*
G01*
D14*
X18749910Y-10458910D02*
X18920090Y-10629090D01*
X18920090Y-10458910D02*
X18749910Y-10629090D01*
X18835000Y-10458910D02*
X18835000Y-10629090D01*
X18749910Y-10544000D02*
X18920090Y-10544000D01*
X18749910Y-10966910D02*
X18920090Y-11137090D01*
X18920090Y-10966910D02*
X18749910Y-11137090D01*
X18835000Y-10966910D02*
X18835000Y-11137090D01*
X18749910Y-11052000D02*
X18920090Y-11052000D01*
X19003910Y-10712910D02*
X19174090Y-10883090D01*
X19174090Y-10712910D02*
X19003910Y-10883090D01*
X19089000Y-10712910D02*
X19089000Y-10883090D01*
X19003910Y-10798000D02*
X19174090Y-10798000D01*
X19257910Y-10458910D02*
X19428090Y-10629090D01*
X19428090Y-10458910D02*
X19257910Y-10629090D01*
X19343000Y-10458910D02*
X19343000Y-10629090D01*
X19257910Y-10544000D02*
X19428090Y-10544000D01*
X19257910Y-10966910D02*
X19428090Y-11137090D01*
X19428090Y-10966910D02*
X19257910Y-11137090D01*
X19343000Y-10966910D02*
X19343000Y-11137090D01*
X19257910Y-11052000D02*
X19428090Y-11052000D01*
D15*
X10866040Y-7818920D02*
X11186040Y-8138920D01*
X11186040Y-7818920D02*
X10866040Y-8138920D01*
X11139178Y-8092058D02*
X11139178Y-7865782D01*
X10912902Y-7865782D01*
X10912902Y-8092058D01*
X11139178Y-8092058D01*
X10871334Y-11863626D02*
X11191334Y-12183626D01*
X11191334Y-11863626D02*
X10871334Y-12183626D01*
X11144473Y-12136764D02*
X11144473Y-11910487D01*
X10918196Y-11910487D01*
X10918196Y-12136764D01*
X11144473Y-12136764D01*
X18891000Y-7824000D02*
X19211000Y-8144000D01*
X19211000Y-7824000D02*
X18891000Y-8144000D01*
X19164138Y-8097138D02*
X19164138Y-7870862D01*
X18937862Y-7870862D01*
X18937862Y-8097138D01*
X19164138Y-8097138D01*
X18891040Y-11868920D02*
X19211040Y-12188920D01*
X19211040Y-11868920D02*
X18891040Y-12188920D01*
X19164178Y-12142058D02*
X19164178Y-11915782D01*
X18937902Y-11915782D01*
X18937902Y-12142058D01*
X19164178Y-12142058D01*
D11*
X10784912Y-12842309D02*
X10784912Y-12642309D01*
X10784912Y-12642309D02*
X10832531Y-12642309D01*
X10832531Y-12642309D02*
X10861102Y-12651833D01*
X10861102Y-12651833D02*
X10880150Y-12670880D01*
X10880150Y-12670880D02*
X10889674Y-12689928D01*
X10889674Y-12689928D02*
X10899198Y-12728023D01*
X10899198Y-12728023D02*
X10899198Y-12756594D01*
X10899198Y-12756594D02*
X10889674Y-12794690D01*
X10889674Y-12794690D02*
X10880150Y-12813737D01*
X10880150Y-12813737D02*
X10861102Y-12832785D01*
X10861102Y-12832785D02*
X10832531Y-12842309D01*
X10832531Y-12842309D02*
X10784912Y-12842309D01*
X10984912Y-12842309D02*
X10984912Y-12708975D01*
X10984912Y-12747071D02*
X10994436Y-12728023D01*
X10994436Y-12728023D02*
X11003959Y-12718499D01*
X11003959Y-12718499D02*
X11023007Y-12708975D01*
X11023007Y-12708975D02*
X11042055Y-12708975D01*
X11108721Y-12842309D02*
X11108721Y-12708975D01*
X11108721Y-12642309D02*
X11099198Y-12651833D01*
X11099198Y-12651833D02*
X11108721Y-12661356D01*
X11108721Y-12661356D02*
X11118245Y-12651833D01*
X11118245Y-12651833D02*
X11108721Y-12642309D01*
X11108721Y-12642309D02*
X11108721Y-12661356D01*
X11232531Y-12842309D02*
X11213483Y-12832785D01*
X11213483Y-12832785D02*
X11203959Y-12813737D01*
X11203959Y-12813737D02*
X11203959Y-12642309D01*
X11337293Y-12842309D02*
X11318245Y-12832785D01*
X11318245Y-12832785D02*
X11308721Y-12813737D01*
X11308721Y-12813737D02*
X11308721Y-12642309D01*
X11565864Y-12842309D02*
X11565864Y-12642309D01*
X11565864Y-12642309D02*
X11632531Y-12785166D01*
X11632531Y-12785166D02*
X11699197Y-12642309D01*
X11699197Y-12642309D02*
X11699197Y-12842309D01*
X11880150Y-12842309D02*
X11880150Y-12737547D01*
X11880150Y-12737547D02*
X11870626Y-12718499D01*
X11870626Y-12718499D02*
X11851578Y-12708975D01*
X11851578Y-12708975D02*
X11813483Y-12708975D01*
X11813483Y-12708975D02*
X11794436Y-12718499D01*
X11880150Y-12832785D02*
X11861102Y-12842309D01*
X11861102Y-12842309D02*
X11813483Y-12842309D01*
X11813483Y-12842309D02*
X11794436Y-12832785D01*
X11794436Y-12832785D02*
X11784912Y-12813737D01*
X11784912Y-12813737D02*
X11784912Y-12794690D01*
X11784912Y-12794690D02*
X11794436Y-12775642D01*
X11794436Y-12775642D02*
X11813483Y-12766118D01*
X11813483Y-12766118D02*
X11861102Y-12766118D01*
X11861102Y-12766118D02*
X11880150Y-12756594D01*
X11975388Y-12708975D02*
X11975388Y-12908975D01*
X11975388Y-12718499D02*
X11994436Y-12708975D01*
X11994436Y-12708975D02*
X12032531Y-12708975D01*
X12032531Y-12708975D02*
X12051578Y-12718499D01*
X12051578Y-12718499D02*
X12061102Y-12728023D01*
X12061102Y-12728023D02*
X12070626Y-12747071D01*
X12070626Y-12747071D02*
X12070626Y-12804213D01*
X12070626Y-12804213D02*
X12061102Y-12823261D01*
X12061102Y-12823261D02*
X12051578Y-12832785D01*
X12051578Y-12832785D02*
X12032531Y-12842309D01*
X12032531Y-12842309D02*
X11994436Y-12842309D01*
X11994436Y-12842309D02*
X11975388Y-12832785D01*
X12156340Y-12823261D02*
X12165864Y-12832785D01*
X12165864Y-12832785D02*
X12156340Y-12842309D01*
X12156340Y-12842309D02*
X12146817Y-12832785D01*
X12146817Y-12832785D02*
X12156340Y-12823261D01*
X12156340Y-12823261D02*
X12156340Y-12842309D01*
X12156340Y-12718499D02*
X12165864Y-12728023D01*
X12165864Y-12728023D02*
X12156340Y-12737547D01*
X12156340Y-12737547D02*
X12146817Y-12728023D01*
X12146817Y-12728023D02*
X12156340Y-12718499D01*
X12156340Y-12718499D02*
X12156340Y-12737547D01*
D12*
X10504135Y-13160825D02*
X10524135Y-13180825D01*
X10524135Y-13160825D02*
X10504135Y-13180825D01*
D11*
X10823007Y-13062309D02*
X10842055Y-13062309D01*
X10842055Y-13062309D02*
X10861102Y-13071833D01*
X10861102Y-13071833D02*
X10870626Y-13081356D01*
X10870626Y-13081356D02*
X10880150Y-13100404D01*
X10880150Y-13100404D02*
X10889674Y-13138499D01*
X10889674Y-13138499D02*
X10889674Y-13186118D01*
X10889674Y-13186118D02*
X10880150Y-13224213D01*
X10880150Y-13224213D02*
X10870626Y-13243261D01*
X10870626Y-13243261D02*
X10861102Y-13252785D01*
X10861102Y-13252785D02*
X10842055Y-13262309D01*
X10842055Y-13262309D02*
X10823007Y-13262309D01*
X10823007Y-13262309D02*
X10803959Y-13252785D01*
X10803959Y-13252785D02*
X10794436Y-13243261D01*
X10794436Y-13243261D02*
X10784912Y-13224213D01*
X10784912Y-13224213D02*
X10775388Y-13186118D01*
X10775388Y-13186118D02*
X10775388Y-13138499D01*
X10775388Y-13138499D02*
X10784912Y-13100404D01*
X10784912Y-13100404D02*
X10794436Y-13081356D01*
X10794436Y-13081356D02*
X10803959Y-13071833D01*
X10803959Y-13071833D02*
X10823007Y-13062309D01*
X10975388Y-13243261D02*
X10984912Y-13252785D01*
X10984912Y-13252785D02*
X10975388Y-13262309D01*
X10975388Y-13262309D02*
X10965864Y-13252785D01*
X10965864Y-13252785D02*
X10975388Y-13243261D01*
X10975388Y-13243261D02*
X10975388Y-13262309D01*
X11061102Y-13081356D02*
X11070626Y-13071833D01*
X11070626Y-13071833D02*
X11089674Y-13062309D01*
X11089674Y-13062309D02*
X11137293Y-13062309D01*
X11137293Y-13062309D02*
X11156340Y-13071833D01*
X11156340Y-13071833D02*
X11165864Y-13081356D01*
X11165864Y-13081356D02*
X11175388Y-13100404D01*
X11175388Y-13100404D02*
X11175388Y-13119452D01*
X11175388Y-13119452D02*
X11165864Y-13148023D01*
X11165864Y-13148023D02*
X11051579Y-13262309D01*
X11051579Y-13262309D02*
X11175388Y-13262309D01*
X11299197Y-13062309D02*
X11318245Y-13062309D01*
X11318245Y-13062309D02*
X11337293Y-13071833D01*
X11337293Y-13071833D02*
X11346817Y-13081356D01*
X11346817Y-13081356D02*
X11356340Y-13100404D01*
X11356340Y-13100404D02*
X11365864Y-13138499D01*
X11365864Y-13138499D02*
X11365864Y-13186118D01*
X11365864Y-13186118D02*
X11356340Y-13224213D01*
X11356340Y-13224213D02*
X11346817Y-13243261D01*
X11346817Y-13243261D02*
X11337293Y-13252785D01*
X11337293Y-13252785D02*
X11318245Y-13262309D01*
X11318245Y-13262309D02*
X11299197Y-13262309D01*
X11299197Y-13262309D02*
X11280150Y-13252785D01*
X11280150Y-13252785D02*
X11270626Y-13243261D01*
X11270626Y-13243261D02*
X11261102Y-13224213D01*
X11261102Y-13224213D02*
X11251578Y-13186118D01*
X11251578Y-13186118D02*
X11251578Y-13138499D01*
X11251578Y-13138499D02*
X11261102Y-13100404D01*
X11261102Y-13100404D02*
X11270626Y-13081356D01*
X11270626Y-13081356D02*
X11280150Y-13071833D01*
X11280150Y-13071833D02*
X11299197Y-13062309D01*
X11489674Y-13062309D02*
X11508721Y-13062309D01*
X11508721Y-13062309D02*
X11527769Y-13071833D01*
X11527769Y-13071833D02*
X11537293Y-13081356D01*
X11537293Y-13081356D02*
X11546817Y-13100404D01*
X11546817Y-13100404D02*
X11556340Y-13138499D01*
X11556340Y-13138499D02*
X11556340Y-13186118D01*
X11556340Y-13186118D02*
X11546817Y-13224213D01*
X11546817Y-13224213D02*
X11537293Y-13243261D01*
X11537293Y-13243261D02*
X11527769Y-13252785D01*
X11527769Y-13252785D02*
X11508721Y-13262309D01*
X11508721Y-13262309D02*
X11489674Y-13262309D01*
X11489674Y-13262309D02*
X11470626Y-13252785D01*
X11470626Y-13252785D02*
X11461102Y-13243261D01*
X11461102Y-13243261D02*
X11451578Y-13224213D01*
X11451578Y-13224213D02*
X11442055Y-13186118D01*
X11442055Y-13186118D02*
X11442055Y-13138499D01*
X11442055Y-13138499D02*
X11451578Y-13100404D01*
X11451578Y-13100404D02*
X11461102Y-13081356D01*
X11461102Y-13081356D02*
X11470626Y-13071833D01*
X11470626Y-13071833D02*
X11489674Y-13062309D01*
X11642055Y-13262309D02*
X11642055Y-13128975D01*
X11642055Y-13148023D02*
X11651578Y-13138499D01*
X11651578Y-13138499D02*
X11670626Y-13128975D01*
X11670626Y-13128975D02*
X11699198Y-13128975D01*
X11699198Y-13128975D02*
X11718245Y-13138499D01*
X11718245Y-13138499D02*
X11727769Y-13157547D01*
X11727769Y-13157547D02*
X11727769Y-13262309D01*
X11727769Y-13157547D02*
X11737293Y-13138499D01*
X11737293Y-13138499D02*
X11756340Y-13128975D01*
X11756340Y-13128975D02*
X11784912Y-13128975D01*
X11784912Y-13128975D02*
X11803959Y-13138499D01*
X11803959Y-13138499D02*
X11813483Y-13157547D01*
X11813483Y-13157547D02*
X11813483Y-13262309D01*
X11908721Y-13262309D02*
X11908721Y-13128975D01*
X11908721Y-13148023D02*
X11918245Y-13138499D01*
X11918245Y-13138499D02*
X11937293Y-13128975D01*
X11937293Y-13128975D02*
X11965864Y-13128975D01*
X11965864Y-13128975D02*
X11984912Y-13138499D01*
X11984912Y-13138499D02*
X11994436Y-13157547D01*
X11994436Y-13157547D02*
X11994436Y-13262309D01*
X11994436Y-13157547D02*
X12003959Y-13138499D01*
X12003959Y-13138499D02*
X12023007Y-13128975D01*
X12023007Y-13128975D02*
X12051578Y-13128975D01*
X12051578Y-13128975D02*
X12070626Y-13138499D01*
X12070626Y-13138499D02*
X12080150Y-13157547D01*
X12080150Y-13157547D02*
X12080150Y-13262309D01*
X12470626Y-13052785D02*
X12299198Y-13309928D01*
X12727769Y-13062309D02*
X12746817Y-13062309D01*
X12746817Y-13062309D02*
X12765864Y-13071833D01*
X12765864Y-13071833D02*
X12775388Y-13081356D01*
X12775388Y-13081356D02*
X12784912Y-13100404D01*
X12784912Y-13100404D02*
X12794436Y-13138499D01*
X12794436Y-13138499D02*
X12794436Y-13186118D01*
X12794436Y-13186118D02*
X12784912Y-13224213D01*
X12784912Y-13224213D02*
X12775388Y-13243261D01*
X12775388Y-13243261D02*
X12765864Y-13252785D01*
X12765864Y-13252785D02*
X12746817Y-13262309D01*
X12746817Y-13262309D02*
X12727769Y-13262309D01*
X12727769Y-13262309D02*
X12708721Y-13252785D01*
X12708721Y-13252785D02*
X12699198Y-13243261D01*
X12699198Y-13243261D02*
X12689674Y-13224213D01*
X12689674Y-13224213D02*
X12680150Y-13186118D01*
X12680150Y-13186118D02*
X12680150Y-13138499D01*
X12680150Y-13138499D02*
X12689674Y-13100404D01*
X12689674Y-13100404D02*
X12699198Y-13081356D01*
X12699198Y-13081356D02*
X12708721Y-13071833D01*
X12708721Y-13071833D02*
X12727769Y-13062309D01*
X12880150Y-13243261D02*
X12889674Y-13252785D01*
X12889674Y-13252785D02*
X12880150Y-13262309D01*
X12880150Y-13262309D02*
X12870626Y-13252785D01*
X12870626Y-13252785D02*
X12880150Y-13243261D01*
X12880150Y-13243261D02*
X12880150Y-13262309D01*
X13013483Y-13062309D02*
X13032531Y-13062309D01*
X13032531Y-13062309D02*
X13051579Y-13071833D01*
X13051579Y-13071833D02*
X13061102Y-13081356D01*
X13061102Y-13081356D02*
X13070626Y-13100404D01*
X13070626Y-13100404D02*
X13080150Y-13138499D01*
X13080150Y-13138499D02*
X13080150Y-13186118D01*
X13080150Y-13186118D02*
X13070626Y-13224213D01*
X13070626Y-13224213D02*
X13061102Y-13243261D01*
X13061102Y-13243261D02*
X13051579Y-13252785D01*
X13051579Y-13252785D02*
X13032531Y-13262309D01*
X13032531Y-13262309D02*
X13013483Y-13262309D01*
X13013483Y-13262309D02*
X12994436Y-13252785D01*
X12994436Y-13252785D02*
X12984912Y-13243261D01*
X12984912Y-13243261D02*
X12975388Y-13224213D01*
X12975388Y-13224213D02*
X12965864Y-13186118D01*
X12965864Y-13186118D02*
X12965864Y-13138499D01*
X12965864Y-13138499D02*
X12975388Y-13100404D01*
X12975388Y-13100404D02*
X12984912Y-13081356D01*
X12984912Y-13081356D02*
X12994436Y-13071833D01*
X12994436Y-13071833D02*
X13013483Y-13062309D01*
X13203960Y-13062309D02*
X13223007Y-13062309D01*
X13223007Y-13062309D02*
X13242055Y-13071833D01*
X13242055Y-13071833D02*
X13251579Y-13081356D01*
X13251579Y-13081356D02*
X13261102Y-13100404D01*
X13261102Y-13100404D02*
X13270626Y-13138499D01*
X13270626Y-13138499D02*
X13270626Y-13186118D01*
X13270626Y-13186118D02*
X13261102Y-13224213D01*
X13261102Y-13224213D02*
X13251579Y-13243261D01*
X13251579Y-13243261D02*
X13242055Y-13252785D01*
X13242055Y-13252785D02*
X13223007Y-13262309D01*
X13223007Y-13262309D02*
X13203960Y-13262309D01*
X13203960Y-13262309D02*
X13184912Y-13252785D01*
X13184912Y-13252785D02*
X13175388Y-13243261D01*
X13175388Y-13243261D02*
X13165864Y-13224213D01*
X13165864Y-13224213D02*
X13156341Y-13186118D01*
X13156341Y-13186118D02*
X13156341Y-13138499D01*
X13156341Y-13138499D02*
X13165864Y-13100404D01*
X13165864Y-13100404D02*
X13175388Y-13081356D01*
X13175388Y-13081356D02*
X13184912Y-13071833D01*
X13184912Y-13071833D02*
X13203960Y-13062309D01*
X13337293Y-13062309D02*
X13470626Y-13062309D01*
X13470626Y-13062309D02*
X13384912Y-13262309D01*
X13556341Y-13262309D02*
X13594436Y-13262309D01*
X13594436Y-13262309D02*
X13613483Y-13252785D01*
X13613483Y-13252785D02*
X13623007Y-13243261D01*
X13623007Y-13243261D02*
X13642055Y-13214690D01*
X13642055Y-13214690D02*
X13651579Y-13176594D01*
X13651579Y-13176594D02*
X13651579Y-13100404D01*
X13651579Y-13100404D02*
X13642055Y-13081356D01*
X13642055Y-13081356D02*
X13632531Y-13071833D01*
X13632531Y-13071833D02*
X13613483Y-13062309D01*
X13613483Y-13062309D02*
X13575388Y-13062309D01*
X13575388Y-13062309D02*
X13556341Y-13071833D01*
X13556341Y-13071833D02*
X13546817Y-13081356D01*
X13546817Y-13081356D02*
X13537293Y-13100404D01*
X13537293Y-13100404D02*
X13537293Y-13148023D01*
X13537293Y-13148023D02*
X13546817Y-13167071D01*
X13546817Y-13167071D02*
X13556341Y-13176594D01*
X13556341Y-13176594D02*
X13575388Y-13186118D01*
X13575388Y-13186118D02*
X13613483Y-13186118D01*
X13613483Y-13186118D02*
X13632531Y-13176594D01*
X13632531Y-13176594D02*
X13642055Y-13167071D01*
X13642055Y-13167071D02*
X13651579Y-13148023D01*
X13727769Y-13062309D02*
X13727769Y-13100404D01*
X13803960Y-13062309D02*
X13803960Y-13100404D01*
X14099198Y-13338499D02*
X14089674Y-13328975D01*
X14089674Y-13328975D02*
X14070626Y-13300404D01*
X14070626Y-13300404D02*
X14061103Y-13281356D01*
X14061103Y-13281356D02*
X14051579Y-13252785D01*
X14051579Y-13252785D02*
X14042055Y-13205166D01*
X14042055Y-13205166D02*
X14042055Y-13167071D01*
X14042055Y-13167071D02*
X14051579Y-13119452D01*
X14051579Y-13119452D02*
X14061103Y-13090880D01*
X14061103Y-13090880D02*
X14070626Y-13071833D01*
X14070626Y-13071833D02*
X14089674Y-13043261D01*
X14089674Y-13043261D02*
X14099198Y-13033737D01*
X14280150Y-13262309D02*
X14165864Y-13262309D01*
X14223007Y-13262309D02*
X14223007Y-13062309D01*
X14223007Y-13062309D02*
X14203960Y-13090880D01*
X14203960Y-13090880D02*
X14184912Y-13109928D01*
X14184912Y-13109928D02*
X14165864Y-13119452D01*
X14346817Y-13062309D02*
X14470626Y-13062309D01*
X14470626Y-13062309D02*
X14403960Y-13138499D01*
X14403960Y-13138499D02*
X14432531Y-13138499D01*
X14432531Y-13138499D02*
X14451579Y-13148023D01*
X14451579Y-13148023D02*
X14461103Y-13157547D01*
X14461103Y-13157547D02*
X14470626Y-13176594D01*
X14470626Y-13176594D02*
X14470626Y-13224213D01*
X14470626Y-13224213D02*
X14461103Y-13243261D01*
X14461103Y-13243261D02*
X14451579Y-13252785D01*
X14451579Y-13252785D02*
X14432531Y-13262309D01*
X14432531Y-13262309D02*
X14375388Y-13262309D01*
X14375388Y-13262309D02*
X14356341Y-13252785D01*
X14356341Y-13252785D02*
X14346817Y-13243261D01*
X14537293Y-13062309D02*
X14670626Y-13062309D01*
X14670626Y-13062309D02*
X14584912Y-13262309D01*
X14899198Y-13262309D02*
X14899198Y-13062309D01*
X14984912Y-13262309D02*
X14984912Y-13157547D01*
X14984912Y-13157547D02*
X14975388Y-13138499D01*
X14975388Y-13138499D02*
X14956341Y-13128975D01*
X14956341Y-13128975D02*
X14927769Y-13128975D01*
X14927769Y-13128975D02*
X14908722Y-13138499D01*
X14908722Y-13138499D02*
X14899198Y-13148023D01*
X15108722Y-13262309D02*
X15089674Y-13252785D01*
X15089674Y-13252785D02*
X15080150Y-13243261D01*
X15080150Y-13243261D02*
X15070626Y-13224213D01*
X15070626Y-13224213D02*
X15070626Y-13167071D01*
X15070626Y-13167071D02*
X15080150Y-13148023D01*
X15080150Y-13148023D02*
X15089674Y-13138499D01*
X15089674Y-13138499D02*
X15108722Y-13128975D01*
X15108722Y-13128975D02*
X15137293Y-13128975D01*
X15137293Y-13128975D02*
X15156341Y-13138499D01*
X15156341Y-13138499D02*
X15165865Y-13148023D01*
X15165865Y-13148023D02*
X15175388Y-13167071D01*
X15175388Y-13167071D02*
X15175388Y-13224213D01*
X15175388Y-13224213D02*
X15165865Y-13243261D01*
X15165865Y-13243261D02*
X15156341Y-13252785D01*
X15156341Y-13252785D02*
X15137293Y-13262309D01*
X15137293Y-13262309D02*
X15108722Y-13262309D01*
X15289674Y-13262309D02*
X15270626Y-13252785D01*
X15270626Y-13252785D02*
X15261103Y-13233737D01*
X15261103Y-13233737D02*
X15261103Y-13062309D01*
X15442055Y-13252785D02*
X15423007Y-13262309D01*
X15423007Y-13262309D02*
X15384912Y-13262309D01*
X15384912Y-13262309D02*
X15365865Y-13252785D01*
X15365865Y-13252785D02*
X15356341Y-13233737D01*
X15356341Y-13233737D02*
X15356341Y-13157547D01*
X15356341Y-13157547D02*
X15365865Y-13138499D01*
X15365865Y-13138499D02*
X15384912Y-13128975D01*
X15384912Y-13128975D02*
X15423007Y-13128975D01*
X15423007Y-13128975D02*
X15442055Y-13138499D01*
X15442055Y-13138499D02*
X15451579Y-13157547D01*
X15451579Y-13157547D02*
X15451579Y-13176594D01*
X15451579Y-13176594D02*
X15356341Y-13195642D01*
X15527769Y-13252785D02*
X15546817Y-13262309D01*
X15546817Y-13262309D02*
X15584912Y-13262309D01*
X15584912Y-13262309D02*
X15603960Y-13252785D01*
X15603960Y-13252785D02*
X15613484Y-13233737D01*
X15613484Y-13233737D02*
X15613484Y-13224213D01*
X15613484Y-13224213D02*
X15603960Y-13205166D01*
X15603960Y-13205166D02*
X15584912Y-13195642D01*
X15584912Y-13195642D02*
X15556341Y-13195642D01*
X15556341Y-13195642D02*
X15537293Y-13186118D01*
X15537293Y-13186118D02*
X15527769Y-13167071D01*
X15527769Y-13167071D02*
X15527769Y-13157547D01*
X15527769Y-13157547D02*
X15537293Y-13138499D01*
X15537293Y-13138499D02*
X15556341Y-13128975D01*
X15556341Y-13128975D02*
X15584912Y-13128975D01*
X15584912Y-13128975D02*
X15603960Y-13138499D01*
X15680150Y-13338499D02*
X15689674Y-13328975D01*
X15689674Y-13328975D02*
X15708722Y-13300404D01*
X15708722Y-13300404D02*
X15718246Y-13281356D01*
X15718246Y-13281356D02*
X15727769Y-13252785D01*
X15727769Y-13252785D02*
X15737293Y-13205166D01*
X15737293Y-13205166D02*
X15737293Y-13167071D01*
X15737293Y-13167071D02*
X15727769Y-13119452D01*
X15727769Y-13119452D02*
X15718246Y-13090880D01*
X15718246Y-13090880D02*
X15708722Y-13071833D01*
X15708722Y-13071833D02*
X15689674Y-13043261D01*
X15689674Y-13043261D02*
X15680150Y-13033737D01*
D12*
X10524135Y-13434825D02*
G75*
G02*
X10491115Y-13434825I-16510J0D01*
G01*
X10491115Y-13434825D02*
G75*
G02*
X10524135Y-13434825I16510J0D01*
G01*
D11*
X10823007Y-13326309D02*
X10842055Y-13326309D01*
X10842055Y-13326309D02*
X10861102Y-13335833D01*
X10861102Y-13335833D02*
X10870626Y-13345356D01*
X10870626Y-13345356D02*
X10880150Y-13364404D01*
X10880150Y-13364404D02*
X10889674Y-13402499D01*
X10889674Y-13402499D02*
X10889674Y-13450118D01*
X10889674Y-13450118D02*
X10880150Y-13488213D01*
X10880150Y-13488213D02*
X10870626Y-13507261D01*
X10870626Y-13507261D02*
X10861102Y-13516785D01*
X10861102Y-13516785D02*
X10842055Y-13526309D01*
X10842055Y-13526309D02*
X10823007Y-13526309D01*
X10823007Y-13526309D02*
X10803959Y-13516785D01*
X10803959Y-13516785D02*
X10794436Y-13507261D01*
X10794436Y-13507261D02*
X10784912Y-13488213D01*
X10784912Y-13488213D02*
X10775388Y-13450118D01*
X10775388Y-13450118D02*
X10775388Y-13402499D01*
X10775388Y-13402499D02*
X10784912Y-13364404D01*
X10784912Y-13364404D02*
X10794436Y-13345356D01*
X10794436Y-13345356D02*
X10803959Y-13335833D01*
X10803959Y-13335833D02*
X10823007Y-13326309D01*
X10975388Y-13507261D02*
X10984912Y-13516785D01*
X10984912Y-13516785D02*
X10975388Y-13526309D01*
X10975388Y-13526309D02*
X10965864Y-13516785D01*
X10965864Y-13516785D02*
X10975388Y-13507261D01*
X10975388Y-13507261D02*
X10975388Y-13526309D01*
X11051579Y-13326309D02*
X11175388Y-13326309D01*
X11175388Y-13326309D02*
X11108721Y-13402499D01*
X11108721Y-13402499D02*
X11137293Y-13402499D01*
X11137293Y-13402499D02*
X11156340Y-13412023D01*
X11156340Y-13412023D02*
X11165864Y-13421547D01*
X11165864Y-13421547D02*
X11175388Y-13440594D01*
X11175388Y-13440594D02*
X11175388Y-13488213D01*
X11175388Y-13488213D02*
X11165864Y-13507261D01*
X11165864Y-13507261D02*
X11156340Y-13516785D01*
X11156340Y-13516785D02*
X11137293Y-13526309D01*
X11137293Y-13526309D02*
X11080150Y-13526309D01*
X11080150Y-13526309D02*
X11061102Y-13516785D01*
X11061102Y-13516785D02*
X11051579Y-13507261D01*
X11242055Y-13326309D02*
X11365864Y-13326309D01*
X11365864Y-13326309D02*
X11299197Y-13402499D01*
X11299197Y-13402499D02*
X11327769Y-13402499D01*
X11327769Y-13402499D02*
X11346817Y-13412023D01*
X11346817Y-13412023D02*
X11356340Y-13421547D01*
X11356340Y-13421547D02*
X11365864Y-13440594D01*
X11365864Y-13440594D02*
X11365864Y-13488213D01*
X11365864Y-13488213D02*
X11356340Y-13507261D01*
X11356340Y-13507261D02*
X11346817Y-13516785D01*
X11346817Y-13516785D02*
X11327769Y-13526309D01*
X11327769Y-13526309D02*
X11270626Y-13526309D01*
X11270626Y-13526309D02*
X11251578Y-13516785D01*
X11251578Y-13516785D02*
X11242055Y-13507261D01*
X11489674Y-13326309D02*
X11508721Y-13326309D01*
X11508721Y-13326309D02*
X11527769Y-13335833D01*
X11527769Y-13335833D02*
X11537293Y-13345356D01*
X11537293Y-13345356D02*
X11546817Y-13364404D01*
X11546817Y-13364404D02*
X11556340Y-13402499D01*
X11556340Y-13402499D02*
X11556340Y-13450118D01*
X11556340Y-13450118D02*
X11546817Y-13488213D01*
X11546817Y-13488213D02*
X11537293Y-13507261D01*
X11537293Y-13507261D02*
X11527769Y-13516785D01*
X11527769Y-13516785D02*
X11508721Y-13526309D01*
X11508721Y-13526309D02*
X11489674Y-13526309D01*
X11489674Y-13526309D02*
X11470626Y-13516785D01*
X11470626Y-13516785D02*
X11461102Y-13507261D01*
X11461102Y-13507261D02*
X11451578Y-13488213D01*
X11451578Y-13488213D02*
X11442055Y-13450118D01*
X11442055Y-13450118D02*
X11442055Y-13402499D01*
X11442055Y-13402499D02*
X11451578Y-13364404D01*
X11451578Y-13364404D02*
X11461102Y-13345356D01*
X11461102Y-13345356D02*
X11470626Y-13335833D01*
X11470626Y-13335833D02*
X11489674Y-13326309D01*
X11642055Y-13526309D02*
X11642055Y-13392975D01*
X11642055Y-13412023D02*
X11651578Y-13402499D01*
X11651578Y-13402499D02*
X11670626Y-13392975D01*
X11670626Y-13392975D02*
X11699198Y-13392975D01*
X11699198Y-13392975D02*
X11718245Y-13402499D01*
X11718245Y-13402499D02*
X11727769Y-13421547D01*
X11727769Y-13421547D02*
X11727769Y-13526309D01*
X11727769Y-13421547D02*
X11737293Y-13402499D01*
X11737293Y-13402499D02*
X11756340Y-13392975D01*
X11756340Y-13392975D02*
X11784912Y-13392975D01*
X11784912Y-13392975D02*
X11803959Y-13402499D01*
X11803959Y-13402499D02*
X11813483Y-13421547D01*
X11813483Y-13421547D02*
X11813483Y-13526309D01*
X11908721Y-13526309D02*
X11908721Y-13392975D01*
X11908721Y-13412023D02*
X11918245Y-13402499D01*
X11918245Y-13402499D02*
X11937293Y-13392975D01*
X11937293Y-13392975D02*
X11965864Y-13392975D01*
X11965864Y-13392975D02*
X11984912Y-13402499D01*
X11984912Y-13402499D02*
X11994436Y-13421547D01*
X11994436Y-13421547D02*
X11994436Y-13526309D01*
X11994436Y-13421547D02*
X12003959Y-13402499D01*
X12003959Y-13402499D02*
X12023007Y-13392975D01*
X12023007Y-13392975D02*
X12051578Y-13392975D01*
X12051578Y-13392975D02*
X12070626Y-13402499D01*
X12070626Y-13402499D02*
X12080150Y-13421547D01*
X12080150Y-13421547D02*
X12080150Y-13526309D01*
X12470626Y-13316785D02*
X12299198Y-13573928D01*
X12727769Y-13326309D02*
X12746817Y-13326309D01*
X12746817Y-13326309D02*
X12765864Y-13335833D01*
X12765864Y-13335833D02*
X12775388Y-13345356D01*
X12775388Y-13345356D02*
X12784912Y-13364404D01*
X12784912Y-13364404D02*
X12794436Y-13402499D01*
X12794436Y-13402499D02*
X12794436Y-13450118D01*
X12794436Y-13450118D02*
X12784912Y-13488213D01*
X12784912Y-13488213D02*
X12775388Y-13507261D01*
X12775388Y-13507261D02*
X12765864Y-13516785D01*
X12765864Y-13516785D02*
X12746817Y-13526309D01*
X12746817Y-13526309D02*
X12727769Y-13526309D01*
X12727769Y-13526309D02*
X12708721Y-13516785D01*
X12708721Y-13516785D02*
X12699198Y-13507261D01*
X12699198Y-13507261D02*
X12689674Y-13488213D01*
X12689674Y-13488213D02*
X12680150Y-13450118D01*
X12680150Y-13450118D02*
X12680150Y-13402499D01*
X12680150Y-13402499D02*
X12689674Y-13364404D01*
X12689674Y-13364404D02*
X12699198Y-13345356D01*
X12699198Y-13345356D02*
X12708721Y-13335833D01*
X12708721Y-13335833D02*
X12727769Y-13326309D01*
X12880150Y-13507261D02*
X12889674Y-13516785D01*
X12889674Y-13516785D02*
X12880150Y-13526309D01*
X12880150Y-13526309D02*
X12870626Y-13516785D01*
X12870626Y-13516785D02*
X12880150Y-13507261D01*
X12880150Y-13507261D02*
X12880150Y-13526309D01*
X13013483Y-13326309D02*
X13032531Y-13326309D01*
X13032531Y-13326309D02*
X13051579Y-13335833D01*
X13051579Y-13335833D02*
X13061102Y-13345356D01*
X13061102Y-13345356D02*
X13070626Y-13364404D01*
X13070626Y-13364404D02*
X13080150Y-13402499D01*
X13080150Y-13402499D02*
X13080150Y-13450118D01*
X13080150Y-13450118D02*
X13070626Y-13488213D01*
X13070626Y-13488213D02*
X13061102Y-13507261D01*
X13061102Y-13507261D02*
X13051579Y-13516785D01*
X13051579Y-13516785D02*
X13032531Y-13526309D01*
X13032531Y-13526309D02*
X13013483Y-13526309D01*
X13013483Y-13526309D02*
X12994436Y-13516785D01*
X12994436Y-13516785D02*
X12984912Y-13507261D01*
X12984912Y-13507261D02*
X12975388Y-13488213D01*
X12975388Y-13488213D02*
X12965864Y-13450118D01*
X12965864Y-13450118D02*
X12965864Y-13402499D01*
X12965864Y-13402499D02*
X12975388Y-13364404D01*
X12975388Y-13364404D02*
X12984912Y-13345356D01*
X12984912Y-13345356D02*
X12994436Y-13335833D01*
X12994436Y-13335833D02*
X13013483Y-13326309D01*
X13270626Y-13526309D02*
X13156341Y-13526309D01*
X13213483Y-13526309D02*
X13213483Y-13326309D01*
X13213483Y-13326309D02*
X13194436Y-13354880D01*
X13194436Y-13354880D02*
X13175388Y-13373928D01*
X13175388Y-13373928D02*
X13156341Y-13383452D01*
X13337293Y-13326309D02*
X13461102Y-13326309D01*
X13461102Y-13326309D02*
X13394436Y-13402499D01*
X13394436Y-13402499D02*
X13423007Y-13402499D01*
X13423007Y-13402499D02*
X13442055Y-13412023D01*
X13442055Y-13412023D02*
X13451579Y-13421547D01*
X13451579Y-13421547D02*
X13461102Y-13440594D01*
X13461102Y-13440594D02*
X13461102Y-13488213D01*
X13461102Y-13488213D02*
X13451579Y-13507261D01*
X13451579Y-13507261D02*
X13442055Y-13516785D01*
X13442055Y-13516785D02*
X13423007Y-13526309D01*
X13423007Y-13526309D02*
X13365864Y-13526309D01*
X13365864Y-13526309D02*
X13346817Y-13516785D01*
X13346817Y-13516785D02*
X13337293Y-13507261D01*
X13584912Y-13326309D02*
X13603960Y-13326309D01*
X13603960Y-13326309D02*
X13623007Y-13335833D01*
X13623007Y-13335833D02*
X13632531Y-13345356D01*
X13632531Y-13345356D02*
X13642055Y-13364404D01*
X13642055Y-13364404D02*
X13651579Y-13402499D01*
X13651579Y-13402499D02*
X13651579Y-13450118D01*
X13651579Y-13450118D02*
X13642055Y-13488213D01*
X13642055Y-13488213D02*
X13632531Y-13507261D01*
X13632531Y-13507261D02*
X13623007Y-13516785D01*
X13623007Y-13516785D02*
X13603960Y-13526309D01*
X13603960Y-13526309D02*
X13584912Y-13526309D01*
X13584912Y-13526309D02*
X13565864Y-13516785D01*
X13565864Y-13516785D02*
X13556341Y-13507261D01*
X13556341Y-13507261D02*
X13546817Y-13488213D01*
X13546817Y-13488213D02*
X13537293Y-13450118D01*
X13537293Y-13450118D02*
X13537293Y-13402499D01*
X13537293Y-13402499D02*
X13546817Y-13364404D01*
X13546817Y-13364404D02*
X13556341Y-13345356D01*
X13556341Y-13345356D02*
X13565864Y-13335833D01*
X13565864Y-13335833D02*
X13584912Y-13326309D01*
X13727769Y-13326309D02*
X13727769Y-13364404D01*
X13803960Y-13326309D02*
X13803960Y-13364404D01*
X14099198Y-13602499D02*
X14089674Y-13592975D01*
X14089674Y-13592975D02*
X14070626Y-13564404D01*
X14070626Y-13564404D02*
X14061103Y-13545356D01*
X14061103Y-13545356D02*
X14051579Y-13516785D01*
X14051579Y-13516785D02*
X14042055Y-13469166D01*
X14042055Y-13469166D02*
X14042055Y-13431071D01*
X14042055Y-13431071D02*
X14051579Y-13383452D01*
X14051579Y-13383452D02*
X14061103Y-13354880D01*
X14061103Y-13354880D02*
X14070626Y-13335833D01*
X14070626Y-13335833D02*
X14089674Y-13307261D01*
X14089674Y-13307261D02*
X14099198Y-13297737D01*
X14280150Y-13526309D02*
X14165864Y-13526309D01*
X14223007Y-13526309D02*
X14223007Y-13326309D01*
X14223007Y-13326309D02*
X14203960Y-13354880D01*
X14203960Y-13354880D02*
X14184912Y-13373928D01*
X14184912Y-13373928D02*
X14165864Y-13383452D01*
X14356341Y-13345356D02*
X14365864Y-13335833D01*
X14365864Y-13335833D02*
X14384912Y-13326309D01*
X14384912Y-13326309D02*
X14432531Y-13326309D01*
X14432531Y-13326309D02*
X14451579Y-13335833D01*
X14451579Y-13335833D02*
X14461103Y-13345356D01*
X14461103Y-13345356D02*
X14470626Y-13364404D01*
X14470626Y-13364404D02*
X14470626Y-13383452D01*
X14470626Y-13383452D02*
X14461103Y-13412023D01*
X14461103Y-13412023D02*
X14346817Y-13526309D01*
X14346817Y-13526309D02*
X14470626Y-13526309D01*
X14642055Y-13326309D02*
X14603960Y-13326309D01*
X14603960Y-13326309D02*
X14584912Y-13335833D01*
X14584912Y-13335833D02*
X14575388Y-13345356D01*
X14575388Y-13345356D02*
X14556341Y-13373928D01*
X14556341Y-13373928D02*
X14546817Y-13412023D01*
X14546817Y-13412023D02*
X14546817Y-13488213D01*
X14546817Y-13488213D02*
X14556341Y-13507261D01*
X14556341Y-13507261D02*
X14565864Y-13516785D01*
X14565864Y-13516785D02*
X14584912Y-13526309D01*
X14584912Y-13526309D02*
X14623007Y-13526309D01*
X14623007Y-13526309D02*
X14642055Y-13516785D01*
X14642055Y-13516785D02*
X14651579Y-13507261D01*
X14651579Y-13507261D02*
X14661103Y-13488213D01*
X14661103Y-13488213D02*
X14661103Y-13440594D01*
X14661103Y-13440594D02*
X14651579Y-13421547D01*
X14651579Y-13421547D02*
X14642055Y-13412023D01*
X14642055Y-13412023D02*
X14623007Y-13402499D01*
X14623007Y-13402499D02*
X14584912Y-13402499D01*
X14584912Y-13402499D02*
X14565864Y-13412023D01*
X14565864Y-13412023D02*
X14556341Y-13421547D01*
X14556341Y-13421547D02*
X14546817Y-13440594D01*
X14899198Y-13526309D02*
X14899198Y-13326309D01*
X14984912Y-13526309D02*
X14984912Y-13421547D01*
X14984912Y-13421547D02*
X14975388Y-13402499D01*
X14975388Y-13402499D02*
X14956341Y-13392975D01*
X14956341Y-13392975D02*
X14927769Y-13392975D01*
X14927769Y-13392975D02*
X14908722Y-13402499D01*
X14908722Y-13402499D02*
X14899198Y-13412023D01*
X15108722Y-13526309D02*
X15089674Y-13516785D01*
X15089674Y-13516785D02*
X15080150Y-13507261D01*
X15080150Y-13507261D02*
X15070626Y-13488213D01*
X15070626Y-13488213D02*
X15070626Y-13431071D01*
X15070626Y-13431071D02*
X15080150Y-13412023D01*
X15080150Y-13412023D02*
X15089674Y-13402499D01*
X15089674Y-13402499D02*
X15108722Y-13392975D01*
X15108722Y-13392975D02*
X15137293Y-13392975D01*
X15137293Y-13392975D02*
X15156341Y-13402499D01*
X15156341Y-13402499D02*
X15165865Y-13412023D01*
X15165865Y-13412023D02*
X15175388Y-13431071D01*
X15175388Y-13431071D02*
X15175388Y-13488213D01*
X15175388Y-13488213D02*
X15165865Y-13507261D01*
X15165865Y-13507261D02*
X15156341Y-13516785D01*
X15156341Y-13516785D02*
X15137293Y-13526309D01*
X15137293Y-13526309D02*
X15108722Y-13526309D01*
X15289674Y-13526309D02*
X15270626Y-13516785D01*
X15270626Y-13516785D02*
X15261103Y-13497737D01*
X15261103Y-13497737D02*
X15261103Y-13326309D01*
X15442055Y-13516785D02*
X15423007Y-13526309D01*
X15423007Y-13526309D02*
X15384912Y-13526309D01*
X15384912Y-13526309D02*
X15365865Y-13516785D01*
X15365865Y-13516785D02*
X15356341Y-13497737D01*
X15356341Y-13497737D02*
X15356341Y-13421547D01*
X15356341Y-13421547D02*
X15365865Y-13402499D01*
X15365865Y-13402499D02*
X15384912Y-13392975D01*
X15384912Y-13392975D02*
X15423007Y-13392975D01*
X15423007Y-13392975D02*
X15442055Y-13402499D01*
X15442055Y-13402499D02*
X15451579Y-13421547D01*
X15451579Y-13421547D02*
X15451579Y-13440594D01*
X15451579Y-13440594D02*
X15356341Y-13459642D01*
X15527769Y-13516785D02*
X15546817Y-13526309D01*
X15546817Y-13526309D02*
X15584912Y-13526309D01*
X15584912Y-13526309D02*
X15603960Y-13516785D01*
X15603960Y-13516785D02*
X15613484Y-13497737D01*
X15613484Y-13497737D02*
X15613484Y-13488213D01*
X15613484Y-13488213D02*
X15603960Y-13469166D01*
X15603960Y-13469166D02*
X15584912Y-13459642D01*
X15584912Y-13459642D02*
X15556341Y-13459642D01*
X15556341Y-13459642D02*
X15537293Y-13450118D01*
X15537293Y-13450118D02*
X15527769Y-13431071D01*
X15527769Y-13431071D02*
X15527769Y-13421547D01*
X15527769Y-13421547D02*
X15537293Y-13402499D01*
X15537293Y-13402499D02*
X15556341Y-13392975D01*
X15556341Y-13392975D02*
X15584912Y-13392975D01*
X15584912Y-13392975D02*
X15603960Y-13402499D01*
X15680150Y-13602499D02*
X15689674Y-13592975D01*
X15689674Y-13592975D02*
X15708722Y-13564404D01*
X15708722Y-13564404D02*
X15718246Y-13545356D01*
X15718246Y-13545356D02*
X15727769Y-13516785D01*
X15727769Y-13516785D02*
X15737293Y-13469166D01*
X15737293Y-13469166D02*
X15737293Y-13431071D01*
X15737293Y-13431071D02*
X15727769Y-13383452D01*
X15727769Y-13383452D02*
X15718246Y-13354880D01*
X15718246Y-13354880D02*
X15708722Y-13335833D01*
X15708722Y-13335833D02*
X15689674Y-13307261D01*
X15689674Y-13307261D02*
X15680150Y-13297737D01*
D12*
X10505085Y-13679775D02*
X10505085Y-13717875D01*
X10486035Y-13698825D02*
X10524135Y-13698825D01*
D11*
X10823007Y-13590309D02*
X10842055Y-13590309D01*
X10842055Y-13590309D02*
X10861102Y-13599833D01*
X10861102Y-13599833D02*
X10870626Y-13609356D01*
X10870626Y-13609356D02*
X10880150Y-13628404D01*
X10880150Y-13628404D02*
X10889674Y-13666499D01*
X10889674Y-13666499D02*
X10889674Y-13714118D01*
X10889674Y-13714118D02*
X10880150Y-13752213D01*
X10880150Y-13752213D02*
X10870626Y-13771261D01*
X10870626Y-13771261D02*
X10861102Y-13780785D01*
X10861102Y-13780785D02*
X10842055Y-13790309D01*
X10842055Y-13790309D02*
X10823007Y-13790309D01*
X10823007Y-13790309D02*
X10803959Y-13780785D01*
X10803959Y-13780785D02*
X10794436Y-13771261D01*
X10794436Y-13771261D02*
X10784912Y-13752213D01*
X10784912Y-13752213D02*
X10775388Y-13714118D01*
X10775388Y-13714118D02*
X10775388Y-13666499D01*
X10775388Y-13666499D02*
X10784912Y-13628404D01*
X10784912Y-13628404D02*
X10794436Y-13609356D01*
X10794436Y-13609356D02*
X10803959Y-13599833D01*
X10803959Y-13599833D02*
X10823007Y-13590309D01*
X10975388Y-13771261D02*
X10984912Y-13780785D01*
X10984912Y-13780785D02*
X10975388Y-13790309D01*
X10975388Y-13790309D02*
X10965864Y-13780785D01*
X10965864Y-13780785D02*
X10975388Y-13771261D01*
X10975388Y-13771261D02*
X10975388Y-13790309D01*
X11051579Y-13590309D02*
X11175388Y-13590309D01*
X11175388Y-13590309D02*
X11108721Y-13666499D01*
X11108721Y-13666499D02*
X11137293Y-13666499D01*
X11137293Y-13666499D02*
X11156340Y-13676023D01*
X11156340Y-13676023D02*
X11165864Y-13685547D01*
X11165864Y-13685547D02*
X11175388Y-13704594D01*
X11175388Y-13704594D02*
X11175388Y-13752213D01*
X11175388Y-13752213D02*
X11165864Y-13771261D01*
X11165864Y-13771261D02*
X11156340Y-13780785D01*
X11156340Y-13780785D02*
X11137293Y-13790309D01*
X11137293Y-13790309D02*
X11080150Y-13790309D01*
X11080150Y-13790309D02*
X11061102Y-13780785D01*
X11061102Y-13780785D02*
X11051579Y-13771261D01*
X11289674Y-13676023D02*
X11270626Y-13666499D01*
X11270626Y-13666499D02*
X11261102Y-13656975D01*
X11261102Y-13656975D02*
X11251578Y-13637928D01*
X11251578Y-13637928D02*
X11251578Y-13628404D01*
X11251578Y-13628404D02*
X11261102Y-13609356D01*
X11261102Y-13609356D02*
X11270626Y-13599833D01*
X11270626Y-13599833D02*
X11289674Y-13590309D01*
X11289674Y-13590309D02*
X11327769Y-13590309D01*
X11327769Y-13590309D02*
X11346817Y-13599833D01*
X11346817Y-13599833D02*
X11356340Y-13609356D01*
X11356340Y-13609356D02*
X11365864Y-13628404D01*
X11365864Y-13628404D02*
X11365864Y-13637928D01*
X11365864Y-13637928D02*
X11356340Y-13656975D01*
X11356340Y-13656975D02*
X11346817Y-13666499D01*
X11346817Y-13666499D02*
X11327769Y-13676023D01*
X11327769Y-13676023D02*
X11289674Y-13676023D01*
X11289674Y-13676023D02*
X11270626Y-13685547D01*
X11270626Y-13685547D02*
X11261102Y-13695071D01*
X11261102Y-13695071D02*
X11251578Y-13714118D01*
X11251578Y-13714118D02*
X11251578Y-13752213D01*
X11251578Y-13752213D02*
X11261102Y-13771261D01*
X11261102Y-13771261D02*
X11270626Y-13780785D01*
X11270626Y-13780785D02*
X11289674Y-13790309D01*
X11289674Y-13790309D02*
X11327769Y-13790309D01*
X11327769Y-13790309D02*
X11346817Y-13780785D01*
X11346817Y-13780785D02*
X11356340Y-13771261D01*
X11356340Y-13771261D02*
X11365864Y-13752213D01*
X11365864Y-13752213D02*
X11365864Y-13714118D01*
X11365864Y-13714118D02*
X11356340Y-13695071D01*
X11356340Y-13695071D02*
X11346817Y-13685547D01*
X11346817Y-13685547D02*
X11327769Y-13676023D01*
X11556340Y-13790309D02*
X11442055Y-13790309D01*
X11499197Y-13790309D02*
X11499197Y-13590309D01*
X11499197Y-13590309D02*
X11480150Y-13618880D01*
X11480150Y-13618880D02*
X11461102Y-13637928D01*
X11461102Y-13637928D02*
X11442055Y-13647452D01*
X11642055Y-13790309D02*
X11642055Y-13656975D01*
X11642055Y-13676023D02*
X11651578Y-13666499D01*
X11651578Y-13666499D02*
X11670626Y-13656975D01*
X11670626Y-13656975D02*
X11699198Y-13656975D01*
X11699198Y-13656975D02*
X11718245Y-13666499D01*
X11718245Y-13666499D02*
X11727769Y-13685547D01*
X11727769Y-13685547D02*
X11727769Y-13790309D01*
X11727769Y-13685547D02*
X11737293Y-13666499D01*
X11737293Y-13666499D02*
X11756340Y-13656975D01*
X11756340Y-13656975D02*
X11784912Y-13656975D01*
X11784912Y-13656975D02*
X11803959Y-13666499D01*
X11803959Y-13666499D02*
X11813483Y-13685547D01*
X11813483Y-13685547D02*
X11813483Y-13790309D01*
X11908721Y-13790309D02*
X11908721Y-13656975D01*
X11908721Y-13676023D02*
X11918245Y-13666499D01*
X11918245Y-13666499D02*
X11937293Y-13656975D01*
X11937293Y-13656975D02*
X11965864Y-13656975D01*
X11965864Y-13656975D02*
X11984912Y-13666499D01*
X11984912Y-13666499D02*
X11994436Y-13685547D01*
X11994436Y-13685547D02*
X11994436Y-13790309D01*
X11994436Y-13685547D02*
X12003959Y-13666499D01*
X12003959Y-13666499D02*
X12023007Y-13656975D01*
X12023007Y-13656975D02*
X12051578Y-13656975D01*
X12051578Y-13656975D02*
X12070626Y-13666499D01*
X12070626Y-13666499D02*
X12080150Y-13685547D01*
X12080150Y-13685547D02*
X12080150Y-13790309D01*
X12470626Y-13580785D02*
X12299198Y-13837928D01*
X12727769Y-13590309D02*
X12746817Y-13590309D01*
X12746817Y-13590309D02*
X12765864Y-13599833D01*
X12765864Y-13599833D02*
X12775388Y-13609356D01*
X12775388Y-13609356D02*
X12784912Y-13628404D01*
X12784912Y-13628404D02*
X12794436Y-13666499D01*
X12794436Y-13666499D02*
X12794436Y-13714118D01*
X12794436Y-13714118D02*
X12784912Y-13752213D01*
X12784912Y-13752213D02*
X12775388Y-13771261D01*
X12775388Y-13771261D02*
X12765864Y-13780785D01*
X12765864Y-13780785D02*
X12746817Y-13790309D01*
X12746817Y-13790309D02*
X12727769Y-13790309D01*
X12727769Y-13790309D02*
X12708721Y-13780785D01*
X12708721Y-13780785D02*
X12699198Y-13771261D01*
X12699198Y-13771261D02*
X12689674Y-13752213D01*
X12689674Y-13752213D02*
X12680150Y-13714118D01*
X12680150Y-13714118D02*
X12680150Y-13666499D01*
X12680150Y-13666499D02*
X12689674Y-13628404D01*
X12689674Y-13628404D02*
X12699198Y-13609356D01*
X12699198Y-13609356D02*
X12708721Y-13599833D01*
X12708721Y-13599833D02*
X12727769Y-13590309D01*
X12880150Y-13771261D02*
X12889674Y-13780785D01*
X12889674Y-13780785D02*
X12880150Y-13790309D01*
X12880150Y-13790309D02*
X12870626Y-13780785D01*
X12870626Y-13780785D02*
X12880150Y-13771261D01*
X12880150Y-13771261D02*
X12880150Y-13790309D01*
X13013483Y-13590309D02*
X13032531Y-13590309D01*
X13032531Y-13590309D02*
X13051579Y-13599833D01*
X13051579Y-13599833D02*
X13061102Y-13609356D01*
X13061102Y-13609356D02*
X13070626Y-13628404D01*
X13070626Y-13628404D02*
X13080150Y-13666499D01*
X13080150Y-13666499D02*
X13080150Y-13714118D01*
X13080150Y-13714118D02*
X13070626Y-13752213D01*
X13070626Y-13752213D02*
X13061102Y-13771261D01*
X13061102Y-13771261D02*
X13051579Y-13780785D01*
X13051579Y-13780785D02*
X13032531Y-13790309D01*
X13032531Y-13790309D02*
X13013483Y-13790309D01*
X13013483Y-13790309D02*
X12994436Y-13780785D01*
X12994436Y-13780785D02*
X12984912Y-13771261D01*
X12984912Y-13771261D02*
X12975388Y-13752213D01*
X12975388Y-13752213D02*
X12965864Y-13714118D01*
X12965864Y-13714118D02*
X12965864Y-13666499D01*
X12965864Y-13666499D02*
X12975388Y-13628404D01*
X12975388Y-13628404D02*
X12984912Y-13609356D01*
X12984912Y-13609356D02*
X12994436Y-13599833D01*
X12994436Y-13599833D02*
X13013483Y-13590309D01*
X13270626Y-13790309D02*
X13156341Y-13790309D01*
X13213483Y-13790309D02*
X13213483Y-13590309D01*
X13213483Y-13590309D02*
X13194436Y-13618880D01*
X13194436Y-13618880D02*
X13175388Y-13637928D01*
X13175388Y-13637928D02*
X13156341Y-13647452D01*
X13451579Y-13590309D02*
X13356341Y-13590309D01*
X13356341Y-13590309D02*
X13346817Y-13685547D01*
X13346817Y-13685547D02*
X13356341Y-13676023D01*
X13356341Y-13676023D02*
X13375388Y-13666499D01*
X13375388Y-13666499D02*
X13423007Y-13666499D01*
X13423007Y-13666499D02*
X13442055Y-13676023D01*
X13442055Y-13676023D02*
X13451579Y-13685547D01*
X13451579Y-13685547D02*
X13461102Y-13704594D01*
X13461102Y-13704594D02*
X13461102Y-13752213D01*
X13461102Y-13752213D02*
X13451579Y-13771261D01*
X13451579Y-13771261D02*
X13442055Y-13780785D01*
X13442055Y-13780785D02*
X13423007Y-13790309D01*
X13423007Y-13790309D02*
X13375388Y-13790309D01*
X13375388Y-13790309D02*
X13356341Y-13780785D01*
X13356341Y-13780785D02*
X13346817Y-13771261D01*
X13584912Y-13590309D02*
X13603960Y-13590309D01*
X13603960Y-13590309D02*
X13623007Y-13599833D01*
X13623007Y-13599833D02*
X13632531Y-13609356D01*
X13632531Y-13609356D02*
X13642055Y-13628404D01*
X13642055Y-13628404D02*
X13651579Y-13666499D01*
X13651579Y-13666499D02*
X13651579Y-13714118D01*
X13651579Y-13714118D02*
X13642055Y-13752213D01*
X13642055Y-13752213D02*
X13632531Y-13771261D01*
X13632531Y-13771261D02*
X13623007Y-13780785D01*
X13623007Y-13780785D02*
X13603960Y-13790309D01*
X13603960Y-13790309D02*
X13584912Y-13790309D01*
X13584912Y-13790309D02*
X13565864Y-13780785D01*
X13565864Y-13780785D02*
X13556341Y-13771261D01*
X13556341Y-13771261D02*
X13546817Y-13752213D01*
X13546817Y-13752213D02*
X13537293Y-13714118D01*
X13537293Y-13714118D02*
X13537293Y-13666499D01*
X13537293Y-13666499D02*
X13546817Y-13628404D01*
X13546817Y-13628404D02*
X13556341Y-13609356D01*
X13556341Y-13609356D02*
X13565864Y-13599833D01*
X13565864Y-13599833D02*
X13584912Y-13590309D01*
X13727769Y-13590309D02*
X13727769Y-13628404D01*
X13803960Y-13590309D02*
X13803960Y-13628404D01*
X14099198Y-13866499D02*
X14089674Y-13856975D01*
X14089674Y-13856975D02*
X14070626Y-13828404D01*
X14070626Y-13828404D02*
X14061103Y-13809356D01*
X14061103Y-13809356D02*
X14051579Y-13780785D01*
X14051579Y-13780785D02*
X14042055Y-13733166D01*
X14042055Y-13733166D02*
X14042055Y-13695071D01*
X14042055Y-13695071D02*
X14051579Y-13647452D01*
X14051579Y-13647452D02*
X14061103Y-13618880D01*
X14061103Y-13618880D02*
X14070626Y-13599833D01*
X14070626Y-13599833D02*
X14089674Y-13571261D01*
X14089674Y-13571261D02*
X14099198Y-13561737D01*
X14156341Y-13590309D02*
X14280150Y-13590309D01*
X14280150Y-13590309D02*
X14213483Y-13666499D01*
X14213483Y-13666499D02*
X14242055Y-13666499D01*
X14242055Y-13666499D02*
X14261103Y-13676023D01*
X14261103Y-13676023D02*
X14270626Y-13685547D01*
X14270626Y-13685547D02*
X14280150Y-13704594D01*
X14280150Y-13704594D02*
X14280150Y-13752213D01*
X14280150Y-13752213D02*
X14270626Y-13771261D01*
X14270626Y-13771261D02*
X14261103Y-13780785D01*
X14261103Y-13780785D02*
X14242055Y-13790309D01*
X14242055Y-13790309D02*
X14184912Y-13790309D01*
X14184912Y-13790309D02*
X14165864Y-13780785D01*
X14165864Y-13780785D02*
X14156341Y-13771261D01*
X14518245Y-13790309D02*
X14518245Y-13590309D01*
X14603960Y-13790309D02*
X14603960Y-13685547D01*
X14603960Y-13685547D02*
X14594436Y-13666499D01*
X14594436Y-13666499D02*
X14575388Y-13656975D01*
X14575388Y-13656975D02*
X14546817Y-13656975D01*
X14546817Y-13656975D02*
X14527769Y-13666499D01*
X14527769Y-13666499D02*
X14518245Y-13676023D01*
X14727769Y-13790309D02*
X14708722Y-13780785D01*
X14708722Y-13780785D02*
X14699198Y-13771261D01*
X14699198Y-13771261D02*
X14689674Y-13752213D01*
X14689674Y-13752213D02*
X14689674Y-13695071D01*
X14689674Y-13695071D02*
X14699198Y-13676023D01*
X14699198Y-13676023D02*
X14708722Y-13666499D01*
X14708722Y-13666499D02*
X14727769Y-13656975D01*
X14727769Y-13656975D02*
X14756341Y-13656975D01*
X14756341Y-13656975D02*
X14775388Y-13666499D01*
X14775388Y-13666499D02*
X14784912Y-13676023D01*
X14784912Y-13676023D02*
X14794436Y-13695071D01*
X14794436Y-13695071D02*
X14794436Y-13752213D01*
X14794436Y-13752213D02*
X14784912Y-13771261D01*
X14784912Y-13771261D02*
X14775388Y-13780785D01*
X14775388Y-13780785D02*
X14756341Y-13790309D01*
X14756341Y-13790309D02*
X14727769Y-13790309D01*
X14908722Y-13790309D02*
X14889674Y-13780785D01*
X14889674Y-13780785D02*
X14880150Y-13761737D01*
X14880150Y-13761737D02*
X14880150Y-13590309D01*
X15061103Y-13780785D02*
X15042055Y-13790309D01*
X15042055Y-13790309D02*
X15003960Y-13790309D01*
X15003960Y-13790309D02*
X14984912Y-13780785D01*
X14984912Y-13780785D02*
X14975388Y-13761737D01*
X14975388Y-13761737D02*
X14975388Y-13685547D01*
X14975388Y-13685547D02*
X14984912Y-13666499D01*
X14984912Y-13666499D02*
X15003960Y-13656975D01*
X15003960Y-13656975D02*
X15042055Y-13656975D01*
X15042055Y-13656975D02*
X15061103Y-13666499D01*
X15061103Y-13666499D02*
X15070626Y-13685547D01*
X15070626Y-13685547D02*
X15070626Y-13704594D01*
X15070626Y-13704594D02*
X14975388Y-13723642D01*
X15146817Y-13780785D02*
X15165865Y-13790309D01*
X15165865Y-13790309D02*
X15203960Y-13790309D01*
X15203960Y-13790309D02*
X15223007Y-13780785D01*
X15223007Y-13780785D02*
X15232531Y-13761737D01*
X15232531Y-13761737D02*
X15232531Y-13752213D01*
X15232531Y-13752213D02*
X15223007Y-13733166D01*
X15223007Y-13733166D02*
X15203960Y-13723642D01*
X15203960Y-13723642D02*
X15175388Y-13723642D01*
X15175388Y-13723642D02*
X15156341Y-13714118D01*
X15156341Y-13714118D02*
X15146817Y-13695071D01*
X15146817Y-13695071D02*
X15146817Y-13685547D01*
X15146817Y-13685547D02*
X15156341Y-13666499D01*
X15156341Y-13666499D02*
X15175388Y-13656975D01*
X15175388Y-13656975D02*
X15203960Y-13656975D01*
X15203960Y-13656975D02*
X15223007Y-13666499D01*
X15299198Y-13866499D02*
X15308722Y-13856975D01*
X15308722Y-13856975D02*
X15327769Y-13828404D01*
X15327769Y-13828404D02*
X15337293Y-13809356D01*
X15337293Y-13809356D02*
X15346817Y-13780785D01*
X15346817Y-13780785D02*
X15356341Y-13733166D01*
X15356341Y-13733166D02*
X15356341Y-13695071D01*
X15356341Y-13695071D02*
X15346817Y-13647452D01*
X15346817Y-13647452D02*
X15337293Y-13618880D01*
X15337293Y-13618880D02*
X15327769Y-13599833D01*
X15327769Y-13599833D02*
X15308722Y-13571261D01*
X15308722Y-13571261D02*
X15299198Y-13561737D01*
D12*
X10516813Y-13980503D02*
X10516813Y-13945147D01*
X10481457Y-13945147D01*
X10481457Y-13980503D01*
X10516813Y-13980503D01*
D11*
X10823007Y-13854309D02*
X10842055Y-13854309D01*
X10842055Y-13854309D02*
X10861102Y-13863833D01*
X10861102Y-13863833D02*
X10870626Y-13873356D01*
X10870626Y-13873356D02*
X10880150Y-13892404D01*
X10880150Y-13892404D02*
X10889674Y-13930499D01*
X10889674Y-13930499D02*
X10889674Y-13978118D01*
X10889674Y-13978118D02*
X10880150Y-14016213D01*
X10880150Y-14016213D02*
X10870626Y-14035261D01*
X10870626Y-14035261D02*
X10861102Y-14044785D01*
X10861102Y-14044785D02*
X10842055Y-14054309D01*
X10842055Y-14054309D02*
X10823007Y-14054309D01*
X10823007Y-14054309D02*
X10803959Y-14044785D01*
X10803959Y-14044785D02*
X10794436Y-14035261D01*
X10794436Y-14035261D02*
X10784912Y-14016213D01*
X10784912Y-14016213D02*
X10775388Y-13978118D01*
X10775388Y-13978118D02*
X10775388Y-13930499D01*
X10775388Y-13930499D02*
X10784912Y-13892404D01*
X10784912Y-13892404D02*
X10794436Y-13873356D01*
X10794436Y-13873356D02*
X10803959Y-13863833D01*
X10803959Y-13863833D02*
X10823007Y-13854309D01*
X10975388Y-14035261D02*
X10984912Y-14044785D01*
X10984912Y-14044785D02*
X10975388Y-14054309D01*
X10975388Y-14054309D02*
X10965864Y-14044785D01*
X10965864Y-14044785D02*
X10975388Y-14035261D01*
X10975388Y-14035261D02*
X10975388Y-14054309D01*
X11165864Y-13854309D02*
X11070626Y-13854309D01*
X11070626Y-13854309D02*
X11061102Y-13949547D01*
X11061102Y-13949547D02*
X11070626Y-13940023D01*
X11070626Y-13940023D02*
X11089674Y-13930499D01*
X11089674Y-13930499D02*
X11137293Y-13930499D01*
X11137293Y-13930499D02*
X11156340Y-13940023D01*
X11156340Y-13940023D02*
X11165864Y-13949547D01*
X11165864Y-13949547D02*
X11175388Y-13968594D01*
X11175388Y-13968594D02*
X11175388Y-14016213D01*
X11175388Y-14016213D02*
X11165864Y-14035261D01*
X11165864Y-14035261D02*
X11156340Y-14044785D01*
X11156340Y-14044785D02*
X11137293Y-14054309D01*
X11137293Y-14054309D02*
X11089674Y-14054309D01*
X11089674Y-14054309D02*
X11070626Y-14044785D01*
X11070626Y-14044785D02*
X11061102Y-14035261D01*
X11299197Y-13854309D02*
X11318245Y-13854309D01*
X11318245Y-13854309D02*
X11337293Y-13863833D01*
X11337293Y-13863833D02*
X11346817Y-13873356D01*
X11346817Y-13873356D02*
X11356340Y-13892404D01*
X11356340Y-13892404D02*
X11365864Y-13930499D01*
X11365864Y-13930499D02*
X11365864Y-13978118D01*
X11365864Y-13978118D02*
X11356340Y-14016213D01*
X11356340Y-14016213D02*
X11346817Y-14035261D01*
X11346817Y-14035261D02*
X11337293Y-14044785D01*
X11337293Y-14044785D02*
X11318245Y-14054309D01*
X11318245Y-14054309D02*
X11299197Y-14054309D01*
X11299197Y-14054309D02*
X11280150Y-14044785D01*
X11280150Y-14044785D02*
X11270626Y-14035261D01*
X11270626Y-14035261D02*
X11261102Y-14016213D01*
X11261102Y-14016213D02*
X11251578Y-13978118D01*
X11251578Y-13978118D02*
X11251578Y-13930499D01*
X11251578Y-13930499D02*
X11261102Y-13892404D01*
X11261102Y-13892404D02*
X11270626Y-13873356D01*
X11270626Y-13873356D02*
X11280150Y-13863833D01*
X11280150Y-13863833D02*
X11299197Y-13854309D01*
X11489674Y-13854309D02*
X11508721Y-13854309D01*
X11508721Y-13854309D02*
X11527769Y-13863833D01*
X11527769Y-13863833D02*
X11537293Y-13873356D01*
X11537293Y-13873356D02*
X11546817Y-13892404D01*
X11546817Y-13892404D02*
X11556340Y-13930499D01*
X11556340Y-13930499D02*
X11556340Y-13978118D01*
X11556340Y-13978118D02*
X11546817Y-14016213D01*
X11546817Y-14016213D02*
X11537293Y-14035261D01*
X11537293Y-14035261D02*
X11527769Y-14044785D01*
X11527769Y-14044785D02*
X11508721Y-14054309D01*
X11508721Y-14054309D02*
X11489674Y-14054309D01*
X11489674Y-14054309D02*
X11470626Y-14044785D01*
X11470626Y-14044785D02*
X11461102Y-14035261D01*
X11461102Y-14035261D02*
X11451578Y-14016213D01*
X11451578Y-14016213D02*
X11442055Y-13978118D01*
X11442055Y-13978118D02*
X11442055Y-13930499D01*
X11442055Y-13930499D02*
X11451578Y-13892404D01*
X11451578Y-13892404D02*
X11461102Y-13873356D01*
X11461102Y-13873356D02*
X11470626Y-13863833D01*
X11470626Y-13863833D02*
X11489674Y-13854309D01*
X11642055Y-14054309D02*
X11642055Y-13920975D01*
X11642055Y-13940023D02*
X11651578Y-13930499D01*
X11651578Y-13930499D02*
X11670626Y-13920975D01*
X11670626Y-13920975D02*
X11699198Y-13920975D01*
X11699198Y-13920975D02*
X11718245Y-13930499D01*
X11718245Y-13930499D02*
X11727769Y-13949547D01*
X11727769Y-13949547D02*
X11727769Y-14054309D01*
X11727769Y-13949547D02*
X11737293Y-13930499D01*
X11737293Y-13930499D02*
X11756340Y-13920975D01*
X11756340Y-13920975D02*
X11784912Y-13920975D01*
X11784912Y-13920975D02*
X11803959Y-13930499D01*
X11803959Y-13930499D02*
X11813483Y-13949547D01*
X11813483Y-13949547D02*
X11813483Y-14054309D01*
X11908721Y-14054309D02*
X11908721Y-13920975D01*
X11908721Y-13940023D02*
X11918245Y-13930499D01*
X11918245Y-13930499D02*
X11937293Y-13920975D01*
X11937293Y-13920975D02*
X11965864Y-13920975D01*
X11965864Y-13920975D02*
X11984912Y-13930499D01*
X11984912Y-13930499D02*
X11994436Y-13949547D01*
X11994436Y-13949547D02*
X11994436Y-14054309D01*
X11994436Y-13949547D02*
X12003959Y-13930499D01*
X12003959Y-13930499D02*
X12023007Y-13920975D01*
X12023007Y-13920975D02*
X12051578Y-13920975D01*
X12051578Y-13920975D02*
X12070626Y-13930499D01*
X12070626Y-13930499D02*
X12080150Y-13949547D01*
X12080150Y-13949547D02*
X12080150Y-14054309D01*
X12470626Y-13844785D02*
X12299198Y-14101928D01*
X12727769Y-13854309D02*
X12746817Y-13854309D01*
X12746817Y-13854309D02*
X12765864Y-13863833D01*
X12765864Y-13863833D02*
X12775388Y-13873356D01*
X12775388Y-13873356D02*
X12784912Y-13892404D01*
X12784912Y-13892404D02*
X12794436Y-13930499D01*
X12794436Y-13930499D02*
X12794436Y-13978118D01*
X12794436Y-13978118D02*
X12784912Y-14016213D01*
X12784912Y-14016213D02*
X12775388Y-14035261D01*
X12775388Y-14035261D02*
X12765864Y-14044785D01*
X12765864Y-14044785D02*
X12746817Y-14054309D01*
X12746817Y-14054309D02*
X12727769Y-14054309D01*
X12727769Y-14054309D02*
X12708721Y-14044785D01*
X12708721Y-14044785D02*
X12699198Y-14035261D01*
X12699198Y-14035261D02*
X12689674Y-14016213D01*
X12689674Y-14016213D02*
X12680150Y-13978118D01*
X12680150Y-13978118D02*
X12680150Y-13930499D01*
X12680150Y-13930499D02*
X12689674Y-13892404D01*
X12689674Y-13892404D02*
X12699198Y-13873356D01*
X12699198Y-13873356D02*
X12708721Y-13863833D01*
X12708721Y-13863833D02*
X12727769Y-13854309D01*
X12880150Y-14035261D02*
X12889674Y-14044785D01*
X12889674Y-14044785D02*
X12880150Y-14054309D01*
X12880150Y-14054309D02*
X12870626Y-14044785D01*
X12870626Y-14044785D02*
X12880150Y-14035261D01*
X12880150Y-14035261D02*
X12880150Y-14054309D01*
X13013483Y-13854309D02*
X13032531Y-13854309D01*
X13032531Y-13854309D02*
X13051579Y-13863833D01*
X13051579Y-13863833D02*
X13061102Y-13873356D01*
X13061102Y-13873356D02*
X13070626Y-13892404D01*
X13070626Y-13892404D02*
X13080150Y-13930499D01*
X13080150Y-13930499D02*
X13080150Y-13978118D01*
X13080150Y-13978118D02*
X13070626Y-14016213D01*
X13070626Y-14016213D02*
X13061102Y-14035261D01*
X13061102Y-14035261D02*
X13051579Y-14044785D01*
X13051579Y-14044785D02*
X13032531Y-14054309D01*
X13032531Y-14054309D02*
X13013483Y-14054309D01*
X13013483Y-14054309D02*
X12994436Y-14044785D01*
X12994436Y-14044785D02*
X12984912Y-14035261D01*
X12984912Y-14035261D02*
X12975388Y-14016213D01*
X12975388Y-14016213D02*
X12965864Y-13978118D01*
X12965864Y-13978118D02*
X12965864Y-13930499D01*
X12965864Y-13930499D02*
X12975388Y-13892404D01*
X12975388Y-13892404D02*
X12984912Y-13873356D01*
X12984912Y-13873356D02*
X12994436Y-13863833D01*
X12994436Y-13863833D02*
X13013483Y-13854309D01*
X13270626Y-14054309D02*
X13156341Y-14054309D01*
X13213483Y-14054309D02*
X13213483Y-13854309D01*
X13213483Y-13854309D02*
X13194436Y-13882880D01*
X13194436Y-13882880D02*
X13175388Y-13901928D01*
X13175388Y-13901928D02*
X13156341Y-13911452D01*
X13365864Y-14054309D02*
X13403960Y-14054309D01*
X13403960Y-14054309D02*
X13423007Y-14044785D01*
X13423007Y-14044785D02*
X13432531Y-14035261D01*
X13432531Y-14035261D02*
X13451579Y-14006690D01*
X13451579Y-14006690D02*
X13461102Y-13968594D01*
X13461102Y-13968594D02*
X13461102Y-13892404D01*
X13461102Y-13892404D02*
X13451579Y-13873356D01*
X13451579Y-13873356D02*
X13442055Y-13863833D01*
X13442055Y-13863833D02*
X13423007Y-13854309D01*
X13423007Y-13854309D02*
X13384912Y-13854309D01*
X13384912Y-13854309D02*
X13365864Y-13863833D01*
X13365864Y-13863833D02*
X13356341Y-13873356D01*
X13356341Y-13873356D02*
X13346817Y-13892404D01*
X13346817Y-13892404D02*
X13346817Y-13940023D01*
X13346817Y-13940023D02*
X13356341Y-13959071D01*
X13356341Y-13959071D02*
X13365864Y-13968594D01*
X13365864Y-13968594D02*
X13384912Y-13978118D01*
X13384912Y-13978118D02*
X13423007Y-13978118D01*
X13423007Y-13978118D02*
X13442055Y-13968594D01*
X13442055Y-13968594D02*
X13451579Y-13959071D01*
X13451579Y-13959071D02*
X13461102Y-13940023D01*
X13527769Y-13854309D02*
X13661102Y-13854309D01*
X13661102Y-13854309D02*
X13575388Y-14054309D01*
X13727769Y-13854309D02*
X13727769Y-13892404D01*
X13803960Y-13854309D02*
X13803960Y-13892404D01*
X14099198Y-14130499D02*
X14089674Y-14120975D01*
X14089674Y-14120975D02*
X14070626Y-14092404D01*
X14070626Y-14092404D02*
X14061103Y-14073356D01*
X14061103Y-14073356D02*
X14051579Y-14044785D01*
X14051579Y-14044785D02*
X14042055Y-13997166D01*
X14042055Y-13997166D02*
X14042055Y-13959071D01*
X14042055Y-13959071D02*
X14051579Y-13911452D01*
X14051579Y-13911452D02*
X14061103Y-13882880D01*
X14061103Y-13882880D02*
X14070626Y-13863833D01*
X14070626Y-13863833D02*
X14089674Y-13835261D01*
X14089674Y-13835261D02*
X14099198Y-13825737D01*
X14156341Y-13854309D02*
X14280150Y-13854309D01*
X14280150Y-13854309D02*
X14213483Y-13930499D01*
X14213483Y-13930499D02*
X14242055Y-13930499D01*
X14242055Y-13930499D02*
X14261103Y-13940023D01*
X14261103Y-13940023D02*
X14270626Y-13949547D01*
X14270626Y-13949547D02*
X14280150Y-13968594D01*
X14280150Y-13968594D02*
X14280150Y-14016213D01*
X14280150Y-14016213D02*
X14270626Y-14035261D01*
X14270626Y-14035261D02*
X14261103Y-14044785D01*
X14261103Y-14044785D02*
X14242055Y-14054309D01*
X14242055Y-14054309D02*
X14184912Y-14054309D01*
X14184912Y-14054309D02*
X14165864Y-14044785D01*
X14165864Y-14044785D02*
X14156341Y-14035261D01*
X14356341Y-13873356D02*
X14365864Y-13863833D01*
X14365864Y-13863833D02*
X14384912Y-13854309D01*
X14384912Y-13854309D02*
X14432531Y-13854309D01*
X14432531Y-13854309D02*
X14451579Y-13863833D01*
X14451579Y-13863833D02*
X14461103Y-13873356D01*
X14461103Y-13873356D02*
X14470626Y-13892404D01*
X14470626Y-13892404D02*
X14470626Y-13911452D01*
X14470626Y-13911452D02*
X14461103Y-13940023D01*
X14461103Y-13940023D02*
X14346817Y-14054309D01*
X14346817Y-14054309D02*
X14470626Y-14054309D01*
X14708722Y-14054309D02*
X14708722Y-13854309D01*
X14794436Y-14054309D02*
X14794436Y-13949547D01*
X14794436Y-13949547D02*
X14784912Y-13930499D01*
X14784912Y-13930499D02*
X14765865Y-13920975D01*
X14765865Y-13920975D02*
X14737293Y-13920975D01*
X14737293Y-13920975D02*
X14718245Y-13930499D01*
X14718245Y-13930499D02*
X14708722Y-13940023D01*
X14918245Y-14054309D02*
X14899198Y-14044785D01*
X14899198Y-14044785D02*
X14889674Y-14035261D01*
X14889674Y-14035261D02*
X14880150Y-14016213D01*
X14880150Y-14016213D02*
X14880150Y-13959071D01*
X14880150Y-13959071D02*
X14889674Y-13940023D01*
X14889674Y-13940023D02*
X14899198Y-13930499D01*
X14899198Y-13930499D02*
X14918245Y-13920975D01*
X14918245Y-13920975D02*
X14946817Y-13920975D01*
X14946817Y-13920975D02*
X14965865Y-13930499D01*
X14965865Y-13930499D02*
X14975388Y-13940023D01*
X14975388Y-13940023D02*
X14984912Y-13959071D01*
X14984912Y-13959071D02*
X14984912Y-14016213D01*
X14984912Y-14016213D02*
X14975388Y-14035261D01*
X14975388Y-14035261D02*
X14965865Y-14044785D01*
X14965865Y-14044785D02*
X14946817Y-14054309D01*
X14946817Y-14054309D02*
X14918245Y-14054309D01*
X15099198Y-14054309D02*
X15080150Y-14044785D01*
X15080150Y-14044785D02*
X15070626Y-14025737D01*
X15070626Y-14025737D02*
X15070626Y-13854309D01*
X15251579Y-14044785D02*
X15232531Y-14054309D01*
X15232531Y-14054309D02*
X15194436Y-14054309D01*
X15194436Y-14054309D02*
X15175388Y-14044785D01*
X15175388Y-14044785D02*
X15165865Y-14025737D01*
X15165865Y-14025737D02*
X15165865Y-13949547D01*
X15165865Y-13949547D02*
X15175388Y-13930499D01*
X15175388Y-13930499D02*
X15194436Y-13920975D01*
X15194436Y-13920975D02*
X15232531Y-13920975D01*
X15232531Y-13920975D02*
X15251579Y-13930499D01*
X15251579Y-13930499D02*
X15261103Y-13949547D01*
X15261103Y-13949547D02*
X15261103Y-13968594D01*
X15261103Y-13968594D02*
X15165865Y-13987642D01*
X15337293Y-14044785D02*
X15356341Y-14054309D01*
X15356341Y-14054309D02*
X15394436Y-14054309D01*
X15394436Y-14054309D02*
X15413484Y-14044785D01*
X15413484Y-14044785D02*
X15423007Y-14025737D01*
X15423007Y-14025737D02*
X15423007Y-14016213D01*
X15423007Y-14016213D02*
X15413484Y-13997166D01*
X15413484Y-13997166D02*
X15394436Y-13987642D01*
X15394436Y-13987642D02*
X15365865Y-13987642D01*
X15365865Y-13987642D02*
X15346817Y-13978118D01*
X15346817Y-13978118D02*
X15337293Y-13959071D01*
X15337293Y-13959071D02*
X15337293Y-13949547D01*
X15337293Y-13949547D02*
X15346817Y-13930499D01*
X15346817Y-13930499D02*
X15365865Y-13920975D01*
X15365865Y-13920975D02*
X15394436Y-13920975D01*
X15394436Y-13920975D02*
X15413484Y-13930499D01*
X15489674Y-14130499D02*
X15499198Y-14120975D01*
X15499198Y-14120975D02*
X15518246Y-14092404D01*
X15518246Y-14092404D02*
X15527769Y-14073356D01*
X15527769Y-14073356D02*
X15537293Y-14044785D01*
X15537293Y-14044785D02*
X15546817Y-13997166D01*
X15546817Y-13997166D02*
X15546817Y-13959071D01*
X15546817Y-13959071D02*
X15537293Y-13911452D01*
X15537293Y-13911452D02*
X15527769Y-13882880D01*
X15527769Y-13882880D02*
X15518246Y-13863833D01*
X15518246Y-13863833D02*
X15499198Y-13835261D01*
X15499198Y-13835261D02*
X15489674Y-13825737D01*
D12*
X10474135Y-14276825D02*
X10524135Y-14226825D01*
X10474135Y-14176825D01*
X10424135Y-14226825D01*
X10474135Y-14276825D01*
D11*
X10889674Y-14318309D02*
X10775388Y-14318309D01*
X10832531Y-14318309D02*
X10832531Y-14118309D01*
X10832531Y-14118309D02*
X10813483Y-14146880D01*
X10813483Y-14146880D02*
X10794436Y-14165928D01*
X10794436Y-14165928D02*
X10775388Y-14175452D01*
X10975388Y-14299261D02*
X10984912Y-14308785D01*
X10984912Y-14308785D02*
X10975388Y-14318309D01*
X10975388Y-14318309D02*
X10965864Y-14308785D01*
X10965864Y-14308785D02*
X10975388Y-14299261D01*
X10975388Y-14299261D02*
X10975388Y-14318309D01*
X11108721Y-14118309D02*
X11127769Y-14118309D01*
X11127769Y-14118309D02*
X11146817Y-14127833D01*
X11146817Y-14127833D02*
X11156340Y-14137356D01*
X11156340Y-14137356D02*
X11165864Y-14156404D01*
X11165864Y-14156404D02*
X11175388Y-14194499D01*
X11175388Y-14194499D02*
X11175388Y-14242118D01*
X11175388Y-14242118D02*
X11165864Y-14280213D01*
X11165864Y-14280213D02*
X11156340Y-14299261D01*
X11156340Y-14299261D02*
X11146817Y-14308785D01*
X11146817Y-14308785D02*
X11127769Y-14318309D01*
X11127769Y-14318309D02*
X11108721Y-14318309D01*
X11108721Y-14318309D02*
X11089674Y-14308785D01*
X11089674Y-14308785D02*
X11080150Y-14299261D01*
X11080150Y-14299261D02*
X11070626Y-14280213D01*
X11070626Y-14280213D02*
X11061102Y-14242118D01*
X11061102Y-14242118D02*
X11061102Y-14194499D01*
X11061102Y-14194499D02*
X11070626Y-14156404D01*
X11070626Y-14156404D02*
X11080150Y-14137356D01*
X11080150Y-14137356D02*
X11089674Y-14127833D01*
X11089674Y-14127833D02*
X11108721Y-14118309D01*
X11299197Y-14118309D02*
X11318245Y-14118309D01*
X11318245Y-14118309D02*
X11337293Y-14127833D01*
X11337293Y-14127833D02*
X11346817Y-14137356D01*
X11346817Y-14137356D02*
X11356340Y-14156404D01*
X11356340Y-14156404D02*
X11365864Y-14194499D01*
X11365864Y-14194499D02*
X11365864Y-14242118D01*
X11365864Y-14242118D02*
X11356340Y-14280213D01*
X11356340Y-14280213D02*
X11346817Y-14299261D01*
X11346817Y-14299261D02*
X11337293Y-14308785D01*
X11337293Y-14308785D02*
X11318245Y-14318309D01*
X11318245Y-14318309D02*
X11299197Y-14318309D01*
X11299197Y-14318309D02*
X11280150Y-14308785D01*
X11280150Y-14308785D02*
X11270626Y-14299261D01*
X11270626Y-14299261D02*
X11261102Y-14280213D01*
X11261102Y-14280213D02*
X11251578Y-14242118D01*
X11251578Y-14242118D02*
X11251578Y-14194499D01*
X11251578Y-14194499D02*
X11261102Y-14156404D01*
X11261102Y-14156404D02*
X11270626Y-14137356D01*
X11270626Y-14137356D02*
X11280150Y-14127833D01*
X11280150Y-14127833D02*
X11299197Y-14118309D01*
X11489674Y-14118309D02*
X11508721Y-14118309D01*
X11508721Y-14118309D02*
X11527769Y-14127833D01*
X11527769Y-14127833D02*
X11537293Y-14137356D01*
X11537293Y-14137356D02*
X11546817Y-14156404D01*
X11546817Y-14156404D02*
X11556340Y-14194499D01*
X11556340Y-14194499D02*
X11556340Y-14242118D01*
X11556340Y-14242118D02*
X11546817Y-14280213D01*
X11546817Y-14280213D02*
X11537293Y-14299261D01*
X11537293Y-14299261D02*
X11527769Y-14308785D01*
X11527769Y-14308785D02*
X11508721Y-14318309D01*
X11508721Y-14318309D02*
X11489674Y-14318309D01*
X11489674Y-14318309D02*
X11470626Y-14308785D01*
X11470626Y-14308785D02*
X11461102Y-14299261D01*
X11461102Y-14299261D02*
X11451578Y-14280213D01*
X11451578Y-14280213D02*
X11442055Y-14242118D01*
X11442055Y-14242118D02*
X11442055Y-14194499D01*
X11442055Y-14194499D02*
X11451578Y-14156404D01*
X11451578Y-14156404D02*
X11461102Y-14137356D01*
X11461102Y-14137356D02*
X11470626Y-14127833D01*
X11470626Y-14127833D02*
X11489674Y-14118309D01*
X11642055Y-14318309D02*
X11642055Y-14184975D01*
X11642055Y-14204023D02*
X11651578Y-14194499D01*
X11651578Y-14194499D02*
X11670626Y-14184975D01*
X11670626Y-14184975D02*
X11699198Y-14184975D01*
X11699198Y-14184975D02*
X11718245Y-14194499D01*
X11718245Y-14194499D02*
X11727769Y-14213547D01*
X11727769Y-14213547D02*
X11727769Y-14318309D01*
X11727769Y-14213547D02*
X11737293Y-14194499D01*
X11737293Y-14194499D02*
X11756340Y-14184975D01*
X11756340Y-14184975D02*
X11784912Y-14184975D01*
X11784912Y-14184975D02*
X11803959Y-14194499D01*
X11803959Y-14194499D02*
X11813483Y-14213547D01*
X11813483Y-14213547D02*
X11813483Y-14318309D01*
X11908721Y-14318309D02*
X11908721Y-14184975D01*
X11908721Y-14204023D02*
X11918245Y-14194499D01*
X11918245Y-14194499D02*
X11937293Y-14184975D01*
X11937293Y-14184975D02*
X11965864Y-14184975D01*
X11965864Y-14184975D02*
X11984912Y-14194499D01*
X11984912Y-14194499D02*
X11994436Y-14213547D01*
X11994436Y-14213547D02*
X11994436Y-14318309D01*
X11994436Y-14213547D02*
X12003959Y-14194499D01*
X12003959Y-14194499D02*
X12023007Y-14184975D01*
X12023007Y-14184975D02*
X12051578Y-14184975D01*
X12051578Y-14184975D02*
X12070626Y-14194499D01*
X12070626Y-14194499D02*
X12080150Y-14213547D01*
X12080150Y-14213547D02*
X12080150Y-14318309D01*
X12470626Y-14108785D02*
X12299198Y-14365928D01*
X12727769Y-14118309D02*
X12746817Y-14118309D01*
X12746817Y-14118309D02*
X12765864Y-14127833D01*
X12765864Y-14127833D02*
X12775388Y-14137356D01*
X12775388Y-14137356D02*
X12784912Y-14156404D01*
X12784912Y-14156404D02*
X12794436Y-14194499D01*
X12794436Y-14194499D02*
X12794436Y-14242118D01*
X12794436Y-14242118D02*
X12784912Y-14280213D01*
X12784912Y-14280213D02*
X12775388Y-14299261D01*
X12775388Y-14299261D02*
X12765864Y-14308785D01*
X12765864Y-14308785D02*
X12746817Y-14318309D01*
X12746817Y-14318309D02*
X12727769Y-14318309D01*
X12727769Y-14318309D02*
X12708721Y-14308785D01*
X12708721Y-14308785D02*
X12699198Y-14299261D01*
X12699198Y-14299261D02*
X12689674Y-14280213D01*
X12689674Y-14280213D02*
X12680150Y-14242118D01*
X12680150Y-14242118D02*
X12680150Y-14194499D01*
X12680150Y-14194499D02*
X12689674Y-14156404D01*
X12689674Y-14156404D02*
X12699198Y-14137356D01*
X12699198Y-14137356D02*
X12708721Y-14127833D01*
X12708721Y-14127833D02*
X12727769Y-14118309D01*
X12880150Y-14299261D02*
X12889674Y-14308785D01*
X12889674Y-14308785D02*
X12880150Y-14318309D01*
X12880150Y-14318309D02*
X12870626Y-14308785D01*
X12870626Y-14308785D02*
X12880150Y-14299261D01*
X12880150Y-14299261D02*
X12880150Y-14318309D01*
X13013483Y-14118309D02*
X13032531Y-14118309D01*
X13032531Y-14118309D02*
X13051579Y-14127833D01*
X13051579Y-14127833D02*
X13061102Y-14137356D01*
X13061102Y-14137356D02*
X13070626Y-14156404D01*
X13070626Y-14156404D02*
X13080150Y-14194499D01*
X13080150Y-14194499D02*
X13080150Y-14242118D01*
X13080150Y-14242118D02*
X13070626Y-14280213D01*
X13070626Y-14280213D02*
X13061102Y-14299261D01*
X13061102Y-14299261D02*
X13051579Y-14308785D01*
X13051579Y-14308785D02*
X13032531Y-14318309D01*
X13032531Y-14318309D02*
X13013483Y-14318309D01*
X13013483Y-14318309D02*
X12994436Y-14308785D01*
X12994436Y-14308785D02*
X12984912Y-14299261D01*
X12984912Y-14299261D02*
X12975388Y-14280213D01*
X12975388Y-14280213D02*
X12965864Y-14242118D01*
X12965864Y-14242118D02*
X12965864Y-14194499D01*
X12965864Y-14194499D02*
X12975388Y-14156404D01*
X12975388Y-14156404D02*
X12984912Y-14137356D01*
X12984912Y-14137356D02*
X12994436Y-14127833D01*
X12994436Y-14127833D02*
X13013483Y-14118309D01*
X13146817Y-14118309D02*
X13270626Y-14118309D01*
X13270626Y-14118309D02*
X13203960Y-14194499D01*
X13203960Y-14194499D02*
X13232531Y-14194499D01*
X13232531Y-14194499D02*
X13251579Y-14204023D01*
X13251579Y-14204023D02*
X13261102Y-14213547D01*
X13261102Y-14213547D02*
X13270626Y-14232594D01*
X13270626Y-14232594D02*
X13270626Y-14280213D01*
X13270626Y-14280213D02*
X13261102Y-14299261D01*
X13261102Y-14299261D02*
X13251579Y-14308785D01*
X13251579Y-14308785D02*
X13232531Y-14318309D01*
X13232531Y-14318309D02*
X13175388Y-14318309D01*
X13175388Y-14318309D02*
X13156341Y-14308785D01*
X13156341Y-14308785D02*
X13146817Y-14299261D01*
X13365864Y-14318309D02*
X13403960Y-14318309D01*
X13403960Y-14318309D02*
X13423007Y-14308785D01*
X13423007Y-14308785D02*
X13432531Y-14299261D01*
X13432531Y-14299261D02*
X13451579Y-14270690D01*
X13451579Y-14270690D02*
X13461102Y-14232594D01*
X13461102Y-14232594D02*
X13461102Y-14156404D01*
X13461102Y-14156404D02*
X13451579Y-14137356D01*
X13451579Y-14137356D02*
X13442055Y-14127833D01*
X13442055Y-14127833D02*
X13423007Y-14118309D01*
X13423007Y-14118309D02*
X13384912Y-14118309D01*
X13384912Y-14118309D02*
X13365864Y-14127833D01*
X13365864Y-14127833D02*
X13356341Y-14137356D01*
X13356341Y-14137356D02*
X13346817Y-14156404D01*
X13346817Y-14156404D02*
X13346817Y-14204023D01*
X13346817Y-14204023D02*
X13356341Y-14223071D01*
X13356341Y-14223071D02*
X13365864Y-14232594D01*
X13365864Y-14232594D02*
X13384912Y-14242118D01*
X13384912Y-14242118D02*
X13423007Y-14242118D01*
X13423007Y-14242118D02*
X13442055Y-14232594D01*
X13442055Y-14232594D02*
X13451579Y-14223071D01*
X13451579Y-14223071D02*
X13461102Y-14204023D01*
X13632531Y-14184975D02*
X13632531Y-14318309D01*
X13584912Y-14108785D02*
X13537293Y-14251642D01*
X13537293Y-14251642D02*
X13661102Y-14251642D01*
X13727769Y-14118309D02*
X13727769Y-14156404D01*
X13803960Y-14118309D02*
X13803960Y-14156404D01*
X14099198Y-14394499D02*
X14089674Y-14384975D01*
X14089674Y-14384975D02*
X14070626Y-14356404D01*
X14070626Y-14356404D02*
X14061103Y-14337356D01*
X14061103Y-14337356D02*
X14051579Y-14308785D01*
X14051579Y-14308785D02*
X14042055Y-14261166D01*
X14042055Y-14261166D02*
X14042055Y-14223071D01*
X14042055Y-14223071D02*
X14051579Y-14175452D01*
X14051579Y-14175452D02*
X14061103Y-14146880D01*
X14061103Y-14146880D02*
X14070626Y-14127833D01*
X14070626Y-14127833D02*
X14089674Y-14099261D01*
X14089674Y-14099261D02*
X14099198Y-14089737D01*
X14165864Y-14137356D02*
X14175388Y-14127833D01*
X14175388Y-14127833D02*
X14194436Y-14118309D01*
X14194436Y-14118309D02*
X14242055Y-14118309D01*
X14242055Y-14118309D02*
X14261103Y-14127833D01*
X14261103Y-14127833D02*
X14270626Y-14137356D01*
X14270626Y-14137356D02*
X14280150Y-14156404D01*
X14280150Y-14156404D02*
X14280150Y-14175452D01*
X14280150Y-14175452D02*
X14270626Y-14204023D01*
X14270626Y-14204023D02*
X14156341Y-14318309D01*
X14156341Y-14318309D02*
X14280150Y-14318309D01*
X14403960Y-14118309D02*
X14423007Y-14118309D01*
X14423007Y-14118309D02*
X14442055Y-14127833D01*
X14442055Y-14127833D02*
X14451579Y-14137356D01*
X14451579Y-14137356D02*
X14461103Y-14156404D01*
X14461103Y-14156404D02*
X14470626Y-14194499D01*
X14470626Y-14194499D02*
X14470626Y-14242118D01*
X14470626Y-14242118D02*
X14461103Y-14280213D01*
X14461103Y-14280213D02*
X14451579Y-14299261D01*
X14451579Y-14299261D02*
X14442055Y-14308785D01*
X14442055Y-14308785D02*
X14423007Y-14318309D01*
X14423007Y-14318309D02*
X14403960Y-14318309D01*
X14403960Y-14318309D02*
X14384912Y-14308785D01*
X14384912Y-14308785D02*
X14375388Y-14299261D01*
X14375388Y-14299261D02*
X14365864Y-14280213D01*
X14365864Y-14280213D02*
X14356341Y-14242118D01*
X14356341Y-14242118D02*
X14356341Y-14194499D01*
X14356341Y-14194499D02*
X14365864Y-14156404D01*
X14365864Y-14156404D02*
X14375388Y-14137356D01*
X14375388Y-14137356D02*
X14384912Y-14127833D01*
X14384912Y-14127833D02*
X14403960Y-14118309D01*
X14708722Y-14318309D02*
X14708722Y-14118309D01*
X14794436Y-14318309D02*
X14794436Y-14213547D01*
X14794436Y-14213547D02*
X14784912Y-14194499D01*
X14784912Y-14194499D02*
X14765865Y-14184975D01*
X14765865Y-14184975D02*
X14737293Y-14184975D01*
X14737293Y-14184975D02*
X14718245Y-14194499D01*
X14718245Y-14194499D02*
X14708722Y-14204023D01*
X14918245Y-14318309D02*
X14899198Y-14308785D01*
X14899198Y-14308785D02*
X14889674Y-14299261D01*
X14889674Y-14299261D02*
X14880150Y-14280213D01*
X14880150Y-14280213D02*
X14880150Y-14223071D01*
X14880150Y-14223071D02*
X14889674Y-14204023D01*
X14889674Y-14204023D02*
X14899198Y-14194499D01*
X14899198Y-14194499D02*
X14918245Y-14184975D01*
X14918245Y-14184975D02*
X14946817Y-14184975D01*
X14946817Y-14184975D02*
X14965865Y-14194499D01*
X14965865Y-14194499D02*
X14975388Y-14204023D01*
X14975388Y-14204023D02*
X14984912Y-14223071D01*
X14984912Y-14223071D02*
X14984912Y-14280213D01*
X14984912Y-14280213D02*
X14975388Y-14299261D01*
X14975388Y-14299261D02*
X14965865Y-14308785D01*
X14965865Y-14308785D02*
X14946817Y-14318309D01*
X14946817Y-14318309D02*
X14918245Y-14318309D01*
X15099198Y-14318309D02*
X15080150Y-14308785D01*
X15080150Y-14308785D02*
X15070626Y-14289737D01*
X15070626Y-14289737D02*
X15070626Y-14118309D01*
X15251579Y-14308785D02*
X15232531Y-14318309D01*
X15232531Y-14318309D02*
X15194436Y-14318309D01*
X15194436Y-14318309D02*
X15175388Y-14308785D01*
X15175388Y-14308785D02*
X15165865Y-14289737D01*
X15165865Y-14289737D02*
X15165865Y-14213547D01*
X15165865Y-14213547D02*
X15175388Y-14194499D01*
X15175388Y-14194499D02*
X15194436Y-14184975D01*
X15194436Y-14184975D02*
X15232531Y-14184975D01*
X15232531Y-14184975D02*
X15251579Y-14194499D01*
X15251579Y-14194499D02*
X15261103Y-14213547D01*
X15261103Y-14213547D02*
X15261103Y-14232594D01*
X15261103Y-14232594D02*
X15165865Y-14251642D01*
X15337293Y-14308785D02*
X15356341Y-14318309D01*
X15356341Y-14318309D02*
X15394436Y-14318309D01*
X15394436Y-14318309D02*
X15413484Y-14308785D01*
X15413484Y-14308785D02*
X15423007Y-14289737D01*
X15423007Y-14289737D02*
X15423007Y-14280213D01*
X15423007Y-14280213D02*
X15413484Y-14261166D01*
X15413484Y-14261166D02*
X15394436Y-14251642D01*
X15394436Y-14251642D02*
X15365865Y-14251642D01*
X15365865Y-14251642D02*
X15346817Y-14242118D01*
X15346817Y-14242118D02*
X15337293Y-14223071D01*
X15337293Y-14223071D02*
X15337293Y-14213547D01*
X15337293Y-14213547D02*
X15346817Y-14194499D01*
X15346817Y-14194499D02*
X15365865Y-14184975D01*
X15365865Y-14184975D02*
X15394436Y-14184975D01*
X15394436Y-14184975D02*
X15413484Y-14194499D01*
X15489674Y-14394499D02*
X15499198Y-14384975D01*
X15499198Y-14384975D02*
X15518246Y-14356404D01*
X15518246Y-14356404D02*
X15527769Y-14337356D01*
X15527769Y-14337356D02*
X15537293Y-14308785D01*
X15537293Y-14308785D02*
X15546817Y-14261166D01*
X15546817Y-14261166D02*
X15546817Y-14223071D01*
X15546817Y-14223071D02*
X15537293Y-14175452D01*
X15537293Y-14175452D02*
X15527769Y-14146880D01*
X15527769Y-14146880D02*
X15518246Y-14127833D01*
X15518246Y-14127833D02*
X15499198Y-14099261D01*
X15499198Y-14099261D02*
X15489674Y-14089737D01*
D13*
X10394135Y-14425825D02*
X10524135Y-14555825D01*
X10524135Y-14425825D02*
X10394135Y-14555825D01*
X10524135Y-14490825D02*
G75*
G02*
X10394135Y-14490825I-65000J0D01*
G01*
X10394135Y-14490825D02*
G75*
G02*
X10524135Y-14490825I65000J0D01*
G01*
D11*
X10889674Y-14582309D02*
X10775388Y-14582309D01*
X10832531Y-14582309D02*
X10832531Y-14382309D01*
X10832531Y-14382309D02*
X10813483Y-14410880D01*
X10813483Y-14410880D02*
X10794436Y-14429928D01*
X10794436Y-14429928D02*
X10775388Y-14439452D01*
X10975388Y-14563261D02*
X10984912Y-14572785D01*
X10984912Y-14572785D02*
X10975388Y-14582309D01*
X10975388Y-14582309D02*
X10965864Y-14572785D01*
X10965864Y-14572785D02*
X10975388Y-14563261D01*
X10975388Y-14563261D02*
X10975388Y-14582309D01*
X11051579Y-14382309D02*
X11175388Y-14382309D01*
X11175388Y-14382309D02*
X11108721Y-14458499D01*
X11108721Y-14458499D02*
X11137293Y-14458499D01*
X11137293Y-14458499D02*
X11156340Y-14468023D01*
X11156340Y-14468023D02*
X11165864Y-14477547D01*
X11165864Y-14477547D02*
X11175388Y-14496594D01*
X11175388Y-14496594D02*
X11175388Y-14544213D01*
X11175388Y-14544213D02*
X11165864Y-14563261D01*
X11165864Y-14563261D02*
X11156340Y-14572785D01*
X11156340Y-14572785D02*
X11137293Y-14582309D01*
X11137293Y-14582309D02*
X11080150Y-14582309D01*
X11080150Y-14582309D02*
X11061102Y-14572785D01*
X11061102Y-14572785D02*
X11051579Y-14563261D01*
X11299197Y-14382309D02*
X11318245Y-14382309D01*
X11318245Y-14382309D02*
X11337293Y-14391833D01*
X11337293Y-14391833D02*
X11346817Y-14401356D01*
X11346817Y-14401356D02*
X11356340Y-14420404D01*
X11356340Y-14420404D02*
X11365864Y-14458499D01*
X11365864Y-14458499D02*
X11365864Y-14506118D01*
X11365864Y-14506118D02*
X11356340Y-14544213D01*
X11356340Y-14544213D02*
X11346817Y-14563261D01*
X11346817Y-14563261D02*
X11337293Y-14572785D01*
X11337293Y-14572785D02*
X11318245Y-14582309D01*
X11318245Y-14582309D02*
X11299197Y-14582309D01*
X11299197Y-14582309D02*
X11280150Y-14572785D01*
X11280150Y-14572785D02*
X11270626Y-14563261D01*
X11270626Y-14563261D02*
X11261102Y-14544213D01*
X11261102Y-14544213D02*
X11251578Y-14506118D01*
X11251578Y-14506118D02*
X11251578Y-14458499D01*
X11251578Y-14458499D02*
X11261102Y-14420404D01*
X11261102Y-14420404D02*
X11270626Y-14401356D01*
X11270626Y-14401356D02*
X11280150Y-14391833D01*
X11280150Y-14391833D02*
X11299197Y-14382309D01*
X11489674Y-14382309D02*
X11508721Y-14382309D01*
X11508721Y-14382309D02*
X11527769Y-14391833D01*
X11527769Y-14391833D02*
X11537293Y-14401356D01*
X11537293Y-14401356D02*
X11546817Y-14420404D01*
X11546817Y-14420404D02*
X11556340Y-14458499D01*
X11556340Y-14458499D02*
X11556340Y-14506118D01*
X11556340Y-14506118D02*
X11546817Y-14544213D01*
X11546817Y-14544213D02*
X11537293Y-14563261D01*
X11537293Y-14563261D02*
X11527769Y-14572785D01*
X11527769Y-14572785D02*
X11508721Y-14582309D01*
X11508721Y-14582309D02*
X11489674Y-14582309D01*
X11489674Y-14582309D02*
X11470626Y-14572785D01*
X11470626Y-14572785D02*
X11461102Y-14563261D01*
X11461102Y-14563261D02*
X11451578Y-14544213D01*
X11451578Y-14544213D02*
X11442055Y-14506118D01*
X11442055Y-14506118D02*
X11442055Y-14458499D01*
X11442055Y-14458499D02*
X11451578Y-14420404D01*
X11451578Y-14420404D02*
X11461102Y-14401356D01*
X11461102Y-14401356D02*
X11470626Y-14391833D01*
X11470626Y-14391833D02*
X11489674Y-14382309D01*
X11642055Y-14582309D02*
X11642055Y-14448975D01*
X11642055Y-14468023D02*
X11651578Y-14458499D01*
X11651578Y-14458499D02*
X11670626Y-14448975D01*
X11670626Y-14448975D02*
X11699198Y-14448975D01*
X11699198Y-14448975D02*
X11718245Y-14458499D01*
X11718245Y-14458499D02*
X11727769Y-14477547D01*
X11727769Y-14477547D02*
X11727769Y-14582309D01*
X11727769Y-14477547D02*
X11737293Y-14458499D01*
X11737293Y-14458499D02*
X11756340Y-14448975D01*
X11756340Y-14448975D02*
X11784912Y-14448975D01*
X11784912Y-14448975D02*
X11803959Y-14458499D01*
X11803959Y-14458499D02*
X11813483Y-14477547D01*
X11813483Y-14477547D02*
X11813483Y-14582309D01*
X11908721Y-14582309D02*
X11908721Y-14448975D01*
X11908721Y-14468023D02*
X11918245Y-14458499D01*
X11918245Y-14458499D02*
X11937293Y-14448975D01*
X11937293Y-14448975D02*
X11965864Y-14448975D01*
X11965864Y-14448975D02*
X11984912Y-14458499D01*
X11984912Y-14458499D02*
X11994436Y-14477547D01*
X11994436Y-14477547D02*
X11994436Y-14582309D01*
X11994436Y-14477547D02*
X12003959Y-14458499D01*
X12003959Y-14458499D02*
X12023007Y-14448975D01*
X12023007Y-14448975D02*
X12051578Y-14448975D01*
X12051578Y-14448975D02*
X12070626Y-14458499D01*
X12070626Y-14458499D02*
X12080150Y-14477547D01*
X12080150Y-14477547D02*
X12080150Y-14582309D01*
X12470626Y-14372785D02*
X12299198Y-14629928D01*
X12727769Y-14382309D02*
X12746817Y-14382309D01*
X12746817Y-14382309D02*
X12765864Y-14391833D01*
X12765864Y-14391833D02*
X12775388Y-14401356D01*
X12775388Y-14401356D02*
X12784912Y-14420404D01*
X12784912Y-14420404D02*
X12794436Y-14458499D01*
X12794436Y-14458499D02*
X12794436Y-14506118D01*
X12794436Y-14506118D02*
X12784912Y-14544213D01*
X12784912Y-14544213D02*
X12775388Y-14563261D01*
X12775388Y-14563261D02*
X12765864Y-14572785D01*
X12765864Y-14572785D02*
X12746817Y-14582309D01*
X12746817Y-14582309D02*
X12727769Y-14582309D01*
X12727769Y-14582309D02*
X12708721Y-14572785D01*
X12708721Y-14572785D02*
X12699198Y-14563261D01*
X12699198Y-14563261D02*
X12689674Y-14544213D01*
X12689674Y-14544213D02*
X12680150Y-14506118D01*
X12680150Y-14506118D02*
X12680150Y-14458499D01*
X12680150Y-14458499D02*
X12689674Y-14420404D01*
X12689674Y-14420404D02*
X12699198Y-14401356D01*
X12699198Y-14401356D02*
X12708721Y-14391833D01*
X12708721Y-14391833D02*
X12727769Y-14382309D01*
X12880150Y-14563261D02*
X12889674Y-14572785D01*
X12889674Y-14572785D02*
X12880150Y-14582309D01*
X12880150Y-14582309D02*
X12870626Y-14572785D01*
X12870626Y-14572785D02*
X12880150Y-14563261D01*
X12880150Y-14563261D02*
X12880150Y-14582309D01*
X13013483Y-14382309D02*
X13032531Y-14382309D01*
X13032531Y-14382309D02*
X13051579Y-14391833D01*
X13051579Y-14391833D02*
X13061102Y-14401356D01*
X13061102Y-14401356D02*
X13070626Y-14420404D01*
X13070626Y-14420404D02*
X13080150Y-14458499D01*
X13080150Y-14458499D02*
X13080150Y-14506118D01*
X13080150Y-14506118D02*
X13070626Y-14544213D01*
X13070626Y-14544213D02*
X13061102Y-14563261D01*
X13061102Y-14563261D02*
X13051579Y-14572785D01*
X13051579Y-14572785D02*
X13032531Y-14582309D01*
X13032531Y-14582309D02*
X13013483Y-14582309D01*
X13013483Y-14582309D02*
X12994436Y-14572785D01*
X12994436Y-14572785D02*
X12984912Y-14563261D01*
X12984912Y-14563261D02*
X12975388Y-14544213D01*
X12975388Y-14544213D02*
X12965864Y-14506118D01*
X12965864Y-14506118D02*
X12965864Y-14458499D01*
X12965864Y-14458499D02*
X12975388Y-14420404D01*
X12975388Y-14420404D02*
X12984912Y-14401356D01*
X12984912Y-14401356D02*
X12994436Y-14391833D01*
X12994436Y-14391833D02*
X13013483Y-14382309D01*
X13261102Y-14382309D02*
X13165864Y-14382309D01*
X13165864Y-14382309D02*
X13156341Y-14477547D01*
X13156341Y-14477547D02*
X13165864Y-14468023D01*
X13165864Y-14468023D02*
X13184912Y-14458499D01*
X13184912Y-14458499D02*
X13232531Y-14458499D01*
X13232531Y-14458499D02*
X13251579Y-14468023D01*
X13251579Y-14468023D02*
X13261102Y-14477547D01*
X13261102Y-14477547D02*
X13270626Y-14496594D01*
X13270626Y-14496594D02*
X13270626Y-14544213D01*
X13270626Y-14544213D02*
X13261102Y-14563261D01*
X13261102Y-14563261D02*
X13251579Y-14572785D01*
X13251579Y-14572785D02*
X13232531Y-14582309D01*
X13232531Y-14582309D02*
X13184912Y-14582309D01*
X13184912Y-14582309D02*
X13165864Y-14572785D01*
X13165864Y-14572785D02*
X13156341Y-14563261D01*
X13461102Y-14582309D02*
X13346817Y-14582309D01*
X13403960Y-14582309D02*
X13403960Y-14382309D01*
X13403960Y-14382309D02*
X13384912Y-14410880D01*
X13384912Y-14410880D02*
X13365864Y-14429928D01*
X13365864Y-14429928D02*
X13346817Y-14439452D01*
X13537293Y-14401356D02*
X13546817Y-14391833D01*
X13546817Y-14391833D02*
X13565864Y-14382309D01*
X13565864Y-14382309D02*
X13613483Y-14382309D01*
X13613483Y-14382309D02*
X13632531Y-14391833D01*
X13632531Y-14391833D02*
X13642055Y-14401356D01*
X13642055Y-14401356D02*
X13651579Y-14420404D01*
X13651579Y-14420404D02*
X13651579Y-14439452D01*
X13651579Y-14439452D02*
X13642055Y-14468023D01*
X13642055Y-14468023D02*
X13527769Y-14582309D01*
X13527769Y-14582309D02*
X13651579Y-14582309D01*
X13727769Y-14382309D02*
X13727769Y-14420404D01*
X13803960Y-14382309D02*
X13803960Y-14420404D01*
X14099198Y-14658499D02*
X14089674Y-14648975D01*
X14089674Y-14648975D02*
X14070626Y-14620404D01*
X14070626Y-14620404D02*
X14061103Y-14601356D01*
X14061103Y-14601356D02*
X14051579Y-14572785D01*
X14051579Y-14572785D02*
X14042055Y-14525166D01*
X14042055Y-14525166D02*
X14042055Y-14487071D01*
X14042055Y-14487071D02*
X14051579Y-14439452D01*
X14051579Y-14439452D02*
X14061103Y-14410880D01*
X14061103Y-14410880D02*
X14070626Y-14391833D01*
X14070626Y-14391833D02*
X14089674Y-14363261D01*
X14089674Y-14363261D02*
X14099198Y-14353737D01*
X14165864Y-14401356D02*
X14175388Y-14391833D01*
X14175388Y-14391833D02*
X14194436Y-14382309D01*
X14194436Y-14382309D02*
X14242055Y-14382309D01*
X14242055Y-14382309D02*
X14261103Y-14391833D01*
X14261103Y-14391833D02*
X14270626Y-14401356D01*
X14270626Y-14401356D02*
X14280150Y-14420404D01*
X14280150Y-14420404D02*
X14280150Y-14439452D01*
X14280150Y-14439452D02*
X14270626Y-14468023D01*
X14270626Y-14468023D02*
X14156341Y-14582309D01*
X14156341Y-14582309D02*
X14280150Y-14582309D01*
X14518245Y-14582309D02*
X14518245Y-14382309D01*
X14603960Y-14582309D02*
X14603960Y-14477547D01*
X14603960Y-14477547D02*
X14594436Y-14458499D01*
X14594436Y-14458499D02*
X14575388Y-14448975D01*
X14575388Y-14448975D02*
X14546817Y-14448975D01*
X14546817Y-14448975D02*
X14527769Y-14458499D01*
X14527769Y-14458499D02*
X14518245Y-14468023D01*
X14727769Y-14582309D02*
X14708722Y-14572785D01*
X14708722Y-14572785D02*
X14699198Y-14563261D01*
X14699198Y-14563261D02*
X14689674Y-14544213D01*
X14689674Y-14544213D02*
X14689674Y-14487071D01*
X14689674Y-14487071D02*
X14699198Y-14468023D01*
X14699198Y-14468023D02*
X14708722Y-14458499D01*
X14708722Y-14458499D02*
X14727769Y-14448975D01*
X14727769Y-14448975D02*
X14756341Y-14448975D01*
X14756341Y-14448975D02*
X14775388Y-14458499D01*
X14775388Y-14458499D02*
X14784912Y-14468023D01*
X14784912Y-14468023D02*
X14794436Y-14487071D01*
X14794436Y-14487071D02*
X14794436Y-14544213D01*
X14794436Y-14544213D02*
X14784912Y-14563261D01*
X14784912Y-14563261D02*
X14775388Y-14572785D01*
X14775388Y-14572785D02*
X14756341Y-14582309D01*
X14756341Y-14582309D02*
X14727769Y-14582309D01*
X14908722Y-14582309D02*
X14889674Y-14572785D01*
X14889674Y-14572785D02*
X14880150Y-14553737D01*
X14880150Y-14553737D02*
X14880150Y-14382309D01*
X15061103Y-14572785D02*
X15042055Y-14582309D01*
X15042055Y-14582309D02*
X15003960Y-14582309D01*
X15003960Y-14582309D02*
X14984912Y-14572785D01*
X14984912Y-14572785D02*
X14975388Y-14553737D01*
X14975388Y-14553737D02*
X14975388Y-14477547D01*
X14975388Y-14477547D02*
X14984912Y-14458499D01*
X14984912Y-14458499D02*
X15003960Y-14448975D01*
X15003960Y-14448975D02*
X15042055Y-14448975D01*
X15042055Y-14448975D02*
X15061103Y-14458499D01*
X15061103Y-14458499D02*
X15070626Y-14477547D01*
X15070626Y-14477547D02*
X15070626Y-14496594D01*
X15070626Y-14496594D02*
X14975388Y-14515642D01*
X15146817Y-14572785D02*
X15165865Y-14582309D01*
X15165865Y-14582309D02*
X15203960Y-14582309D01*
X15203960Y-14582309D02*
X15223007Y-14572785D01*
X15223007Y-14572785D02*
X15232531Y-14553737D01*
X15232531Y-14553737D02*
X15232531Y-14544213D01*
X15232531Y-14544213D02*
X15223007Y-14525166D01*
X15223007Y-14525166D02*
X15203960Y-14515642D01*
X15203960Y-14515642D02*
X15175388Y-14515642D01*
X15175388Y-14515642D02*
X15156341Y-14506118D01*
X15156341Y-14506118D02*
X15146817Y-14487071D01*
X15146817Y-14487071D02*
X15146817Y-14477547D01*
X15146817Y-14477547D02*
X15156341Y-14458499D01*
X15156341Y-14458499D02*
X15175388Y-14448975D01*
X15175388Y-14448975D02*
X15203960Y-14448975D01*
X15203960Y-14448975D02*
X15223007Y-14458499D01*
X15299198Y-14658499D02*
X15308722Y-14648975D01*
X15308722Y-14648975D02*
X15327769Y-14620404D01*
X15327769Y-14620404D02*
X15337293Y-14601356D01*
X15337293Y-14601356D02*
X15346817Y-14572785D01*
X15346817Y-14572785D02*
X15356341Y-14525166D01*
X15356341Y-14525166D02*
X15356341Y-14487071D01*
X15356341Y-14487071D02*
X15346817Y-14439452D01*
X15346817Y-14439452D02*
X15337293Y-14410880D01*
X15337293Y-14410880D02*
X15327769Y-14391833D01*
X15327769Y-14391833D02*
X15308722Y-14363261D01*
X15308722Y-14363261D02*
X15299198Y-14353737D01*
D14*
X10353955Y-14669735D02*
X10524135Y-14839915D01*
X10524135Y-14669735D02*
X10353955Y-14839915D01*
X10439045Y-14669735D02*
X10439045Y-14839915D01*
X10353955Y-14754825D02*
X10524135Y-14754825D01*
D11*
X10889674Y-14846309D02*
X10775388Y-14846309D01*
X10832531Y-14846309D02*
X10832531Y-14646309D01*
X10832531Y-14646309D02*
X10813483Y-14674880D01*
X10813483Y-14674880D02*
X10794436Y-14693928D01*
X10794436Y-14693928D02*
X10775388Y-14703452D01*
X10975388Y-14827261D02*
X10984912Y-14836785D01*
X10984912Y-14836785D02*
X10975388Y-14846309D01*
X10975388Y-14846309D02*
X10965864Y-14836785D01*
X10965864Y-14836785D02*
X10975388Y-14827261D01*
X10975388Y-14827261D02*
X10975388Y-14846309D01*
X11051579Y-14646309D02*
X11184912Y-14646309D01*
X11184912Y-14646309D02*
X11099198Y-14846309D01*
X11299197Y-14646309D02*
X11318245Y-14646309D01*
X11318245Y-14646309D02*
X11337293Y-14655833D01*
X11337293Y-14655833D02*
X11346817Y-14665356D01*
X11346817Y-14665356D02*
X11356340Y-14684404D01*
X11356340Y-14684404D02*
X11365864Y-14722499D01*
X11365864Y-14722499D02*
X11365864Y-14770118D01*
X11365864Y-14770118D02*
X11356340Y-14808213D01*
X11356340Y-14808213D02*
X11346817Y-14827261D01*
X11346817Y-14827261D02*
X11337293Y-14836785D01*
X11337293Y-14836785D02*
X11318245Y-14846309D01*
X11318245Y-14846309D02*
X11299197Y-14846309D01*
X11299197Y-14846309D02*
X11280150Y-14836785D01*
X11280150Y-14836785D02*
X11270626Y-14827261D01*
X11270626Y-14827261D02*
X11261102Y-14808213D01*
X11261102Y-14808213D02*
X11251578Y-14770118D01*
X11251578Y-14770118D02*
X11251578Y-14722499D01*
X11251578Y-14722499D02*
X11261102Y-14684404D01*
X11261102Y-14684404D02*
X11270626Y-14665356D01*
X11270626Y-14665356D02*
X11280150Y-14655833D01*
X11280150Y-14655833D02*
X11299197Y-14646309D01*
X11442055Y-14665356D02*
X11451578Y-14655833D01*
X11451578Y-14655833D02*
X11470626Y-14646309D01*
X11470626Y-14646309D02*
X11518245Y-14646309D01*
X11518245Y-14646309D02*
X11537293Y-14655833D01*
X11537293Y-14655833D02*
X11546817Y-14665356D01*
X11546817Y-14665356D02*
X11556340Y-14684404D01*
X11556340Y-14684404D02*
X11556340Y-14703452D01*
X11556340Y-14703452D02*
X11546817Y-14732023D01*
X11546817Y-14732023D02*
X11432531Y-14846309D01*
X11432531Y-14846309D02*
X11556340Y-14846309D01*
X11642055Y-14846309D02*
X11642055Y-14712975D01*
X11642055Y-14732023D02*
X11651578Y-14722499D01*
X11651578Y-14722499D02*
X11670626Y-14712975D01*
X11670626Y-14712975D02*
X11699198Y-14712975D01*
X11699198Y-14712975D02*
X11718245Y-14722499D01*
X11718245Y-14722499D02*
X11727769Y-14741547D01*
X11727769Y-14741547D02*
X11727769Y-14846309D01*
X11727769Y-14741547D02*
X11737293Y-14722499D01*
X11737293Y-14722499D02*
X11756340Y-14712975D01*
X11756340Y-14712975D02*
X11784912Y-14712975D01*
X11784912Y-14712975D02*
X11803959Y-14722499D01*
X11803959Y-14722499D02*
X11813483Y-14741547D01*
X11813483Y-14741547D02*
X11813483Y-14846309D01*
X11908721Y-14846309D02*
X11908721Y-14712975D01*
X11908721Y-14732023D02*
X11918245Y-14722499D01*
X11918245Y-14722499D02*
X11937293Y-14712975D01*
X11937293Y-14712975D02*
X11965864Y-14712975D01*
X11965864Y-14712975D02*
X11984912Y-14722499D01*
X11984912Y-14722499D02*
X11994436Y-14741547D01*
X11994436Y-14741547D02*
X11994436Y-14846309D01*
X11994436Y-14741547D02*
X12003959Y-14722499D01*
X12003959Y-14722499D02*
X12023007Y-14712975D01*
X12023007Y-14712975D02*
X12051578Y-14712975D01*
X12051578Y-14712975D02*
X12070626Y-14722499D01*
X12070626Y-14722499D02*
X12080150Y-14741547D01*
X12080150Y-14741547D02*
X12080150Y-14846309D01*
X12470626Y-14636785D02*
X12299198Y-14893928D01*
X12727769Y-14646309D02*
X12746817Y-14646309D01*
X12746817Y-14646309D02*
X12765864Y-14655833D01*
X12765864Y-14655833D02*
X12775388Y-14665356D01*
X12775388Y-14665356D02*
X12784912Y-14684404D01*
X12784912Y-14684404D02*
X12794436Y-14722499D01*
X12794436Y-14722499D02*
X12794436Y-14770118D01*
X12794436Y-14770118D02*
X12784912Y-14808213D01*
X12784912Y-14808213D02*
X12775388Y-14827261D01*
X12775388Y-14827261D02*
X12765864Y-14836785D01*
X12765864Y-14836785D02*
X12746817Y-14846309D01*
X12746817Y-14846309D02*
X12727769Y-14846309D01*
X12727769Y-14846309D02*
X12708721Y-14836785D01*
X12708721Y-14836785D02*
X12699198Y-14827261D01*
X12699198Y-14827261D02*
X12689674Y-14808213D01*
X12689674Y-14808213D02*
X12680150Y-14770118D01*
X12680150Y-14770118D02*
X12680150Y-14722499D01*
X12680150Y-14722499D02*
X12689674Y-14684404D01*
X12689674Y-14684404D02*
X12699198Y-14665356D01*
X12699198Y-14665356D02*
X12708721Y-14655833D01*
X12708721Y-14655833D02*
X12727769Y-14646309D01*
X12880150Y-14827261D02*
X12889674Y-14836785D01*
X12889674Y-14836785D02*
X12880150Y-14846309D01*
X12880150Y-14846309D02*
X12870626Y-14836785D01*
X12870626Y-14836785D02*
X12880150Y-14827261D01*
X12880150Y-14827261D02*
X12880150Y-14846309D01*
X13013483Y-14646309D02*
X13032531Y-14646309D01*
X13032531Y-14646309D02*
X13051579Y-14655833D01*
X13051579Y-14655833D02*
X13061102Y-14665356D01*
X13061102Y-14665356D02*
X13070626Y-14684404D01*
X13070626Y-14684404D02*
X13080150Y-14722499D01*
X13080150Y-14722499D02*
X13080150Y-14770118D01*
X13080150Y-14770118D02*
X13070626Y-14808213D01*
X13070626Y-14808213D02*
X13061102Y-14827261D01*
X13061102Y-14827261D02*
X13051579Y-14836785D01*
X13051579Y-14836785D02*
X13032531Y-14846309D01*
X13032531Y-14846309D02*
X13013483Y-14846309D01*
X13013483Y-14846309D02*
X12994436Y-14836785D01*
X12994436Y-14836785D02*
X12984912Y-14827261D01*
X12984912Y-14827261D02*
X12975388Y-14808213D01*
X12975388Y-14808213D02*
X12965864Y-14770118D01*
X12965864Y-14770118D02*
X12965864Y-14722499D01*
X12965864Y-14722499D02*
X12975388Y-14684404D01*
X12975388Y-14684404D02*
X12984912Y-14665356D01*
X12984912Y-14665356D02*
X12994436Y-14655833D01*
X12994436Y-14655833D02*
X13013483Y-14646309D01*
X13251579Y-14646309D02*
X13213483Y-14646309D01*
X13213483Y-14646309D02*
X13194436Y-14655833D01*
X13194436Y-14655833D02*
X13184912Y-14665356D01*
X13184912Y-14665356D02*
X13165864Y-14693928D01*
X13165864Y-14693928D02*
X13156341Y-14732023D01*
X13156341Y-14732023D02*
X13156341Y-14808213D01*
X13156341Y-14808213D02*
X13165864Y-14827261D01*
X13165864Y-14827261D02*
X13175388Y-14836785D01*
X13175388Y-14836785D02*
X13194436Y-14846309D01*
X13194436Y-14846309D02*
X13232531Y-14846309D01*
X13232531Y-14846309D02*
X13251579Y-14836785D01*
X13251579Y-14836785D02*
X13261102Y-14827261D01*
X13261102Y-14827261D02*
X13270626Y-14808213D01*
X13270626Y-14808213D02*
X13270626Y-14760594D01*
X13270626Y-14760594D02*
X13261102Y-14741547D01*
X13261102Y-14741547D02*
X13251579Y-14732023D01*
X13251579Y-14732023D02*
X13232531Y-14722499D01*
X13232531Y-14722499D02*
X13194436Y-14722499D01*
X13194436Y-14722499D02*
X13175388Y-14732023D01*
X13175388Y-14732023D02*
X13165864Y-14741547D01*
X13165864Y-14741547D02*
X13156341Y-14760594D01*
X13337293Y-14646309D02*
X13470626Y-14646309D01*
X13470626Y-14646309D02*
X13384912Y-14846309D01*
X13584912Y-14646309D02*
X13603960Y-14646309D01*
X13603960Y-14646309D02*
X13623007Y-14655833D01*
X13623007Y-14655833D02*
X13632531Y-14665356D01*
X13632531Y-14665356D02*
X13642055Y-14684404D01*
X13642055Y-14684404D02*
X13651579Y-14722499D01*
X13651579Y-14722499D02*
X13651579Y-14770118D01*
X13651579Y-14770118D02*
X13642055Y-14808213D01*
X13642055Y-14808213D02*
X13632531Y-14827261D01*
X13632531Y-14827261D02*
X13623007Y-14836785D01*
X13623007Y-14836785D02*
X13603960Y-14846309D01*
X13603960Y-14846309D02*
X13584912Y-14846309D01*
X13584912Y-14846309D02*
X13565864Y-14836785D01*
X13565864Y-14836785D02*
X13556341Y-14827261D01*
X13556341Y-14827261D02*
X13546817Y-14808213D01*
X13546817Y-14808213D02*
X13537293Y-14770118D01*
X13537293Y-14770118D02*
X13537293Y-14722499D01*
X13537293Y-14722499D02*
X13546817Y-14684404D01*
X13546817Y-14684404D02*
X13556341Y-14665356D01*
X13556341Y-14665356D02*
X13565864Y-14655833D01*
X13565864Y-14655833D02*
X13584912Y-14646309D01*
X13727769Y-14646309D02*
X13727769Y-14684404D01*
X13803960Y-14646309D02*
X13803960Y-14684404D01*
X14099198Y-14922499D02*
X14089674Y-14912975D01*
X14089674Y-14912975D02*
X14070626Y-14884404D01*
X14070626Y-14884404D02*
X14061103Y-14865356D01*
X14061103Y-14865356D02*
X14051579Y-14836785D01*
X14051579Y-14836785D02*
X14042055Y-14789166D01*
X14042055Y-14789166D02*
X14042055Y-14751071D01*
X14042055Y-14751071D02*
X14051579Y-14703452D01*
X14051579Y-14703452D02*
X14061103Y-14674880D01*
X14061103Y-14674880D02*
X14070626Y-14655833D01*
X14070626Y-14655833D02*
X14089674Y-14627261D01*
X14089674Y-14627261D02*
X14099198Y-14617737D01*
X14270626Y-14646309D02*
X14175388Y-14646309D01*
X14175388Y-14646309D02*
X14165864Y-14741547D01*
X14165864Y-14741547D02*
X14175388Y-14732023D01*
X14175388Y-14732023D02*
X14194436Y-14722499D01*
X14194436Y-14722499D02*
X14242055Y-14722499D01*
X14242055Y-14722499D02*
X14261103Y-14732023D01*
X14261103Y-14732023D02*
X14270626Y-14741547D01*
X14270626Y-14741547D02*
X14280150Y-14760594D01*
X14280150Y-14760594D02*
X14280150Y-14808213D01*
X14280150Y-14808213D02*
X14270626Y-14827261D01*
X14270626Y-14827261D02*
X14261103Y-14836785D01*
X14261103Y-14836785D02*
X14242055Y-14846309D01*
X14242055Y-14846309D02*
X14194436Y-14846309D01*
X14194436Y-14846309D02*
X14175388Y-14836785D01*
X14175388Y-14836785D02*
X14165864Y-14827261D01*
X14518245Y-14846309D02*
X14518245Y-14646309D01*
X14603960Y-14846309D02*
X14603960Y-14741547D01*
X14603960Y-14741547D02*
X14594436Y-14722499D01*
X14594436Y-14722499D02*
X14575388Y-14712975D01*
X14575388Y-14712975D02*
X14546817Y-14712975D01*
X14546817Y-14712975D02*
X14527769Y-14722499D01*
X14527769Y-14722499D02*
X14518245Y-14732023D01*
X14727769Y-14846309D02*
X14708722Y-14836785D01*
X14708722Y-14836785D02*
X14699198Y-14827261D01*
X14699198Y-14827261D02*
X14689674Y-14808213D01*
X14689674Y-14808213D02*
X14689674Y-14751071D01*
X14689674Y-14751071D02*
X14699198Y-14732023D01*
X14699198Y-14732023D02*
X14708722Y-14722499D01*
X14708722Y-14722499D02*
X14727769Y-14712975D01*
X14727769Y-14712975D02*
X14756341Y-14712975D01*
X14756341Y-14712975D02*
X14775388Y-14722499D01*
X14775388Y-14722499D02*
X14784912Y-14732023D01*
X14784912Y-14732023D02*
X14794436Y-14751071D01*
X14794436Y-14751071D02*
X14794436Y-14808213D01*
X14794436Y-14808213D02*
X14784912Y-14827261D01*
X14784912Y-14827261D02*
X14775388Y-14836785D01*
X14775388Y-14836785D02*
X14756341Y-14846309D01*
X14756341Y-14846309D02*
X14727769Y-14846309D01*
X14908722Y-14846309D02*
X14889674Y-14836785D01*
X14889674Y-14836785D02*
X14880150Y-14817737D01*
X14880150Y-14817737D02*
X14880150Y-14646309D01*
X15061103Y-14836785D02*
X15042055Y-14846309D01*
X15042055Y-14846309D02*
X15003960Y-14846309D01*
X15003960Y-14846309D02*
X14984912Y-14836785D01*
X14984912Y-14836785D02*
X14975388Y-14817737D01*
X14975388Y-14817737D02*
X14975388Y-14741547D01*
X14975388Y-14741547D02*
X14984912Y-14722499D01*
X14984912Y-14722499D02*
X15003960Y-14712975D01*
X15003960Y-14712975D02*
X15042055Y-14712975D01*
X15042055Y-14712975D02*
X15061103Y-14722499D01*
X15061103Y-14722499D02*
X15070626Y-14741547D01*
X15070626Y-14741547D02*
X15070626Y-14760594D01*
X15070626Y-14760594D02*
X14975388Y-14779642D01*
X15146817Y-14836785D02*
X15165865Y-14846309D01*
X15165865Y-14846309D02*
X15203960Y-14846309D01*
X15203960Y-14846309D02*
X15223007Y-14836785D01*
X15223007Y-14836785D02*
X15232531Y-14817737D01*
X15232531Y-14817737D02*
X15232531Y-14808213D01*
X15232531Y-14808213D02*
X15223007Y-14789166D01*
X15223007Y-14789166D02*
X15203960Y-14779642D01*
X15203960Y-14779642D02*
X15175388Y-14779642D01*
X15175388Y-14779642D02*
X15156341Y-14770118D01*
X15156341Y-14770118D02*
X15146817Y-14751071D01*
X15146817Y-14751071D02*
X15146817Y-14741547D01*
X15146817Y-14741547D02*
X15156341Y-14722499D01*
X15156341Y-14722499D02*
X15175388Y-14712975D01*
X15175388Y-14712975D02*
X15203960Y-14712975D01*
X15203960Y-14712975D02*
X15223007Y-14722499D01*
X15299198Y-14922499D02*
X15308722Y-14912975D01*
X15308722Y-14912975D02*
X15327769Y-14884404D01*
X15327769Y-14884404D02*
X15337293Y-14865356D01*
X15337293Y-14865356D02*
X15346817Y-14836785D01*
X15346817Y-14836785D02*
X15356341Y-14789166D01*
X15356341Y-14789166D02*
X15356341Y-14751071D01*
X15356341Y-14751071D02*
X15346817Y-14703452D01*
X15346817Y-14703452D02*
X15337293Y-14674880D01*
X15337293Y-14674880D02*
X15327769Y-14655833D01*
X15327769Y-14655833D02*
X15308722Y-14627261D01*
X15308722Y-14627261D02*
X15299198Y-14617737D01*
X10324135Y-14945005D02*
X10524135Y-15145005D01*
X10524135Y-14945005D02*
X10324135Y-15145005D01*
X10494846Y-15115716D02*
X10494846Y-14974294D01*
X10353424Y-14974294D01*
X10353424Y-15115716D01*
X10494846Y-15115716D01*
X10765864Y-14936489D02*
X10889674Y-14936489D01*
X10889674Y-14936489D02*
X10823007Y-15012679D01*
X10823007Y-15012679D02*
X10851579Y-15012679D01*
X10851579Y-15012679D02*
X10870626Y-15022203D01*
X10870626Y-15022203D02*
X10880150Y-15031727D01*
X10880150Y-15031727D02*
X10889674Y-15050774D01*
X10889674Y-15050774D02*
X10889674Y-15098393D01*
X10889674Y-15098393D02*
X10880150Y-15117441D01*
X10880150Y-15117441D02*
X10870626Y-15126965D01*
X10870626Y-15126965D02*
X10851579Y-15136489D01*
X10851579Y-15136489D02*
X10794436Y-15136489D01*
X10794436Y-15136489D02*
X10775388Y-15126965D01*
X10775388Y-15126965D02*
X10765864Y-15117441D01*
X10975388Y-15117441D02*
X10984912Y-15126965D01*
X10984912Y-15126965D02*
X10975388Y-15136489D01*
X10975388Y-15136489D02*
X10965864Y-15126965D01*
X10965864Y-15126965D02*
X10975388Y-15117441D01*
X10975388Y-15117441D02*
X10975388Y-15136489D01*
X11061102Y-14955536D02*
X11070626Y-14946013D01*
X11070626Y-14946013D02*
X11089674Y-14936489D01*
X11089674Y-14936489D02*
X11137293Y-14936489D01*
X11137293Y-14936489D02*
X11156340Y-14946013D01*
X11156340Y-14946013D02*
X11165864Y-14955536D01*
X11165864Y-14955536D02*
X11175388Y-14974584D01*
X11175388Y-14974584D02*
X11175388Y-14993632D01*
X11175388Y-14993632D02*
X11165864Y-15022203D01*
X11165864Y-15022203D02*
X11051579Y-15136489D01*
X11051579Y-15136489D02*
X11175388Y-15136489D01*
X11299197Y-14936489D02*
X11318245Y-14936489D01*
X11318245Y-14936489D02*
X11337293Y-14946013D01*
X11337293Y-14946013D02*
X11346817Y-14955536D01*
X11346817Y-14955536D02*
X11356340Y-14974584D01*
X11356340Y-14974584D02*
X11365864Y-15012679D01*
X11365864Y-15012679D02*
X11365864Y-15060298D01*
X11365864Y-15060298D02*
X11356340Y-15098393D01*
X11356340Y-15098393D02*
X11346817Y-15117441D01*
X11346817Y-15117441D02*
X11337293Y-15126965D01*
X11337293Y-15126965D02*
X11318245Y-15136489D01*
X11318245Y-15136489D02*
X11299197Y-15136489D01*
X11299197Y-15136489D02*
X11280150Y-15126965D01*
X11280150Y-15126965D02*
X11270626Y-15117441D01*
X11270626Y-15117441D02*
X11261102Y-15098393D01*
X11261102Y-15098393D02*
X11251578Y-15060298D01*
X11251578Y-15060298D02*
X11251578Y-15012679D01*
X11251578Y-15012679D02*
X11261102Y-14974584D01*
X11261102Y-14974584D02*
X11270626Y-14955536D01*
X11270626Y-14955536D02*
X11280150Y-14946013D01*
X11280150Y-14946013D02*
X11299197Y-14936489D01*
X11489674Y-14936489D02*
X11508721Y-14936489D01*
X11508721Y-14936489D02*
X11527769Y-14946013D01*
X11527769Y-14946013D02*
X11537293Y-14955536D01*
X11537293Y-14955536D02*
X11546817Y-14974584D01*
X11546817Y-14974584D02*
X11556340Y-15012679D01*
X11556340Y-15012679D02*
X11556340Y-15060298D01*
X11556340Y-15060298D02*
X11546817Y-15098393D01*
X11546817Y-15098393D02*
X11537293Y-15117441D01*
X11537293Y-15117441D02*
X11527769Y-15126965D01*
X11527769Y-15126965D02*
X11508721Y-15136489D01*
X11508721Y-15136489D02*
X11489674Y-15136489D01*
X11489674Y-15136489D02*
X11470626Y-15126965D01*
X11470626Y-15126965D02*
X11461102Y-15117441D01*
X11461102Y-15117441D02*
X11451578Y-15098393D01*
X11451578Y-15098393D02*
X11442055Y-15060298D01*
X11442055Y-15060298D02*
X11442055Y-15012679D01*
X11442055Y-15012679D02*
X11451578Y-14974584D01*
X11451578Y-14974584D02*
X11461102Y-14955536D01*
X11461102Y-14955536D02*
X11470626Y-14946013D01*
X11470626Y-14946013D02*
X11489674Y-14936489D01*
X11642055Y-15136489D02*
X11642055Y-15003155D01*
X11642055Y-15022203D02*
X11651578Y-15012679D01*
X11651578Y-15012679D02*
X11670626Y-15003155D01*
X11670626Y-15003155D02*
X11699198Y-15003155D01*
X11699198Y-15003155D02*
X11718245Y-15012679D01*
X11718245Y-15012679D02*
X11727769Y-15031727D01*
X11727769Y-15031727D02*
X11727769Y-15136489D01*
X11727769Y-15031727D02*
X11737293Y-15012679D01*
X11737293Y-15012679D02*
X11756340Y-15003155D01*
X11756340Y-15003155D02*
X11784912Y-15003155D01*
X11784912Y-15003155D02*
X11803959Y-15012679D01*
X11803959Y-15012679D02*
X11813483Y-15031727D01*
X11813483Y-15031727D02*
X11813483Y-15136489D01*
X11908721Y-15136489D02*
X11908721Y-15003155D01*
X11908721Y-15022203D02*
X11918245Y-15012679D01*
X11918245Y-15012679D02*
X11937293Y-15003155D01*
X11937293Y-15003155D02*
X11965864Y-15003155D01*
X11965864Y-15003155D02*
X11984912Y-15012679D01*
X11984912Y-15012679D02*
X11994436Y-15031727D01*
X11994436Y-15031727D02*
X11994436Y-15136489D01*
X11994436Y-15031727D02*
X12003959Y-15012679D01*
X12003959Y-15012679D02*
X12023007Y-15003155D01*
X12023007Y-15003155D02*
X12051578Y-15003155D01*
X12051578Y-15003155D02*
X12070626Y-15012679D01*
X12070626Y-15012679D02*
X12080150Y-15031727D01*
X12080150Y-15031727D02*
X12080150Y-15136489D01*
X12470626Y-14926965D02*
X12299198Y-15184108D01*
X12727769Y-14936489D02*
X12746817Y-14936489D01*
X12746817Y-14936489D02*
X12765864Y-14946013D01*
X12765864Y-14946013D02*
X12775388Y-14955536D01*
X12775388Y-14955536D02*
X12784912Y-14974584D01*
X12784912Y-14974584D02*
X12794436Y-15012679D01*
X12794436Y-15012679D02*
X12794436Y-15060298D01*
X12794436Y-15060298D02*
X12784912Y-15098393D01*
X12784912Y-15098393D02*
X12775388Y-15117441D01*
X12775388Y-15117441D02*
X12765864Y-15126965D01*
X12765864Y-15126965D02*
X12746817Y-15136489D01*
X12746817Y-15136489D02*
X12727769Y-15136489D01*
X12727769Y-15136489D02*
X12708721Y-15126965D01*
X12708721Y-15126965D02*
X12699198Y-15117441D01*
X12699198Y-15117441D02*
X12689674Y-15098393D01*
X12689674Y-15098393D02*
X12680150Y-15060298D01*
X12680150Y-15060298D02*
X12680150Y-15012679D01*
X12680150Y-15012679D02*
X12689674Y-14974584D01*
X12689674Y-14974584D02*
X12699198Y-14955536D01*
X12699198Y-14955536D02*
X12708721Y-14946013D01*
X12708721Y-14946013D02*
X12727769Y-14936489D01*
X12880150Y-15117441D02*
X12889674Y-15126965D01*
X12889674Y-15126965D02*
X12880150Y-15136489D01*
X12880150Y-15136489D02*
X12870626Y-15126965D01*
X12870626Y-15126965D02*
X12880150Y-15117441D01*
X12880150Y-15117441D02*
X12880150Y-15136489D01*
X13080150Y-15136489D02*
X12965864Y-15136489D01*
X13023007Y-15136489D02*
X13023007Y-14936489D01*
X13023007Y-14936489D02*
X13003960Y-14965060D01*
X13003960Y-14965060D02*
X12984912Y-14984108D01*
X12984912Y-14984108D02*
X12965864Y-14993632D01*
X13156341Y-14955536D02*
X13165864Y-14946013D01*
X13165864Y-14946013D02*
X13184912Y-14936489D01*
X13184912Y-14936489D02*
X13232531Y-14936489D01*
X13232531Y-14936489D02*
X13251579Y-14946013D01*
X13251579Y-14946013D02*
X13261102Y-14955536D01*
X13261102Y-14955536D02*
X13270626Y-14974584D01*
X13270626Y-14974584D02*
X13270626Y-14993632D01*
X13270626Y-14993632D02*
X13261102Y-15022203D01*
X13261102Y-15022203D02*
X13146817Y-15136489D01*
X13146817Y-15136489D02*
X13270626Y-15136489D01*
X13442055Y-14936489D02*
X13403960Y-14936489D01*
X13403960Y-14936489D02*
X13384912Y-14946013D01*
X13384912Y-14946013D02*
X13375388Y-14955536D01*
X13375388Y-14955536D02*
X13356341Y-14984108D01*
X13356341Y-14984108D02*
X13346817Y-15022203D01*
X13346817Y-15022203D02*
X13346817Y-15098393D01*
X13346817Y-15098393D02*
X13356341Y-15117441D01*
X13356341Y-15117441D02*
X13365864Y-15126965D01*
X13365864Y-15126965D02*
X13384912Y-15136489D01*
X13384912Y-15136489D02*
X13423007Y-15136489D01*
X13423007Y-15136489D02*
X13442055Y-15126965D01*
X13442055Y-15126965D02*
X13451579Y-15117441D01*
X13451579Y-15117441D02*
X13461102Y-15098393D01*
X13461102Y-15098393D02*
X13461102Y-15050774D01*
X13461102Y-15050774D02*
X13451579Y-15031727D01*
X13451579Y-15031727D02*
X13442055Y-15022203D01*
X13442055Y-15022203D02*
X13423007Y-15012679D01*
X13423007Y-15012679D02*
X13384912Y-15012679D01*
X13384912Y-15012679D02*
X13365864Y-15022203D01*
X13365864Y-15022203D02*
X13356341Y-15031727D01*
X13356341Y-15031727D02*
X13346817Y-15050774D01*
X13584912Y-14936489D02*
X13603960Y-14936489D01*
X13603960Y-14936489D02*
X13623007Y-14946013D01*
X13623007Y-14946013D02*
X13632531Y-14955536D01*
X13632531Y-14955536D02*
X13642055Y-14974584D01*
X13642055Y-14974584D02*
X13651579Y-15012679D01*
X13651579Y-15012679D02*
X13651579Y-15060298D01*
X13651579Y-15060298D02*
X13642055Y-15098393D01*
X13642055Y-15098393D02*
X13632531Y-15117441D01*
X13632531Y-15117441D02*
X13623007Y-15126965D01*
X13623007Y-15126965D02*
X13603960Y-15136489D01*
X13603960Y-15136489D02*
X13584912Y-15136489D01*
X13584912Y-15136489D02*
X13565864Y-15126965D01*
X13565864Y-15126965D02*
X13556341Y-15117441D01*
X13556341Y-15117441D02*
X13546817Y-15098393D01*
X13546817Y-15098393D02*
X13537293Y-15060298D01*
X13537293Y-15060298D02*
X13537293Y-15012679D01*
X13537293Y-15012679D02*
X13546817Y-14974584D01*
X13546817Y-14974584D02*
X13556341Y-14955536D01*
X13556341Y-14955536D02*
X13565864Y-14946013D01*
X13565864Y-14946013D02*
X13584912Y-14936489D01*
X13727769Y-14936489D02*
X13727769Y-14974584D01*
X13803960Y-14936489D02*
X13803960Y-14974584D01*
X14099198Y-15212679D02*
X14089674Y-15203155D01*
X14089674Y-15203155D02*
X14070626Y-15174584D01*
X14070626Y-15174584D02*
X14061103Y-15155536D01*
X14061103Y-15155536D02*
X14051579Y-15126965D01*
X14051579Y-15126965D02*
X14042055Y-15079346D01*
X14042055Y-15079346D02*
X14042055Y-15041251D01*
X14042055Y-15041251D02*
X14051579Y-14993632D01*
X14051579Y-14993632D02*
X14061103Y-14965060D01*
X14061103Y-14965060D02*
X14070626Y-14946013D01*
X14070626Y-14946013D02*
X14089674Y-14917441D01*
X14089674Y-14917441D02*
X14099198Y-14907917D01*
X14261103Y-15003155D02*
X14261103Y-15136489D01*
X14213483Y-14926965D02*
X14165864Y-15069822D01*
X14165864Y-15069822D02*
X14289674Y-15069822D01*
X14518245Y-15136489D02*
X14518245Y-14936489D01*
X14603960Y-15136489D02*
X14603960Y-15031727D01*
X14603960Y-15031727D02*
X14594436Y-15012679D01*
X14594436Y-15012679D02*
X14575388Y-15003155D01*
X14575388Y-15003155D02*
X14546817Y-15003155D01*
X14546817Y-15003155D02*
X14527769Y-15012679D01*
X14527769Y-15012679D02*
X14518245Y-15022203D01*
X14727769Y-15136489D02*
X14708722Y-15126965D01*
X14708722Y-15126965D02*
X14699198Y-15117441D01*
X14699198Y-15117441D02*
X14689674Y-15098393D01*
X14689674Y-15098393D02*
X14689674Y-15041251D01*
X14689674Y-15041251D02*
X14699198Y-15022203D01*
X14699198Y-15022203D02*
X14708722Y-15012679D01*
X14708722Y-15012679D02*
X14727769Y-15003155D01*
X14727769Y-15003155D02*
X14756341Y-15003155D01*
X14756341Y-15003155D02*
X14775388Y-15012679D01*
X14775388Y-15012679D02*
X14784912Y-15022203D01*
X14784912Y-15022203D02*
X14794436Y-15041251D01*
X14794436Y-15041251D02*
X14794436Y-15098393D01*
X14794436Y-15098393D02*
X14784912Y-15117441D01*
X14784912Y-15117441D02*
X14775388Y-15126965D01*
X14775388Y-15126965D02*
X14756341Y-15136489D01*
X14756341Y-15136489D02*
X14727769Y-15136489D01*
X14908722Y-15136489D02*
X14889674Y-15126965D01*
X14889674Y-15126965D02*
X14880150Y-15107917D01*
X14880150Y-15107917D02*
X14880150Y-14936489D01*
X15061103Y-15126965D02*
X15042055Y-15136489D01*
X15042055Y-15136489D02*
X15003960Y-15136489D01*
X15003960Y-15136489D02*
X14984912Y-15126965D01*
X14984912Y-15126965D02*
X14975388Y-15107917D01*
X14975388Y-15107917D02*
X14975388Y-15031727D01*
X14975388Y-15031727D02*
X14984912Y-15012679D01*
X14984912Y-15012679D02*
X15003960Y-15003155D01*
X15003960Y-15003155D02*
X15042055Y-15003155D01*
X15042055Y-15003155D02*
X15061103Y-15012679D01*
X15061103Y-15012679D02*
X15070626Y-15031727D01*
X15070626Y-15031727D02*
X15070626Y-15050774D01*
X15070626Y-15050774D02*
X14975388Y-15069822D01*
X15146817Y-15126965D02*
X15165865Y-15136489D01*
X15165865Y-15136489D02*
X15203960Y-15136489D01*
X15203960Y-15136489D02*
X15223007Y-15126965D01*
X15223007Y-15126965D02*
X15232531Y-15107917D01*
X15232531Y-15107917D02*
X15232531Y-15098393D01*
X15232531Y-15098393D02*
X15223007Y-15079346D01*
X15223007Y-15079346D02*
X15203960Y-15069822D01*
X15203960Y-15069822D02*
X15175388Y-15069822D01*
X15175388Y-15069822D02*
X15156341Y-15060298D01*
X15156341Y-15060298D02*
X15146817Y-15041251D01*
X15146817Y-15041251D02*
X15146817Y-15031727D01*
X15146817Y-15031727D02*
X15156341Y-15012679D01*
X15156341Y-15012679D02*
X15175388Y-15003155D01*
X15175388Y-15003155D02*
X15203960Y-15003155D01*
X15203960Y-15003155D02*
X15223007Y-15012679D01*
X15299198Y-15212679D02*
X15308722Y-15203155D01*
X15308722Y-15203155D02*
X15327769Y-15174584D01*
X15327769Y-15174584D02*
X15337293Y-15155536D01*
X15337293Y-15155536D02*
X15346817Y-15126965D01*
X15346817Y-15126965D02*
X15356341Y-15079346D01*
X15356341Y-15079346D02*
X15356341Y-15041251D01*
X15356341Y-15041251D02*
X15346817Y-14993632D01*
X15346817Y-14993632D02*
X15337293Y-14965060D01*
X15337293Y-14965060D02*
X15327769Y-14946013D01*
X15327769Y-14946013D02*
X15308722Y-14917441D01*
X15308722Y-14917441D02*
X15299198Y-14907917D01*
M02*
